<svg width="48" height="48" viewBox="0 0 48 48" fill="none" xmlns="http://www.w3.org/2000/svg">
<path fill-rule="evenodd" clip-rule="evenodd" d="M19.7286 0.0264088C19.8379 -0.0086884 19.9552 -0.00880504 20.0645 0.0260737L37.435 5.56855C37.6664 5.64238 37.8237 5.85929 37.8237 6.10443V7.63909C37.8237 7.94945 37.5747 8.20102 37.2676 8.20102H2.86922C2.56213 8.20102 2.31318 7.94945 2.31318 7.63909V6.03252C2.31318 5.78777 2.46995 5.57115 2.70077 5.49699L19.7286 0.0264088ZM27.5613 26.3575H47.0221C47.5619 26.3575 47.9991 26.8 47.9991 27.3454V37.1032C47.9991 37.364 47.8974 37.6142 47.7154 37.7993L37.9822 47.7082C37.5999 48.0972 36.9774 48.0972 36.5953 47.708L26.8678 37.7992C26.6862 37.6141 26.5843 37.364 26.5843 37.1033V27.3454C26.5843 26.8 27.0215 26.3575 27.5613 26.3575ZM30.2828 29.7486C30.138 29.7486 30.0203 29.8673 30.0203 30.0142V35.8188C30.0203 35.8876 30.0466 35.9536 30.0937 36.003L37.1035 43.3678C37.2061 43.4756 37.3765 43.4764 37.48 43.3694L44.736 35.8762C44.7841 35.8266 44.811 35.7598 44.811 35.6903V30.0142C44.811 29.8673 44.6933 29.7486 44.5485 29.7486H30.2828ZM34.6643 15.107C34.6643 14.7966 34.9133 14.545 35.2203 14.545H37.3193C37.6264 14.545 37.8754 14.2934 37.8754 13.983V11.0712C37.8754 10.7608 37.6264 10.5092 37.3193 10.5092L2.88655 10.5092C2.57945 10.5092 2.3305 10.7608 2.3305 11.0712V13.983C2.3305 14.2934 2.57945 14.545 2.88655 14.545H5.15041C5.45751 14.545 5.70644 14.7966 5.70644 15.1069V30.1262C5.70644 30.4366 5.45751 30.6882 5.15041 30.6882H2.88655C2.57945 30.6882 2.3305 30.9397 2.3305 31.2501V34.162C2.3305 34.4724 2.57945 34.724 2.88655 34.724H24.0837V27.3456C24.0837 25.7707 25.109 24.4359 26.5235 23.9893V15.107C26.5235 14.7966 26.7725 14.545 27.0796 14.545H29.3162C29.6233 14.545 29.8723 14.7966 29.8723 15.107V23.83L34.6643 23.83V15.107ZM21.7315 15.107C21.7315 14.7966 21.4825 14.545 21.1755 14.545H18.9388C18.6317 14.545 18.3828 14.7966 18.3828 15.107V30.1262C18.3828 30.4366 18.6317 30.6882 18.9388 30.6882H21.1755C21.4825 30.6882 21.7315 30.4366 21.7315 30.1262V15.107ZM13.5907 15.107C13.5907 14.7966 13.3418 14.545 13.0347 14.545H11.0545C10.7475 14.545 10.4985 14.7966 10.4985 15.107V30.1262C10.4985 30.4366 10.7475 30.6882 11.0545 30.6882H13.0347C13.3418 30.6882 13.5907 30.4366 13.5907 30.1262V15.107ZM25.0931 39.5799C24.4603 38.9353 24.0995 38.069 24.0845 37.163H0.556041C0.248948 37.163 0 37.4146 0 37.7249V41.444C0 41.7543 0.248948 42.0059 0.556041 42.0059H27.4748L25.0931 39.5799Z" fill="#C3A962"/>
</svg>
