<svg width="55" height="44" viewBox="0 0 55 44" fill="none" xmlns="http://www.w3.org/2000/svg">
<path d="M17.3669 15.4129C21.6302 15.4129 25.0863 11.9626 25.0863 7.70646C25.0863 3.4503 21.6302 0 17.3669 0C13.1036 0 9.64746 3.4503 9.64746 7.70646C9.64746 11.9626 13.1036 15.4129 17.3669 15.4129Z" fill="#C3A962"/>
<path d="M40.6287 14.8889C44.1551 14.8889 47.0151 12.0354 47.0151 8.51537C47.0151 4.99537 44.1551 2.14185 40.6287 2.14185C37.1022 2.14185 34.2422 4.99537 34.2422 8.51537C34.2422 12.0354 37.1022 14.8889 40.6287 14.8889Z" fill="#C3A962"/>
<path d="M23.1 18.3182H11.6341C5.20882 18.3182 0 23.5206 0 29.9329V44H34.7341V29.9329C34.7341 23.5206 29.5253 18.3182 23.1 18.3182Z" fill="#C3A962"/>
<path d="M44.9384 17.2959H36.3196C34.3266 17.2959 32.4696 17.8847 30.9102 18.8812C32.0166 19.6641 33.0002 20.6088 33.8284 21.6765C35.6013 23.9671 36.669 26.8271 36.669 29.9329V34.6888V38.5388H55.0001V27.3318C55.0001 21.793 50.4966 17.2959 44.9384 17.2959Z" fill="#C3A962"/>
</svg>
