<svg width="46" height="46" viewBox="0 0 46 46" fill="none" xmlns="http://www.w3.org/2000/svg">
<path d="M44.505 19.1229C44.1469 18.614 43.8544 18.062 43.6343 17.48C43.547 16.8313 43.547 16.1737 43.6343 15.525C43.7964 14.1414 43.5449 12.7407 42.9114 11.5C42.1332 10.3452 41.0297 9.44755 39.7407 8.92071C39.1504 8.6554 38.598 8.31289 38.0979 7.90214C37.6871 7.40202 37.3446 6.84958 37.0793 6.25929C36.5493 4.96778 35.6526 3.85979 34.5 3.07214C33.2516 2.48299 31.8598 2.26624 30.4914 2.44786C29.839 2.5084 29.1814 2.48077 28.5364 2.36571C27.9544 2.14561 27.4025 1.85307 26.8936 1.495C25.7723 0.622353 24.4172 0.10206 23 0C21.5885 0.105244 20.2396 0.625368 19.1229 1.495C18.614 1.85307 18.062 2.14561 17.48 2.36571C16.8349 2.48038 16.1774 2.50801 15.525 2.44786C14.1512 2.26301 12.7533 2.47984 11.5 3.07214C10.3474 3.85979 9.45072 4.96778 8.92071 6.25929C8.6554 6.84958 8.31289 7.40202 7.90214 7.90214C7.40202 8.31289 6.84958 8.6554 6.25929 8.92071C4.9703 9.44755 3.86676 10.3452 3.08857 11.5C2.48648 12.7444 2.26367 14.1385 2.44786 15.5086C2.50801 16.161 2.48038 16.8185 2.36571 17.4636C2.14561 18.0456 1.85307 18.5975 1.495 19.1064C0.622353 20.2278 0.10206 21.5828 0 23C0.105244 24.4115 0.625368 25.7604 1.495 26.8771C1.85307 27.386 2.14561 27.938 2.36571 28.52C2.48038 29.1651 2.50801 29.8226 2.44786 30.475C2.26037 31.8505 2.48326 33.2507 3.08857 34.5C3.86676 35.6548 4.9703 36.5525 6.25929 37.0793C6.84958 37.3446 7.40202 37.6871 7.90214 38.0979C8.31289 38.598 8.6554 39.1504 8.92071 39.7407C9.45072 41.0322 10.3474 42.1402 11.5 42.9279C12.7484 43.517 14.1402 43.7338 15.5086 43.5521C16.1573 43.4644 16.8149 43.4644 17.4636 43.5521C18.0456 43.7722 18.5975 44.0648 19.1064 44.4229C20.218 45.325 21.5739 45.8743 23 46C24.4115 45.8948 25.7604 45.3746 26.8771 44.505C27.386 44.1469 27.938 43.8544 28.52 43.6343C29.1687 43.547 29.8263 43.547 30.475 43.6343C31.8568 43.7937 33.2551 43.5483 34.5 42.9279C35.6526 42.1402 36.5493 41.0322 37.0793 39.7407C37.3446 39.1504 37.6871 38.598 38.0979 38.0979C38.598 37.6871 39.1504 37.3446 39.7407 37.0793C41.0297 36.5525 42.1332 35.6548 42.9114 34.5C43.5135 33.2556 43.7363 31.8615 43.5521 30.4914C43.4648 29.8427 43.4648 29.1852 43.5521 28.5364C43.7722 27.9544 44.0648 27.4025 44.4229 26.8936C45.325 25.782 45.8743 24.4261 46 23C45.8948 21.5885 45.3746 20.2396 44.505 19.1229ZM23 37.7857C20.0757 37.7857 17.217 36.9185 14.7855 35.2939C12.354 33.6692 10.4589 31.36 9.33978 28.6582C8.22069 25.9565 7.92788 22.9836 8.49839 20.1155C9.0689 17.2473 10.4771 14.6127 12.5449 12.5449C14.6127 10.4771 17.2473 9.0689 20.1155 8.49839C22.9836 7.92788 25.9565 8.22069 28.6582 9.33978C31.36 10.4589 33.6692 12.354 35.2939 14.7855C36.9185 17.217 37.7857 20.0757 37.7857 23C37.7857 26.9214 36.2279 30.6822 33.4551 33.4551C30.6822 36.2279 26.9214 37.7857 23 37.7857ZM32.3314 19.9279C32.4186 20.2132 32.4264 20.5169 32.3541 20.8063C32.2817 21.0957 32.1319 21.36 31.9207 21.5707L28.635 24.7579L29.4071 29.2593C29.4658 29.5673 29.4351 29.8856 29.3186 30.1767C29.2022 30.4679 29.0049 30.7196 28.75 30.9021C28.4681 31.1062 28.1287 31.2155 27.7807 31.2143C27.518 31.2153 27.2588 31.1534 27.025 31.0336L23 28.8979L18.9586 31.0336C18.6974 31.1583 18.408 31.2118 18.1195 31.1888C17.831 31.1657 17.5537 31.0668 17.3157 30.9021C17.0608 30.7196 16.8635 30.4679 16.7471 30.1767C16.6306 29.8856 16.5999 29.5673 16.6586 29.2593L17.4307 24.7579L14.145 21.5707C13.9283 21.3568 13.7753 21.087 13.7031 20.7912C13.6309 20.4955 13.6423 20.1855 13.736 19.8958C13.8297 19.6061 14.0021 19.3482 14.2338 19.1508C14.4656 18.9534 14.7477 18.8243 15.0486 18.7779L19.5664 18.1207L21.5871 14.03C21.7217 13.7522 21.9317 13.518 22.1932 13.3541C22.4547 13.1902 22.7571 13.1032 23.0657 13.1032C23.3743 13.1032 23.6767 13.1902 23.9382 13.3541C24.1997 13.518 24.4098 13.7522 24.5443 14.03L26.565 18.1207L31.0829 18.7779C31.376 18.8377 31.6471 18.9764 31.8672 19.1791C32.0872 19.3818 32.2477 19.6407 32.3314 19.9279Z" fill="#C3A962"/>
</svg>
