<svg width="48" height="48" viewBox="0 0 48 48" fill="none" xmlns="http://www.w3.org/2000/svg">
<path fill-rule="evenodd" clip-rule="evenodd" d="M24.4072 12.1936L29.435 14.6953L28.475 9.39739L32.5427 5.64446L26.9211 4.87158L24.4072 0.0512695L21.8933 4.87158L16.2716 5.64446L20.3394 9.39739L19.3794 14.6953L24.4072 12.1936ZM21.9659 19.9835C21.9659 18.4109 23.2407 17.136 24.8133 17.136C26.3859 17.136 27.6607 18.4109 27.6607 19.9835V27.7122H34.1692C35.5172 27.7122 36.6098 28.8049 36.6098 30.1529C36.6098 31.501 35.5172 32.5936 34.1692 32.5936C35.5172 32.5936 36.6098 33.6862 36.6098 35.0342C36.6098 36.3823 35.5172 37.4749 34.1692 37.4749C35.5172 37.4749 36.6098 38.5675 36.6098 39.9156C36.6098 41.2636 35.5172 42.3562 34.1692 42.3562C35.5172 42.3562 36.6098 43.4488 36.6098 44.7969C36.6098 46.145 35.5172 47.2376 34.1692 47.2376H14.6439V27.7122H17.8981L21.9659 23.6445V19.9835ZM0 27.7122H5.69488V47.2376H0V27.7122ZM40.6781 18.1669L36.1531 20.3903L37.0171 15.6807L33.3561 12.3451L38.4156 11.6585L40.6781 7.37346L42.9406 11.6585L48.0001 12.3451L44.3391 15.6807L45.2031 20.3903L40.6781 18.1669ZM3.61089 20.3903L8.13588 18.1669L12.6609 20.3903L11.7969 15.6807L15.4579 12.3451L10.3984 11.6585L8.13588 7.37346L5.87339 11.6585L0.813887 12.3451L4.47488 15.6807L3.61089 20.3903ZM7.32193 27.7122H13.0168V47.2376H7.32193V27.7122ZM8.94904 44.7969H10.5762V43.1698H8.94904V44.7969ZM8.94904 41.5427H10.5762V39.9156H8.94904V41.5427ZM8.94904 38.2885H10.5762V36.6613H8.94904V38.2885Z" fill="#C3A962"/>
</svg>
