<svg width="46" height="46" viewBox="0 0 46 46" fill="none" xmlns="http://www.w3.org/2000/svg">
<path d="M2.27609 11.4111C1.75002 9.8456 1.8763 8.2547 2.63201 6.93196C3.37066 5.63994 4.63343 4.74722 6.18776 4.41959C6.62065 4.32864 7.06182 4.28289 7.50416 4.28307C7.87468 4.28315 8.24456 4.31413 8.60993 4.37571V2.40452C7.66804 2.28069 6.71199 2.31679 5.78211 2.51129C3.67538 2.95594 1.95431 4.18215 0.935313 5.96416C-0.100743 7.7769 -0.283577 9.9319 0.424355 12.0328C1.11035 14.0727 2.55888 15.8167 4.50276 16.9439C5.92155 17.7664 7.48514 18.1911 9.03703 18.1911C9.12918 18.1911 9.22084 18.1911 9.31299 18.1862C9.10706 17.5481 8.94578 16.8965 8.83031 16.236C5.97274 16.1482 3.21708 14.2078 2.27609 11.4111Z" fill="#C3A962"/>
<path d="M45.0652 5.96416C44.0462 4.18214 42.3251 2.95594 40.2184 2.51128C39.2885 2.31679 38.3325 2.28069 37.3906 2.40451V4.37521C38.1945 4.23884 39.0168 4.25389 39.8152 4.41958C41.3695 4.74722 42.6323 5.63847 43.3709 6.93196C44.1266 8.2547 44.2534 9.84559 43.7268 11.4111C42.7859 14.2082 40.0297 16.1487 37.1702 16.2379C37.0547 16.8984 36.8934 17.5501 36.6875 18.1882C36.7792 18.1916 36.8713 18.193 36.9635 18.193C38.5139 18.193 40.078 17.7679 41.4977 16.9459C43.4416 15.8186 44.8901 14.0747 45.5761 12.0347C46.2841 9.93189 46.1012 7.77689 45.0652 5.96416Z" fill="#C3A962"/>
<path d="M9.3125 2.58746V13.6872C9.31202 14.5279 9.38872 15.367 9.54165 16.1937C9.66069 16.8387 9.82641 17.4742 10.0375 18.0952C11.6698 22.8971 15.8969 26.5016 21.0494 27.2363V38.6062H17.0471V41.2273H13.3344V45.1277H32.6655V41.2273H28.9542V38.6062H24.9499V27.2363C30.1024 26.5016 34.33 22.8971 35.9623 18.0937C36.1734 17.4727 36.3391 16.8372 36.4582 16.1922C36.6111 15.3655 36.6878 14.5265 36.6873 13.6857V0H9.3125V2.58746ZM21.3239 9.59072L23.1279 4.03843L24.9318 9.5912H30.7708L29.7674 10.3201L26.0474 13.0226L27.8513 18.5754L23.1279 15.1435L18.4044 18.5749L20.2084 13.0221L16.2104 10.1178L15.485 9.59072H21.3239Z" fill="#C3A962"/>
</svg>
