<svg width="44" height="59" viewBox="0 0 44 59" fill="none" xmlns="http://www.w3.org/2000/svg">
<path d="M14.5275 52.644L14.591 43.6057C14.591 43.4145 14.5604 43.241 14.4946 43.0841C14.4275 42.9271 14.3311 42.7796 14.1947 42.6498L10.0186 38.5218C9.76576 38.274 9.44235 38.1477 9.11541 38.1407C8.78847 38.1336 8.45919 38.2516 8.19928 38.4923L8.08874 38.5926C7.94526 38.7236 7.83824 38.8699 7.76886 39.0245C7.69829 39.185 7.66184 39.3585 7.66184 39.5497C7.65831 39.7432 7.69241 39.9214 7.75827 40.0843C7.82531 40.2377 7.92527 40.3852 8.05816 40.5162L11.1511 43.503L10.1844 44.5096L3.89736 38.4416C3.62453 38.1772 3.41754 37.8763 3.2776 37.5447C3.13765 37.2131 3.06474 36.8555 3.06474 36.4779V27.8384C3.06474 27.4773 2.91773 27.1457 2.67782 26.905C2.43791 26.6642 2.10745 26.5132 1.74758 26.5132V26.5167H1.32068C0.957289 26.5167 0.626825 26.6642 0.390442 26.905C0.150532 27.1457 0 27.4773 0 27.8384V43.0841C0 43.2552 0.0235209 43.4015 0.0705621 43.536C0.121131 43.6694 0.197573 43.8004 0.301064 43.9278L5.26156 49.9782C5.46854 50.2319 5.62495 50.5033 5.72844 50.7948C5.83193 51.0827 5.88133 51.3896 5.87898 51.7212L5.87545 52.644H14.5275ZM4.82055 57.2169C4.43716 57.2169 4.12434 56.9053 4.12434 56.5183C4.12434 56.1335 4.43716 55.8196 4.82055 55.8196H5.39092C5.77431 55.8196 6.08478 56.1335 6.08478 56.5183C6.08478 56.9065 5.77431 57.2169 5.39092 57.2169H4.82055ZM29.4113 43.6068L29.4748 52.6452H38.1281L38.1246 51.7224C38.121 51.3907 38.1716 51.0839 38.2751 50.796C38.3786 50.5045 38.5315 50.2343 38.742 49.9794L43.7025 43.929C43.806 43.8016 43.8824 43.6718 43.9294 43.5372C43.9765 43.4039 44 43.2564 44 43.0852V27.8384C44 27.4773 43.853 27.1457 43.6131 26.905C43.3732 26.6642 43.0462 26.5167 42.6828 26.5167H42.2559V26.5132C41.8961 26.5132 41.5656 26.6642 41.3257 26.905C41.0858 27.1457 40.9388 27.4773 40.9388 27.8384V36.4779C40.9388 36.8555 40.8659 37.2143 40.7259 37.5447C40.586 37.8763 40.379 38.1772 40.1026 38.4416L33.8191 44.5096L32.8524 43.503L35.9395 40.5233C36.0759 40.3899 36.1794 40.2424 36.2464 40.0854C36.3135 39.9214 36.3464 39.7444 36.3429 39.5509C36.3429 39.3597 36.3064 39.1862 36.2323 39.0257C36.1653 38.8723 36.0594 38.7248 35.916 38.5938L35.8054 38.4935C35.5455 38.2528 35.2151 38.1359 34.8893 38.1418C34.5635 38.1477 34.2389 38.2752 33.9861 38.523L29.8065 42.651C29.6736 42.782 29.5736 42.9283 29.5101 43.0852C29.4407 43.2422 29.4113 43.4157 29.4113 43.6068ZM26.6242 54.5971V58.4442H26.6277C26.6277 58.5952 26.6912 58.7321 26.7876 58.8324C26.8876 58.9327 27.0275 58.9965 27.1781 58.9965H40.5519C40.7024 58.9965 40.8388 58.9327 40.9388 58.8324C41.0388 58.7321 41.1023 58.5952 41.1023 58.4442V54.5971C41.1023 54.446 41.0388 54.3091 40.9388 54.2088C40.8388 54.1085 40.7024 54.0448 40.5519 54.0448H38.829H28.7822H27.1792V54.0412C27.0287 54.0412 26.8923 54.105 26.7888 54.2088C26.6924 54.3091 26.6289 54.446 26.6289 54.5971H26.6242ZM39.1806 55.8185C39.564 55.8185 39.8768 56.13 39.8768 56.5171C39.8768 56.9053 39.564 57.2192 39.1806 57.2192H38.6103C38.2233 57.2192 37.914 56.9053 37.914 56.5171C37.914 56.1288 38.2245 55.8185 38.6103 55.8185H39.1806ZM31.7869 35.974C34.1108 34.86 35.5467 33.0238 35.5467 30.1302C35.5467 25.123 31.1201 19.6604 26.9734 14.5435C26.4172 13.8578 25.8668 13.1793 25.3764 12.5633H18.6401C14.11 18.4366 8.45331 25.7792 8.45331 30.1302C8.45331 33.7153 9.87277 35.5586 12.1696 36.4991C14.6298 37.5058 18.1297 37.5695 22 37.5695C25.8503 37.5695 29.3208 37.1576 31.7869 35.974ZM28.1942 9.68267H15.807C15.62 9.68267 15.4507 9.75938 15.3272 9.88329C15.2037 10.0072 15.1273 10.1771 15.1273 10.3648C15.1273 10.5524 15.2037 10.7223 15.3272 10.8462C15.4507 10.9702 15.62 11.0469 15.807 11.0469H18.2732H25.7398H28.193C28.38 11.0469 28.5493 10.9702 28.6728 10.8462C28.7963 10.7223 28.8727 10.5524 28.8727 10.3648C28.8727 10.1771 28.7963 10.0072 28.6728 9.88329C28.5493 9.75938 28.3811 9.68267 28.1942 9.68267ZM18.6013 8.16389H25.4011L29.7312 1.22376L27.2439 0L22.234 1.63561C22.087 1.68281 21.9271 1.68635 21.7707 1.63561L16.6973 0L14.2676 1.21668L18.6013 8.16389ZM16.7972 31.8932C18.1309 33.2315 19.9678 34.0575 22 34.0575C24.0298 34.0575 25.8703 33.2315 27.2039 31.8932C28.534 30.5585 29.3572 28.7117 29.3572 26.6725C29.3572 24.6356 28.534 22.7888 27.2039 21.4541C25.8703 20.1159 24.031 19.2898 22 19.2898C19.9666 19.2898 18.1297 20.1159 16.7972 21.4541C15.4672 22.7888 14.6439 24.6356 14.6439 26.6725C14.6439 28.7117 15.4672 30.5585 16.7972 31.8932ZM22.0012 35.5716C19.5515 35.5716 17.3347 34.5744 15.7318 32.9659C14.1253 31.3539 13.1316 29.1294 13.1316 26.6713C13.1316 24.2167 14.1253 21.9922 15.7318 20.379C17.3347 18.7706 19.5515 17.7734 22.0012 17.7734C24.4508 17.7734 26.6677 18.7706 28.2718 20.379C29.8782 21.9911 30.8684 24.2155 30.8684 26.6713C30.8684 29.1294 29.8782 31.3539 28.2718 32.9659C26.6677 34.5756 24.4508 35.5716 22.0012 35.5716ZM22.7574 31.846V32.6827C22.7574 33.104 22.4175 33.4415 22.0012 33.4415C21.5849 33.4415 21.245 33.104 21.245 32.6827V31.846C20.7217 31.7091 20.2512 31.4318 19.8784 31.0601C19.3351 30.5149 18.9988 29.7584 18.9988 28.9288C18.9988 28.5075 19.3386 28.17 19.755 28.17C20.1713 28.17 20.5088 28.5075 20.5088 28.9288C20.5088 29.3407 20.6758 29.7148 20.9451 29.9862C21.2156 30.2576 21.5884 30.424 22.0024 30.424C22.4151 30.424 22.7856 30.2564 23.0561 29.9862C23.3266 29.7148 23.4924 29.3407 23.4924 28.9288C23.4924 27.8077 22.6621 27.6071 21.8295 27.41C20.4124 27.0725 18.9999 26.7339 18.9999 24.4162C18.9999 23.5865 19.3363 22.8301 19.8796 22.2849C20.2524 21.9132 20.7228 21.6358 21.2462 21.499V20.6599C21.2462 20.2422 21.586 19.9035 22.0024 19.9035C22.4187 19.9035 22.7585 20.241 22.7585 20.6599V21.499C23.2819 21.6358 23.7523 21.9132 24.1251 22.2849C24.6684 22.8301 25.0048 23.5865 25.0048 24.4162C25.0048 24.8339 24.6649 25.175 24.2486 25.175C23.8323 25.175 23.4924 24.8339 23.4924 24.4162C23.4924 24.0043 23.3254 23.6302 23.0561 23.3588C22.7856 23.0874 22.4163 22.921 22.0024 22.921C21.5896 22.921 21.2156 23.0885 20.9451 23.3588C20.6746 23.6302 20.5088 24.0043 20.5088 24.4162C20.5088 25.5372 21.3426 25.7343 22.1752 25.9349C23.5888 26.2724 25.0048 26.6111 25.0048 28.9288C25.0048 29.7584 24.6684 30.5137 24.1251 31.0601C23.7511 31.4306 23.2807 31.7091 22.7574 31.846ZM17.3747 58.4442V54.5971C17.3747 54.446 17.3112 54.3091 17.2112 54.2088C17.1112 54.1085 16.9748 54.0448 16.8243 54.0448H3.45047C3.29994 54.0448 3.16352 54.1085 3.06356 54.2088C2.96007 54.3091 2.89656 54.446 2.89656 54.5971H2.90009V58.4442C2.90009 58.5952 2.9636 58.7321 3.06356 58.8324C3.16352 58.9327 3.29994 58.9965 3.45047 58.9965V59H16.8243V58.9965C16.9748 58.9965 17.1112 58.9327 17.2112 58.8324C17.3112 58.7321 17.3747 58.5952 17.3747 58.4442Z" fill="#C3A962"/>
</svg>
