<svg xmlns="http://www.w3.org/2000/svg" viewBox="0 0 432.24 432.24"><defs><style>.cls-1{fill:#fff;}.cls-2{fill:none;stroke:#965715;stroke-linecap:round;stroke-miterlimit:10;stroke-width:3px;stroke-dasharray:10.06 10.06;}.cls-3{fill:#4a2b17;}</style></defs><g id="Слой_2" data-name="Слой 2"><g id="Слой_1-2" data-name="Слой 1"><g id="Слой_1-2-2" data-name="Слой 1-2"><circle class="cls-1" cx="216.12" cy="216.12" r="214.62"/><circle class="cls-2" cx="216.12" cy="216.12" r="214.62"/></g><path class="cls-3" d="M329.76,203.19a3,3,0,0,0-3,3v60.52a3,3,0,0,0,3,3,2.78,2.78,0,0,0,3-3V206.22A3,3,0,0,0,329.76,203.19Z"/><path class="cls-3" d="M329.76,180.5a3,3,0,0,0-3,3v7.57a3,3,0,0,0,3,3,2.78,2.78,0,0,0,3-3v-7.57A3,3,0,0,0,329.76,180.5Z"/><path class="cls-3" d="M114.14,129.05a3,3,0,0,0,3-3V99.55a3,3,0,0,0-3-3c-1.89,0-2.65,1.89-2.65,3.4V126.4A2.59,2.59,0,0,0,114.14,129.05Z"/><path class="cls-3" d="M114.14,148a3,3,0,0,0,3-3v-3.78a3,3,0,0,0-3-3,2.79,2.79,0,0,0-3,3v3.78C111.49,146.83,112.63,148,114.14,148Z"/><path class="cls-3" d="M124.73,266.36a3,3,0,0,0-3-3h-4.54v-4.92a3,3,0,0,0-3-3,2.79,2.79,0,0,0-3,3v4.92h-4.54a3,3,0,0,0-3,3,2.78,2.78,0,0,0,3,3h4.92v4.92a3,3,0,0,0,3,3,2.78,2.78,0,0,0,3-3v-4.92h4.92C123.22,269.39,124.73,267.88,124.73,266.36Z"/><path class="cls-3" d="M318.41,97.28H170.88A25.74,25.74,0,0,0,145.16,123v26.48a3,3,0,0,0,3,3,2.78,2.78,0,0,0,3-3V123a20.18,20.18,0,0,1,20-20H175a20.18,20.18,0,0,1,20.05,20v22.7a3,3,0,0,0,3,3h11.34a3,3,0,0,0,3-3,2.78,2.78,0,0,0-3-3h-8.7v-20a26.72,26.72,0,0,0-9.45-20.05H319.16c11.73,0,16.27,10.22,16.27,20.05v20H223.84a3,3,0,0,0-3,3,2.78,2.78,0,0,0,3,3h84.35V312.51a20,20,0,1,1-40.09,0V289.82a3,3,0,0,0-3-3H151.21V270.53a3,3,0,0,0-3-3,2.78,2.78,0,0,0-3,3v16.26H125.49a3,3,0,0,0-3,3v22.69a25.75,25.75,0,0,0,25.72,25.73h140a25.75,25.75,0,0,0,25.72-25.73V148.34H337.7a3,3,0,0,0,3-3v-22.7C340.35,107.11,331.65,97.28,318.41,97.28ZM148.18,331.81a20.18,20.18,0,0,1-20-20.05V291.71H262.42v20.05a26.73,26.73,0,0,0,9.46,20.05Z"/><path class="cls-3" d="M212.49,227.78h83.22a3,3,0,0,0,3-3,2.78,2.78,0,0,0-3-3H212.49a3,3,0,1,0,0,6.05Z"/><path class="cls-3" d="M209.84,205.84a3,3,0,0,0,3,3h83.22a3,3,0,0,0,3-3,2.79,2.79,0,0,0-3-3H212.87C211,203.19,209.84,204.33,209.84,205.84Z"/><path class="cls-3" d="M250.32,189.58h45.39a3,3,0,0,0,3-3,2.79,2.79,0,0,0-3-3H250.32a3,3,0,0,0,0,6.06Z"/><path class="cls-3" d="M250.32,170.66h45.39a3,3,0,0,0,3-3,2.79,2.79,0,0,0-3-3H250.32a3,3,0,1,0,0,6Z"/><path class="cls-3" d="M212.49,246.69h83.22a3,3,0,0,0,3-3,2.79,2.79,0,0,0-3-3H212.49a3,3,0,1,0,0,6.05Z"/><path class="cls-3" d="M212.49,265.61h83.22a3,3,0,0,0,3-3,2.78,2.78,0,0,0-3-3H212.49a3,3,0,1,0,0,6.05Z"/><path class="cls-3" d="M148.18,258a48,48,0,0,0,34-14h0a48.42,48.42,0,0,0-34.42-82.47c-26.86,0-47.67,21.56-47.67,48S121.71,258,148.18,258Zm32.16-20.42-25-25h35.56A48.07,48.07,0,0,1,180.34,237.62ZM190.55,207H151.21V167.26A42.35,42.35,0,0,1,190.55,207Zm-45-39.72v42.36a1.42,1.42,0,0,0,.37,1.14.82.82,0,0,0,.76.76l29.88,29.88a43.45,43.45,0,0,1-28,10.59,42.69,42.69,0,0,1-42.74-42.74C105.82,187.31,123.22,168.77,145.54,167.26Z"/><path class="cls-3" d="M216.27,148a2.85,2.85,0,0,0,1.89-.76,2.9,2.9,0,0,0,.76-1.89,2.85,2.85,0,0,0-.76-1.89,2.79,2.79,0,0,0-1.13-.76,2.4,2.4,0,0,0-2.27,0,.82.82,0,0,0-.76.76c-.37.37-.37.75-.75,1.13,0,.38-.38.76-.38,1.14v1.13a.82.82,0,0,0,.76.76A7.32,7.32,0,0,0,216.27,148Z"/></g></g></svg>