<svg xmlns="http://www.w3.org/2000/svg" viewBox="0 0 432.24 432.24"><defs><style>.cls-1{fill:#fff;}.cls-2{fill:none;stroke:#965715;stroke-linecap:round;stroke-miterlimit:10;stroke-width:3px;stroke-dasharray:10.06 10.06;}.cls-3{fill:#4a2b17;}</style></defs><g id="Слой_2" data-name="Слой 2"><g id="Слой_1-2" data-name="Слой 1"><g id="Слой_2-2" data-name="Слой 2"><g id="Слой_1-2-2" data-name="Слой 1-2"><circle class="cls-1" cx="216.12" cy="216.12" r="214.62"/><circle class="cls-2" cx="216.12" cy="216.12" r="214.62"/></g><path class="cls-3" d="M343.84,245.85a13.49,13.49,0,0,0,.46-10.31l-25.21-69.2a32.21,32.21,0,0,0-11.45-47.06V101.86a15.07,15.07,0,0,0-30.14,0v17.42a32.21,32.21,0,0,0-11.45,47.06l-9.55,26.31H133.89v-7.24a20.63,20.63,0,1,0-41.25,0v146A20.66,20.66,0,0,0,113.27,352h209a2.09,2.09,0,0,0,2.1-2.1V251.53a13.61,13.61,0,0,0,7.24,2.15,13.18,13.18,0,0,0,2.57-.26l4.37,11.87a2.13,2.13,0,0,0,2,1.39,2.05,2.05,0,0,0,.72-.12,2.13,2.13,0,0,0,1.26-2.7L338.15,252A13.82,13.82,0,0,0,343.84,245.85ZM281.75,117.43V101.86a10.86,10.86,0,0,1,21.72,0v15.57s-.12,0-.17,0a33,33,0,0,0-4.92-1.31l-.72-.12a32.87,32.87,0,0,0-5-.42h-.08a33,33,0,0,0-5,.42l-.75.12a30.21,30.21,0,0,0-4.84,1.31C281.88,117.39,281.8,117.39,281.75,117.43Zm-1.05,5a19.49,19.49,0,0,1,2.61-1.05,1.89,1.89,0,0,1,.21-.09c1-.34,1.94-.59,2.91-.84h0a28,28,0,0,1,15.23.84c.05,0,.05,0,.09,0,.92.34,1.85.72,2.78,1.14a28.09,28.09,0,1,1-23.87,0Zm11.87,57.83c1,0,1.89,0,2.82-.13L300,192.69H285.2l4.59-12.59C290.72,180.15,291.64,180.23,292.57,180.23Zm-7-.8-23.27,63.94a9.3,9.3,0,0,1-4.8,5.21,9.13,9.13,0,0,1-7.07.3,9.26,9.26,0,0,1-5.22-4.8,9.13,9.13,0,0,1-.3-7.07l24.33-66.88A32.17,32.17,0,0,0,285.54,179.43Zm-188.69,6a16.42,16.42,0,1,1,32.83,0V318.83a20.59,20.59,0,0,0-32.83,0Zm16.42,162.34a16.44,16.44,0,0,1-16.42-16.42v0a16.42,16.42,0,0,1,32.83,0,2.11,2.11,0,1,0,4.21,0V196.86H255l-14.1,38.72a13.43,13.43,0,0,0,5.26,15.82l-4.58,12.42a2.07,2.07,0,0,0,1.26,2.69,2.08,2.08,0,0,0,2.69-1.26L250,253.09a13,13,0,0,0,3.53.55,13.48,13.48,0,0,0,12.67-8.89l17.43-47.94h17.84l17.43,47.94a13.66,13.66,0,0,0,1.22,2.45V347.75Zm221.52-98.87h0a9.36,9.36,0,0,1-7.07-.3,9.24,9.24,0,0,1-4.8-5.21l-23.28-63.94A32.31,32.31,0,0,0,316,170.17l24.33,66.88a9.18,9.18,0,0,1-5.51,11.83Z"/><path class="cls-3" d="M292.57,159.61a11.75,11.75,0,1,0-11.74-11.75A11.75,11.75,0,0,0,292.57,159.61Z"/><path class="cls-3" d="M232.26,279.23h0l-5.73-.89A41.61,41.61,0,0,0,223,269.8l3.5-4.63a4.31,4.31,0,0,0-.38-5.64l-6.61-6.61a4.3,4.3,0,0,0-5.64-.38L209,256.12a35.14,35.14,0,0,0-8.46-3.45l-.8-5.9a4.35,4.35,0,0,0-4.29-3.74h-9.35a4.35,4.35,0,0,0-4.29,3.74l-.93,5.94a38.71,38.71,0,0,0-8.37,3.45l-4.72-3.58a4.31,4.31,0,0,0-5.64.38l-6.65,6.65a4.26,4.26,0,0,0-.38,5.6l3.46,4.76a40.16,40.16,0,0,0-3.62,8.54l-5.64.8a4.38,4.38,0,0,0-3.75,4.29V293a4.35,4.35,0,0,0,3.75,4.29l5.55.84a38.26,38.26,0,0,0,3.58,8.93l-3.33,4.33a4.26,4.26,0,0,0,.42,5.64l6.61,6.57a4.31,4.31,0,0,0,5.64.38l4.34-3.2a36.26,36.26,0,0,0,9,3.79l.71,5.21a4.36,4.36,0,0,0,4.3,3.75h9.34a4.34,4.34,0,0,0,4.29-3.75l.8-5.26a35.35,35.35,0,0,0,9.05-3.79l4.21,3.2a4.29,4.29,0,0,0,5.64-.38l6.65-6.6a4.35,4.35,0,0,0,.38-5.69l-3.24-4.41a37.62,37.62,0,0,0,3.58-8.89l5.51-.75a4.36,4.36,0,0,0,3.75-4.3v-9.34A4.62,4.62,0,0,0,232.26,279.23ZM231.67,293l-5.48.76a4.35,4.35,0,0,0-3.57,3.19,31,31,0,0,1-3.16,7.79,4.36,4.36,0,0,0,.29,4.71l3.29,4.47-6.74,6.6L212,317.19a4.43,4.43,0,0,0-4.71-.21,31.72,31.72,0,0,1-7.88,3.33,4.37,4.37,0,0,0-3.19,3.53l-.8,5.31-9.43-.09-.72-5.22a4.37,4.37,0,0,0-3.2-3.62,31.64,31.64,0,0,1-7.91-3.28,4.71,4.71,0,0,0-2.19-.59,3.91,3.91,0,0,0-2.52.88l-4.34,3.2-6.65-6.73,3.33-4.38a4.44,4.44,0,0,0,.25-4.71,34,34,0,0,1-3.16-7.79,4.28,4.28,0,0,0-3.53-3.16l-5.6-.84.12-9.47,5.64-.8a4.17,4.17,0,0,0,3.54-3.11,33.26,33.26,0,0,1,3.16-7.45,4.25,4.25,0,0,0-.26-4.8l-3.49-4.76,6.74-6.65L170,259.4a4.2,4.2,0,0,0,4.63.25,36.11,36.11,0,0,1,7.37-3,4.35,4.35,0,0,0,3.16-3.57l.88-6,9.43.08.8,6a4.34,4.34,0,0,0,3.15,3.45,31.65,31.65,0,0,1,7.33,3,4.36,4.36,0,0,0,4.71-.25l4.84-3.62,6.65,6.73L219.5,267a4.2,4.2,0,0,0-.29,4.76,34.26,34.26,0,0,1,3.15,7.49,4.29,4.29,0,0,0,3.54,3.15l5.64.8.29-2.1Z"/><path class="cls-3" d="M190.75,268A20.22,20.22,0,1,0,211,288.19,20.24,20.24,0,0,0,190.75,268Zm0,36.28a16,16,0,1,1,16-16A16,16,0,0,1,190.75,304.23Z"/><path class="cls-3" d="M298.88,324.85H253.59a2.11,2.11,0,0,0,0,4.21h45.29a2.11,2.11,0,1,0,0-4.21Z"/><path class="cls-3" d="M298.88,308.31H253.59a2.11,2.11,0,0,0,0,4.21h45.29a2.11,2.11,0,1,0,0-4.21Z"/><path class="cls-3" d="M298.88,291.73H275.31a2.11,2.11,0,0,0,0,4.21h23.57a2.11,2.11,0,1,0,0-4.21Z"/><path class="cls-3" d="M152.7,232.38h41.84a2.11,2.11,0,1,0,0-4.21H152.7a2.11,2.11,0,0,0,0,4.21Z"/><path class="cls-3" d="M152.7,215.8h41.84a2.11,2.11,0,1,0,0-4.21H152.7a2.11,2.11,0,0,0,0,4.21Z"/><path class="cls-3" d="M94.75,147.69H251.57a2.08,2.08,0,0,0,2.11-2.1V99.75a2.08,2.08,0,0,0-2.11-2.1H94.75a2.08,2.08,0,0,0-2.11,2.1v45.84A2.11,2.11,0,0,0,94.75,147.69Zm2.1-45.83h13.3v9a2.11,2.11,0,0,0,4.21,0v-9h13.22v19.78a2.11,2.11,0,0,0,4.21,0V101.86H145v9a2.11,2.11,0,0,0,4.21,0v-9h13.22v19.78a2.11,2.11,0,0,0,4.21,0V101.86h13.21v9a2.11,2.11,0,0,0,4.21,0v-9h13.22v19.78a2.11,2.11,0,0,0,4.21,0V101.86H214.7v9a2.11,2.11,0,0,0,4.21,0v-9h13.22v19.78a2.11,2.11,0,0,0,4.21,0V101.86h13.3v41.63H96.85Z"/></g></g></g></svg>