<svg xmlns="http://www.w3.org/2000/svg" viewBox="0 0 432.24 432.24"><defs><style>.cls-1{fill:#fff;}.cls-2{fill:none;stroke:#965715;stroke-linecap:round;stroke-miterlimit:10;stroke-width:3px;stroke-dasharray:10.06 10.06;}.cls-3{fill:#4a2b17;}</style></defs><g id="Слой_2" data-name="Слой 2"><g id="Слой_1-2" data-name="Слой 1"><g id="Слой_1-2-2" data-name="Слой 1-2"><circle class="cls-1" cx="216.12" cy="216.12" r="214.62"/><circle class="cls-2" cx="216.12" cy="216.12" r="214.62"/></g><path class="cls-3" d="M170.08,88.22V188.6h28.44l3.35,11.72,3.34,10h1.68l20.07-10,30.12,30.11-10,20.08v1.67l10,3.34,11.71,3.35v3.35l102-56.89Z"/><path class="cls-3" d="M178.44,263.89a12.74,12.74,0,0,0-8.36,3.35c-5,3.34-8.37,8.36-8.37,13.38s3.35,11.71,8.37,13.38a12.74,12.74,0,0,0,8.36,3.35c10,0,16.73-6.69,16.73-16.73S188.48,263.89,178.44,263.89Z"/><path class="cls-3" d="M253.73,289V272.25l-18.4-6.69c-1.68-5-3.35-10-6.7-15.05L237,233.78l-11.71-11.72-16.73,8.37c-5-3.35-10-5-15.06-6.69l-6.69-18.41H170.08l-6.69,18.41c-5,1.67-10,3.34-15.06,6.69l-16.73-8.37-11.71,11.72,8.36,18.4c-3.34,5-5,10-6.69,15.06l-18.4,5V289l18.4,6.69c1.67,5,3.35,10,6.69,15.05l-8.36,16.73,11.71,11.72,18.4-8.37c5,3.35,10,5,15.06,6.69l5,18.41h16.73l6.69-18.41c5-1.67,10-3.34,15.06-6.69l16.73,8.37L237,327.46l-8.37-18.4c3.35-5,5-10,6.7-15.06Zm-75.29,25.09a33.46,33.46,0,1,1,33.46-33.46A33.56,33.56,0,0,1,178.44,314.08Z"/></g></g></svg>