<svg viewBox="0 0 56 56" xmlns="http://www.w3.org/2000/svg"><g id="Page-1" fill="none" fill-rule="evenodd"><g id="012---Hotel" fill="rgb(0,0,0)" fill-rule="nonzero"><path id="Rectangle-path" d="m23.999 43h3.001v8h-3.001z" fill="rgb(0,0,0)" style="fill: rgb(195, 169, 98);"></path><path id="Rectangle-path" d="m38 44h2v7h-2z" fill="rgb(0,0,0)" style="fill: rgb(195, 169, 98);"></path><path id="Rectangle-path" d="m16 44h2v7h-2z" fill="rgb(0,0,0)" style="fill: rgb(195, 169, 98);"></path><path id="Shape" d="m16 42h2c1.1045695 0 2 .8954305 2 2v7h2v-8c0-1.1045695.8954305-2 2-2h8c1.1045695 0 2 .8954305 2 2v8h2v-7c0-1.1045695.8954305-2 2-2h2v-4h-24z" fill="rgb(0,0,0)" style="fill: rgb(195, 169, 98);"></path><path id="Shape" d="m45 38h-3v17c0 .5522847.4477153 1 1 1h1c.5522847 0 1-.4477153 1-1 0-29.941 0-9.726 0-17z" fill="rgb(0,0,0)" style="fill: rgb(195, 169, 98);"></path><path id="Shape" d="m49 35v-2c0-.5522847-.4477153-1-1-1h-40c-.55228475 0-1 .4477153-1 1v2c0 .5522847.44771525 1 1 1h3v-1c0-.5522847.4477153-1 1-1s1 .4477153 1 1v1h30v-1c0-.5522847.4477153-1 1-1s1 .4477153 1 1v1h3c.5522847 0 1-.4477153 1-1z" fill="rgb(0,0,0)" style="fill: rgb(195, 169, 98);"></path><path id="Shape" d="m27 17.734-2.451 1.247c-.6758812.3436978-1.4880034.2756247-2.0972371-.1757929s-.9107974-1.2085409-.7787629-1.9552071l.643-3.627-.236-.223h-6.08v11.335c3.2800391-2.1197873 7.0947633-3.2642046 11-3.3z" fill="rgb(0,0,0)" style="fill: rgb(195, 169, 98);"></path><path id="Shape" d="m24.38 13.041-.737 4.159 3.9-1.987h.023c.269644-.1425865.592356-.1425865.862 0h.023l3.9 1.987-.738-4.158c-.0577219-.3313616.0550055-.6695438.3-.9l3.092-2.916-4.3-.6c-.322724-.0456037-.6029745-.2456227-.751-.536l-1.954-3.844v-.006l-1.952 3.841c-.1480255.2903773-.428276.4903963-.751.536l-4.3.6 3.092 2.916c.2443395.2339621.3538277.5755956.291.908z" fill="rgb(0,0,0)" style="fill: rgb(195, 169, 98);"></path><path id="Shape" d="m33.548 18.806c-.6087871.4555163-1.4242142.5234685-2.1.175l-2.448-1.247v3.3c3.9052367.0357954 7.7199609 1.1802127 11 3.3v-11.334h-6.08l-.236.223.643 3.627c.1349936.7472463-.16725 1.5061531-.779 1.956z" fill="rgb(0,0,0)" style="fill: rgb(195, 169, 98);"></path><path id="Shape" d="m5 35v-2c0-1.6568542 1.34314575-3 3-3h4.078c.2501438-1.458478.9177575-2.8131573 1.922-3.9v-25.1c0-.55228475-.4477153-1-1-1h-12c-.55228475 0-1 .44771525-1 1v49c0 .5522847.44771525 1 1 1h8v-13h-1c-1.65685425 0-3-1.3431458-3-3zm5-33h1c.5522847 0 1 .44771525 1 1s-.4477153 1-1 1h-1c-.55228475 0-1-.44771525-1-1s.44771525-1 1-1zm0 4h1c.5522847 0 1 .44771525 1 1s-.4477153 1-1 1h-1c-.55228475 0-1-.44771525-1-1s.44771525-1 1-1zm0 4h1c.5522847 0 1 .4477153 1 1s-.4477153 1-1 1h-1c-.55228475 0-1-.4477153-1-1s.44771525-1 1-1zm0 4h1c.5522847 0 1 .4477153 1 1s-.4477153 1-1 1h-1c-.55228475 0-1-.4477153-1-1s.44771525-1 1-1zm0 4h1c.5522847 0 1 .4477153 1 1s-.4477153 1-1 1h-1c-.55228475 0-1-.4477153-1-1s.44771525-1 1-1zm0 4h1c.5522847 0 1 .4477153 1 1s-.4477153 1-1 1h-1c-.55228475 0-1-.4477153-1-1s.44771525-1 1-1zm0 4h1c.5522847 0 1 .4477153 1 1s-.4477153 1-1 1h-1c-.55228475 0-1-.4477153-1-1s.44771525-1 1-1zm-7-24h3c.55228475 0 1 .44771525 1 1s-.44771525 1-1 1h-3c-.55228475 0-1-.44771525-1-1s.44771525-1 1-1zm0 4h3c.55228475 0 1 .44771525 1 1s-.44771525 1-1 1h-3c-.55228475 0-1-.44771525-1-1s.44771525-1 1-1zm0 4h3c.55228475 0 1 .4477153 1 1s-.44771525 1-1 1h-3c-.55228475 0-1-.4477153-1-1s.44771525-1 1-1zm0 4h3c.55228475 0 1 .4477153 1 1s-.44771525 1-1 1h-3c-.55228475 0-1-.4477153-1-1s.44771525-1 1-1zm0 4h3c.55228475 0 1 .4477153 1 1s-.44771525 1-1 1h-3c-.55228475 0-1-.4477153-1-1s.44771525-1 1-1zm0 4h3c.55228475 0 1 .4477153 1 1s-.44771525 1-1 1h-3c-.55228475 0-1-.4477153-1-1s.44771525-1 1-1zm0 4h3c.55228475 0 1 .4477153 1 1s-.44771525 1-1 1h-3c-.55228475 0-1-.4477153-1-1s.44771525-1 1-1zm3 21h-3c-.55228475 0-1-.4477153-1-1s.44771525-1 1-1h3c.55228475 0 1 .4477153 1 1s-.44771525 1-1 1zm0-4h-3c-.55228475 0-1-.4477153-1-1s.44771525-1 1-1h3c.55228475 0 1 .4477153 1 1s-.44771525 1-1 1z" fill="rgb(0,0,0)" style="fill: rgb(195, 169, 98);"></path><path id="Shape" d="m28 23c-7 0-12.979 3.116-13.872 7h27.744c-.893-3.884-6.872-7-13.872-7zm0 4c-2.755217-.0582788-5.480301.5823103-7.921 1.862-.3099415.1917488-.6996593.19969-1.0171547.0207263s-.5124835-.5164881-.5089145-.880931c.003569-.3644428.2051298-.6980838.5260692-.8707953 2.7413837-1.4644859 5.813692-2.1983822 8.921-2.131.5522847 0 1 .4477153 1 1s-.4477153 1-1 1z" fill="rgb(0,0,0)" style="fill: rgb(195, 169, 98);"></path><path id="Shape" d="m14 38h-3v17c0 .5522847.4477153 1 1 1h1c.5522847 0 1-.4477153 1-1 0-9.024 0 12.776 0-17z" fill="rgb(0,0,0)" style="fill: rgb(195, 169, 98);"></path><path id="Rectangle-path" d="m29 43h3v8h-3z" fill="rgb(0,0,0)" style="fill: rgb(195, 169, 98);"></path><path id="Shape" d="m43 0c-.5522847 0-1 .44771525-1 1v25.1c1.0042425 1.0868427 1.6718562 2.441522 1.922 3.9h4.078c1.6568542 0 3 1.3431458 3 3v2c0 1.6568542-1.3431458 3-3 3h-1v13h8c.5522847 0 1-.4477153 1-1v-49c0-.55228475-.4477153-1-1-1zm3 28h-1c-.5522847 0-1-.4477153-1-1s.4477153-1 1-1h1c.5522847 0 1 .4477153 1 1s-.4477153 1-1 1zm0-4h-1c-.5522847 0-1-.4477153-1-1s.4477153-1 1-1h1c.5522847 0 1 .4477153 1 1s-.4477153 1-1 1zm0-4h-1c-.5522847 0-1-.4477153-1-1s.4477153-1 1-1h1c.5522847 0 1 .4477153 1 1s-.4477153 1-1 1zm0-4h-1c-.5522847 0-1-.4477153-1-1s.4477153-1 1-1h1c.5522847 0 1 .4477153 1 1s-.4477153 1-1 1zm0-4h-1c-.5522847 0-1-.4477153-1-1s.4477153-1 1-1h1c.5522847 0 1 .4477153 1 1s-.4477153 1-1 1zm0-4h-1c-.5522847 0-1-.44771525-1-1s.4477153-1 1-1h1c.5522847 0 1 .44771525 1 1s-.4477153 1-1 1zm0-4h-1c-.5522847 0-1-.44771525-1-1s.4477153-1 1-1h1c.5522847 0 1 .44771525 1 1s-.4477153 1-1 1zm7 43h-3c-.5522847 0-1-.4477153-1-1s.4477153-1 1-1h3c.5522847 0 1 .4477153 1 1s-.4477153 1-1 1zm0-4h-3c-.5522847 0-1-.4477153-1-1s.4477153-1 1-1h3c.5522847 0 1 .4477153 1 1s-.4477153 1-1 1zm0-15h-3c-.5522847 0-1-.4477153-1-1s.4477153-1 1-1h3c.5522847 0 1 .4477153 1 1s-.4477153 1-1 1zm0-4h-3c-.5522847 0-1-.4477153-1-1s.4477153-1 1-1h3c.5522847 0 1 .4477153 1 1s-.4477153 1-1 1zm0-4h-3c-.5522847 0-1-.4477153-1-1s.4477153-1 1-1h3c.5522847 0 1 .4477153 1 1s-.4477153 1-1 1zm0-4h-3c-.5522847 0-1-.4477153-1-1s.4477153-1 1-1h3c.5522847 0 1 .4477153 1 1s-.4477153 1-1 1zm0-4h-3c-.5522847 0-1-.4477153-1-1s.4477153-1 1-1h3c.5522847 0 1 .4477153 1 1s-.4477153 1-1 1zm0-4h-3c-.5522847 0-1-.44771525-1-1s.4477153-1 1-1h3c.5522847 0 1 .44771525 1 1s-.4477153 1-1 1zm0-4h-3c-.5522847 0-1-.44771525-1-1s.4477153-1 1-1h3c.5522847 0 1 .44771525 1 1s-.4477153 1-1 1z" fill="rgb(0,0,0)" style="fill: rgb(195, 169, 98);"></path></g></g></svg>