<svg xmlns="http://www.w3.org/2000/svg" viewBox="0 0 432.23 432.23"><defs><style>.cls-1{fill:#fff;}.cls-2{fill:none;stroke:#965715;stroke-linecap:round;stroke-miterlimit:10;stroke-width:3px;stroke-dasharray:10.06 10.06;}.cls-3{fill:#4a2b17;}</style></defs><g id="Слой_2" data-name="Слой 2"><g id="Слой_1-2" data-name="Слой 1"><circle class="cls-1" cx="216.12" cy="216.12" r="214.62"/><circle class="cls-2" cx="216.12" cy="216.12" r="214.62"/><path class="cls-3" d="M259.26,198.34H142.84a9.33,9.33,0,0,1-9.32-9.32v-9.74a9.33,9.33,0,0,1,9.32-9.32H259.26a9.32,9.32,0,0,1,9.31,9.32V189A9.31,9.31,0,0,1,259.26,198.34ZM142.84,178.45a.83.83,0,0,0-.83.83V189a.84.84,0,0,0,.83.84H259.26a.83.83,0,0,0,.82-.84v-9.74a.83.83,0,0,0-.82-.83Zm116.42-12.07H142.84a9.33,9.33,0,0,1-9.32-9.32v-9.75a9.33,9.33,0,0,1,9.32-9.31H259.26a9.32,9.32,0,0,1,9.31,9.31v9.75A9.31,9.31,0,0,1,259.26,166.38Zm-116.42-19.9a.83.83,0,0,0-.83.83v9.75a.83.83,0,0,0,.83.83H259.26a.83.83,0,0,0,.82-.83v-9.75a.83.83,0,0,0-.82-.83Zm116.42-12.06H142.84a9.34,9.34,0,0,1-9.32-9.33v-9.74a9.33,9.33,0,0,1,9.32-9.32H259.26a9.32,9.32,0,0,1,9.31,9.32v9.74A9.32,9.32,0,0,1,259.26,134.42Zm-116.42-19.9a.83.83,0,0,0-.83.83v9.74a.83.83,0,0,0,.83.84H259.26a.83.83,0,0,0,.82-.84v-9.74a.83.83,0,0,0-.82-.83ZM282,326.2a67.44,67.44,0,1,1,67.45-67.44A67.52,67.52,0,0,1,282,326.2Zm0-126.4a59,59,0,1,0,59,59A59,59,0,0,0,282,199.8ZM259.26,326.2H142.84a9.32,9.32,0,0,1-9.32-9.32v-9.74a9.33,9.33,0,0,1,9.32-9.32H237.9l1.26,1.33a59,59,0,0,0,25.75,16l4.95,1.5-2.44,4.56A9.29,9.29,0,0,1,259.26,326.2ZM142.84,306.31a.83.83,0,0,0-.83.83v9.74a.84.84,0,0,0,.83.84H249.32a67.67,67.67,0,0,1-15-11.41Zm91.59-12.07H142.84a9.33,9.33,0,0,1-9.32-9.32v-9.75a9.32,9.32,0,0,1,9.32-9.31h80.58l.64,3.48a57.88,57.88,0,0,0,6.74,18.55Zm-91.59-19.9a.83.83,0,0,0-.83.83v9.74a.84.84,0,0,0,.83.84h77.4a65.85,65.85,0,0,1-3.8-11.41ZM223,262.28h-80.2a9.33,9.33,0,0,1-9.32-9.32v-9.75a9.33,9.33,0,0,1,9.32-9.32h85.43l-1.94,5.63a58.77,58.77,0,0,0-3.24,18.56Zm-80.2-19.9a.83.83,0,0,0-.83.83V253a.84.84,0,0,0,.83.84h71.95a66,66,0,0,1,1.85-11.41Zm87.55-12.07H142.84a9.33,9.33,0,0,1-9.32-9.32v-9.74a9.34,9.34,0,0,1,9.32-9.33H261l-11.64,7.78a59.64,59.64,0,0,0-17.71,18.57Zm-87.55-19.9a.83.83,0,0,0-.83.84V221a.83.83,0,0,0,.83.83h82.82a68.67,68.67,0,0,1,9.4-11.41Zm143.9,26.18h11.63v10.88h-22a2.65,2.65,0,0,0-1.94.78,2.49,2.49,0,0,0-.8,1.86,2.73,2.73,0,0,0,2.74,2.74h11.34a14.5,14.5,0,0,1,5.24.94,13.26,13.26,0,0,1,4.3,2.64,12.42,12.42,0,0,1,2.91,4,12.07,12.07,0,0,1,1.07,5.12,13.17,13.17,0,0,1-1.07,5.32,13.33,13.33,0,0,1-2.91,4.31,14,14,0,0,1-4.3,2.88,12.91,12.91,0,0,1-5.25,1.07h-.94v15.26h-9.15V279.15H262.83V268.36h24.86a2.49,2.49,0,0,0,1.84-.82,2.73,2.73,0,0,0,.8-2,1.39,1.39,0,0,0-.8-1.46,4.79,4.79,0,0,0-1.84-.33H276.35a13.25,13.25,0,0,1-9.57-4,14.13,14.13,0,0,1-2.89-4.35,13.34,13.34,0,0,1-1.07-5.32,13,13,0,0,1,1.07-5.24,14.07,14.07,0,0,1,2.89-4.31,13.59,13.59,0,0,1,4.27-2.91,13.24,13.24,0,0,1,5.3-1.07h1.24V223.1h9.15v13.49Z"/></g></g></svg>