<svg xmlns="http://www.w3.org/2000/svg" viewBox="0 0 432.23 432.23"><defs><style>.cls-1{fill:#fff;}.cls-2{fill:none;stroke:#965715;stroke-linecap:round;stroke-miterlimit:10;stroke-width:3px;stroke-dasharray:10.06 10.06;}.cls-3{fill:#4a2a15;}</style></defs><g id="Слой_2" data-name="Слой 2"><g id="Слой_1-2" data-name="Слой 1"><circle class="cls-1" cx="216.12" cy="216.12" r="214.62"/><circle class="cls-2" cx="216.12" cy="216.12" r="214.62"/><path class="cls-3" d="M202.46,345.49l3.12-5.65a19,19,0,0,1,13.83-9.55l76.89-11.14a24.83,24.83,0,0,0,15.75-8.9l39.73-48.59a16.5,16.5,0,0,0-2.32-23.22l-.19-.15A16.58,16.58,0,0,0,326.89,240l-24.4,26.37a3.1,3.1,0,0,0,4.55,4.21l24.4-26.37A10.3,10.3,0,0,1,347,257.74l-39.73,48.59A18.7,18.7,0,0,1,295.41,313l-76.89,11.14a25.22,25.22,0,0,0-18.38,12.69l-2.25,4.05h-72l37.18-54.95A52,52,0,0,1,212,263.24a81.47,81.47,0,0,1,18.31,4.05,37.18,37.18,0,0,0,12.31,2.16h36.77a11.15,11.15,0,0,1,11.14,11.14,12,12,0,0,1-12,12h-33.7a23.13,23.13,0,0,0-14.74,5.32l-7.91,6.57a3.1,3.1,0,0,0,4,4.77l7.91-6.57a16.9,16.9,0,0,1,10.78-3.89h33.72a18.21,18.21,0,0,0,18.18-18.18,17.35,17.35,0,0,0-17.34-17.34H242.59a31,31,0,0,1-10.27-1.81,88.1,88.1,0,0,0-19.7-4.37A58.27,58.27,0,0,0,158,282.48L117.5,342.25a3.11,3.11,0,0,0,.84,4.31,3,3,0,0,0,1.73.53h79.67A3.11,3.11,0,0,0,202.46,345.49Z"/><path class="cls-3" d="M278.88,234.6A38.58,38.58,0,1,0,240.3,196h0A38.63,38.63,0,0,0,278.88,234.6Zm0-71A32.38,32.38,0,1,1,246.51,196h0A32.45,32.45,0,0,1,278.88,163.64Z"/><path class="cls-3" d="M278.88,217.09A21.08,21.08,0,1,0,280.39,175c-.5,0-1,0-1.51,0a21.43,21.43,0,0,0-3.49.28,3.1,3.1,0,0,0,1,6.12,14.86,14.86,0,1,1-12.2,17.12,15.18,15.18,0,0,1,.11-5.5,3.1,3.1,0,0,0-6-1.5c0,.08,0,.16-.05.24a21.61,21.61,0,0,0-.44,4.32A21.08,21.08,0,0,0,278.88,217.09Z"/><path class="cls-3" d="M266.21,186.35a3.14,3.14,0,1,0-2-5.44l-.1.1-.09.09a3.1,3.1,0,0,0,0,4.37,3.05,3.05,0,0,0,2.18.88Z"/><path class="cls-3" d="M282,197.84v-4a3.1,3.1,0,1,0-6.2-.26v4.24a3.1,3.1,0,0,0,6.2,0Z"/><path class="cls-3" d="M185.42,170.43a38.59,38.59,0,1,0-38.59-38.61A38.59,38.59,0,0,0,185.42,170.43Zm0-71A32.38,32.38,0,1,1,153,131.84v0a32.45,32.45,0,0,1,32.39-32.38Z"/><path class="cls-3" d="M185.42,152.9a21.09,21.09,0,0,0,.26-42.17,21.41,21.41,0,0,0-3.75.31,3.1,3.1,0,0,0,1,6.12h0a14.62,14.62,0,0,1,2.47-.21,14.89,14.89,0,1,1-14.56,11.82,3.11,3.11,0,0,0-6.08-1.26,21.64,21.64,0,0,0-.44,4.33A21.08,21.08,0,0,0,185.42,152.9Z"/><path class="cls-3" d="M172.74,122.16a3.15,3.15,0,0,0,2.23-.92,3.1,3.1,0,1,0-4.08-4.67l-.25.25-.08.08a3.09,3.09,0,0,0,2.2,5.26Z"/><path class="cls-3" d="M188.52,133.66v-4a3.1,3.1,0,0,0-6.2,0v4a3.1,3.1,0,0,0,6.2.26Z"/></g></g></svg>