<svg xmlns="http://www.w3.org/2000/svg" viewBox="0 0 432.24 432.24"><defs><style>.cls-1{fill:#fff;}.cls-2{fill:none;stroke:#965715;stroke-linecap:round;stroke-miterlimit:10;stroke-width:3px;stroke-dasharray:10.06 10.06;}.cls-3{fill:#4a2b17;}</style></defs><g id="Слой_2" data-name="Слой 2"><g id="Слой_1-2" data-name="Слой 1"><g id="Слой_2-2" data-name="Слой 2"><g id="Слой_1-2-2" data-name="Слой 1-2"><circle class="cls-1" cx="216.12" cy="216.12" r="214.62"/><circle class="cls-2" cx="216.12" cy="216.12" r="214.62"/></g></g><g id="layer1"><path id="path872" class="cls-3" d="M147.79,79.49a68.31,68.31,0,0,0,0,136.62,64.6,64.6,0,0,0,12.5-1.22,79.95,79.95,0,0,0,51.88,13.77,4.27,4.27,0,0,0,2.08-7.79,71.75,71.75,0,0,1-20.94-22.12c15.33-14.06,22.79-32.19,22.8-50.94A68.39,68.39,0,0,0,147.79,79.49Zm76.61,0c-2.92,0-5.82.14-8.73.32a4.26,4.26,0,1,0,.47,8.51c2.77-.2,5.55-.23,8.32-.29a4.27,4.27,0,1,0-.06-8.54Zm17.21,1.16a4.27,4.27,0,0,0-.73,8.49c2.94.39,5.53.91,8.1,1.42a4.28,4.28,0,0,0,1.8-8.36C247.77,81.5,244.64,81.08,241.61,80.65Zm25.26,6.1a4.28,4.28,0,0,0-2,8.28c2.59.88,5.11,2,7.63,3a4.28,4.28,0,1,0,3.4-7.85C272.62,88.79,267.6,86.76,266.87,86.75ZM147.79,88A59.77,59.77,0,0,1,194,185.77a54,54,0,0,0-24.67-21.52,29.89,29.89,0,1,0-43,0,54.19,54.19,0,0,0-24.7,21.53A59.81,59.81,0,0,1,147.79,88Zm142,9.76a4.32,4.32,0,0,0-4.09,2,4.27,4.27,0,0,0,1.39,5.89c2.37,1.45,4.65,3,6.93,4.61a4.28,4.28,0,0,0,4.89-7c-2.38-1.7-4.85-3.26-7.32-4.82A4.61,4.61,0,0,0,289.82,97.79Zm19.38,15.57a4,4,0,0,0-2.61,1.27,4.28,4.28,0,0,0,.1,6c2.05,1.86,3.93,3.88,5.83,5.89a4.27,4.27,0,1,0,6.27-5.8c-2-2.18-4.06-4.22-6.18-6.24A5.3,5.3,0,0,0,309.2,113.36Zm17.49,19.36a4.31,4.31,0,0,0-2.76.74,4.26,4.26,0,0,0-1.1,5.92c1.62,2.23,3,4.6,4.47,7a4.27,4.27,0,1,0,7.31-4.41c-1.46-2.55-3.09-5-4.76-7.37A4.34,4.34,0,0,0,326.69,132.72ZM254.52,135a12.85,12.85,0,0,0-12.79,12.79v25.63a12.87,12.87,0,0,0,12.79,12.82h25.63A12.88,12.88,0,0,0,293,173.42a4.28,4.28,0,0,0-8.55,0,4.16,4.16,0,0,1-4.25,4.28H254.52a4.17,4.17,0,0,1-4.25-4.28V147.79a4.14,4.14,0,0,1,4.25-4.25h21.34a4.27,4.27,0,1,0,0-8.54Zm38.57,8.54a4.35,4.35,0,0,0-2.79.94l-18.37,14.69-5.83-5.83a4.27,4.27,0,0,0-6.06,6l8.54,8.54a4.28,4.28,0,0,0,5.71.31l21.34-17.08a4.27,4.27,0,0,0,.66-6A4.42,4.42,0,0,0,293.09,143.54Zm45.14,11.57a4.26,4.26,0,0,0-3.49,5.92c1.12,2.53,2,5.14,3,7.75a4.26,4.26,0,1,0,8-2.87c-.9-2.79-2-5.48-3.12-8.19A4.2,4.2,0,0,0,338.23,155.11Zm8.56,24.51a6.27,6.27,0,0,0-1.5,0,4.26,4.26,0,0,0-3.33,5c.6,2.85.93,5.53,1.29,8.07a4.27,4.27,0,0,0,8.48-1c-.3-3-.93-6.2-1.39-8.8A4.18,4.18,0,0,0,346.79,179.62Zm-119.9,23.69q-3.44,0-6.87.27a4.27,4.27,0,0,0-2.05,7.79,71.11,71.11,0,0,1,20.9,22.17,68.3,68.3,0,1,0,45.53-17.42,65.81,65.81,0,0,0-12.52,1.27A79,79,0,0,0,247.28,206,81.7,81.7,0,0,0,226.89,203.31ZM348.45,205a4.27,4.27,0,0,0-4.29,4.25c0,2.38-.15,4.74-.28,7.12a4.26,4.26,0,1,0,8.51.5c.22-2.54.25-5.08.32-7.62A4.28,4.28,0,0,0,348.45,205ZM84.13,211.3a4.24,4.24,0,0,0-4.29,4c-.21,2.73-.27,5.24-.35,7.62A4.27,4.27,0,0,0,88,223c0-2.48.21-5,.31-7.12A4.19,4.19,0,0,0,84.13,211.3Zm148.35.82a65.54,65.54,0,0,1,12.6,2.14,72,72,0,0,1,23.41,11.09,4.26,4.26,0,0,0,3.4.73,59.74,59.74,0,0,1,58.72,96.32,54.11,54.11,0,0,0-24.69-21.53,29.89,29.89,0,1,0-43,0,54.09,54.09,0,0,0-24.68,21.51A59.8,59.8,0,0,1,247,237.8a4.28,4.28,0,0,0,1.1-5.36A78.07,78.07,0,0,0,232.48,212.12Zm-148,23.62a4.33,4.33,0,0,0-4,4.74c.38,2.94.89,5.87,1.42,8.79a4.28,4.28,0,0,0,8.39-1.7c-.6-2.85-.94-5.54-1.29-8.07A4.27,4.27,0,0,0,84.47,235.74Zm67.83,6a17.51,17.51,0,0,0-6.06,1c-8,3-11.25,9.22-11.25,16.07,0,7,4.49,11.53,7.78,14.56a35.58,35.58,0,0,1,3.91,3.91,4.19,4.19,0,0,1,1.11,2.87,4.27,4.27,0,0,0,8.53,0,13.31,13.31,0,0,0-2.86-8,37.23,37.23,0,0,0-4.92-5c-3.11-2.86-5-5.05-5-8.29s1.17-6.42,5.61-8a8.52,8.52,0,0,1,10.34,3.74,4.26,4.26,0,1,0,7.38-4.25A17.06,17.06,0,0,0,152.3,241.75ZM90.93,260.68a5.2,5.2,0,0,0-1.42,0,4.32,4.32,0,0,0-3.06,5.6c.94,2.78,2,5.49,3.15,8.2a4.27,4.27,0,0,0,7.88-3.31c-1.1-2.54-2-5.15-3-7.76A4.26,4.26,0,0,0,90.93,260.68ZM102,283.9a4.36,4.36,0,0,0-2.93.54,4.27,4.27,0,0,0-1.45,5.86c1.46,2.55,3.1,5,4.76,7.38a4.26,4.26,0,0,0,7-4.82c-1.62-2.24-3-4.61-4.48-7A4.32,4.32,0,0,0,102,283.9ZM152.07,293a4.27,4.27,0,1,0,4.27,4.27A4.27,4.27,0,0,0,152.07,293Zm-35.53,11.36a4.6,4.6,0,0,0-2.89,1.11,4.27,4.27,0,0,0-.24,6c1.94,2.21,4.07,4.24,6.17,6.29a4.27,4.27,0,1,0,5.92-6.15c-2-1.88-3.89-3.89-5.79-5.89A4.5,4.5,0,0,0,116.54,304.32Zm19.75,16.95a4.25,4.25,0,0,0-3,7.71c2.37,1.73,4.84,3.29,7.32,4.85a4.27,4.27,0,0,0,4.5-7.25c-2.37-1.44-4.66-3-6.94-4.6A4.81,4.81,0,0,0,136.29,321.27Zm21.52,12.57a4.35,4.35,0,0,0-3.75,2.54A4.27,4.27,0,0,0,156.3,342c2.68,1.24,5.46,2.25,8.22,3.27a4.27,4.27,0,0,0,2.81-8.07c-2.61-.87-5.13-2-7.66-3A4.78,4.78,0,0,0,157.81,333.84Zm24.48,7.76a4.26,4.26,0,0,0-.84,8.43c2.88.65,5.81,1.07,8.73,1.52a4.29,4.29,0,0,0,1.17-8.49C188.08,342.62,185.15,342.07,182.29,341.6Zm33.76,2.28c-2.77.24-5.54.28-8.32.32a4.28,4.28,0,0,0,.1,8.55c2.91,0,5.81-.15,8.72-.32a4.28,4.28,0,1,0-.5-8.55Z"/></g></g></g></svg>