<svg xmlns="http://www.w3.org/2000/svg" viewBox="0 0 432.24 432.24"><defs><style>.cls-1{fill:#fff;}.cls-2{fill:none;stroke:#965715;stroke-linecap:round;stroke-miterlimit:10;stroke-width:3px;stroke-dasharray:10.06 10.06;}.cls-3{fill:#4a2b17;}</style></defs><g id="Слой_2" data-name="Слой 2"><g id="Слой_1-2" data-name="Слой 1"><g id="Слой_1-2-2" data-name="Слой 1-2"><circle class="cls-1" cx="216.12" cy="216.12" r="214.62"/><circle class="cls-2" cx="216.12" cy="216.12" r="214.62"/></g><path class="cls-3" d="M101.6,166.13a32.25,32.25,0,1,1,32.25,32.25,32.25,32.25,0,0,1-32.25-32.25ZM243,196a10.79,10.79,0,0,0-14.83,3.55l-21.61,35-30-16.13a61,61,0,0,0-40-12.9h-6.45C91.28,210,97.89,241.11,97.89,241.11l5.16,95.94h68.37l-2.74-95.94,36.44,17.25a10.63,10.63,0,0,0,5.32,1.29,10.79,10.79,0,0,0,9.19-5.16l26.77-43.7A10.79,10.79,0,0,0,243,196Zm-86.59-4a35.65,35.65,0,0,1-7.74,5.16v5.8a53.31,53.31,0,0,1,7.74,1.45ZM334.77,95.18H148.52v39.34a35.29,35.29,0,0,1,7.74,5.16V102.92H327V219.66H244.79l-4.68,7.74h94.66ZM207.06,227.4l4.67-7.74H186.9l13.87,7.74Zm65.79-78.69-3.71-2.09L243,191.93l3.71,2.26Z"/></g></g></svg>