<svg xmlns="http://www.w3.org/2000/svg" viewBox="0 0 432.24 432.24"><defs><style>.cls-1,.cls-3{fill:#fff;}.cls-2{fill:none;stroke:#965715;stroke-linecap:round;stroke-width:3px;stroke-dasharray:10.06 10.06;}.cls-2,.cls-3,.cls-4,.cls-5{stroke-miterlimit:10;}.cls-3,.cls-4,.cls-5{stroke:#4a2b17;}.cls-4{fill:#4a2b17;}.cls-5{fill:#bc8a71;}</style></defs><g id="Слой_2" data-name="Слой 2"><g id="Слой_1-2" data-name="Слой 1"><g id="Слой_1-2-2" data-name="Слой 1-2"><circle class="cls-1" cx="216.12" cy="216.12" r="214.62"/><circle class="cls-2" cx="216.12" cy="216.12" r="214.62"/></g><g id="Filled"><circle class="cls-3" cx="190.13" cy="130.13" r="41.51"/><path class="cls-4" d="M190.13,97.12a33,33,0,1,1-33,33,33,33,0,0,1,33-33m0-17a50,50,0,1,0,50,50,50,50,0,0,0-50-50Z"/><path class="cls-3" d="M120,268.7c4.55-38.88,34.51-69.21,70.1-69.21s65.56,30.32,70.1,69.21Z"/><path class="cls-4" d="M190.13,208c28.36,0,52.66,22.22,60,52.21H130.18c7.3-30,31.6-52.21,59.95-52.21m0-17c-43.23,0-78.32,38.44-79.17,86.21H269.32c-.87-47.77-35.95-86.21-79.19-86.21Z"/><polygon class="cls-5" points="207.01 302.07 294.1 214.98 336.61 257.49 249.52 344.58 206.04 345.52 207.01 302.07"/><path class="cls-4" d="M294.1,227l30.49,30.49-78.66,78.65-31.2.68.7-31.16L294.1,227m0-21.56a6,6,0,0,0-4.23,1.74l-91.29,91.29-1.24,55.74L253.12,353l91.29-91.29a6,6,0,0,0,0-8.44l-46.09-46.09a6,6,0,0,0-4.22-1.74Z"/></g></g></g></svg>