<svg xmlns="http://www.w3.org/2000/svg" viewBox="0 0 432.24 432.24"><defs><style>.cls-1{fill:#fff;}.cls-2{fill:none;stroke:#965715;stroke-linecap:round;stroke-miterlimit:10;stroke-width:3px;stroke-dasharray:10.06 10.06;}.cls-3{fill:#4a2b17;}</style></defs><g id="Слой_2" data-name="Слой 2"><g id="Слой_1-2" data-name="Слой 1"><g id="Слой_2-2" data-name="Слой 2"><g id="Слой_1-2-2" data-name="Слой 1-2"><circle class="cls-1" cx="216.12" cy="216.12" r="214.62"/><circle class="cls-2" cx="216.12" cy="216.12" r="214.62"/></g></g><path class="cls-3" d="M251.47,338.5a13.43,13.43,0,0,1-5.24-8.73l-1.78-11.36H187.78L186,329.77a13.31,13.31,0,0,1-5.23,8.72c-4.74,3.49-8.48,6.48-4.74,7s37.59,0,40.1,0,36.49.49,40.09,0S256.2,342,251.47,338.5Z"/><path class="cls-3" d="M152.27,247.69c15.14-.12,17-3.77,22-19,9.1-24,50.09,6.28,24.68,16.79S137.13,247.8,152.27,247.69Z"/><path class="cls-3" d="M307.52,89.6c-7.35-5.92-19.52-3-27.19,6.51L202.66,206.47c-7.67,9.51-7.63,7.69-.29,13.61s5.58,6.34,13.25-3.17l91.32-99.36C314.6,108,314.87,95.51,307.52,89.6Zm-20,13.21a41.52,41.52,0,0,0-4.92-4.35c5.67-9.27,16.82-7.57,16.82-7.57C288.88,97.13,287.55,102.81,287.55,102.81Z"/><path class="cls-3" d="M342,126.89H307.81L292.73,143.3H336.5V274.63H95.73V143.3H235.79l11.56-16.41H90.26a10.94,10.94,0,0,0-10.94,10.94V296.52a10.94,10.94,0,0,0,10.94,10.94H342a10.94,10.94,0,0,0,10.94-10.94V137.83A10.94,10.94,0,0,0,342,126.89Z"/></g></g></svg>