<svg xmlns="http://www.w3.org/2000/svg" viewBox="0 0 432.24 432.24"><defs><style>.cls-1{fill:#fff;}.cls-2{fill:none;stroke:#965715;stroke-linecap:round;stroke-miterlimit:10;stroke-width:3px;stroke-dasharray:10.06 10.06;}.cls-3{fill:#4a2b17;}</style></defs><g id="Слой_2" data-name="Слой 2"><g id="Слой_1-2" data-name="Слой 1"><g id="Слой_1-2-2" data-name="Слой 1-2"><circle class="cls-1" cx="216.12" cy="216.12" r="214.62"/><circle class="cls-2" cx="216.12" cy="216.12" r="214.62"/></g><rect class="cls-3" x="132.9" y="299.34" width="83.22" height="11.89"/><polygon class="cls-3" points="299.34 299.34 299.34 311.23 323.12 311.23 323.12 85.34 144.79 85.34 144.79 109.12 156.68 109.12 156.68 97.23 311.23 97.23 311.23 299.34 299.34 299.34"/><rect class="cls-3" x="132.9" y="263.68" width="130.78" height="11.89"/><path class="cls-3" d="M109.12,123.51V344.4a2.47,2.47,0,0,0,2.45,2.5H285a2.47,2.47,0,0,0,2.46-2.5V123.51A2.47,2.47,0,0,0,285,121H111.57A2.46,2.46,0,0,0,109.12,123.51ZM121,132.9H275.56V335H121Z"/><rect class="cls-3" x="132.9" y="156.68" width="130.78" height="11.89"/><rect class="cls-3" x="132.9" y="192.34" width="130.78" height="11.89"/><rect class="cls-3" x="132.9" y="228.01" width="130.78" height="11.89"/></g></g></svg>