<svg xmlns="http://www.w3.org/2000/svg" viewBox="0 0 432.24 432.24"><defs><style>.cls-1{fill:#fff;}.cls-2{fill:none;stroke:#965715;stroke-linecap:round;stroke-miterlimit:10;stroke-width:3px;stroke-dasharray:10.06 10.06;}.cls-3{fill:#4a2b17;}</style></defs><g id="Слой_2" data-name="Слой 2"><g id="Слой_1-2" data-name="Слой 1"><g id="Слой_1-2-2" data-name="Слой 1-2"><circle class="cls-1" cx="216.12" cy="216.12" r="214.62"/><circle class="cls-2" cx="216.12" cy="216.12" r="214.62"/></g><g id="layer1"><path id="path848" class="cls-3" d="M206,86.61a16.79,16.79,0,0,0-16.73,16.76H92.94a16.7,16.7,0,0,0-16.76,16.75v92.11A16.7,16.7,0,0,0,92.94,229h52.29l14.45,20.21a12.48,12.48,0,0,0-3.93,9.08,12.56,12.56,0,1,0,21.19-9.07L191.39,229h52.29a16.78,16.78,0,0,0,16.76-16.76v-67h4.17a16.82,16.82,0,0,0,16.76-16.76V103.37a16.82,16.82,0,0,0-16.76-16.76Zm12.54,25.13a4.19,4.19,0,1,1-4.19,4.18A4.18,4.18,0,0,1,218.55,111.74Zm16.75,0a4.19,4.19,0,1,1-4.19,4.18A4.18,4.18,0,0,1,235.3,111.74Zm16.75,0a4.19,4.19,0,1,1-4.19,4.18A4.18,4.18,0,0,1,252.05,111.74Zm-159.11,0h34a29.22,29.22,0,0,0,.81,42.62,33.53,33.53,0,0,0-26.39,32.73V220.6H92.94a8.34,8.34,0,0,1-8.39-8.37V120.12A8.34,8.34,0,0,1,92.94,111.74Zm54.43,0a20.93,20.93,0,1,1-20.92,20.93A20.86,20.86,0,0,1,147.37,111.74Zm20.48,0h21.43V157.8a4.19,4.19,0,0,0,7.14,3l15.45-15.52h40.19v67a8.36,8.36,0,0,1-8.38,8.37h-67V209.76l1.24,1.23a4.17,4.17,0,0,0,3,1.24h29.3a12.57,12.57,0,0,0,0-25.14H195.43L180,167.75c-2.94-3.67-5.14-7.12-8.81-9.89a19.06,19.06,0,0,0-5-2.69,29.24,29.24,0,0,0,1.75-43.43Zm-33,50.23h20.93c5.73,0,8.22,1,10.35,2.6s4.13,4.44,7.3,8.41l16.75,20.92a4.17,4.17,0,0,0,3.28,1.57h16.74a4.19,4.19,0,0,1,0,8.38H182.61l-11.35-11.34a4.19,4.19,0,0,0-5.93,5.93l3,3v19.2H126.45V199.68a4.2,4.2,0,1,0-8.39,0V220.6h-8.37V187.09A25,25,0,0,1,134.82,162ZM310.66,220.6a20.95,20.95,0,1,0,20.93,20.93A21,21,0,0,0,310.66,220.6ZM155.5,229h25.6l-12,16.78a6.67,6.67,0,0,0-1.61,0Zm46.3,37.67a4.22,4.22,0,0,0-4,2.94l-25.12,79.56a4.19,4.19,0,0,0,4,5.45q69.11,0,138.21,0a29.32,29.32,0,0,0,29.3-29.29V296a25.15,25.15,0,0,0-25.13-25.1h-8.39c-6.82,0-11.72,1.47-15.39,4.24s-5.87,6.21-8.81,9.88l-4.09,5.11L277,269.78a4.18,4.18,0,0,0-4-3.12Zm3.06,8.38h64.91l6.08,23.21L271,304.34h-9.65l3.19-15.91a4.19,4.19,0,0,0-3.28-4.92,4.26,4.26,0,0,0-5.08,4.08H216a4.18,4.18,0,0,0-3.74,2.32l-10,33.51a4.19,4.19,0,0,0,3.74,6.06h78.11l4.41,16.75H182.39ZM219.7,296h34.78l-1.8,8.9a12.66,12.66,0,0,0-9,12.05,12.27,12.27,0,0,0,.73,4.17H212.77Z"/></g></g></g></svg>