<svg width="289" height="207" viewBox="0 0 289 207" fill="none" xmlns="http://www.w3.org/2000/svg">
<g clip-path="url(#clip0_14_1691)">
<path d="M195.08 39.31L173.28 32.8V28.66C173.279 28.0993 173.353 27.541 173.5 27C173.584 27.0497 173.675 27.0867 173.77 27.11C173.865 27.13 173.964 27.13 174.06 27.11C174.313 27.1194 174.564 27.0533 174.78 26.92C175.001 26.7927 175.181 26.6055 175.3 26.38C175.419 26.1561 175.471 25.9027 175.45 25.65C175.428 25.3973 175.339 25.1553 175.19 24.95C175.96 24.18 175.04 23.22 174.5 22.74V22.69C174.5 20.58 176.56 17.4 178.5 16.17C180.29 15.05 182.09 15.36 183.27 15.36C184.45 15.36 183.58 13.63 182.9 13.01C182.4 12.6304 181.806 12.3951 181.181 12.3299C180.557 12.2647 179.927 12.3719 179.36 12.64C179.36 10.78 177.57 10.53 176.76 11.71C175.95 12.89 176.57 13.63 176.27 14.5C176.14 13.69 176.33 12.39 175.21 12.27C174.09 12.15 173.41 13.32 173.48 14.37C173.468 14.052 173.36 13.7452 173.17 13.49C172.981 13.2328 172.72 13.0378 172.42 12.93C172.117 12.8348 171.792 12.8348 171.49 12.93C171.181 13.0053 170.902 13.1727 170.69 13.41C170.543 13.6257 170.447 13.8719 170.41 14.13C170.371 14.3906 170.388 14.6565 170.46 14.91C170.541 15.1605 170.678 15.3894 170.86 15.58C171.038 15.7699 171.257 15.917 171.5 16.01C171.12 16.07 169.94 16.75 170.38 17.87C171.06 19.6 172.55 18.55 173.05 18.43C173.55 18.31 174.22 18.74 172.61 19.73C172.061 20.0711 171.406 20.1992 170.77 20.09C170.32 20.0399 169.892 19.8708 169.53 19.6C169.168 19.3293 168.885 18.9668 168.71 18.55C168.39 17.5 168.46 17.06 167.19 17.94C165.92 18.82 161.48 18.09 162.19 13.52C162.36 12.41 162.95 12.27 163.19 13.16C163.54 14.35 164.35 15.58 165.47 14.82C165.749 14.613 165.956 14.3223 166.06 13.99C166.165 13.665 166.165 13.315 166.06 12.99C166.326 13.1942 166.638 13.3283 166.97 13.38C167.468 13.4528 167.976 13.3285 168.385 13.0336C168.793 12.7387 169.071 12.2963 169.16 11.8C169.194 11.4575 169.135 11.1119 168.99 10.8C168.843 10.5004 168.627 10.24 168.36 10.04C168.086 9.85107 167.77 9.73101 167.44 9.69002C167.099 9.65353 166.755 9.70519 166.44 9.84002C166.642 9.54703 166.744 9.196 166.73 8.84002C166.718 8.47535 166.588 8.12433 166.36 7.84002C166.192 7.67773 165.985 7.56074 165.76 7.50002C165.531 7.43497 165.288 7.43497 165.06 7.50002C164.827 7.55315 164.613 7.66596 164.438 7.8273C164.262 7.98864 164.132 8.19294 164.06 8.42002C163.93 9.31002 163.29 8.98002 163.29 8.98002C163.209 8.8903 163.147 8.78472 163.11 8.67002C163.09 8.55083 163.09 8.4292 163.11 8.31002C163.239 7.96952 163.481 7.68402 163.797 7.5018C164.112 7.31959 164.48 7.25184 164.84 7.31002C165.148 7.34096 165.458 7.28918 165.74 7.16002C166.022 7.03919 166.269 6.85019 166.46 6.61002C166.657 6.37544 166.788 6.09234 166.84 5.79002C166.898 5.4872 166.881 5.17458 166.79 4.88002C166.684 4.66749 166.534 4.47998 166.35 4.33002C166.159 4.18066 165.937 4.07793 165.7 4.03002C165.47 3.97519 165.23 3.97519 165 4.03002C164.766 4.08949 164.548 4.19863 164.36 4.35002C164.581 4.09032 164.73 3.77619 164.79 3.44002C164.85 3.10466 164.819 2.75914 164.7 2.44002C164.583 2.11916 164.382 1.83561 164.118 1.61917C163.855 1.40272 163.537 1.26139 163.2 1.21002C162.863 1.15308 162.516 1.19117 162.2 1.32002C161.886 1.44905 161.611 1.6555 161.4 1.92002C161.19 2.19025 161.056 2.51109 161.01 2.85003C160.964 3.18896 161.009 3.53395 161.14 3.85002C160.67 3.32002 159.58 2.55002 158.67 3.60002C158.496 3.85305 158.386 4.14442 158.349 4.44919C158.313 4.75396 158.351 5.06305 158.46 5.35002C158.564 5.63885 158.739 5.89677 158.97 6.10002C159.205 6.29697 159.482 6.43725 159.78 6.51002C160.126 6.55996 160.448 6.71736 160.7 6.96002C160.949 7.20857 161.11 7.53152 161.16 7.88002C161.136 8.0045 161.088 8.12328 161.02 8.23002C160.946 8.3334 160.851 8.41887 160.74 8.48002C160.74 8.48002 160.04 8.60002 160.18 7.71002C160.179 7.47609 160.121 7.24594 160.01 7.04002C159.896 6.83469 159.73 6.66243 159.53 6.54002C159.329 6.41081 159.098 6.33824 158.86 6.33002C158.624 6.31969 158.389 6.37141 158.18 6.48002C157.89 6.67104 157.668 6.94963 157.548 7.27519C157.427 7.60076 157.414 7.95629 157.51 8.29002C157.259 8.06979 156.956 7.9182 156.63 7.85002C156.302 7.75974 155.957 7.75974 155.63 7.85002C155.31 7.94752 155.023 8.13083 154.8 8.38002C154.571 8.6212 154.409 8.91752 154.33 9.24002C154.31 9.39605 154.31 9.55399 154.33 9.71002C154.374 9.99952 154.481 10.2759 154.643 10.5195C154.805 10.7631 155.019 10.9681 155.27 11.12C155.517 11.2763 155.798 11.3722 156.09 11.4C156.379 11.4358 156.674 11.405 156.95 11.31C156.742 11.5907 156.63 11.9307 156.63 12.28C156.63 12.6293 156.742 12.9693 156.95 13.25C157.78 14.31 158.95 13.39 159.62 12.37C160.1 11.65 160.62 11.88 160.51 12.81C160.52 12.8797 160.52 12.9504 160.51 13.02C159.8 17.59 155.51 16.96 154.41 15.7C152.94 14.08 153.09 15.47 151.94 16.51C151.403 16.9203 150.762 17.17 150.089 17.2302C149.416 17.2904 148.74 17.1586 148.14 16.85C147 16.34 146 15.06 146 12.79C146 11.61 146.6 11.37 147 12.25C147.56 13.43 148.6 14.58 149.64 13.61C149.896 13.3522 150.064 13.0198 150.12 12.6604C150.176 12.3011 150.116 11.9334 149.95 11.61C150.253 11.7898 150.597 11.8864 150.95 11.89C151.299 11.8876 151.643 11.7982 151.95 11.63C152.256 11.4562 152.512 11.2043 152.69 10.9C152.879 10.6008 152.98 10.2541 152.98 9.90002C152.98 9.54597 152.879 9.19919 152.69 8.90002C152.498 8.59782 152.229 8.35263 151.91 8.19002C151.599 8.03673 151.255 7.96449 150.91 7.98002C150.552 8.00169 150.207 8.11912 149.91 8.32002C150.069 7.98755 150.115 7.61218 150.041 7.25111C149.967 6.89004 149.777 6.56307 149.5 6.32002C149.296 6.17724 149.058 6.09098 148.81 6.07002C148.564 6.04002 148.315 6.07808 148.09 6.18002C147.86 6.28058 147.66 6.43908 147.51 6.64002C147.358 6.83792 147.261 7.07257 147.23 7.32002C147.23 8.26002 146.52 8.03002 146.52 8.03002C146.419 7.94868 146.337 7.8463 146.28 7.73002C146.229 7.61272 146.198 7.48758 146.19 7.36002C146.253 6.98111 146.449 6.63687 146.741 6.38804C147.034 6.13921 147.405 6.00178 147.79 6.00002C148.113 5.97523 148.425 5.87227 148.7 5.70002C148.974 5.52125 149.203 5.28172 149.37 5.00002C149.529 4.71888 149.619 4.40319 149.63 4.08002C149.64 3.75508 149.572 3.43244 149.43 3.14002C149.286 2.933 149.097 2.76148 148.877 2.63846C148.657 2.51544 148.411 2.44416 148.16 2.43002C147.906 2.41693 147.653 2.46137 147.42 2.56002C147.187 2.66101 146.979 2.81111 146.81 3.00002C146.989 2.69715 147.086 2.35219 147.09 2.00002C147.098 1.64894 147.008 1.30252 146.83 1.00002C146.653 0.694807 146.4 0.441579 146.094 0.265972C145.789 0.0903655 145.442 -0.00138337 145.09 1.57658e-05C144.738 0.000639104 144.394 0.0937623 144.09 0.270016C143.782 0.446631 143.526 0.702042 143.35 1.01002C143.18 1.31617 143.091 1.66012 143.09 2.01002C143.096 2.36179 143.192 2.70606 143.37 3.01002C143.206 2.81932 143.001 2.66878 142.77 2.57002C142.536 2.473 142.283 2.42862 142.03 2.44002C141.776 2.44961 141.529 2.52175 141.31 2.65002C141.087 2.77202 140.896 2.94301 140.75 3.15002C140.607 3.44209 140.542 3.76562 140.56 4.09002C140.571 4.41319 140.66 4.72888 140.82 5.01002C140.983 5.29128 141.208 5.5309 141.48 5.71002C141.756 5.87783 142.067 5.98043 142.39 6.01002C142.753 6.01864 143.104 6.14496 143.39 6.37002C143.683 6.60733 143.885 6.93982 143.96 7.31002C143.957 7.43906 143.926 7.56597 143.869 7.68176C143.812 7.79755 143.73 7.89937 143.63 7.98002C143.63 7.98002 142.92 8.21002 142.92 7.27002C142.89 7.02073 142.797 6.78319 142.65 6.58002C142.504 6.38205 142.309 6.22481 142.085 6.12328C141.861 6.02174 141.615 5.97931 141.37 6.00002C141.122 6.02792 140.884 6.11729 140.68 6.26002C140.409 6.50575 140.223 6.83153 140.15 7.19002C140.082 7.55157 140.127 7.92518 140.28 8.26002C139.984 8.05461 139.639 7.93048 139.28 7.90002C138.916 7.87636 138.553 7.95243 138.23 8.12002C137.905 8.28664 137.631 8.53911 137.44 8.85002C137.257 9.1526 137.153 9.49667 137.14 9.85002C137.14 10.2007 137.233 10.5452 137.408 10.8489C137.584 11.1525 137.836 11.4047 138.14 11.58C138.444 11.7563 138.788 11.8494 139.14 11.85C139.491 11.8494 139.836 11.7563 140.14 11.58C139.979 11.9048 139.923 12.2711 139.978 12.629C140.034 12.987 140.198 13.3191 140.45 13.58C141.45 14.58 142.53 13.4 143.09 12.22C143.5 11.34 144.09 11.58 144.09 12.76C144.09 17.64 139.72 17.95 138.17 16.55C137.02 15.55 137.17 14.12 135.7 15.74C134.57 17 130.31 17.63 129.6 13.06V12.9C129.53 11.97 130.01 11.74 130.49 12.46C131.18 13.46 132.32 14.4 133.16 13.34C133.368 13.0593 133.48 12.7193 133.48 12.37C133.48 12.0207 133.368 11.6807 133.16 11.4C133.439 11.4938 133.737 11.5246 134.03 11.49C134.321 11.4622 134.602 11.3663 134.85 11.21C135.098 11.0575 135.309 10.8527 135.47 10.61C135.631 10.3659 135.737 10.0894 135.78 9.80002C135.81 9.64478 135.81 9.48525 135.78 9.33002C135.702 9.0073 135.542 8.71003 135.316 8.46665C135.09 8.22328 134.806 8.04195 134.49 7.94002C134.172 7.83903 133.834 7.82187 133.508 7.89021C133.182 7.95855 132.88 8.11006 132.63 8.33002C132.733 7.99561 132.722 7.63644 132.599 7.30886C132.476 6.98127 132.247 6.70382 131.95 6.52002C131.741 6.4075 131.506 6.35229 131.27 6.36002C131.033 6.3698 130.803 6.43855 130.6 6.56002C130.398 6.68591 130.233 6.86157 130.12 7.07002C130.004 7.27776 129.945 7.51234 129.95 7.75002C130.08 8.64002 129.38 8.52002 129.38 8.52002C129.272 8.4585 129.179 8.37296 129.11 8.27002C129.039 8.16468 128.991 8.04534 128.97 7.92002C128.99 7.55737 129.135 7.21275 129.378 6.94348C129.622 6.67421 129.951 6.49654 130.31 6.44002C130.609 6.37119 130.887 6.23046 131.12 6.03002C131.348 5.82343 131.526 5.56675 131.64 5.28002C131.75 4.99273 131.787 4.68271 131.749 4.37745C131.711 4.07218 131.597 3.7811 131.42 3.53002C131.252 3.36159 131.049 3.23269 130.825 3.15269C130.601 3.07269 130.362 3.0436 130.125 3.06755C129.889 3.09149 129.66 3.16786 129.457 3.29111C129.254 3.41435 129.08 3.58137 128.95 3.78002C129.084 3.46488 129.129 3.11896 129.08 2.78002C129.039 2.44283 128.903 2.12401 128.69 1.86002C128.484 1.58962 128.207 1.38186 127.89 1.26002C127.573 1.13556 127.23 1.09775 126.894 1.15049C126.558 1.20323 126.243 1.3446 125.98 1.56002C125.717 1.77329 125.517 2.053 125.4 2.37002C125.279 2.6888 125.247 3.03473 125.31 3.37002C125.366 3.70533 125.511 4.01948 125.73 4.28002C125.545 4.12884 125.33 4.01964 125.1 3.96002C124.866 3.90364 124.622 3.90043 124.387 3.95061C124.151 4.0008 123.93 4.10311 123.74 4.25002C123.553 4.3996 123.399 4.58703 123.29 4.80002C123.215 5.09872 123.215 5.41131 123.29 5.71002C123.35 6.00957 123.48 6.29061 123.67 6.53002C123.862 6.77278 124.113 6.96215 124.4 7.08002C124.678 7.20835 124.985 7.26013 125.29 7.23002C125.635 7.18354 125.986 7.2502 126.29 7.42002C126.604 7.60195 126.845 7.88864 126.97 8.23002C126.999 8.34819 126.999 8.47185 126.97 8.59002C126.929 8.70335 126.868 8.80837 126.79 8.90002C126.79 8.90002 126.16 9.23002 126.02 8.34002C125.947 8.11294 125.817 7.90864 125.642 7.7473C125.466 7.58596 125.252 7.47315 125.02 7.42002C124.794 7.35474 124.555 7.35474 124.33 7.42002C124.101 7.4808 123.892 7.59767 123.72 7.76002C123.491 8.04433 123.361 8.39535 123.35 8.76002C123.336 9.1144 123.434 9.46405 123.63 9.76002C123.315 9.62519 122.97 9.57353 122.63 9.61002C122.128 9.66315 121.667 9.9106 121.346 10.2994C121.024 10.6881 120.868 11.1873 120.91 11.69C120.964 12.0222 121.102 12.3352 121.31 12.6C121.515 12.8645 121.788 13.0684 122.1 13.19C122.414 13.3129 122.755 13.3508 123.089 13.2999C123.422 13.249 123.736 13.111 124 12.9C123.889 13.2301 123.885 13.5869 123.989 13.9192C124.093 14.2515 124.3 14.5423 124.58 14.75C125.7 15.51 126.51 14.28 126.86 13.09C127.12 12.2 127.7 12.34 127.86 13.45C128.57 18.02 124.25 18.82 122.86 17.87C121.47 16.92 121.64 17.43 121.33 18.48C121.148 18.9207 120.842 19.2992 120.45 19.57C120.063 19.8488 119.605 20.0118 119.13 20.04C118.536 20.1062 117.938 19.9724 117.43 19.66C115.82 18.66 116.5 18.23 116.99 18.36C117.48 18.49 118.99 19.53 119.66 17.8C120.1 16.68 118.92 16 118.54 15.94C118.785 15.8517 119.005 15.704 119.18 15.51C119.36 15.3199 119.493 15.0906 119.57 14.84C119.649 14.5881 119.67 14.3212 119.63 14.06C119.597 13.8007 119.5 13.5535 119.35 13.34C119.138 13.1027 118.859 12.9353 118.55 12.86C118.247 12.7655 117.922 12.7655 117.62 12.86C117.319 12.9677 117.058 13.1628 116.87 13.42C116.683 13.6771 116.576 13.9829 116.56 14.3C116.63 13.3 116 12.06 114.83 12.2C113.66 12.34 113.9 13.62 113.77 14.43C113.46 13.56 114.08 12.81 113.28 11.64C113.128 11.3385 112.867 11.1062 112.55 10.99C112.229 10.862 111.871 10.862 111.55 10.99C111.229 11.097 110.96 11.3223 110.8 11.62C110.623 11.9217 110.566 12.2784 110.64 12.62C110.077 12.3486 109.45 12.2411 108.83 12.31C108.209 12.3782 107.618 12.6131 107.12 12.99C106.43 13.61 105.56 15.34 106.74 15.34C107.92 15.34 109.74 15.03 111.51 16.15C113.51 17.38 115.51 20.56 115.51 22.67V22.72C114.95 23.22 114.01 24.21 114.88 24.99C114.762 25.19 114.7 25.4179 114.7 25.65C114.7 25.8821 114.762 26.11 114.88 26.31C115.061 26.5691 115.301 26.7816 115.58 26.93C115.859 27.0693 116.167 27.1412 116.48 27.14C116.596 27.1502 116.713 27.1502 116.83 27.14C116.925 27.1235 117.017 27.0896 117.1 27.04C117.248 27.5809 117.322 28.1393 117.32 28.7V32.7L94.9997 39.31C101.12 58.31 91.0997 83.9 67.1597 86.71C67.1597 162.36 141.79 198.21 144.98 199.71H145.1C148.3 198.21 222.92 162.36 222.92 86.71C198.92 83.9 188.92 58.46 195.08 39.31ZM177.92 12.9C178.139 13.8201 178.24 14.7644 178.22 15.71C178.699 15.3331 179.257 15.069 179.853 14.9375C180.448 14.8059 181.066 14.8102 181.66 14.95C180.021 14.9604 178.445 15.5807 177.24 16.69C177.909 15.5474 178.15 14.204 177.92 12.9ZM108.65 14.51C109.6 14.32 111.42 14.51 112.1 15.27C112.089 14.3248 112.19 13.3817 112.4 12.46C112.177 13.7652 112.421 15.1071 113.09 16.25C111.872 15.1467 110.293 14.5277 108.65 14.51ZM171.85 17.41C172.398 17.0433 173.019 16.7979 173.67 16.69C173.115 16.054 172.597 15.3862 172.12 14.69C172.942 15.2592 173.727 15.8804 174.47 16.55C174.49 15.9873 174.619 15.4338 174.85 14.92C174.718 15.465 174.715 16.033 174.84 16.5795C174.965 17.1261 175.215 17.6362 175.57 18.07C175.076 17.6178 174.465 17.3155 173.806 17.1986C173.147 17.0817 172.468 17.1551 171.85 17.41ZM171.15 21.21C171.271 21.2462 171.394 21.2729 171.52 21.29H172.39L172.66 21.23H172.74C172.854 21.2022 172.964 21.1619 173.07 21.11H173.37L173.46 21.06C173.524 21.0317 173.585 20.9947 173.64 20.95L173.71 20.9C173.776 20.8547 173.837 20.8009 173.89 20.74C173.72 21.4311 173.699 22.1504 173.83 22.85C172.984 22.2655 172.075 21.7791 171.12 21.4C170.991 21.3613 170.866 21.3076 170.75 21.24L171.15 21.21ZM158.27 11.9C158.272 11.6321 158.337 11.3684 158.46 11.13C158.578 10.8913 158.749 10.6827 158.96 10.52C158.106 10.3691 157.264 10.1586 156.44 9.89002C157.306 9.89154 158.171 9.94832 159.03 10.06C158.879 9.83874 158.78 9.58623 158.74 9.32131C158.7 9.0564 158.72 8.78591 158.8 8.53002C158.819 8.7757 158.89 9.01442 159.01 9.23002C159.13 9.44421 159.294 9.63139 159.49 9.78002C159.679 9.93232 159.902 10.0384 160.14 10.09C160.38 10.1449 160.629 10.1449 160.87 10.09C160.87 10.09 161.64 10.09 161.93 8.65002C161.953 8.39759 161.993 8.14701 162.05 7.90002C162.23 6.39002 161.81 5.80002 160.82 5.44002C161.087 5.43903 161.351 5.50068 161.59 5.62002C161.829 5.74155 162.038 5.91595 162.2 6.13002C162.39 5.28002 162.62 4.44002 162.89 3.62002C162.903 4.4914 162.866 5.36283 162.78 6.23002C162.998 6.0713 163.252 5.96832 163.52 5.93002C163.784 5.88971 164.054 5.91023 164.31 5.99002C163.23 5.99002 162.65 6.49002 162.37 8.09002C162.37 8.28002 162.3 8.48002 162.28 8.70002C162.11 10.17 162.85 10.4 162.85 10.4C163.065 10.5194 163.304 10.591 163.55 10.61C163.793 10.6301 164.038 10.5994 164.27 10.52C164.501 10.4387 164.712 10.3092 164.89 10.14C165.069 9.97297 165.209 9.768 165.3 9.54002C165.301 9.80722 165.239 10.0709 165.12 10.31C165.001 10.5485 164.826 10.7544 164.61 10.91C165.462 11.0692 166.303 11.2796 167.13 11.54C166.264 11.5415 165.399 11.4881 164.54 11.38C164.698 11.5919 164.804 11.8382 164.849 12.0989C164.895 12.3595 164.877 12.6272 164.8 12.88C164.769 12.5131 164.623 12.1654 164.382 11.8869C164.141 11.6083 163.818 11.4134 163.46 11.33C163.219 11.2752 162.97 11.2752 162.73 11.33C161.96 11.41 161.61 12.06 161.41 13.24V13.49C161.397 13.3203 161.421 13.1498 161.48 12.99C161.59 11.99 161.48 11.3 160.77 10.99C160.553 10.8633 160.31 10.788 160.06 10.77C159.806 10.7444 159.55 10.7751 159.31 10.86C159.085 10.9515 158.88 11.0872 158.709 11.2589C158.537 11.4307 158.401 11.635 158.31 11.86L158.27 11.9ZM161 16.09C161 17.26 162.74 18.32 163.48 18.75C161.62 18.3651 159.735 18.1144 157.84 18C159.18 17.9 160.72 17.14 161 16.09ZM144 10.62C143.756 10.5346 143.498 10.4972 143.24 10.51C142.981 10.5325 142.729 10.6073 142.5 10.73C142.269 10.8512 142.067 11.0219 141.91 11.23C141.755 11.4356 141.642 11.6702 141.58 11.92C141.538 11.6417 141.562 11.3574 141.65 11.09C141.74 10.8223 141.887 10.5769 142.08 10.37C141.165 10.3462 140.253 10.2627 139.35 10.12C140.253 9.98066 141.165 9.90049 142.08 9.88002C141.883 9.67541 141.735 9.42843 141.649 9.15803C141.562 8.88762 141.538 8.60096 141.58 8.32002C141.638 8.57429 141.75 8.81304 141.909 9.02008C142.068 9.22712 142.269 9.39762 142.5 9.52002C142.729 9.6427 142.981 9.71754 143.24 9.74002C143.498 9.75908 143.757 9.72154 144 9.63002C144 9.63002 144.81 9.50002 144.87 7.95002V7.30002C144.87 5.59002 144.3 5.02002 143.19 4.80002C143.47 4.74968 143.759 4.7703 144.03 4.86002C144.299 4.94171 144.543 5.08955 144.74 5.29002C144.8 4.38002 144.9 3.47002 145.05 2.57002C145.208 3.4696 145.311 4.37793 145.36 5.29002C145.57 5.07678 145.832 4.92173 146.12 4.84002C146.408 4.76506 146.711 4.76506 147 4.84002C145.89 5.06002 145.36 5.63002 145.32 7.35002V8.00002C145.38 9.55002 146.19 9.68002 146.19 9.68002C146.432 9.77002 146.691 9.80751 146.95 9.79002C147.209 9.76754 147.46 9.6927 147.69 9.57002C147.919 9.44556 148.119 9.27537 148.28 9.07002C148.431 8.8596 148.539 8.62187 148.6 8.37002C148.65 8.65397 148.629 8.94595 148.54 9.22002C148.457 9.49659 148.306 9.74772 148.1 9.95002C149.011 9.96995 149.919 10.0501 150.82 10.19C149.92 10.3332 149.011 10.4167 148.1 10.44C148.301 10.6406 148.448 10.888 148.53 11.16C148.619 11.4272 148.64 11.7127 148.59 11.99C148.531 11.7387 148.419 11.5032 148.26 11.3C148.108 11.0902 147.91 10.9189 147.68 10.8C147.45 10.6773 147.199 10.6025 146.94 10.58C146.682 10.5672 146.424 10.6046 146.18 10.69C145.39 10.9 145.18 11.63 145.12 12.9C145.12 11.62 144.83 10.9 144.05 10.68L144 10.62ZM145.25 15.4C145.35 16.27 146.46 17.29 147.86 17.69L148.29 17.79C146.277 17.4201 144.213 17.4201 142.2 17.79C143.85 17.49 145.2 16.36 145.3 15.4H145.25ZM127.31 11.4C127.078 11.3577 126.84 11.3643 126.611 11.4194C126.382 11.4745 126.167 11.5769 125.98 11.72C125.79 11.8607 125.631 12.0374 125.51 12.24C125.389 12.4421 125.311 12.6667 125.28 12.9C125.2 12.6447 125.179 12.3745 125.22 12.11C125.264 11.8475 125.367 11.5982 125.52 11.38C124.661 11.4884 123.796 11.5418 122.93 11.54C123.757 11.2808 124.598 11.0704 125.45 10.91C125.236 10.7516 125.062 10.5464 124.94 10.31C124.82 10.0709 124.759 9.80722 124.76 9.54002C124.857 9.76406 124.996 9.96763 125.17 10.14C125.347 10.3092 125.558 10.4387 125.79 10.52C126.024 10.5997 126.273 10.6303 126.52 10.61C126.762 10.5908 126.998 10.5191 127.21 10.4C127.21 10.4 127.95 10.17 127.78 8.70002C127.795 8.49664 127.767 8.29237 127.7 8.10002C127.41 6.49002 126.82 6.03002 125.7 5.99002C125.955 5.91058 126.225 5.89007 126.49 5.93002C126.754 5.96831 127.005 6.07136 127.22 6.23002C127.141 5.36232 127.108 4.49116 127.12 3.62002C127.392 4.44368 127.619 5.28159 127.8 6.13002C127.959 5.91621 128.169 5.74458 128.41 5.63002C128.648 5.50859 128.912 5.44359 129.18 5.44002C128.18 5.80002 127.78 6.39002 127.96 7.90002C127.963 8.15448 128.004 8.40707 128.08 8.65002C128.36 10.09 129.14 10.09 129.14 10.09C129.38 10.1449 129.629 10.1449 129.87 10.09C130.11 10.0366 130.335 9.9307 130.53 9.78002C130.725 9.63395 130.886 9.44605 131 9.23002C131.119 9.01442 131.191 8.7757 131.21 8.53002C131.297 8.78366 131.321 9.05492 131.28 9.32002C131.238 9.56467 131.142 9.79697 131 10C131.862 9.88833 132.73 9.83155 133.6 9.83002C132.772 10.0998 131.927 10.3103 131.07 10.46C131.286 10.6193 131.461 10.8286 131.58 11.07C131.707 11.3067 131.772 11.5715 131.77 11.84C131.679 11.612 131.539 11.4071 131.36 11.24C131.18 11.0686 130.965 10.9389 130.73 10.86C130.499 10.7798 130.253 10.7491 130.01 10.77C129.764 10.7906 129.526 10.8621 129.31 10.98C128.66 11.26 128.5 11.91 128.61 12.98C128.619 13.1478 128.639 13.3148 128.67 13.48C128.68 13.4037 128.68 13.3264 128.67 13.25C128.5 12.06 128.16 11.4 127.39 11.32L127.31 11.4ZM129 16.13C129.31 17.13 130.85 17.92 132.16 18.04C130.264 18.1501 128.379 18.4008 126.52 18.79C127.31 18.32 129.05 17.26 129.05 16.09L129 16.13ZM119.24 21.13C119.129 21.2003 119.007 21.2511 118.88 21.28L119.24 21.13ZM116.54 20.95L116.63 21H116.93L117.25 21.12H117.34L117.61 21.18H118.87C117.921 21.5674 117.016 22.0534 116.17 22.63C116.31 21.9312 116.289 21.2097 116.11 20.52L116.29 20.68L116.36 20.73C116.43 20.7954 116.507 20.8524 116.59 20.9L116.54 20.95ZM114.7 17.7C115.06 17.2697 115.31 16.7584 115.43 16.21C115.555 15.6637 115.555 15.0963 115.43 14.55C115.67 15.0605 115.799 15.616 115.81 16.18C116.554 15.5128 117.339 14.8917 118.16 14.32C117.689 15.0208 117.171 15.689 116.61 16.32C117.261 16.4261 117.882 16.6717 118.43 17.04C117.826 16.7801 117.16 16.6966 116.511 16.7992C115.861 16.9019 115.254 17.1865 114.76 17.62L114.7 17.7ZM116.94 26.6C116.874 26.655 116.794 26.6897 116.71 26.7C116.63 26.7097 116.549 26.7097 116.47 26.7C115.79 26.7 114.83 26.17 115.35 25.27C116.61 24.27 119.53 22 125.71 20.35C130.34 19.11 137.81 18.76 142.04 18.65H145.04C146.65 18.65 158.04 18.72 164.28 20.39C170.52 22.06 173.45 24.39 174.69 25.39H174.74C174.847 25.5213 174.913 25.6813 174.93 25.85C174.95 26.0155 174.918 26.1831 174.84 26.33C174.769 26.4807 174.654 26.6063 174.51 26.69C174.367 26.7826 174.199 26.8281 174.03 26.82H173.85C173.767 26.7977 173.689 26.7605 173.62 26.71C170.65 24.4929 167.241 22.938 163.62 22.15C157.6 20.8915 151.459 20.2979 145.31 20.38C139.166 20.2535 133.026 20.7967 127 22C123.379 22.788 119.969 24.3429 117 26.56L116.94 26.6ZM145.3 194.71H145.24C142.24 193.32 73.0697 161.05 73.0697 90.89C95.0697 87.27 106.31 63.47 100.42 45.17L140.74 33.44C142.26 33.38 143.87 33.34 145.59 33.34C147.1 33.34 148.59 33.34 149.91 33.42L190.07 44.7C184.07 63.48 195.34 86.8 217.51 90.81C217.51 160.97 148.31 193.24 145.35 194.63L145.3 194.71Z" fill="#EEC89C"/>
<path d="M173.92 20.55C173.867 20.611 173.807 20.6647 173.74 20.71L173.67 20.76C173.615 20.8047 173.555 20.8417 173.49 20.8701L173.4 20.92H173.1C172.995 20.972 172.884 21.0122 172.77 21.0401H172.69L172.42 21.1H171.52C171.395 21.083 171.271 21.0562 171.15 21.0201C172.105 21.3991 173.014 21.8856 173.86 22.47C173.76 21.8319 173.78 21.1807 173.92 20.55Z" fill="#EEC89C"/>
<path d="M170.78 21.05C170.896 21.1176 171.021 21.1713 171.15 21.21L170.78 21.05Z" fill="#EEC89C"/>
<path d="M262.45 119.66C262.45 119.66 259.67 115.83 256.05 120.56C256.05 120.56 254.22 118.96 252.31 119.49C253.123 119.193 253.79 118.593 254.172 117.816C254.554 117.04 254.621 116.145 254.36 115.32C260.44 110.56 255.63 109.11 255.63 109.11C258.93 99.9899 253.63 102.11 253.63 102.11C253.4 99.3699 252.97 97.7799 252.46 96.9699C252.425 96.8664 252.382 96.7661 252.33 96.6699C252.33 96.6699 254.62 96.3299 253.47 94.8599C253.351 94.4673 253.118 94.1191 252.8 93.8599C252.489 93.6017 252.111 93.4385 251.71 93.3899C254.14 93.0999 257.77 92.3899 255.71 91.1499C255.71 91.1499 262.29 84.7999 252.71 87.2799C252.71 87.2799 252.9 82.6399 246.71 87.6799C246.71 87.6799 244.27 84.3599 242.25 90.3499C242.25 90.3499 238.37 90.5199 239.97 95.1399C239.97 95.1399 235.84 96.2799 238.11 100.14C238.11 100.14 247.25 102.26 245.32 98.6299C246.41 98.7798 247.509 98.86 248.61 98.8699C248.16 99.6399 247.87 100.28 247.87 100.28C245.59 98.4599 246.28 102.92 246.93 105.84C246.703 105.397 246.357 105.026 245.93 104.77C245.51 104.51 245.024 104.378 244.53 104.39C242.37 103.67 242.92 106.39 242.92 106.39C238.55 105.71 243.49 115.13 243.49 115.13C238.49 114.37 244.67 124.03 244.67 124.03C249.97 125.1 249.62 119.88 249.62 119.88C250.373 119.89 251.124 119.792 251.85 119.59C250.818 120.072 250.009 120.931 249.59 121.99C249.59 121.99 253.59 132.72 255.97 128.32C255.97 128.32 260.49 137.94 262.58 134.05C262.58 134.05 264.47 136.17 265.19 134.05C265.499 133.666 265.689 133.2 265.74 132.71C265.79 132.218 265.7 131.723 265.48 131.28C267.42 133.56 270.54 136.81 270.48 133.9C270.48 133.9 281.37 136.34 272.42 128.26C272.42 128.26 277.27 125.34 268.01 122.46C268.17 122.41 269.92 117.7 262.45 119.66ZM247.88 92.2399C247.42 92.4799 246.97 92.7699 246.5 93.0299C246.03 93.2899 245.58 93.5999 245.12 93.8899C244.66 94.1799 244.2 94.4899 243.76 94.7999C243.32 95.1099 242.89 95.4099 242.5 95.7399C242.11 96.0699 241.71 96.3499 241.37 96.6799C241.03 97.0099 240.68 97.2799 240.37 97.5699C240.06 97.8599 239.82 98.1399 239.58 98.3799C239.34 98.6199 239.18 98.8599 239.02 99.0399C238.71 99.4199 238.52 99.6299 238.52 99.6299C238.52 99.6299 238.63 99.3699 238.85 98.9299C238.98 98.6599 239.12 98.3999 239.27 98.1399C239.42 97.8799 239.67 97.5299 239.92 97.1399C240.175 96.775 240.47 96.4396 240.8 96.1399C241.15 95.7599 241.51 95.3999 241.89 95.0599C242.27 94.7199 242.72 94.3399 243.15 94.0599C243.58 93.7799 244.06 93.3999 244.53 93.0599C244.998 92.7514 245.482 92.4677 245.98 92.2099C246.43 91.9499 246.98 91.6899 247.44 91.4699C247.9 91.2499 248.38 91.0499 248.83 90.8699C249.28 90.6899 249.71 90.5399 250.11 90.3999C250.996 90.093 251.906 89.8589 252.83 89.6999L252.13 90.0399L250.34 90.9399L249.15 91.5699L247.88 92.2399ZM251.19 108.07C251.185 108.689 251.141 109.307 251.06 109.92C250.98 110.56 250.91 111.22 250.8 111.92C250.69 112.62 250.54 113.26 250.41 113.92C250.28 114.58 250.05 115.25 249.85 115.92C249.655 116.56 249.421 117.188 249.15 117.8C248.91 118.377 248.64 118.941 248.34 119.49C248.05 120 247.79 120.49 247.49 120.93C247.19 121.37 246.9 121.73 246.65 122.07C246.419 122.351 246.172 122.618 245.91 122.87C245.49 123.3 245.24 123.53 245.24 123.53L245.71 122.72C245.86 122.46 246.07 122.17 246.25 121.8C246.43 121.43 246.63 121.01 246.86 120.57C247.09 120.13 247.26 119.57 247.5 119.09C247.74 118.61 247.89 117.98 248.12 117.4C248.35 116.82 248.47 116.19 248.69 115.57C248.91 114.95 249.03 114.29 249.19 113.65C249.35 113.01 249.5 112.35 249.61 111.65C249.72 110.95 249.88 110.37 249.97 109.75C250.06 109.13 250.17 108.53 250.26 107.96L250.49 106.35C250.62 105.35 250.73 104.5 250.8 103.91L250.91 102.98C251.109 104.106 251.21 105.247 251.21 106.39C251.21 106.9 251.23 107.48 251.19 108.07ZM270.19 129.86L269.38 129.38L267.25 128.16L265.82 127.37L264.22 126.52C263.67 126.21 263.07 125.95 262.49 125.65C261.91 125.35 261.29 125.1 260.68 124.81C260.07 124.52 259.46 124.29 258.85 124.05C258.24 123.81 257.64 123.57 257.04 123.4C256.44 123.23 255.88 123 255.33 122.87C254.78 122.74 254.25 122.58 253.76 122.48L252.41 122.23C252 122.15 251.65 122.14 251.41 122.1L250.48 121.98L251.41 121.85C251.767 121.792 252.128 121.758 252.49 121.75H253.91C254.466 121.779 255.02 121.839 255.57 121.93C256.19 122.027 256.804 122.157 257.41 122.32C258.05 122.47 258.67 122.68 259.32 122.89C259.97 123.1 260.6 123.39 261.24 123.65C261.872 123.918 262.489 124.218 263.09 124.55C263.69 124.87 264.27 125.2 264.81 125.55C265.35 125.9 265.88 126.23 266.36 126.55C266.84 126.87 267.29 127.22 267.7 127.55C268.592 128.265 269.424 129.051 270.19 129.9V129.86Z" fill="white"/>
<path d="M240.12 118.33C240.32 108.64 236.01 112.33 236.01 112.33C231.19 101.33 230.01 112.33 230.01 112.33C227.27 111.33 229.36 115.33 230.91 117.9C230.558 117.55 230.114 117.307 229.63 117.2C229.147 117.098 228.645 117.133 228.18 117.3C225.9 117.3 227.31 119.76 227.31 119.76C222.96 120.51 230.65 127.85 230.65 127.85C225.72 128.72 234.65 135.85 234.65 135.85C240.02 135.16 238.01 130.33 238.01 130.33C243.65 128.4 240.89 124.55 240.89 124.55C245.13 118.17 240.12 118.33 240.12 118.33ZM236.75 128.61C236.711 129.234 236.638 129.855 236.53 130.47C236.443 131.023 236.326 131.57 236.18 132.11C236.03 132.61 235.88 133.06 235.75 133.46C235.628 133.804 235.481 134.138 235.31 134.46C235.05 135.01 234.89 135.31 234.89 135.31C234.89 135.31 234.95 134.97 235.07 134.39C235.13 134.09 235.23 133.75 235.28 133.39C235.33 133.03 235.39 132.53 235.47 132.04C235.55 131.55 235.54 131.04 235.6 130.43C235.66 129.82 235.6 129.25 235.65 128.63C235.7 128.01 235.6 127.37 235.6 126.71C235.6 126.05 235.51 125.39 235.46 124.71C235.41 124.03 235.34 123.38 235.24 122.71C235.14 122.04 235.08 121.41 234.96 120.8C234.84 120.19 234.77 119.58 234.66 119.01C234.55 118.44 234.46 117.9 234.37 117.4C234.17 116.4 234 115.58 233.88 115L233.69 114.08C234.23 115.085 234.688 116.132 235.06 117.21C235.22 117.7 235.42 118.21 235.57 118.79C235.72 119.37 235.91 119.96 236.04 120.59C236.17 121.22 236.33 121.87 236.43 122.59C236.53 123.31 236.61 123.94 236.71 124.59C236.783 125.254 236.816 125.922 236.81 126.59C236.83 127.264 236.81 127.938 236.75 128.61Z" fill="white"/>
<path d="M246.49 61.65C246.49 61.65 243.49 64.73 247.39 66.86C247.39 66.86 256.34 64.06 252.84 61.86C252.84 61.86 260.91 58.57 257.84 56.69C257.84 56.69 259.66 55.24 257.92 54.55C257.617 54.2795 257.243 54.1025 256.842 54.0403C256.441 53.9782 256.03 54.0337 255.66 54.2C257.66 52.71 260.4 50.29 258.01 50.2C258.01 50.2 260.47 41.4 253.48 48.38C253.48 48.38 251.29 44.29 248.54 51.74C248.54 51.74 244.76 50.11 246.06 56.31C246 56.37 242.77 58.48 246.49 61.65ZM247.38 63.49C247.418 63.0342 247.495 62.5826 247.61 62.14C247.71 61.6361 247.841 61.1385 248 60.65C248.15 60.14 248.35 59.65 248.55 59.11C248.75 58.57 249.01 58.11 249.25 57.57C249.489 57.0616 249.763 56.5704 250.07 56.1C250.36 55.63 250.65 55.16 250.95 54.73C251.25 54.3 251.55 53.88 251.85 53.5C252.15 53.12 252.44 52.77 252.71 52.5C253.323 51.7819 253.992 51.1131 254.71 50.5C254.71 50.5 254.55 50.73 254.29 51.14L253.19 52.83L252.49 53.97C252.24 54.37 251.98 54.8 251.72 55.24C251.46 55.68 251.21 56.16 250.94 56.62C250.67 57.08 250.43 57.62 250.18 58.06C249.93 58.5 249.69 59.06 249.47 59.53C249.25 60 249.03 60.53 248.86 60.98C248.69 61.43 248.49 61.92 248.36 62.37C248.23 62.82 248.08 63.23 247.97 63.63C247.86 64.03 247.79 64.4 247.71 64.73C247.63 65.06 247.61 65.34 247.56 65.58C247.48 66.06 247.42 66.34 247.42 66.34C247.414 66.0824 247.394 65.8254 247.36 65.57C247.36 65.27 247.36 64.98 247.36 64.68C247.335 64.2834 247.341 63.8855 247.38 63.49Z" fill="white"/>
<path d="M231.64 89.7601C228.64 92.6101 238.02 93.4301 238.02 93.4301C241.36 90.5101 237.79 88.1401 237.79 88.1401C240.79 84.2601 237.11 82.8901 237.11 82.8901C237 76.5601 233.7 79.0001 233.7 79.0001C229.41 72.3101 228.15 76.7801 228.15 76.7801C219.83 71.4601 224.15 79.5301 224.15 79.5301C221.83 80.1201 225.08 81.8801 227.3 82.9201C226.903 82.8405 226.491 82.8763 226.113 83.0234C225.736 83.1705 225.409 83.4227 225.17 83.7501C223.62 84.7501 225.7 85.8201 225.7 85.8201C223.05 88.2801 231.64 89.7601 231.64 89.7601ZM229.74 80.5001C230.07 80.7501 230.44 81.0201 230.8 81.3401C231.198 81.652 231.579 81.9858 231.94 82.3401C232.33 82.7001 232.72 83.0901 233.1 83.4901C233.48 83.8901 233.84 84.3301 234.22 84.7601C234.58 85.1901 234.913 85.6409 235.22 86.1101C235.534 86.5583 235.824 87.0222 236.09 87.5001C236.347 87.941 236.58 88.3949 236.79 88.8601C236.98 89.3101 237.17 89.7301 237.3 90.1401C237.43 90.5501 237.53 90.9201 237.62 91.2601C237.689 91.5465 237.739 91.8371 237.77 92.1301C237.84 92.6201 237.87 92.9001 237.87 92.9001L237.58 92.1901C237.48 91.9601 237.39 91.6801 237.24 91.3801L236.75 90.3801C236.57 90.0101 236.32 89.6401 236.11 89.2301C235.9 88.8201 235.58 88.4201 235.32 87.9901C235.06 87.5601 234.71 87.1401 234.41 86.7001C234.11 86.2601 233.75 85.8401 233.41 85.4201C233.07 85.0001 232.72 84.5701 232.41 84.1701C232.074 83.7613 231.717 83.3707 231.34 83.0001L230.34 81.9201L229.4 80.9201L228 79.5001L227.45 78.9601C228.253 79.4116 229.019 79.9266 229.74 80.5001Z" fill="white"/>
<path d="M255.14 70.2601C255.14 70.2601 254.14 66.2601 249.99 71.0001C249.99 71.0001 246.34 69.6601 245.99 74.5401C245.99 74.5401 241.74 73.9901 242.36 78.3901C242.36 78.3901 249.96 83.8701 249.58 79.7801C249.58 79.7801 257.05 84.2701 256.7 80.6701C256.7 80.6701 258.95 81.2501 258.46 79.4401C258.492 79.0417 258.408 78.6424 258.22 78.2901C258.03 77.9335 257.742 77.6386 257.39 77.4401C259.75 78.1201 263.39 78.9001 261.99 76.9401C261.99 76.9401 270.51 73.6401 260.73 72.2201C260.78 72.2001 262.75 68.0001 255.14 70.2601ZM259.14 74.4601L257.14 74.6001L255.81 74.7101L254.33 74.8701C253.803 74.906 253.279 74.9728 252.76 75.0701C252.19 75.1401 251.69 75.2301 251.15 75.3201L249.55 75.6301C249.03 75.7801 248.55 75.8601 248.02 76.0101C247.542 76.1274 247.071 76.2709 246.61 76.4401C246.2 76.6101 245.74 76.7301 245.37 76.8901L244.37 77.3301C244.09 77.4501 243.82 77.6201 243.6 77.7301L242.91 78.0701C242.91 78.0701 243.11 77.8801 243.48 77.5601C243.85 77.2401 243.93 77.1701 244.17 76.9901L245.17 76.3601C245.53 76.1401 245.95 75.9501 246.39 75.7301C246.851 75.5078 247.325 75.3141 247.81 75.1501C248.324 74.9621 248.848 74.8019 249.38 74.6701C249.95 74.5201 250.47 74.4201 251.03 74.3101C251.582 74.2042 252.139 74.1274 252.7 74.0801C253.26 74.0801 253.79 73.9801 254.32 73.9601C254.85 73.9401 255.32 73.9601 255.84 73.9601C256.294 73.9478 256.748 73.9679 257.2 74.0201C258.136 74.0776 259.065 74.2114 259.98 74.4201L259.14 74.4601Z" fill="white"/>
<path d="M240.85 185.28C240.85 185.28 245.03 180.98 235.92 179.52C235.92 179.52 234.74 173.99 228.5 177.41C228.157 176.725 227.697 176.106 227.14 175.58C230.27 175.83 231.58 172.21 231.58 172.21C238.1 175.06 238.79 169.44 238.79 169.44C247.73 167.18 243.18 163.27 243.18 163.27C251.18 154.91 244.42 154.66 244.42 154.66C245.19 152.789 245.61 150.793 245.66 148.77C247 149.27 248.08 149.16 248.24 147.61C248.24 147.61 250.79 148.83 250.62 146.55C250.755 146.075 250.752 145.571 250.61 145.098C250.468 144.625 250.194 144.203 249.82 143.88C252.49 145.24 256.62 147.03 255.44 144.36C255.44 144.36 266.44 142.36 255.04 138.42C255.04 138.42 258.39 133.85 248.74 134.77C248.74 134.77 248.53 129.77 242.4 134.45C242.4 134.45 238.35 131.99 236.85 137.76C236.85 137.76 231.85 136.11 231.59 141.51C231.59 141.51 239.41 149.87 239.92 144.88C240.916 145.755 241.961 146.573 243.05 147.33C241.634 147.991 240.32 148.853 239.15 149.89C237.52 146.81 236.15 152.01 235.43 155.51C235.412 154.921 235.22 154.351 234.88 153.87C234.544 153.385 234.076 153.006 233.53 152.78C231.53 150.95 230.78 154.24 230.78 154.24C226.34 151.39 227.18 164.06 227.18 164.06C222.13 160.84 224.18 174.35 224.18 174.35L224.25 174.4C223.006 174.53 221.841 175.072 220.94 175.94C220.94 175.94 220.11 189.57 224.85 185.94C224.85 185.94 225.14 198.63 229.3 195.39C229.3 195.39 230.3 198.61 232.18 196.6C232.701 196.325 233.134 195.909 233.43 195.4C233.721 194.89 233.86 194.307 233.83 193.72C234.83 197.14 236.69 202.2 238.03 198.98C238.03 198.98 248.73 206.91 242.86 193.77C242.85 193.75 249.56 192.9 240.85 185.28ZM242.76 139.9H240.76C240.118 139.882 239.476 139.915 238.84 140C238.22 140.1 237.61 140.08 237.05 140.18C236.49 140.28 235.95 140.32 235.46 140.42L234.12 140.71C233.72 140.79 233.38 140.93 233.12 141C232.55 141.17 232.22 141.25 232.22 141.25C232.22 141.25 232.5 141.07 233.03 140.77C233.353 140.58 233.687 140.41 234.03 140.26L235.34 139.73C235.83 139.55 236.34 139.42 236.95 139.26C237.556 139.106 238.17 138.985 238.79 138.9C239.43 138.79 240.1 138.75 240.79 138.69C241.48 138.63 242.17 138.69 242.86 138.64C243.529 138.628 244.198 138.668 244.86 138.76C245.54 138.82 246.19 138.9 246.86 139.01C247.53 139.12 248.11 139.22 248.69 139.34C249.27 139.46 249.8 139.61 250.3 139.74C251.405 140.03 252.485 140.407 253.53 140.87L252.6 140.75L250.16 140.44L248.54 140.27C247.96 140.2 247.36 140.15 246.73 140.1L244.8 139.97C244.19 139.92 243.43 139.9 242.76 139.9ZM225.76 173.32C226.107 173.089 226.441 172.838 226.76 172.57C227.162 172.211 227.587 171.877 228.03 171.57C228.5 171.24 228.93 170.71 229.44 170.26C229.964 169.774 230.461 169.26 230.93 168.72C231.42 168.18 231.93 167.56 232.44 166.99C232.95 166.42 233.44 165.76 233.91 165.13C234.38 164.5 234.91 163.87 235.31 163.21C235.71 162.55 236.22 161.95 236.62 161.31C237.02 160.67 237.44 160.08 237.8 159.49L238.8 157.84C239.43 156.84 239.95 155.94 240.31 155.33L240.89 154.33C240.552 155.654 240.107 156.948 239.56 158.2C239.31 158.76 239.06 159.37 238.73 160C238.4 160.63 238.09 161.3 237.73 162C237.364 162.693 236.953 163.361 236.5 164C236.05 164.65 235.56 165.33 235.09 166C234.61 166.665 234.089 167.3 233.53 167.9C232.97 168.52 232.43 169.08 231.86 169.61C231.319 170.123 230.752 170.607 230.16 171.06C229.59 171.49 229.06 171.9 228.53 172.22C228 172.54 227.53 172.82 227.06 173.06C226.677 173.264 226.28 173.438 225.87 173.58L224.82 173.99L225.82 173.31L225.76 173.32ZM238.76 193.49L237 191.13L235.82 189.57C235.4 189.02 234.95 188.46 234.48 187.87C234.01 187.28 233.48 186.7 233.01 186.09C232.518 185.467 231.994 184.869 231.44 184.3C230.87 183.7 230.36 183.13 229.81 182.58C229.26 182.03 228.72 181.48 228.15 181C227.58 180.52 227.08 180 226.53 179.59C225.98 179.18 225.53 178.76 225.01 178.41L223.66 177.49C223.26 177.21 222.87 177.02 222.57 176.84L221.57 176.25L222.65 176.56C222.99 176.68 223.43 176.77 223.88 176.97C224.33 177.17 224.88 177.41 225.42 177.68C225.96 177.95 226.54 178.32 227.15 178.68C227.76 179.04 228.34 179.52 228.97 179.98C229.6 180.466 230.204 180.983 230.78 181.53C231.39 182.08 231.94 182.69 232.51 183.28C233.072 183.876 233.6 184.504 234.09 185.16C234.58 185.8 235.09 186.44 235.5 187.08C235.91 187.72 236.33 188.33 236.7 188.94C237.07 189.55 237.38 190.12 237.7 190.66C238.36 191.855 238.919 193.102 239.37 194.39L238.76 193.49Z" fill="white"/>
<path d="M222.22 196.05C222.22 196.05 228.08 192.67 217.09 189.05C217.09 189.05 219.29 183.46 210.33 185.64C210.33 185.64 207.09 181 202.66 186.56C202.66 186.56 198.04 182.37 195.11 188.13C195.11 188.13 199.62 201.03 202.58 195.83C202.58 195.83 207.75 207.42 210.35 202.83C210.35 202.83 212.55 205.4 213.46 202.83C213.841 202.38 214.081 201.826 214.15 201.24C214.224 200.652 214.127 200.055 213.87 199.52C216.13 202.29 219.79 206.24 219.78 202.76C219.78 202.73 232.72 205.9 222.22 196.05ZM218.37 197.37L215.86 195.9L214.17 194.9C213.58 194.55 212.94 194.2 212.28 193.84C211.62 193.48 210.93 193.14 210.28 192.77C209.584 192.401 208.87 192.067 208.14 191.77C207.43 191.46 206.69 191.11 205.97 190.77C205.276 190.448 204.561 190.174 203.83 189.95C203.13 189.73 202.45 189.45 201.83 189.29C201.21 189.13 200.55 188.91 199.97 188.79L198.36 188.46C197.88 188.36 197.46 188.33 197.11 188.28L196 188.11C196 188.11 196.4 188.05 197.11 187.98C197.541 187.922 197.975 187.889 198.41 187.88H200C200.671 187.932 201.338 188.018 202 188.14C202.71 188.24 203.43 188.45 204.18 188.63C204.93 188.81 205.69 189.1 206.46 189.37C207.23 189.64 207.97 189.99 208.73 190.31C209.478 190.639 210.206 191.013 210.91 191.43C211.61 191.83 212.31 192.23 212.91 192.65C213.51 193.07 214.17 193.49 214.74 193.9C215.31 194.31 215.83 194.73 216.31 195.11C217.385 195.959 218.389 196.896 219.31 197.91L218.37 197.37Z" fill="white"/>
<path d="M202.34 43.24C200.76 44.24 203.63 44.76 205.55 44.97C205.235 45.0124 204.937 45.1404 204.69 45.34C204.45 45.5492 204.271 45.8184 204.17 46.12C203.28 47.29 205.09 47.53 205.09 47.53C203.77 50.06 210.54 48.99 210.54 48.99C209.06 51.86 216.23 50.11 216.23 50.11C217.98 47.11 214.71 46.23 214.71 46.23C215.93 42.58 212.88 42.49 212.88 42.49C211.23 37.79 209.34 40.42 209.34 40.42C204.46 36.52 204.65 40.17 204.65 40.17C197.1 38.31 202.34 43.24 202.34 43.24ZM206.78 42.57C207.09 42.67 207.44 42.78 207.78 42.92C208.12 43.06 208.51 43.21 208.88 43.39C209.264 43.5717 209.638 43.7754 210 44C210.39 44.2 210.77 44.44 211.16 44.66C211.538 44.8868 211.902 45.1373 212.25 45.41C212.6 45.67 212.94 45.94 213.25 46.22C213.557 46.4854 213.847 46.7693 214.12 47.07C214.37 47.36 214.62 47.62 214.82 47.89C215.02 48.16 215.19 48.41 215.34 48.64C215.472 48.832 215.586 49.0363 215.68 49.25C215.86 49.6 215.95 49.8 215.95 49.8L215.55 49.34C215.42 49.2 215.29 49.01 215.1 48.82C214.91 48.63 214.7 48.43 214.48 48.2C214.26 47.97 213.97 47.75 213.7 47.5C213.43 47.25 213.1 47.03 212.8 46.77C212.5 46.51 212.13 46.3 211.8 46.05C211.47 45.8 211.09 45.58 210.73 45.34C210.371 45.101 210.001 44.8807 209.62 44.68C209.24 44.48 208.9 44.25 208.54 44.07L207.54 43.52C207.21 43.36 206.9 43.19 206.6 43.05L205.18 42.35L204.63 42.09C205.358 42.1933 206.077 42.3538 206.78 42.57Z" fill="white"/>
<path d="M270.27 166.39C270.27 166.39 273.61 160.51 262.27 162.92C262.27 162.92 261.33 157 254.71 163.42C254.71 163.42 249.57 161.05 248.58 168.1C248.58 168.1 242.46 166.82 242.86 173.27C242.86 173.27 253.28 182.11 253.2 176.12C253.2 176.12 263.53 183.49 263.44 178.22C263.44 178.22 266.63 179.32 266.12 176.64C266.207 176.066 266.129 175.479 265.896 174.948C265.662 174.417 265.282 173.963 264.8 173.64C268.15 174.88 273.31 176.43 271.54 173.44C271.56 173.39 284.31 169.56 270.27 166.39ZM267.63 169.48H262.75C262.06 169.48 261.33 169.48 260.58 169.53C259.83 169.58 259.06 169.61 258.28 169.64C257.5 169.67 256.7 169.76 255.9 169.82C255.1 169.88 254.32 169.99 253.55 170.1C252.78 170.21 252.01 170.31 251.29 170.48C250.57 170.65 249.85 170.74 249.19 170.94C248.53 171.14 247.9 171.26 247.33 171.45L245.78 171.97C245.31 172.12 244.94 172.33 244.61 172.46L243.61 172.88C243.61 172.88 243.93 172.62 244.5 172.2C244.84 171.93 245.197 171.682 245.57 171.46C246.01 171.21 246.51 170.93 247.06 170.65C247.61 170.37 248.24 170.13 248.9 169.87C249.56 169.61 250.31 169.38 251.03 169.19C251.75 169 252.57 168.83 253.36 168.67C254.15 168.51 254.98 168.44 255.8 168.33C256.614 168.239 257.431 168.192 258.25 168.19C259.06 168.19 259.86 168.19 260.63 168.19C261.4 168.19 262.14 168.28 262.84 168.34C263.54 168.4 264.2 168.51 264.84 168.59C266.196 168.778 267.534 169.079 268.84 169.49L267.63 169.48Z" fill="white"/>
<path d="M231.28 62.2999C228.89 62.1099 231.4 64.8199 233.18 66.5099C232.831 66.3088 232.432 66.2116 232.03 66.2299C231.624 66.251 231.232 66.3862 230.9 66.6199C229.09 67.1099 230.73 68.7499 230.73 68.7499C227.45 70.2799 235.11 74.4399 235.11 74.4399C231.39 76.1899 240 79.9999 240 79.9999C244.11 78.3099 241.48 74.9099 241.48 74.9099C245.53 72.1799 242.48 69.7199 242.48 69.7199C244.48 63.7199 240.48 64.9099 240.48 64.9099C238.57 57.1999 235.94 61.0199 235.94 61.0199C229.8 53.2699 231.28 62.2999 231.28 62.2999ZM236.28 65.0499C236.51 65.3999 236.78 65.7699 237.02 66.1899C237.26 66.6099 237.54 67.0399 237.78 67.5099C238.02 67.9799 238.27 68.5099 238.5 68.9699C238.73 69.4299 238.93 69.9699 239.15 70.5199C239.37 71.0699 239.52 71.5899 239.68 72.1299C239.837 72.6521 239.964 73.183 240.06 73.7199C240.163 74.2218 240.237 74.7294 240.28 75.2399C240.28 75.7299 240.36 76.2399 240.36 76.6099C240.37 76.9976 240.35 77.3855 240.3 77.7699C240.277 78.0659 240.233 78.3599 240.17 78.6499C240.08 79.1399 240.02 79.4099 240.02 79.4099C240.02 79.4099 240.02 79.1299 239.97 78.6399C239.976 78.3487 239.956 78.0575 239.91 77.7699C239.85 77.4299 239.81 77.0599 239.77 76.6599C239.73 76.2599 239.6 75.8199 239.52 75.3599C239.44 74.8999 239.28 74.4199 239.18 73.9299C239.08 73.4399 238.86 72.9299 238.73 72.4199C238.6 71.9099 238.37 71.4199 238.19 70.8799C238.01 70.3399 237.81 69.8799 237.59 69.3599C237.37 68.8399 237.19 68.3599 236.96 67.9099C236.73 67.4599 236.55 66.9799 236.35 66.5499C236.15 66.1199 235.95 65.7199 235.77 65.3499L234.87 63.5499L234.52 62.8599C235.169 63.5372 235.758 64.27 236.28 65.0499Z" fill="white"/>
<path d="M281.74 100.39C281.74 100.39 282.3 94.7599 274.45 100.39C274.45 100.39 271.72 96.1699 268.83 103.33C268.83 103.33 264.09 103.26 265.71 108.99C265.71 108.99 260.59 110.08 263.08 114.89C263.08 114.89 274.08 118.13 271.97 113.57C271.97 113.57 282.38 115.72 280.52 111.71C280.52 111.71 283.34 111.47 282.04 109.59C281.92 109.118 281.668 108.689 281.314 108.355C280.96 108.02 280.518 107.793 280.04 107.7C283.04 107.52 287.5 106.96 285.13 105.27C285.09 105.32 293.56 98.0599 281.74 100.39ZM280.74 103.65L278.48 104.65L276.99 105.32C276.47 105.55 275.92 105.82 275.35 106.09C274.78 106.36 274.21 106.67 273.62 106.96C273.03 107.25 272.46 107.58 271.87 107.9C271.28 108.22 270.72 108.56 270.16 108.9C269.6 109.24 269.05 109.58 268.55 109.9C268.05 110.22 267.55 110.59 267.11 110.96C266.67 111.33 266.23 111.65 265.86 111.96C265.49 112.27 265.15 112.61 264.86 112.88C264.57 113.15 264.33 113.44 264.12 113.65L263.47 114.33C263.47 114.33 263.62 114.02 263.92 113.5C264.1 113.18 264.29 112.87 264.49 112.57L265.35 111.45C265.68 111.05 266.08 110.66 266.5 110.23C266.945 109.793 267.412 109.379 267.9 108.99C268.409 108.558 268.947 108.16 269.51 107.8C270.12 107.41 270.67 107.07 271.26 106.72C271.853 106.375 272.464 106.061 273.09 105.78C273.7 105.5 274.32 105.22 274.92 104.99C275.52 104.76 276.1 104.54 276.66 104.36C277.22 104.18 277.76 104.02 278.25 103.88C279.351 103.571 280.474 103.35 281.61 103.22L280.74 103.65Z" fill="white"/>
<path d="M227.75 48.5399C227.75 48.5399 225.64 45.5399 224.21 51.6399C224.21 51.6399 221.1 50.7299 222.71 55.4399C222.71 55.4399 220.37 57.4399 223.58 59.5199C223.58 59.5199 221.58 62.2199 224.79 63.5199C224.79 63.5199 231.51 60.5199 228.56 59.1299C228.56 59.1299 234.56 55.7799 231.95 54.6099C231.95 54.6099 233.23 53.2999 231.8 52.9299C231.535 52.7569 231.227 52.66 230.91 52.6499C230.589 52.6463 230.274 52.7329 230 52.8999C231.38 51.5599 233.33 49.3999 231.46 49.5699C231.46 49.5299 232.53 42.4099 227.75 48.5399ZM228.65 50.5399L228 51.9999C227.87 52.2999 227.72 52.6199 227.56 52.9999C227.4 53.3799 227.25 53.6899 227.09 54.0699C226.93 54.4499 226.78 54.8299 226.61 55.2199C226.44 55.6099 226.31 56.0199 226.15 56.4199C225.99 56.8199 225.87 57.2299 225.74 57.6299C225.608 58.0202 225.498 58.4175 225.41 58.8199C225.33 59.2099 225.2 59.5899 225.15 59.9499C225.1 60.3099 225.01 60.6599 224.97 60.9499C224.93 61.2399 224.9 61.5699 224.87 61.8299C224.855 62.0564 224.855 62.2835 224.87 62.5099V63.1199C224.87 63.1199 224.87 62.9099 224.74 62.5299C224.74 62.3299 224.65 62.0999 224.63 61.8299C224.61 61.5599 224.63 61.2599 224.63 60.9199C224.61 60.5602 224.61 60.1997 224.63 59.8399C224.656 59.4367 224.709 59.0358 224.79 58.6399C224.864 58.215 224.961 57.7944 225.08 57.3799C225.19 56.9499 225.33 56.5399 225.47 56.1199C225.614 55.7011 225.781 55.2905 225.97 54.8899C226.15 54.4999 226.33 54.0999 226.53 53.7299C226.73 53.3599 226.92 53.0099 227.11 52.7299C227.3 52.4499 227.5 52.0999 227.68 51.8199C228.071 51.1795 228.513 50.571 229 49.9999L228.65 50.5399Z" fill="white"/>
<path d="M217.42 43.82C217.42 43.82 214.5 45.52 217 48C217 48 224.38 47.79 222.18 45.41C222.18 45.41 229 44.65 227.05 42.56C227.05 42.56 228.74 41.85 227.57 40.96C227.399 40.6913 227.152 40.4791 226.86 40.35C226.57 40.2141 226.247 40.1655 225.93 40.21C227.72 39.5 230.36 38.21 228.56 37.69C228.56 37.69 232.31 31.55 225.56 35.35C225.56 35.35 224.78 31.78 221.1 36.84C221.1 36.84 218.59 34.84 218.25 39.76C218.2 39.72 215.27 40.63 217.42 43.82ZM218.16 44.43C218.338 44.082 218.542 43.7477 218.77 43.43C218.99 43.11 219.26 42.73 219.52 42.43L220.38 41.43C220.69 41.12 220.99 40.79 221.31 40.49C221.625 40.1855 221.959 39.9016 222.31 39.64C222.67 39.38 222.95 39.13 223.26 38.9C223.57 38.67 223.86 38.48 224.14 38.29C224.725 37.8433 225.347 37.4485 226 37.11L225.55 37.5L224.36 38.5L223.58 39.21C223.3 39.46 223.02 39.73 222.73 40.01L221.84 40.89C221.53 41.19 221.25 41.51 220.96 41.82C220.659 42.1377 220.375 42.4715 220.11 42.82C219.84 43.18 219.57 43.46 219.34 43.82C219.11 44.18 218.85 44.45 218.66 44.76C218.47 45.07 218.26 45.36 218.1 45.64L217.67 46.41C217.56 46.61 217.46 46.82 217.37 47.03C217.28 47.24 217.1 47.57 217.1 47.57C217.112 47.3655 217.153 47.1635 217.22 46.97C217.258 46.74 217.311 46.5128 217.38 46.29C217.47 46.04 217.56 45.75 217.68 45.43C217.8 45.11 218 44.78 218.16 44.43Z" fill="white"/>
<path d="M208.71 32.4799C208.71 32.4799 207.71 35.3599 211.53 35.5499C211.53 35.5499 211.14 38.9099 214.59 38.3799C214.59 38.3799 218.84 32.3799 215.59 32.6799C215.59 32.6799 219.06 26.7599 216.22 27.0699C216.22 27.0699 216.66 25.2899 215.22 25.6999C214.904 25.6811 214.589 25.7503 214.31 25.8999C214.029 26.0499 213.8 26.2796 213.65 26.5599C214.15 24.6899 214.74 21.8499 213.21 22.9399C213.21 22.9399 210.53 16.2699 209.51 23.9399C209.51 23.9399 206.18 22.4299 208.03 28.4099C208.08 28.4399 204.94 29.2299 208.71 32.4799ZM211.01 26.8299C211.049 26.0929 211.15 25.3604 211.31 24.6399V25.2499C211.31 25.6399 211.38 26.1699 211.44 26.8299C211.454 27.1649 211.487 27.4988 211.54 27.8299C211.54 28.1599 211.62 28.5899 211.67 28.9999C211.72 29.4099 211.79 29.8099 211.84 30.2299C211.89 30.6499 211.99 31.0699 212.06 31.4999C212.13 31.9299 212.22 32.3399 212.32 32.7499C212.42 33.1599 212.51 33.5699 212.63 33.9499C212.75 34.3299 212.84 34.7099 212.98 35.0499C213.12 35.3899 213.22 35.7299 213.35 36.0499C213.48 36.3699 213.6 36.6099 213.7 36.8599C213.8 37.1099 213.94 37.2899 214.02 37.4699C214.1 37.6499 214.3 38.0099 214.3 38.0099L213.89 37.5599C213.729 37.3891 213.579 37.2088 213.44 37.0199C213.29 36.7999 213.11 36.5399 212.93 36.2599C212.738 35.9384 212.567 35.6043 212.42 35.2599C212.24 34.8699 212.11 34.5299 211.95 34.1399C211.79 33.7499 211.69 33.3299 211.56 32.9099C211.43 32.4899 211.36 32.0499 211.26 31.6199C211.167 31.188 211.104 30.7504 211.07 30.3099C211.07 29.8799 210.98 29.4399 210.96 29.0299C210.94 28.6199 210.96 28.2099 210.96 27.8299C210.96 27.4499 210.96 27.1599 210.96 26.8299H211.01Z" fill="white"/>
<path d="M218.78 56.2699C218.78 52.4299 215.84 53.2699 215.84 53.2699C212.77 49.3499 211.84 52.4499 211.84 52.4499C205.96 50.3199 207.31 53.7199 207.31 53.7199C199.56 54.3799 206.11 57.3699 206.11 57.3699C204.94 58.8399 207.81 58.3699 209.7 57.9699C209.414 58.1141 209.175 58.3359 209.01 58.6099C208.848 58.8821 208.761 59.1929 208.76 59.5099C208.3 60.9099 210.09 60.5099 210.09 60.5099C209.65 63.3299 215.72 60.1399 215.72 60.1399C215.24 63.3399 221.46 59.3799 221.46 59.3799C221.56 58.9828 221.56 58.5671 221.46 58.1699C221.371 57.7713 221.185 57.4006 220.92 57.0899C220.647 56.7824 220.304 56.5456 219.92 56.3999C219.556 56.2666 219.165 56.222 218.78 56.2699ZM220.59 58.8999C220.42 58.8099 220.23 58.6699 220 58.5599L219.2 58.1599C218.92 58.0199 218.58 57.8999 218.25 57.7499C217.92 57.5999 217.53 57.4999 217.16 57.3499C216.79 57.1999 216.38 57.1199 215.98 56.9799L214.74 56.6599C214.32 56.5699 213.9 56.4599 213.48 56.3799C213.06 56.2999 212.66 56.2099 212.26 56.1599C211.86 56.1099 211.47 56.0199 211.1 55.9699L210.1 55.8199L208.53 55.6199L207.93 55.5399C208.658 55.4303 209.394 55.3702 210.13 55.3599H211.2C211.598 55.3477 211.997 55.3745 212.39 55.4399C212.8 55.5199 213.23 55.5299 213.66 55.6099L214.97 55.8599C215.401 55.9527 215.825 56.073 216.24 56.2199C216.654 56.349 217.061 56.4992 217.46 56.6699C217.829 56.8233 218.19 56.9969 218.54 57.1899C218.861 57.3573 219.172 57.5443 219.47 57.7499C219.75 57.9399 219.99 58.1299 220.21 58.2899C220.389 58.4361 220.56 58.593 220.72 58.7599L221.15 59.1899L220.59 58.8999Z" fill="white"/>
<path d="M216.25 165.06C221.15 154.57 214.67 156.5 214.67 156.5C214.74 142.1 208.14 153.67 208.14 153.67C205.62 151.28 205.97 156.67 206.43 160.19C206.233 159.643 205.886 159.161 205.43 158.8C204.954 158.442 204.384 158.231 203.79 158.19C201.29 157.1 201.65 160.46 201.65 160.46C196.53 159.18 201.39 170.91 201.39 170.91C195.57 169.48 201.84 181.62 201.84 181.62C208.03 183.46 208.17 177.22 208.17 177.22C215.26 177.83 214.11 172.29 214.11 172.29C221.81 167.3 216.25 165.06 216.25 165.06ZM211.25 161.37C211.19 161.98 211.16 162.65 211.04 163.37C210.92 164.09 210.85 164.81 210.69 165.56C210.53 166.31 210.38 167.09 210.18 167.88C209.98 168.67 209.72 169.44 209.49 170.23C209.238 171.012 208.945 171.78 208.61 172.53C208.3 173.28 207.96 174.01 207.61 174.69C207.269 175.352 206.888 175.993 206.47 176.61C206.06 177.19 205.7 177.76 205.3 178.23C204.9 178.7 204.51 179.13 204.17 179.5C203.856 179.811 203.521 180.102 203.17 180.37C202.63 180.84 202.31 181.09 202.31 181.09C202.31 181.09 202.54 180.75 202.96 180.17C203.15 179.88 203.43 179.55 203.69 179.17C203.95 178.79 204.23 178.27 204.55 177.77C204.87 177.27 205.13 176.67 205.47 176.08C205.81 175.49 206.05 174.8 206.39 174.14C206.73 173.48 206.94 172.73 207.26 172.02C207.58 171.31 207.8 170.54 208.06 169.79C208.32 169.04 208.57 168.28 208.77 167.52C208.97 166.76 209.23 166.03 209.4 165.3C209.57 164.57 209.78 163.87 209.94 163.2L210.39 161.3L211.02 158.44C211.17 157.74 211.25 157.34 211.25 157.34C211.358 158.671 211.358 160.009 211.25 161.34V161.37Z" fill="white"/>
<path d="M44.9999 117L45.9999 117.52C45.9999 117.44 59.7299 91.1099 38.0699 61.6899L37.1499 62.3699C58.3799 91.2099 44.9999 116.9 44.9999 117Z" fill="white"/>
<path d="M74.14 34H73.24C72.7 62.16 52 71.82 52 71.9L52.38 72.71C52.43 72.63 73.59 62.74 74.14 34Z" fill="white"/>
<path d="M37.6299 172.29L37.7499 173.95C89.8099 170.26 111.05 206.74 111.11 206.84L112.54 205.99C112.48 205.9 90.7199 168.52 37.6299 172.29Z" fill="white"/>
<path d="M63.7099 162.58L65.0899 162.42C65.0899 162.31 61.0899 126.33 19.1399 111.23L18.6699 112.54C59.7799 127.34 63.6999 162.48 63.7099 162.58Z" fill="white"/>
<path d="M61.8401 40.37C61.5264 40.3312 61.2081 40.3797 60.9201 40.51C60.6304 40.6419 60.3842 40.8535 60.2101 41.12C59.0401 42.01 60.7201 42.72 60.7201 42.72C58.7801 44.81 65.5901 45.58 65.5901 45.58C63.4001 47.95 70.7801 48.17 70.7801 48.17C71.1174 47.9097 71.3796 47.5646 71.5401 47.17C71.6983 46.8014 71.7635 46.3996 71.7301 46C71.682 45.5828 71.5308 45.1841 71.2901 44.84C71.0509 44.4968 70.7271 44.2213 70.3501 44.04C72.4901 40.85 69.5701 39.94 69.5701 39.94C69.2301 34.94 66.7101 37.02 66.7101 37.02C63.0001 31.92 62.2601 35.53 62.2601 35.53C55.4701 31.73 59.2601 37.87 59.2601 37.87C57.4201 38.42 60.0501 39.66 61.8401 40.37ZM63.6701 38.37C63.9401 38.56 64.2501 38.75 64.5501 38.99C64.8501 39.23 65.1801 39.45 65.4901 39.72L66.4901 40.57C66.8401 40.87 67.1101 41.2 67.4301 41.51L68.2901 42.51L69.0301 43.51C69.2569 43.8304 69.4639 44.1644 69.6501 44.51C69.8244 44.8318 69.9748 45.166 70.1001 45.51L70.4101 46.37C70.4823 46.5952 70.5358 46.826 70.5701 47.06C70.6501 47.44 70.6801 47.65 70.6801 47.65L70.4201 47.11C70.3301 46.94 70.2501 46.72 70.1201 46.49C69.9901 46.26 69.8401 46 69.6901 45.72C69.5401 45.44 69.3201 45.15 69.1301 44.84C68.9401 44.53 68.6701 44.23 68.4501 43.9C68.2301 43.57 67.9301 43.27 67.6801 42.9C67.4301 42.53 67.1201 42.26 66.8301 41.9C66.5723 41.5831 66.2951 41.2825 66.0001 41C65.7001 40.71 65.4101 40.4 65.1101 40.12L64.2601 39.32L63.4801 38.61L62.2001 37.7L61.7401 37.31C62.4137 37.609 63.0596 37.9671 63.6701 38.38V38.37Z" fill="white"/>
<path d="M79.89 153.9C79.89 153.9 73.29 142.33 73.36 156.72C73.36 156.72 66.88 154.79 71.78 165.28C71.78 165.28 66.22 167.52 73.96 172.53C73.96 172.53 72.81 178.07 79.9 177.46C79.9 177.46 80.03 183.7 86.23 181.86C86.23 181.86 92.49 169.72 86.68 171.15C86.68 171.15 91.54 159.43 86.42 160.7C86.42 160.7 86.77 157.34 84.28 158.43C83.6884 158.468 83.1212 158.68 82.65 159.04C82.1763 159.395 81.8124 159.877 81.6 160.43C82.06 156.9 82.41 151.48 79.89 153.9ZM81.6 174.3C81.94 174.96 82.19 175.65 82.52 176.24C82.85 176.83 83.13 177.42 83.44 177.94C83.75 178.46 84.05 178.94 84.3 179.33C84.55 179.72 84.83 180.07 85.03 180.33C85.45 180.91 85.68 181.25 85.68 181.25C85.68 181.25 85.36 181 84.81 180.53C84.55 180.29 84.19 180.03 83.81 179.66C83.4152 179.256 83.0414 178.832 82.69 178.39C82.2711 177.871 81.8805 177.331 81.52 176.77C81.1189 176.168 80.7517 175.543 80.42 174.9C80.0407 174.202 79.7067 173.481 79.42 172.74C79.12 171.99 78.82 171.22 78.54 170.44C78.2688 169.669 78.0384 168.885 77.85 168.09C77.66 167.31 77.47 166.53 77.33 165.77C77.19 165.01 77.08 164.28 76.98 163.58C76.88 162.88 76.84 162.22 76.78 161.58C76.67 160.222 76.67 158.858 76.78 157.5C76.78 157.5 76.87 157.89 77.02 158.59L77.65 161.45L78.1 163.35C78.26 164.02 78.45 164.72 78.64 165.45C78.83 166.18 79.06 166.91 79.26 167.67C79.46 168.43 79.74 169.18 79.98 169.94C80.22 170.7 80.49 171.44 80.78 172.17C81.07 172.9 81.28 173.61 81.6 174.28V174.3Z" fill="white"/>
<path d="M73.1798 38.58C73.5837 38.68 74.0059 38.68 74.4098 38.58C75.0257 38.4365 75.5614 38.0585 75.9031 37.5263C76.2448 36.9942 76.3656 36.3498 76.2398 35.73C80.0798 35.53 79.0498 32.65 79.0498 32.65C82.8298 29.4 79.6898 28.65 79.6898 28.65C81.5398 22.65 78.2098 24.18 78.2098 24.18C77.2098 16.48 74.5098 23.18 74.5098 23.18C72.9798 22.08 73.5098 24.93 74.0698 26.79C73.925 26.499 73.6993 26.256 73.4198 26.09C73.1378 25.9276 72.8146 25.8512 72.4898 25.87C71.0798 25.47 71.4898 27.24 71.4898 27.24C68.6598 26.93 72.1298 32.85 72.1298 32.85C68.9298 32.55 73.1798 38.58 73.1798 38.58ZM73.7098 37.69C73.7898 37.52 73.9198 37.32 74.0198 37.08C74.1198 36.84 74.2398 36.56 74.3798 36.27C74.5198 35.98 74.6098 35.64 74.7498 35.27C74.8898 34.9 74.9598 34.54 75.0898 34.16C75.2198 33.78 75.2898 33.37 75.4098 32.96C75.5298 32.55 75.5898 32.13 75.6698 31.71C75.7498 31.29 75.8298 30.86 75.8798 30.44C75.9298 30.02 76.0198 29.61 76.0598 29.21C76.0998 28.81 76.1498 28.42 76.1898 28.04C76.2298 27.66 76.2598 27.32 76.2898 27.04C76.3063 26.5115 76.3497 25.9841 76.4198 25.46C76.439 25.2571 76.439 25.0529 76.4198 24.85C76.5799 25.5705 76.6802 26.303 76.7198 27.04V29.31C76.7102 29.7382 76.6768 30.1655 76.6198 30.59C76.5698 31.03 76.4898 31.46 76.4298 31.9C76.3558 32.3356 76.2556 32.7664 76.1298 33.19C76.0191 33.607 75.8855 34.0176 75.7298 34.42C75.6016 34.8031 75.4479 35.1773 75.2698 35.54C75.0898 35.88 74.9298 36.21 74.7498 36.54L74.2498 37.3C74.0998 37.52 73.9198 37.69 73.7998 37.84L73.3898 38.29L73.7098 37.69Z" fill="white"/>
<path d="M80.4697 54.0001C80.4697 54.0001 81.8197 50.6001 75.9397 52.7301C75.9397 52.7301 74.9997 49.6301 71.9397 53.5601C71.9397 53.5601 69.0097 52.6701 68.9997 56.5601C68.9997 56.5601 65.6297 56.3301 66.3197 59.7501C66.3197 59.7501 72.5497 63.7501 72.0697 60.5101C72.0697 60.5101 78.1397 63.7001 77.6997 60.8801C77.6997 60.8801 79.4897 61.2401 79.0197 59.8801C79.0254 59.5619 78.9412 59.2485 78.7767 58.9761C78.6121 58.7036 78.374 58.4832 78.0897 58.3401C79.9697 58.7601 82.8497 59.2101 81.6797 57.7401C81.6697 57.6101 88.2097 54.6201 80.4697 54.0001ZM79.2797 55.8501L77.7097 56.0501L76.7097 56.2001C76.3397 56.2501 75.9497 56.3201 75.5497 56.3901L74.3197 56.6201C73.8997 56.7001 73.4897 56.8001 73.0697 56.8901L71.8297 57.2101C71.4297 57.3501 71.0197 57.4401 70.6497 57.5801C70.2797 57.7201 69.8897 57.8301 69.5597 57.9801C69.2297 58.1301 68.8897 58.2501 68.5597 58.3901L67.7697 58.7901C67.5297 58.9001 67.3497 59.0401 67.1797 59.1301C66.8497 59.3301 66.6497 59.4301 66.6497 59.4301L67.0797 59.0001C67.2497 58.8401 67.4197 58.6801 67.5997 58.5301L68.3297 57.9901C68.6097 57.8001 68.9297 57.6301 69.2597 57.4301C69.5897 57.2301 69.9697 57.0901 70.3497 56.9101C70.7297 56.7301 71.1497 56.6101 71.5597 56.4601L72.8397 56.1001C73.2797 56.0201 73.7097 55.9201 74.1397 55.8501C74.5697 55.7801 74.9997 55.7201 75.4197 55.6801C75.8397 55.6401 76.2297 55.6201 76.6097 55.6001C76.9897 55.5801 77.3497 55.6001 77.6797 55.6001C78.417 55.6029 79.1528 55.6664 79.8797 55.7901L79.2797 55.8501Z" fill="white"/>
<path d="M74.8901 42.6899C74.8901 42.6899 71.8901 42.7799 73.0501 46.4299C72.4264 46.5381 71.8692 46.8843 71.496 47.3955C71.1229 47.9068 70.963 48.543 71.0501 49.1699C71.107 49.5838 71.2688 49.9762 71.5201 50.3099C71.5201 50.3099 78.6901 52.0699 77.2001 49.1899C77.2001 49.1899 83.9801 50.2599 82.6601 47.7299C82.6601 47.7299 84.4701 47.4999 83.5801 46.3199C83.4869 46.0146 83.3061 45.7434 83.0601 45.5399C82.8146 45.3371 82.5162 45.2088 82.2001 45.1699C84.1201 44.9599 86.9901 44.4699 85.4101 43.4399C85.4101 43.4399 90.6501 38.5099 83.1001 40.3699C83.1001 40.3699 83.2901 36.7199 78.4101 40.6199C78.4301 40.6199 76.5401 37.9999 74.8901 42.6899ZM79.9801 43.1299C80.3301 42.9799 80.6801 42.8799 80.9801 42.7699C81.679 42.5394 82.3944 42.3622 83.1201 42.2399L82.5801 42.4999L81.1501 43.1999L80.2101 43.6699L79.2101 44.2199C78.8501 44.4099 78.4901 44.6299 78.1201 44.8299C77.7501 45.0299 77.3901 45.2699 77.0201 45.4999C76.6501 45.7299 76.3001 45.9599 75.9501 46.1999C75.6001 46.4399 75.2601 46.6699 74.9501 46.9299C74.6401 47.1899 74.3101 47.3999 74.0501 47.6499C73.7901 47.8999 73.5001 48.1199 73.2701 48.3499L72.6501 48.9799C72.4601 49.1599 72.3301 49.3499 72.2001 49.4899L71.8001 49.9499L72.0001 49.3999C72.1001 49.2299 72.1901 49.0099 72.3401 48.7899C72.4901 48.5699 72.6701 48.3099 72.8701 48.0399C73.0701 47.7699 73.3101 47.5099 73.5701 47.2199C73.8416 46.9217 74.1287 46.638 74.4301 46.3699C74.7401 46.0899 75.0901 45.8299 75.4301 45.5599C75.7701 45.2899 76.1501 45.0599 76.5201 44.8099C76.8911 44.5691 77.275 44.3488 77.6701 44.1499C78.0501 43.9499 78.4501 43.7499 78.8201 43.5899C79.1901 43.4299 79.6201 43.2599 80.0001 43.1299H79.9801Z" fill="white"/>
<path d="M39.7897 147.81C40.2197 152.2 48.1097 145.08 48.1097 145.08C48.6097 150.08 56.4397 141.72 56.4397 141.72C56.1497 136.31 51.1797 137.96 51.1797 137.96C49.6797 132.19 45.6197 134.65 45.6197 134.65C39.4997 129.95 39.2897 134.97 39.2897 134.97C29.6397 134.05 32.9797 138.62 32.9797 138.62C21.6097 142.62 32.5897 144.56 32.5897 144.56C31.3997 147.23 35.5397 145.44 38.2097 144.09C37.8345 144.412 37.5602 144.836 37.4197 145.31C37.2849 145.784 37.2849 146.286 37.4197 146.76C37.2397 149 39.7897 147.81 39.7897 147.81ZM37.9197 140.63L35.4797 140.94L34.5497 141.06C35.5949 140.591 36.6748 140.203 37.7797 139.9C38.2797 139.77 38.7797 139.61 39.3897 139.5C39.9997 139.39 40.5797 139.25 41.2197 139.17C41.8597 139.09 42.5097 138.98 43.2197 138.92C43.9297 138.86 44.5797 138.85 45.2697 138.8C45.9597 138.75 46.6497 138.8 47.3297 138.8C48.0011 138.814 48.6701 138.884 49.3297 139.01C49.9487 139.099 50.5628 139.219 51.1697 139.37C51.7497 139.53 52.2897 139.66 52.7797 139.84L54.0897 140.37C54.4339 140.518 54.7679 140.688 55.0897 140.88L55.8997 141.36C55.8997 141.36 55.5597 141.28 54.9897 141.11C54.7097 141.04 54.3697 140.91 53.9897 140.82L52.6497 140.54C52.1597 140.44 51.6497 140.39 51.0597 140.29C50.4697 140.19 49.8797 140.19 49.2697 140.11C48.6597 140.03 47.9997 140.11 47.3497 140.01H45.3497C44.6823 139.998 44.0147 140.022 43.3497 140.08C42.6797 140.15 42.0397 140.14 41.4197 140.21L39.6097 140.38L37.9197 140.63Z" fill="white"/>
<path d="M39.4298 168.3C38.4298 161.25 33.2898 163.62 33.2898 163.62C26.6698 157.2 25.7398 163.13 25.7398 163.13C14.4198 160.71 17.7398 166.59 17.7398 166.59C3.73982 169.76 16.4598 173.59 16.4598 173.59C14.6898 176.59 19.8498 175.04 23.1898 173.79C22.698 174.129 22.313 174.6 22.0798 175.15C21.8492 175.703 21.7798 176.309 21.8798 176.9C21.3798 179.57 24.5698 178.47 24.5698 178.47C24.4798 183.75 34.8098 176.37 34.8098 176.37C34.7298 182.37 45.1498 173.53 45.1498 173.53C45.5498 167 39.4298 168.3 39.4298 168.3ZM43.4298 172.65C43.0998 172.52 42.7198 172.32 42.2498 172.17L40.6998 171.64C40.1398 171.45 39.4998 171.32 38.8398 171.13C38.1798 170.94 37.4698 170.85 36.7498 170.67C36.0298 170.49 35.2498 170.44 34.4898 170.29C33.7298 170.14 32.9198 170.1 32.1298 170.02C31.3398 169.94 30.5498 169.86 29.7598 169.83C28.9698 169.8 28.2098 169.73 27.4598 169.72H19.2398C20.5464 169.311 21.8842 169.01 23.2398 168.82C23.8398 168.74 24.4998 168.62 25.2398 168.58C25.9798 168.54 26.6798 168.44 27.4498 168.42C28.2198 168.4 29.0198 168.42 29.8298 168.42C30.6398 168.42 31.4498 168.51 32.2798 168.55C33.0956 168.617 33.9069 168.731 34.7098 168.89C35.4989 169.02 36.2801 169.193 37.0498 169.41C37.7709 169.6 38.4818 169.827 39.1798 170.09C39.8398 170.36 40.4698 170.59 41.0198 170.87C41.5698 171.15 42.0198 171.43 42.4998 171.68C42.8704 171.906 43.2277 172.153 43.5698 172.42L44.4698 173.1L43.4298 172.65Z" fill="white"/>
<path d="M24.9399 115.14C27.4299 110.34 22.3199 109.24 22.3199 109.24C23.9399 103.51 19.1999 103.58 19.1999 103.58C16.2999 96.4199 13.5799 100.64 13.5799 100.64C5.72989 94.9599 6.28989 100.64 6.28989 100.64C-5.54011 98.3199 2.93989 105.57 2.93989 105.57C0.569894 107.21 4.99989 107.77 7.99989 108C7.5153 108.101 7.07055 108.341 6.71989 108.69C6.37556 109.021 6.12685 109.439 5.99989 109.9C4.70989 111.77 7.52989 112 7.52989 112C5.66989 116 16.0799 113.86 16.0799 113.86C13.9999 118.38 24.9399 115.14 24.9399 115.14ZM14.3799 107.14C13.7899 106.85 13.2299 106.53 12.6499 106.27L10.9999 105.5L9.51989 104.83L7.25989 103.83L6.39989 103.46C7.53583 103.589 8.65948 103.81 9.75989 104.12C10.2499 104.26 10.7599 104.4 11.3399 104.6C11.9199 104.8 12.4999 104.98 13.0899 105.23C13.6799 105.48 14.2999 105.73 14.9099 106.02C15.5199 106.31 16.1299 106.65 16.7399 106.96C17.3441 107.276 17.9316 107.623 18.4999 108C19.0604 108.363 19.5981 108.761 20.1099 109.19C20.6006 109.575 21.0681 109.989 21.5099 110.43C21.9099 110.86 22.3299 111.25 22.6599 111.65L23.5199 112.77C23.7699 113.11 23.9299 113.45 24.0899 113.7C24.3899 114.23 24.5399 114.53 24.5399 114.53C24.5399 114.53 24.2899 114.28 23.8899 113.85C23.6799 113.64 23.4499 113.36 23.1499 113.08C22.8499 112.8 22.4999 112.5 22.1499 112.16C21.7999 111.82 21.3299 111.51 20.8999 111.16C20.4699 110.81 19.8999 110.48 19.4499 110.1C18.9999 109.72 18.3799 109.42 17.8499 109.04C17.2985 108.676 16.7276 108.342 16.1399 108.04C15.5699 107.76 14.9999 107.42 14.3799 107.14Z" fill="white"/>
<path d="M67.0997 176.14C66.646 175.751 66.1495 175.416 65.6197 175.14C65.9391 174.971 66.2465 174.781 66.5397 174.57C66.5397 174.57 68.5397 161.06 63.5397 164.28C63.5397 164.28 64.3897 151.62 59.9397 154.46C59.9397 154.46 59.1997 151.17 57.1897 153C56.6492 153.231 56.1845 153.61 55.8486 154.093C55.5126 154.575 55.319 155.143 55.2897 155.73C54.5897 152.23 53.1997 147.03 51.5797 150.11C51.5797 150.11 41.5797 141.27 46.2997 154.88C46.2997 154.88 39.5397 155.13 47.5397 163.49C47.5397 163.49 42.9997 167.4 51.9297 169.66C51.9297 169.66 52.6197 175.28 59.1397 172.43C59.6018 173.612 60.415 174.624 61.4697 175.33C60.6585 175.938 59.9981 176.725 59.5397 177.63C53.2997 174.21 52.1097 179.75 52.1097 179.75C43.0097 181.2 47.1897 185.5 47.1897 185.5C38.4797 193.12 45.1897 193.97 45.1897 193.97C39.2997 207.09 49.9997 199.17 49.9997 199.17C51.3397 202.38 53.1897 197.32 54.1997 193.9C54.1728 194.488 54.3135 195.073 54.6056 195.584C54.8978 196.096 55.3292 196.514 55.8497 196.79C57.6897 198.79 58.7197 195.58 58.7197 195.58C62.8897 198.81 63.1797 186.12 63.1797 186.12C67.9297 189.77 67.0997 176.14 67.0997 176.14ZM60.4897 171.26C59.9097 170.84 59.3697 170.26 58.7897 169.8C58.196 169.267 57.6381 168.696 57.1197 168.09C56.5597 167.5 56.1197 166.83 55.5597 166.19C55.0334 165.565 54.5617 164.896 54.1497 164.19C53.7397 163.52 53.2897 162.83 52.9197 162.19C52.5447 161.545 52.2107 160.877 51.9197 160.19C51.6397 159.52 51.3397 158.95 51.0897 158.39C50.5468 157.136 50.1022 155.842 49.7597 154.52L50.3397 155.52L51.8497 158C52.1797 158.51 52.5197 159.06 52.8497 159.65C53.1797 160.24 53.6197 160.84 54.0297 161.46C54.4397 162.08 54.8997 162.71 55.3397 163.37C55.7797 164.03 56.2697 164.64 56.7397 165.29C57.2097 165.94 57.7397 166.54 58.2097 167.14C58.6797 167.74 59.2097 168.34 59.7197 168.87C60.2297 169.4 60.7197 169.96 61.2097 170.41L62.6197 171.72C63.0297 172.1 63.5097 172.45 63.8897 172.77C64.2697 173.09 64.6297 173.3 64.8897 173.51C65.4697 173.92 65.7997 174.18 65.7997 174.18L64.7997 173.77C64.391 173.626 63.9932 173.452 63.6097 173.25C63.1697 173.01 62.6697 172.73 62.1397 172.41C61.6097 172.09 61.0597 171.68 60.4897 171.26ZM61.4397 179.79C60.8897 180.19 60.4397 180.72 59.8097 181.19C59.1797 181.66 58.7397 182.25 58.1597 182.77C57.5797 183.29 57.0697 183.91 56.5297 184.49C55.9897 185.07 55.4497 185.67 54.9597 186.28C54.4697 186.89 53.9597 187.46 53.4897 188.06C53.0197 188.66 52.5697 189.22 52.1497 189.77L50.9997 191.32L49.2697 193.68L48.6097 194.59C49.0595 193.319 49.6078 192.085 50.2497 190.9C50.5525 190.309 50.8863 189.735 51.2497 189.18C51.6497 188.59 51.9997 187.94 52.4497 187.32C52.8997 186.7 53.3497 186.04 53.8597 185.4C54.3697 184.76 54.8597 184.16 55.4397 183.52C56.0197 182.88 56.5797 182.34 57.1697 181.77C57.7479 181.217 58.359 180.699 58.9997 180.22C59.5897 179.76 60.1897 179.32 60.8197 178.92C61.3784 178.556 61.9559 178.223 62.5497 177.92L64.0897 177.22C64.4897 177.06 64.9097 176.92 65.3197 176.8L66.3997 176.5L65.3997 177.08C65.0997 177.26 64.7097 177.45 64.3097 177.73C63.9097 178.01 63.4597 178.33 62.9597 178.65C62.4597 178.97 61.9997 179.38 61.4397 179.79Z" fill="white"/>
<path d="M26.0001 77.13C24.6301 79.13 28.2401 78.3 30.6001 77.63C30.2515 77.8287 29.9661 78.1219 29.7768 78.4758C29.5875 78.8296 29.502 79.2297 29.5301 79.63C29.0001 81.45 31.2701 80.9 31.2701 80.9C30.9301 84.5 38.3901 80.01 38.3901 80.01C38.0101 84.1 45.6201 78.62 45.6201 78.62C46.2401 74.2 42.0001 74.74 42.0001 74.74C41.6901 69.86 38.0001 71.21 38.0001 71.21C33.8101 66.46 32.8501 70.46 32.8501 70.46C25.2401 68.2 27.2001 72.46 27.2001 72.46C17.4601 73.82 26.0001 77.13 26.0001 77.13ZM30.9101 74.21C31.3201 74.21 31.7801 74.15 32.2601 74.15H33.7901C34.3324 74.1326 34.8752 74.1694 35.4101 74.26C35.9601 74.37 36.5201 74.41 37.0801 74.49C37.6401 74.57 38.1901 74.72 38.7301 74.85C39.2618 74.9815 39.7859 75.1417 40.3001 75.33C40.7857 75.492 41.26 75.6857 41.7201 75.91C42.1401 76.13 42.5801 76.32 42.9401 76.54L43.9401 77.17C44.2301 77.36 44.4401 77.59 44.6401 77.74C45.0101 78.06 45.2101 78.25 45.2101 78.25L44.4801 77.9C44.2601 77.79 44.0101 77.64 43.7001 77.51L42.7001 77.06C42.3201 76.9 41.8901 76.78 41.4601 76.61C41.0301 76.44 40.5301 76.35 40.0501 76.18C39.5701 76.01 39.0501 75.95 38.5201 75.81C37.9901 75.67 37.4601 75.59 36.9201 75.49C36.3801 75.39 35.8501 75.3 35.3101 75.24C34.7701 75.18 34.2501 75.08 33.7401 75.04L32.2301 74.9L30.9001 74.8L28.9001 74.66H28.1301C29.0408 74.4405 29.9668 74.29 30.9001 74.21H30.9101Z" fill="white"/>
<path d="M85.3601 186.74C80.9301 181.17 77.7001 185.81 77.7001 185.81C68.7001 183.63 70.9301 189.22 70.9301 189.22C59.9301 192.87 65.8101 196.22 65.8101 196.22C55.3101 206.06 68.2501 202.9 68.2501 202.9C68.2501 206.38 71.9001 202.43 74.1501 199.66C73.9018 200.195 73.8086 200.789 73.8811 201.374C73.9536 201.959 74.1888 202.512 74.5601 202.97C75.4801 205.53 77.6801 202.97 77.6801 202.97C80.2701 207.57 85.4401 195.97 85.4401 195.97C88.4401 201.17 92.9101 188.27 92.9101 188.27C90.0001 182.54 85.3601 186.74 85.3601 186.74ZM91.0001 188.47C90.5801 188.47 90.1701 188.57 89.7501 188.65C89.3301 188.73 88.7501 188.87 88.1401 188.98C87.5301 189.09 86.9401 189.32 86.2801 189.48C85.6201 189.64 84.9501 189.93 84.2801 190.14C83.6101 190.35 82.8801 190.71 82.1401 190.96C81.4041 191.258 80.6891 191.605 80.0001 192C79.2801 192.36 78.5501 192.67 77.8601 193C77.1744 193.324 76.5068 193.684 75.8601 194.08C75.2501 194.46 74.5601 194.78 73.9701 195.13L72.2801 196.13L69.7601 197.64L68.7601 198.23C69.6837 197.218 70.6869 196.282 71.7601 195.43C72.2401 195.05 72.7601 194.62 73.3301 194.22C73.9001 193.82 74.5001 193.37 75.1601 192.97C75.8201 192.57 76.4901 192.14 77.1601 191.75C77.8301 191.36 78.6101 191.01 79.3401 190.63C80.078 190.273 80.836 189.959 81.6101 189.69C82.3568 189.404 83.1179 189.157 83.8901 188.95C84.6064 188.744 85.3343 188.58 86.0701 188.46C86.7801 188.36 87.4301 188.24 88.0701 188.2L89.7601 188.14C90.195 188.148 90.6291 188.182 91.0601 188.24L92.1701 188.37L91.0001 188.47Z" fill="white"/>
<path d="M46.5798 75.0801C46.5798 75.0801 43.9998 78.4701 48.0498 80.1601C48.0498 80.1601 56.6398 76.3901 52.9198 74.6401C52.9198 74.6401 60.5798 70.4801 57.2998 68.9501C57.2998 68.9501 58.9398 67.3101 57.1298 66.8201C56.7988 66.5849 56.4056 66.4527 55.9998 66.4401C55.5943 66.421 55.1919 66.5182 54.8398 66.7201C56.6098 65.0201 59.1198 62.3101 56.7398 62.5001C56.7398 62.5001 58.2198 53.5001 52.0398 61.1901C52.0398 61.1901 49.4098 57.3601 47.4998 65.0701C47.4998 65.0701 43.5598 63.8601 45.4998 69.8801C45.5398 69.9001 42.5298 72.3401 46.5798 75.0801ZM47.7498 75.4401C47.803 74.9224 47.8865 74.4082 47.9998 73.9001C48.0898 73.3801 48.2398 72.9001 48.3798 72.3101C48.5198 71.7201 48.7198 71.2401 48.8998 70.7001C49.0798 70.1601 49.3198 69.7001 49.5498 69.1501C49.7669 68.6508 50.0106 68.1634 50.2798 67.6901C50.5298 67.2301 50.7898 66.7801 51.0398 66.3701C51.2898 65.9601 51.5498 65.5801 51.7798 65.2301C52.3059 64.441 52.8945 63.6953 53.5398 63.0001L53.1898 63.6901C52.9698 64.1201 52.6598 64.7401 52.2898 65.4901L51.7098 66.7001C51.5098 67.1201 51.2998 67.5801 51.0898 68.0501C50.8798 68.5201 50.6898 69.0501 50.4698 69.5001C50.2498 69.9501 50.0698 70.5001 49.8698 71.0201C49.6698 71.5401 49.4898 72.0201 49.3298 72.5601C49.1698 73.1001 48.9998 73.5601 48.8798 74.0701C48.7598 74.5801 48.6098 75.0701 48.5298 75.5001C48.4498 75.9301 48.3498 76.3901 48.2898 76.8001C48.2298 77.2101 48.1898 77.5801 48.1498 77.9101C48.1098 78.2401 48.1498 78.5401 48.0898 78.7801C48.0936 79.0377 48.0769 79.2952 48.0398 79.5501C48.0398 79.5501 47.9798 79.2801 47.8898 78.8001C47.8277 78.5061 47.781 78.209 47.7498 77.9101V76.7901C47.7298 76.3435 47.7298 75.8935 47.7498 75.4401Z" fill="white"/>
<path d="M32.3999 54.45C32.0292 54.2876 31.6205 54.2322 31.2199 54.29C30.82 54.3576 30.4463 54.5341 30.1399 54.8C28.3999 55.49 30.2099 56.94 30.2099 56.94C27.1199 58.82 35.2099 62.11 35.2099 62.11C31.6999 64.26 40.6499 67.11 40.6499 67.11C44.5399 64.98 41.5599 61.9 41.5599 61.9C45.2799 58.73 42.0199 56.62 42.0199 56.62C43.3199 50.42 39.5399 52.05 39.5399 52.05C36.7799 44.6 34.5399 48.69 34.5399 48.69C27.5399 41.69 30.0199 50.52 30.0199 50.52C27.6599 50.54 30.4499 53 32.3999 54.45ZM35.3199 52.65L36.1799 53.65C36.5036 54.0422 36.8041 54.4529 37.0799 54.88C37.3699 55.32 37.6799 55.77 37.9599 56.25C38.2399 56.73 38.4999 57.25 38.7799 57.72C39.051 58.2153 39.285 58.73 39.4799 59.26C39.6856 59.7652 39.8593 60.2829 39.9999 60.81C40.2977 61.7305 40.5021 62.6786 40.6099 63.64C40.6099 64.07 40.6699 64.46 40.6899 64.8C40.7099 65.0996 40.7099 65.4003 40.6899 65.7C40.6949 65.9547 40.6748 66.2092 40.6299 66.46C40.6299 66.46 40.5699 66.18 40.4899 65.7C40.4722 65.4119 40.4219 65.1267 40.3399 64.85C40.2599 64.53 40.1599 64.15 40.0699 63.75C39.9799 63.35 39.8099 62.94 39.6899 62.49C39.5699 62.04 39.3499 61.59 39.1899 61.1C39.0299 60.61 38.7699 60.1 38.5799 59.65C38.3899 59.2 38.1099 58.65 37.8699 58.19C37.6299 57.73 37.3799 57.19 37.1099 56.74C36.8399 56.29 36.5999 55.8 36.3299 55.37C36.0599 54.94 35.8099 54.49 35.5599 54.09C35.3099 53.69 35.0699 53.31 34.8599 52.95L33.7599 51.26L33.3399 50.62C34.0578 51.2377 34.7203 51.9169 35.3199 52.65Z" fill="white"/>
<path d="M60.6797 120C60.6797 120 62.0897 117.54 59.7997 117.54C59.3364 117.369 58.8339 117.335 58.3517 117.441C57.8696 117.548 57.4281 117.79 57.0797 118.14C58.6297 115.59 60.7197 111.59 57.9797 112.57C57.9797 112.57 56.8397 101.48 51.9797 112.57C51.9797 112.57 47.6697 108.9 47.8697 118.57C47.8697 118.57 42.8697 118.41 47.0897 124.87C47.0897 124.87 44.3297 128.72 49.9697 130.65C49.9697 130.65 47.9697 135.48 53.3197 136.17C53.3197 136.17 62.2297 128.99 57.3197 128.17C57.3397 128.08 64.9997 120.75 60.6797 120ZM54.1497 115.19C54.0297 115.77 53.8597 116.6 53.6597 117.59C53.5697 118.09 53.4697 118.59 53.3597 119.2C53.2497 119.81 53.1597 120.37 53.0697 120.99C52.9797 121.61 52.8897 122.26 52.7897 122.9C52.6897 123.54 52.6497 124.22 52.5697 124.9C52.4897 125.58 52.4597 126.23 52.4297 126.9C52.3796 127.539 52.3796 128.181 52.4297 128.82C52.4647 129.419 52.4647 130.021 52.4297 130.62C52.4353 131.159 52.4788 131.697 52.5597 132.23C52.6297 132.73 52.6897 133.18 52.7397 133.59C52.7922 133.928 52.8657 134.262 52.9597 134.59C53.0797 135.17 53.1397 135.51 53.1397 135.51C53.1397 135.51 52.9797 135.21 52.7197 134.67C52.5597 134.35 52.4097 134.01 52.2797 133.67C52.1497 133.33 51.9997 132.82 51.8497 132.32C51.6997 131.82 51.5897 131.23 51.4997 130.68C51.3913 130.065 51.3178 129.444 51.2797 128.82C51.2197 128.18 51.2197 127.51 51.2097 126.82C51.1997 126.13 51.2797 125.46 51.3197 124.82C51.3746 124.149 51.4647 123.481 51.5897 122.82C51.6997 122.19 51.8297 121.49 51.9797 120.82C52.1297 120.15 52.2897 119.59 52.4597 119.03C52.6297 118.47 52.8097 117.93 52.9697 117.45C53.3456 116.37 53.8036 115.32 54.3397 114.31L54.1497 115.19Z" fill="white"/>
<path d="M59.8701 76.8999C59.8701 76.8999 58.6201 72.4299 54.3301 79.1199C54.3301 79.1199 50.9901 76.7199 50.9201 83.0499C50.9201 83.0499 47.2801 84.4199 50.2401 88.2999C50.2401 88.2999 46.6701 90.6699 50.0101 93.5999C50.0101 93.5999 59.3501 92.7699 56.3901 89.9199C56.3901 89.9199 64.9701 88.4399 62.3901 85.9199C62.3901 85.9199 64.4701 84.9199 62.9201 83.8499C62.6833 83.5214 62.357 83.268 61.9801 83.1199C61.6003 82.977 61.1884 82.9424 60.7901 83.0199C63.0101 82.0199 66.2601 80.2199 63.9401 79.6299C63.9101 79.6899 68.2001 71.6199 59.8701 76.8999ZM60.1101 79.6899L58.6801 81.0999L57.7401 82.0999L56.7401 83.1799C56.3801 83.5499 56.0501 83.9599 55.6801 84.3599C55.3209 84.7552 54.9869 85.1727 54.6801 85.6099C54.3801 86.0299 54.0001 86.4599 53.6801 86.8899C53.3601 87.3199 53.0401 87.7399 52.7701 88.1799C52.5001 88.6199 52.2001 88.9999 52.0001 89.4199C51.8001 89.8399 51.5401 90.2099 51.3601 90.5699L50.8601 91.5699C50.7101 91.8799 50.6301 92.1599 50.5301 92.3799C50.3501 92.8299 50.2301 93.0899 50.2301 93.0899C50.2399 92.8341 50.2734 92.5796 50.3301 92.3299C50.368 92.034 50.4214 91.7403 50.4901 91.4499C50.5801 91.1199 50.6901 90.7399 50.8101 90.3299C50.9567 89.8976 51.127 89.4736 51.3201 89.0599C51.5273 88.5904 51.761 88.133 52.0201 87.6899C52.2801 87.2199 52.5801 86.7699 52.8901 86.2999C53.2001 85.8299 53.5601 85.3999 53.8901 84.9499C54.2305 84.5016 54.6014 84.0773 55.0001 83.6799C55.3901 83.2799 55.7601 82.8899 56.1501 82.5299C56.5401 82.1699 56.9201 81.8399 57.2901 81.5299C57.6601 81.2199 58.0301 80.9399 58.3601 80.6899C59.1078 80.1231 59.9004 79.6181 60.7301 79.1799L60.1101 79.6899Z" fill="white"/>
<path d="M22.67 134.2C23.4 136.37 25.28 134.2 25.28 134.2C27.38 138.09 31.9 128.47 31.9 128.47C34.29 132.87 38.27 122.15 38.27 122.15C37.8416 121.103 37.0297 120.259 36 119.79C36.7251 119.995 37.4764 120.093 38.23 120.08C38.23 120.08 37.87 125.3 43.23 124.23C43.23 124.23 49.37 114.58 44.41 115.33C44.41 115.33 49.35 105.92 44.98 106.59C44.98 106.59 45.53 103.82 43.37 104.59C42.8827 104.58 42.4024 104.707 41.9836 104.956C41.5647 105.206 41.224 105.567 41 106C41.65 103.08 42.35 98.6299 40.07 100.44C39.8498 99.9579 39.5993 99.4903 39.32 99.0399C40.4242 99.027 41.5264 98.9435 42.62 98.7899C40.69 102.42 49.82 100.31 49.82 100.31C52.1 96.4899 47.96 95.3099 47.96 95.3099C49.57 90.6999 45.69 90.5199 45.69 90.5199C43.69 84.5199 41.23 87.8499 41.23 87.8499C35.08 82.8499 35.23 87.4499 35.23 87.4499C25.66 84.9799 32.23 91.3199 32.23 91.3199C30.23 92.5899 33.84 93.3199 36.23 93.5599C35.829 93.6085 35.4506 93.7717 35.14 94.0299C34.8264 94.293 34.5941 94.6398 34.47 95.0299C33.37 96.5399 35.66 96.9299 35.66 96.9299C35.66 96.9299 35.57 97.1299 35.53 97.2299C35.01 98.0499 34.59 99.6299 34.36 102.37C34.36 102.37 29.1 100.27 32.36 109.37C32.36 109.37 27.55 110.82 33.63 115.58C33.3685 116.399 33.43 117.287 33.8018 118.062C34.1736 118.837 34.8276 119.441 35.63 119.75C33.72 119.22 31.89 120.82 31.89 120.82C28.27 116.09 25.48 119.93 25.48 119.93C18.02 117.93 19.77 122.67 19.77 122.67C10.51 125.55 15.36 128.47 15.36 128.47C6.40998 136.55 17.3 134.11 17.3 134.11C17.24 137.02 20.36 133.77 22.3 131.49C22.0977 131.935 22.0251 132.429 22.0906 132.913C22.156 133.398 22.3568 133.854 22.67 134.23V134.2ZM39.34 115.74C39.55 116.36 39.69 116.99 39.91 117.58C40.13 118.17 40.29 118.74 40.53 119.26C40.77 119.78 40.95 120.26 41.17 120.74C41.39 121.22 41.6 121.6 41.78 121.97C41.96 122.34 42.17 122.63 42.31 122.89C42.62 123.4 42.78 123.7 42.78 123.7L42.12 123.04C41.86 122.79 41.62 122.52 41.38 122.24C41.14 121.96 40.84 121.52 40.54 121.1C40.24 120.68 39.98 120.18 39.68 119.66C39.38 119.14 39.15 118.56 38.88 117.97C38.615 117.355 38.3814 116.728 38.18 116.09C37.96 115.44 37.8 114.78 37.62 114.09C37.44 113.4 37.33 112.74 37.22 112.09C37.11 111.44 37.03 110.76 36.97 110.09C36.91 109.42 36.87 108.83 36.84 108.24C36.81 107.65 36.84 107.09 36.84 106.58C36.8518 105.438 36.9488 104.298 37.13 103.17C37.1419 103.483 37.1821 103.794 37.25 104.1C37.37 104.69 37.43 105.53 37.55 106.54C37.63 107.04 37.71 107.54 37.79 108.15C37.87 108.76 37.98 109.32 38.08 109.94C38.18 110.56 38.32 111.2 38.44 111.84C38.56 112.48 38.72 113.14 38.86 113.84C39 114.54 39.16 115.11 39.34 115.74ZM35.86 90.1999L35.17 89.8999C36.0937 90.0612 37.0032 90.2953 37.89 90.5999C38.29 90.7399 38.72 90.8799 39.17 91.0699C39.62 91.2599 40.09 91.4399 40.56 91.6799C41.03 91.9199 41.56 92.1399 42.02 92.4099C42.48 92.6799 43.02 92.9799 43.47 93.2599C43.9486 93.5668 44.4093 93.9007 44.85 94.2599C45.3 94.6199 45.72 94.9399 46.11 95.2599C46.5049 95.5866 46.8697 95.948 47.2 96.3399C47.52 96.7199 47.83 97.0499 48.08 97.3999C48.33 97.7499 48.54 98.0699 48.73 98.3999C48.92 98.7299 49.03 98.9699 49.15 99.1799C49.37 99.6299 49.48 99.8799 49.48 99.8799C49.48 99.8799 49.29 99.6699 48.98 99.2999C48.82 99.1099 48.65 98.8699 48.41 98.6299L47.63 97.8199C47.35 97.5299 46.99 97.2499 46.63 96.9299C46.27 96.6099 45.88 96.3199 45.5 95.9899C45.12 95.6599 44.65 95.3799 44.23 95.0499C43.81 94.7199 43.34 94.4399 42.88 94.1399C42.42 93.8399 41.97 93.5499 41.49 93.2799C41.01 93.0099 40.58 92.7299 40.12 92.4899L38.82 91.7799L37.63 91.1499L35.86 90.1999ZM22.21 127.57L20.78 128.36L18.65 129.59L17.84 130.06C18.6283 129.231 19.4773 128.462 20.38 127.76C20.79 127.46 21.22 127.1 21.72 126.76C22.22 126.42 22.72 126.07 23.27 125.76C23.82 125.45 24.39 125.09 24.99 124.76C25.59 124.43 26.22 124.16 26.84 123.86C27.46 123.56 28.12 123.34 28.76 123.1C29.3841 122.87 30.022 122.68 30.67 122.53C31.2726 122.37 31.8835 122.243 32.5 122.15C33.1 122.07 33.65 121.98 34.17 121.96C34.69 121.94 35.17 121.96 35.59 121.96C36.01 121.96 36.37 122.04 36.67 122.06L37.6 122.19L36.67 122.31C36.3152 122.295 35.9603 122.339 35.62 122.44C35.1765 122.555 34.7254 122.639 34.27 122.69C33.78 122.77 33.27 122.96 32.7 123.08C32.13 123.2 31.58 123.44 30.98 123.61C30.38 123.78 29.8 124.06 29.18 124.26C28.56 124.46 27.96 124.77 27.35 125.03C26.74 125.29 26.12 125.56 25.54 125.86C24.96 126.16 24.36 126.43 23.81 126.73C23.26 127.03 22.71 127.29 22.21 127.57Z" fill="white"/>
<path d="M59.1998 59.32C56.2598 60.66 62.9998 63.71 62.9998 63.71C66.2398 62.42 64.2098 59.71 64.2098 59.71C67.4198 57.6 65.0798 55.63 65.0798 55.63C66.6798 50.92 63.5698 51.83 63.5698 51.83C62.1398 45.75 60.0398 48.73 60.0398 48.73C55.2498 42.61 56.3298 49.73 56.3298 49.73C54.4598 49.56 56.3998 51.73 57.7798 53.06C57.5027 52.9041 57.1877 52.8282 56.8699 52.8405C56.5522 52.8529 56.2441 52.9531 55.9798 53.13C54.5598 53.5 55.8298 54.8 55.8298 54.8C53.2198 56 59.1998 59.32 59.1998 59.32ZM60.1998 51.94C60.3798 52.22 60.5898 52.52 60.7798 52.85C60.9698 53.18 61.1798 53.52 61.3598 53.85C61.5398 54.18 61.7398 54.61 61.9198 55.01C62.0998 55.41 62.2498 55.83 62.4198 56.24C62.5753 56.6551 62.7056 57.0792 62.8098 57.51C62.928 57.9214 63.0248 58.3386 63.0998 58.76C63.1757 59.1567 63.2292 59.5573 63.2598 59.96C63.2598 60.34 63.2598 60.71 63.2598 61.04C63.2864 61.3427 63.2864 61.6472 63.2598 61.95C63.2402 62.1864 63.2 62.4206 63.1398 62.65C63.0698 63.03 63.0198 63.24 63.0198 63.24V62C63.0198 61.74 62.9498 61.44 62.9198 61.12C62.8898 60.8 62.7898 60.46 62.7398 60.12C62.6898 59.78 62.5598 59.38 62.4798 58.99C62.3998 58.6 62.2398 58.2 62.1398 57.79C62.0398 57.38 61.8698 56.99 61.7398 56.58C61.6074 56.1723 61.4539 55.7718 61.2798 55.38C61.1098 54.99 60.9698 54.59 60.7998 54.23C60.6298 53.87 60.4798 53.5 60.3198 53.16C60.1598 52.82 60.0198 52.5 59.8798 52.16C59.5998 51.57 59.3598 51.08 59.1898 50.74L58.9198 50.19C59.4143 50.7387 59.8624 51.3274 60.2598 51.95L60.1998 51.94Z" fill="white"/>
<path d="M222.93 162.21L224.32 162.38C224.32 162.28 228.25 127.14 269.32 112.38L268.85 111.07C227 126.13 223 162.11 222.93 162.21Z" fill="white"/>
<path d="M243.05 116.8C243.05 116.73 229.64 91.01 250.89 62.17L249.97 61.49C228.3 90.9 241.97 117.24 241.97 117.32L243.05 116.8Z" fill="white"/>
<path d="M175.49 205.79L176.91 206.64C176.98 206.54 198.22 170.05 250.27 173.74L250.39 172.08C197.31 168.32 175.55 205.68 175.49 205.79Z" fill="white"/>
<path d="M235.4 72.46L235.78 71.65C235.72 71.65 215.06 61.96 214.52 33.78H213.63C214.18 62.53 235.34 72.43 235.4 72.46Z" fill="white"/>
<path d="M211.61 92.8099C191.24 89.1299 180.85 67.7099 186.41 50.4799L149.53 39.9999C148.28 39.9999 146.95 39.9299 145.53 39.9299C143.96 39.9299 142.47 39.9299 141.08 40.0199L104.08 50.7899C109.49 67.5899 99.2 89.4499 78.98 92.7899C78.98 157.21 142.52 186.84 145.24 188.12V188.17H145.3V188.12C148.01 186.84 211.56 157.21 211.56 92.7899" fill="#EEC89C"/>
<path d="M201.47 97.33C200.6 97.14 199.73 96.91 198.88 96.64C191.76 94.3088 185.78 89.3818 182.13 82.84C178.502 76.6326 177.268 69.3136 178.66 62.26C178.83 61.49 179.03 60.73 179.27 59.99C179.27 59.99 179.27 59.99 179.27 59.93C179.27 59.87 179.27 59.93 179.27 59.87H179.22L145.2 50C145.161 49.9854 145.118 49.9854 145.08 50H145C144.974 49.9899 144.945 49.9899 144.92 50C144.897 49.9954 144.873 49.9954 144.85 50L111 60.3C111 60.3 111 60.3 111 60.36C110.995 60.3797 110.995 60.4002 111 60.42C111.17 61.06 111.33 61.7 111.46 62.36C112.713 69.4977 111.398 76.8485 107.75 83.11C105.947 86.4055 103.512 89.3134 100.585 91.6676C97.6577 94.0217 94.2953 95.7759 90.6897 96.83C90.0197 97.02 89.3197 97.19 88.6097 97.33H88.5197C88.5097 97.3625 88.5097 97.3974 88.5197 97.43C88.5197 152.17 141.07 176.85 144.83 178.65H144.89C144.894 178.664 144.902 178.677 144.912 178.687C144.923 178.698 144.936 178.706 144.95 178.71C144.975 178.72 145.004 178.72 145.03 178.71H145.11H145.2C145.222 178.691 145.239 178.667 145.25 178.64H145.32C149.13 176.85 201.63 152.17 201.63 97.42C201.636 97.4041 201.64 97.3871 201.64 97.37C201.64 97.3528 201.636 97.3358 201.63 97.32C201.619 97.3097 201.606 97.3017 201.592 97.2967C201.578 97.2916 201.563 97.2894 201.548 97.2904C201.533 97.2913 201.518 97.2953 201.505 97.3021C201.491 97.3089 201.479 97.3184 201.47 97.33ZM194 129.67C189.245 140.085 182.537 149.491 174.24 157.38C169.929 161.564 165.291 165.396 160.37 168.84C155.507 172.289 150.37 175.332 145.01 177.94C139.659 175.332 134.532 172.288 129.68 168.84C124.762 165.399 120.127 161.57 115.82 157.39C107.518 149.5 100.804 140.094 96.0397 129.68C91.6296 119.7 89.3477 108.911 89.3397 98C89.8397 97.9 90.3397 97.78 90.7997 97.65C94.5014 96.5617 97.9523 94.7545 100.955 92.3317C103.958 89.9089 106.454 86.918 108.3 83.53C112.086 77.0921 113.458 69.5168 112.17 62.16C112.07 61.72 111.97 61.28 111.86 60.85L145.05 50.78L178.27 60.39C178.096 60.9433 177.946 61.5133 177.82 62.1C176.27 69.1 177.75 76.73 181.48 83.26C185.222 90.0105 191.387 95.0891 198.73 97.47C199.39 97.67 200.06 97.86 200.73 98C200.724 108.911 198.431 119.699 194 129.67Z" fill="white"/>
<path d="M126 144.38C128.083 144.373 130.121 143.775 131.877 142.656C133.634 141.536 135.036 139.94 135.922 138.055C136.807 136.169 137.138 134.071 136.878 132.004C136.617 129.937 135.775 127.987 134.45 126.38L136.71 124.12L135.3 122.7L133.04 124.96C131.681 123.828 130.069 123.04 128.341 122.663C126.613 122.286 124.82 122.331 123.113 122.795C121.406 123.259 119.837 124.127 118.537 125.326C117.237 126.526 116.246 128.021 115.647 129.685C115.048 131.349 114.859 133.133 115.097 134.886C115.334 136.639 115.99 138.308 117.01 139.753C118.03 141.198 119.383 142.376 120.955 143.186C122.527 143.997 124.271 144.417 126.04 144.41L126 144.38ZM126 124.38C127.78 124.38 129.52 124.908 131 125.897C132.48 126.886 133.633 128.291 134.314 129.936C134.996 131.58 135.174 133.39 134.827 135.136C134.479 136.882 133.622 138.485 132.363 139.744C131.105 141.003 129.501 141.86 127.755 142.207C126.01 142.554 124.2 142.376 122.555 141.695C120.911 141.014 119.505 139.86 118.516 138.38C117.527 136.9 117 135.16 117 133.38C117 130.993 117.948 128.704 119.636 127.016C121.323 125.328 123.613 124.38 126 124.38Z" fill="black"/>
<path d="M126 106.38C128.559 106.37 131.034 105.468 133 103.83L135.26 106.09L136.67 104.67L134.41 102.41C136.001 100.481 136.888 98.0663 136.923 95.5652C136.959 93.0642 136.14 90.6258 134.604 88.6522C133.067 86.6786 130.903 85.2877 128.47 84.7088C126.037 84.1299 123.479 84.3977 121.218 85.4679C118.957 86.538 117.129 88.3468 116.034 90.5958C114.939 92.8448 114.644 95.3998 115.196 97.8393C115.748 100.279 117.116 102.457 119.072 104.015C121.029 105.573 123.458 106.418 125.96 106.41L126 106.38ZM126 86.3801C127.78 86.3801 129.52 86.9079 131 87.8969C132.48 88.8858 133.633 90.2914 134.315 91.936C134.996 93.5805 135.174 95.3901 134.827 97.1359C134.479 98.8817 133.622 100.485 132.364 101.744C131.105 103.003 129.501 103.86 127.755 104.207C126.01 104.554 124.2 104.376 122.556 103.695C120.911 103.014 119.505 101.86 118.516 100.38C117.528 98.9002 117 97.1601 117 95.3801C117 92.9932 117.948 90.704 119.636 89.0161C121.324 87.3283 123.613 86.3801 126 86.3801Z" fill="black"/>
<path d="M155.999 114.38C155.991 112.249 155.363 110.167 154.193 108.386C153.023 106.605 151.36 105.202 149.408 104.348C147.456 103.494 145.297 103.225 143.195 103.575C141.093 103.924 139.137 104.877 137.567 106.317C135.996 107.757 134.877 109.622 134.346 111.686C133.815 113.75 133.896 115.924 134.577 117.943C135.258 119.962 136.512 121.74 138.184 123.06C139.857 124.38 141.877 125.186 143.999 125.38C144.319 125.38 144.639 125.38 144.999 125.38C145.359 125.38 145.649 125.38 145.999 125.38C148.74 125.13 151.288 123.862 153.139 121.825C154.99 119.789 156.011 117.132 155.999 114.38ZM149.999 121.61C148.786 122.596 147.306 123.198 145.749 123.34C145.499 123.34 145.249 123.34 144.999 123.34C144.749 123.34 144.499 123.34 144.259 123.34C142.701 123.193 141.22 122.591 139.999 121.61V121.55C140.631 119.777 141.657 118.17 142.999 116.85L143.639 116.21C143.733 116.117 143.808 116.007 143.858 115.885C143.909 115.763 143.935 115.632 143.935 115.5C143.935 115.368 143.909 115.238 143.858 115.116C143.808 114.994 143.733 114.883 143.639 114.79C143.36 114.51 143.17 114.154 143.093 113.766C143.016 113.378 143.055 112.976 143.207 112.611C143.358 112.246 143.615 111.933 143.944 111.714C144.272 111.494 144.659 111.377 145.054 111.377C145.45 111.377 145.836 111.494 146.165 111.714C146.494 111.933 146.751 112.246 146.902 112.611C147.053 112.976 147.093 113.378 147.016 113.766C146.939 114.154 146.749 114.51 146.469 114.79C146.376 114.883 146.301 114.994 146.251 115.116C146.2 115.238 146.174 115.368 146.174 115.5C146.174 115.632 146.2 115.763 146.251 115.885C146.301 116.007 146.376 116.117 146.469 116.21L147.109 116.85C148.431 118.175 149.436 119.782 150.049 121.55L149.999 121.61ZM148.469 115.44C148.828 114.833 149.019 114.141 149.024 113.436C149.029 112.731 148.848 112.036 148.498 111.424C148.148 110.811 147.643 110.302 147.033 109.948C146.423 109.594 145.73 109.408 145.024 109.408C144.319 109.408 143.626 109.594 143.016 109.948C142.406 110.302 141.901 110.811 141.551 111.424C141.201 112.036 141.02 112.731 141.025 113.436C141.03 114.141 141.221 114.833 141.579 115.44C140.175 116.867 139.082 118.57 138.369 120.44C137.203 119.148 136.436 117.545 136.162 115.826C135.888 114.107 136.118 112.345 136.825 110.754C137.532 109.163 138.685 107.811 140.145 106.862C141.605 105.914 143.308 105.409 145.049 105.409C146.79 105.409 148.494 105.914 149.954 106.862C151.414 107.811 152.567 109.163 153.274 110.754C153.981 112.345 154.211 114.107 153.937 115.826C153.663 117.545 152.896 119.148 151.729 120.44C151.018 118.567 149.921 116.863 148.509 115.44H148.469Z" fill="black"/>
<path d="M126 100.38C126.988 100.38 127.955 100.087 128.777 99.5375C129.6 98.9881 130.24 98.2072 130.619 97.2935C130.997 96.3799 131.096 95.3746 130.903 94.4047C130.711 93.4348 130.234 92.5439 129.535 91.8446C128.836 91.1453 127.945 90.6691 126.975 90.4762C126.005 90.2833 125 90.3823 124.086 90.7607C123.172 91.1392 122.392 91.78 121.842 92.6023C121.293 93.4245 121 94.3912 121 95.3801C121 96.7062 121.526 97.978 122.464 98.9157C123.402 99.8533 124.673 100.38 126 100.38ZM126 92.3801C126.593 92.3801 127.173 92.5561 127.666 92.8857C128.16 93.2154 128.544 93.6839 128.771 94.2321C128.998 94.7803 129.058 95.3835 128.942 95.9654C128.826 96.5473 128.54 97.0819 128.121 97.5014C127.701 97.921 127.167 98.2067 126.585 98.3225C126.003 98.4382 125.4 98.3788 124.851 98.1518C124.303 97.9247 123.835 97.5402 123.505 97.0468C123.175 96.5535 123 95.9735 123 95.3801C123 94.5845 123.316 93.8214 123.878 93.2588C124.441 92.6962 125.204 92.3801 126 92.3801Z" fill="black"/>
<path d="M122 138.38H130C130.265 138.38 130.519 138.275 130.707 138.087C130.894 137.9 131 137.645 131 137.38V129.38C131 129.115 130.894 128.861 130.707 128.673C130.519 128.485 130.265 128.38 130 128.38H122C121.734 128.38 121.48 128.485 121.292 128.673C121.105 128.861 121 129.115 121 129.38V137.38C121 137.645 121.105 137.9 121.292 138.087C121.48 138.275 121.734 138.38 122 138.38ZM123 130.38H129V136.38H123V130.38Z" fill="black"/>
<path d="M164.91 90.8801C164.838 90.7623 164.743 90.6606 164.63 90.5814C164.517 90.5022 164.389 90.4473 164.253 90.4201C164.118 90.3928 163.979 90.3939 163.844 90.4231C163.709 90.4524 163.582 90.5092 163.47 90.5901C163.349 90.6625 163.246 90.7617 163.17 90.8801L159.17 97.8801C159.104 97.9942 159.061 98.1203 159.044 98.2511C159.026 98.3819 159.035 98.5148 159.07 98.6421C159.104 98.7694 159.163 98.8887 159.244 98.9931C159.325 99.0974 159.425 99.1848 159.54 99.2501C159.694 99.3329 159.865 99.3774 160.04 99.3801H168.04C168.305 99.3801 168.559 99.2747 168.747 99.0872C168.935 98.8997 169.04 98.6453 169.04 98.3801C169.047 98.2042 169.002 98.0302 168.91 97.8801L164.91 90.8801ZM161.77 97.3801L164.04 93.3801L166.32 97.3801H161.77Z" fill="black"/>
<path d="M164 144.38C165.768 144.387 167.512 143.967 169.084 143.156C170.656 142.346 172.009 141.168 173.029 139.723C174.049 138.278 174.705 136.609 174.943 134.856C175.18 133.103 174.991 131.319 174.392 129.655C173.793 127.991 172.802 126.496 171.502 125.296C170.203 124.097 168.633 123.229 166.926 122.765C165.219 122.301 163.426 122.256 161.698 122.633C159.97 123.01 158.358 123.798 157 124.93L154.74 122.67L153.33 124.09L155.58 126.35C154.254 127.957 153.412 129.907 153.151 131.974C152.891 134.041 153.222 136.139 154.108 138.025C154.993 139.91 156.395 141.506 158.152 142.626C159.908 143.745 161.947 144.343 164.03 144.35L164 144.38ZM164 124.38C165.78 124.38 167.52 124.908 169 125.897C170.48 126.886 171.633 128.291 172.315 129.936C172.996 131.58 173.174 133.39 172.827 135.136C172.48 136.882 171.622 138.485 170.364 139.744C169.105 141.003 167.501 141.86 165.756 142.207C164.01 142.554 162.2 142.376 160.556 141.695C158.911 141.014 157.505 139.86 156.516 138.38C155.528 136.9 155 135.16 155 133.38C155 130.993 155.948 128.704 157.636 127.016C159.324 125.328 161.613 124.38 164 124.38Z" fill="black"/>
<path d="M163.44 139.18C163.613 139.31 163.823 139.38 164.04 139.38C164.256 139.38 164.466 139.31 164.64 139.18L168.64 136.18C168.764 136.087 168.865 135.966 168.934 135.827C169.003 135.688 169.04 135.535 169.04 135.38V131.38C169.04 131.225 169.003 131.072 168.934 130.933C168.865 130.794 168.764 130.673 168.64 130.58L164.64 127.58C164.466 127.45 164.256 127.38 164.04 127.38C163.823 127.38 163.613 127.45 163.44 127.58L159.44 130.58C159.315 130.673 159.215 130.794 159.145 130.933C159.076 131.072 159.04 131.225 159.04 131.38V135.38C159.04 135.535 159.076 135.688 159.145 135.827C159.215 135.966 159.315 136.087 159.44 136.18L163.44 139.18ZM161.04 131.88L164.04 129.63L167.04 131.88V134.88L164.04 137.13L161.04 134.88V131.88Z" fill="black"/>
<path d="M125.04 109.38H123.04V111.38H125.04V109.38Z" fill="black"/>
<path d="M125.04 113.38H123.04V115.38H125.04V113.38Z" fill="black"/>
<path d="M125.04 117.38H123.04V119.38H125.04V117.38Z" fill="black"/>
<path d="M170.04 109.38H168.04V111.38H170.04V109.38Z" fill="black"/>
<path d="M170.04 113.38H168.04V115.38H170.04V113.38Z" fill="black"/>
<path d="M170.04 117.38H168.04V119.38H170.04V117.38Z" fill="black"/>
<path d="M142.04 89.3801H140.04V91.3801H142.04V89.3801Z" fill="black"/>
<path d="M146.04 89.3801H144.04V91.3801H146.04V89.3801Z" fill="black"/>
<path d="M150.04 89.3801H148.04V91.3801H150.04V89.3801Z" fill="black"/>
<path d="M142.04 137.38H140.04V139.38H142.04V137.38Z" fill="black"/>
<path d="M146.04 137.38H144.04V139.38H146.04V137.38Z" fill="black"/>
<path d="M150.04 137.38H148.04V139.38H150.04V137.38Z" fill="black"/>
<path d="M163.999 84.3801C162.041 84.38 160.118 84.9028 158.429 85.8945C156.74 86.8863 155.346 88.311 154.392 90.0215C153.438 91.7321 152.958 93.6663 153.001 95.6245C153.045 97.5826 153.61 99.4937 154.639 101.16L154.009 105.23C153.99 105.36 153.996 105.493 154.027 105.621C154.059 105.748 154.115 105.869 154.193 105.974C154.271 106.08 154.369 106.17 154.482 106.238C154.594 106.306 154.719 106.351 154.85 106.37H154.999H155.21L159.549 105.44C160.949 106.068 162.466 106.392 163.999 106.39C166.917 106.39 169.715 105.231 171.778 103.168C173.841 101.105 174.999 98.3075 174.999 95.3901C174.999 92.4727 173.841 89.6749 171.778 87.612C169.715 85.5491 166.917 84.3901 163.999 84.3901V84.3801ZM163.999 104.38C162.648 104.377 161.315 104.069 160.1 103.48C159.967 103.412 159.819 103.378 159.669 103.38H159.46L156.219 104.08L156.679 101.08C156.717 100.832 156.66 100.578 156.519 100.37C155.405 98.7017 154.88 96.7086 155.027 94.7075C155.175 92.7064 155.987 90.812 157.335 89.3254C158.683 87.8388 160.488 86.8452 162.465 86.5024C164.443 86.1597 166.477 86.4874 168.247 87.4337C170.016 88.3799 171.419 89.8903 172.232 91.7249C173.044 93.5595 173.221 95.6131 172.732 97.5594C172.244 99.5057 171.12 101.233 169.538 102.467C167.955 103.701 166.006 104.371 163.999 104.37V104.38Z" fill="black"/>
</g>
<defs>
<clipPath id="clip0_14_1691">
<rect width="288.03" height="206.84" fill="white"/>
</clipPath>
</defs>
</svg>
