<svg id="Layer_1" viewBox="0 0 512 512" xmlns="http://www.w3.org/2000/svg" data-name="Layer 1"><path d="m138.734 375.184 30.271 1.937-23.354 19.35a4.242 4.242 0 0 0 -1.4 4.307l7.515 29.391-25.624-16.224a4.23 4.23 0 0 0 -4.533 0l-25.631 16.224 7.515-29.391a4.231 4.231 0 0 0 -1.408-4.307l-23.345-19.35 30.277-1.937a4.253 4.253 0 0 0 3.663-2.671l11.192-28.189 11.2 28.189a4.234 4.234 0 0 0 3.662 2.671zm147.21-12.509a4.2 4.2 0 0 0 -1.4 4.306l10.9 42.635-37.179-23.535a4.233 4.233 0 0 0 -4.533 0l-37.164 23.535 10.89-42.635a4.218 4.218 0 0 0 -1.4-4.306l-33.872-28.083 43.914-2.807a4.238 4.238 0 0 0 3.662-2.672l16.238-40.887 16.232 40.887a4.251 4.251 0 0 0 3.67 2.672l43.914 2.807zm-47-71.27 4.011 6.742 9.1-22.952a4.231 4.231 0 0 1 7.877 0l9.111 22.952 4-6.742-5.29-82.38a61.693 61.693 0 0 0 -11.453-1.165c-.1.007-.2.03-.3.03s-.2-.023-.295-.03a61.634 61.634 0 0 0 -11.465 1.165l-5.3 82.38zm164.048 83.779 30.269 1.937-23.353 19.35a4.223 4.223 0 0 0 -1.392 4.307l7.507 29.391-25.631-16.224a4.181 4.181 0 0 0 -2.263-.651 4.241 4.241 0 0 0 -2.27.651l-25.624 16.224 7.515-29.391a4.256 4.256 0 0 0 -1.4-4.307l-23.35-19.35 30.263-1.937a4.233 4.233 0 0 0 3.662-2.671l11.2-28.189 11.192 28.189a4.255 4.255 0 0 0 3.671 2.671zm-23.657-195.021c-.151-11.654 3.36-21.4 10.133-28.2a34.325 34.325 0 0 1 24.332-9.713h.356a34.1 34.1 0 0 1 24.594 9.716c6.788 6.8 10.292 16.543 10.14 28.2-.3 24.276-9.61 52.087-34.78 57.944-25.169-5.857-34.477-33.668-34.772-57.944zm46.033 125.945-11.261 18.949-11.252-18.949 3.776-58.761a43.855 43.855 0 0 1 7.3-.682c.06 0 .128.023.181.023s.129-.023.182-.023a44.121 44.121 0 0 1 7.31.682l3.769 58.761zm-27.368-56.718-11.17 2.868a59.873 59.873 0 0 1 4.707 21.408v56.7a3.44 3.44 0 0 1 .522.923l4.42 11.117h74.161v-30.6a4.238 4.238 0 0 1 8.476 0v30.6h26.433v-48.75c-.591-15.271-10.012-27.462-24.019-31.064l-51.315-13.2 3.692 57.482a4.294 4.294 0 0 1 -.59 2.437l-15.574 26.206a4.224 4.224 0 0 1 -7.272 0l-15.571-26.208a4.231 4.231 0 0 1 -.59-2.437zm-117 45.216-8 13.47 6.122 15.422 51.878 3.322a4.235 4.235 0 0 1 2.437 7.485l-9.77 8.1h11.5v-43.569a4.238 4.238 0 1 1 8.476 0v43.564h36.135l3.375-8.5a3.759 3.759 0 0 1 -.076-.72v-59.28c-.84-21.7-14.234-39.01-34.152-44.126l-72.534-18.669 5.214 81.063a4.209 4.209 0 0 1 -.6 2.437zm-74.3-176.421c-.2-16.406 4.76-30.171 14.378-39.812 8.748-8.779 21.257-13.788 34.47-13.788h.992a48.621 48.621 0 0 1 34.386 13.788c9.611 9.641 14.582 23.406 14.378 39.812-.416 34.046-13.606 73.064-49.3 81.139-35.695-8.075-48.886-47.093-49.3-81.139zm-77.773 155.715v60.192l3.292 8.309h36.142v-43.565a4.238 4.238 0 1 1 8.476 0v43.564h11.487l-9.762-8.1a4.235 4.235 0 0 1 2.438-7.48l51.875-3.322 6.125-15.422-8.006-13.47a4.191 4.191 0 0 1 -.583-2.437l5.214-81.063-72.549 18.669c-19.91 5.116-33.305 22.43-34.145 44.126zm-65.822-93.737c-.144-11.654 3.375-21.4 10.148-28.2a34.322 34.322 0 0 1 24.322-9.716h.7a34.281 34.281 0 0 1 24.261 9.716c6.774 6.8 10.285 16.543 10.133 28.2-.295 24.276-9.6 52.087-34.772 57.944-25.17-5.857-34.478-33.668-34.788-57.944zm46.048 125.945-11.26 18.949-11.261-18.949 3.768-58.761a44.121 44.121 0 0 1 7.31-.682c.053 0 .121.023.182.023s.113-.023.182-.023a43.875 43.875 0 0 1 7.3.682l3.783 58.761zm-27.371-56.718-51.315 13.2c-14.008 3.6-23.429 15.793-24.027 31.064v48.746h26.441v-30.6a4.234 4.234 0 1 1 8.468 0v30.6h74.168l4.42-11.117a3.419 3.419 0 0 1 .515-.923v-56.7a60.027 60.027 0 0 1 4.714-21.408l-11.166-2.862 3.693 57.482a4.288 4.288 0 0 1 -.582 2.437l-15.574 26.206a4.231 4.231 0 0 1 -7.28 0l-15.578-26.206a4.234 4.234 0 0 1 -.583-2.437zm-65.149 165.871a4.238 4.238 0 0 0 3.667-2.671l6.152-15.483 6.145 15.483a4.248 4.248 0 0 0 3.67 2.671l16.634 1.06-12.831 10.632a4.252 4.252 0 0 0 -1.408 4.314l4.132 16.148-14.075-8.915a4.2 4.2 0 0 0 -4.534 0l-14.085 8.915 4.132-16.148a4.247 4.247 0 0 0 -1.4-4.314l-12.832-10.632zm482.54 11.692a4.249 4.249 0 0 0 -1.4 4.314l4.132 16.148-14.09-8.914a4.191 4.191 0 0 0 -2.263-.658 4.273 4.273 0 0 0 -2.271.658l-14.075 8.914 4.132-16.148a4.236 4.236 0 0 0 -1.408-4.314l-12.83-10.632 16.625-1.06a4.24 4.24 0 0 0 3.678-2.671l6.145-15.483 6.152 15.483a4.238 4.238 0 0 0 3.663 2.671l16.637 1.06z" fill-rule="evenodd" fill="#000000" style="fill: rgb(195, 169, 98);"></path></svg>