<svg xmlns="http://www.w3.org/2000/svg" viewBox="0 0 432.24 432.24"><defs><style>.cls-1{fill:#fff;}.cls-2{fill:none;stroke:#965715;stroke-linecap:round;stroke-miterlimit:10;stroke-width:3px;stroke-dasharray:10.06 10.06;}.cls-3{fill:#4a2b17;}</style></defs><g id="Слой_2" data-name="Слой 2"><g id="Слой_1-2" data-name="Слой 1"><g id="Слой_2-2" data-name="Слой 2"><g id="Слой_1-2-2" data-name="Слой 1-2"><circle class="cls-1" cx="216.12" cy="216.12" r="214.62"/><circle class="cls-2" cx="216.12" cy="216.12" r="214.62"/></g></g><path class="cls-3" d="M91.84,307.19H83.26a36.4,36.4,0,0,0,36.43,36.42H349V120.77H124V88.63h-4.29a36.4,36.4,0,0,0-36.43,36.42V307.19h8.58a27.8,27.8,0,0,1,27.85-27.86H124v-150H340.39V335H119.69A27.79,27.79,0,0,1,91.84,307.19ZM115.41,271a36.25,36.25,0,0,0-23.57,12.65V125.05a27.7,27.7,0,0,1,23.57-27.42Z"/><path class="cls-3" d="M299.68,146.48H274V291.12l12.86,25.71,12.85-25.71Zm-8.57,8.57v23.57h-8.57V155.05Zm-4.28,142.49L282.54,289V187.19h8.57V289Z"/><path class="cls-3" d="M169,249.33v8.57h17.15L175.4,317.26l8.36,1.5,10.93-60.86H220.4l10.93,60.86,8.36-1.5L229,257.9h17.14v-8.57H227.47l-4.93-28.28a25.87,25.87,0,0,0,10.72-21,25.58,25.58,0,0,0-21.43-25.28V146.48h-8.57v28.29a25.74,25.74,0,0,0-21.43,25.28,26.19,26.19,0,0,0,10.71,21l-4.92,28.28Zm30.43-34.28a17.15,17.15,0,1,1,16.29,0l-2.79,1.5,6,32.78H196.19L202,216.55Z"/></g></g></svg>