<svg viewBox="0 0 64 64" xmlns="http://www.w3.org/2000/svg"><g id="Hotel"><path d="m28.5576 7.0977-.47 2.74a1 1 0 0 0 1.4512 1.0537l2.4612-1.2928 2.4614 1.293a1 1 0 0 0 1.4512-1.0537l-.47-2.74 1.9907-1.9414a.9994.9994 0 0 0 -.5537-1.7051l-2.752-.4-1.2311-2.4938a1.04 1.04 0 0 0 -1.793 0l-1.2309 2.4932-2.752.4a.9994.9994 0 0 0 -.5537 1.7051z" fill="#000000" style="fill: rgb(195, 169, 98);"></path><path d="m42.5576 12.0977-.47 2.74a1 1 0 0 0 1.4512 1.0537l2.4612-1.2928 2.4614 1.293a1 1 0 0 0 1.4512-1.0537l-.47-2.74 1.9907-1.9414a.9994.9994 0 0 0 -.5537-1.7051l-2.752-.4-1.2311-2.4938a1.04 1.04 0 0 0 -1.793 0l-1.2309 2.4932-2.752.4a.9994.9994 0 0 0 -.5537 1.7051z" fill="#000000" style="fill: rgb(195, 169, 98);"></path><path d="m54.5576 19.0977-.47 2.74a1 1 0 0 0 1.4512 1.0537l2.4612-1.2928 2.4614 1.293a1 1 0 0 0 1.4512-1.0537l-.47-2.74 1.9907-1.9414a.9994.9994 0 0 0 -.5537-1.7051l-2.752-.4-1.2309-2.4932a1.04 1.04 0 0 0 -1.793 0l-1.2309 2.4932-2.752.4a.9994.9994 0 0 0 -.5537 1.7051z" fill="#000000" style="fill: rgb(195, 169, 98);"></path><path d="m14.5576 12.0977-.47 2.74a1 1 0 0 0 1.4512 1.0537l2.4612-1.2928 2.4614 1.293a1 1 0 0 0 1.4512-1.0537l-.47-2.74 1.9907-1.9414a.9994.9994 0 0 0 -.5537-1.7051l-2.752-.4-1.2311-2.4938a1.04 1.04 0 0 0 -1.793 0l-1.2309 2.4932-2.752.4a.9994.9994 0 0 0 -.5537 1.7051z" fill="#000000" style="fill: rgb(195, 169, 98);"></path><path d="m2.5576 19.0977-.47 2.74a1 1 0 0 0 1.4512 1.0537l2.4612-1.2928 2.4614 1.293a1 1 0 0 0 1.4512-1.0537l-.47-2.74 1.9907-1.9414a.9994.9994 0 0 0 -.5537-1.7051l-2.752-.4-1.2311-2.4938a1.04 1.04 0 0 0 -1.793 0l-1.2309 2.4932-2.752.4a.9994.9994 0 0 0 -.5537 1.7051z" fill="#000000" style="fill: rgb(195, 169, 98);"></path><path d="m63 62v-33a1 1 0 0 0 0-2h-17v35h-2v-43a1 1 0 0 0 -1-1h-22a1 1 0 0 0 -1 1v43h-2v-35h-17a1 1 0 0 0 0 2v33a1 1 0 0 0 0 2h62a1 1 0 0 0 0-2zm-8-29a1 1 0 0 1 1-1h4a1 1 0 0 1 1 1v4a1 1 0 0 1 -1 1h-4a1 1 0 0 1 -1-1zm0 7a1 1 0 0 1 1-1h4a1 1 0 0 1 1 1v4a1 1 0 0 1 -1 1h-4a1 1 0 0 1 -1-1zm0 7a1 1 0 0 1 1-1h4a1 1 0 0 1 1 1v4a1 1 0 0 1 -1 1h-4a1 1 0 0 1 -1-1zm0 7a1 1 0 0 1 1-1h4a1 1 0 0 1 1 1v4a1 1 0 0 1 -1 1h-4a1 1 0 0 1 -1-1zm-7-21a1 1 0 0 1 1-1h4a1 1 0 0 1 1 1v4a1 1 0 0 1 -1 1h-4a1 1 0 0 1 -1-1zm0 7a1 1 0 0 1 1-1h4a1 1 0 0 1 1 1v4a1 1 0 0 1 -1 1h-4a1 1 0 0 1 -1-1zm0 7a1 1 0 0 1 1-1h4a1 1 0 0 1 1 1v4a1 1 0 0 1 -1 1h-4a1 1 0 0 1 -1-1zm0 7a1 1 0 0 1 1-1h4a1 1 0 0 1 1 1v4a1 1 0 0 1 -1 1h-4a1 1 0 0 1 -1-1zm-38-21a1 1 0 0 1 1-1h4a1 1 0 0 1 1 1v4a1 1 0 0 1 -1 1h-4a1 1 0 0 1 -1-1zm0 7a1 1 0 0 1 1-1h4a1 1 0 0 1 1 1v4a1 1 0 0 1 -1 1h-4a1 1 0 0 1 -1-1zm0 7a1 1 0 0 1 1-1h4a1 1 0 0 1 1 1v4a1 1 0 0 1 -1 1h-4a1 1 0 0 1 -1-1zm0 7a1 1 0 0 1 1-1h4a1 1 0 0 1 1 1v4a1 1 0 0 1 -1 1h-4a1 1 0 0 1 -1-1zm-7-21a1 1 0 0 1 1-1h4a1 1 0 0 1 1 1v4a1 1 0 0 1 -1 1h-4a1 1 0 0 1 -1-1zm0 7a1 1 0 0 1 1-1h4a1 1 0 0 1 1 1v4a1 1 0 0 1 -1 1h-4a1 1 0 0 1 -1-1zm0 7a1 1 0 0 1 1-1h4a1 1 0 0 1 1 1v4a1 1 0 0 1 -1 1h-4a1 1 0 0 1 -1-1zm0 7a1 1 0 0 1 1-1h4a1 1 0 0 1 1 1v4a1 1 0 0 1 -1 1h-4a1 1 0 0 1 -1-1zm33-33a1 1 0 0 1 1-1h4a1 1 0 0 1 1 1v4a1 1 0 0 1 -1 1h-4a1 1 0 0 1 -1-1zm0 7a1 1 0 0 1 1-1h4a1 1 0 0 1 1 1v4a1 1 0 0 1 -1 1h-4a1 1 0 0 1 -1-1zm0 7a1 1 0 0 1 1-1h4a1 1 0 0 1 1 1v4a1 1 0 0 1 -1 1h-4a1 1 0 0 1 -1-1zm0 7a1 1 0 0 1 1-1h4a1 1 0 0 1 1 1v4a1 1 0 0 1 -1 1h-4a1 1 0 0 1 -1-1zm-7-21a1 1 0 0 1 1-1h4a1 1 0 0 1 1 1v4a1 1 0 0 1 -1 1h-4a1 1 0 0 1 -1-1zm0 7a1 1 0 0 1 1-1h4a1 1 0 0 1 1 1v4a1 1 0 0 1 -1 1h-4a1 1 0 0 1 -1-1zm0 7a1 1 0 0 1 1-1h4a1 1 0 0 1 1 1v4a1 1 0 0 1 -1 1h-4a1 1 0 0 1 -1-1zm0 7a1 1 0 0 1 1-1h4a1 1 0 0 1 1 1v4a1 1 0 0 1 -1 1h-4a1 1 0 0 1 -1-1zm-7-21a1 1 0 0 1 1-1h4a1 1 0 0 1 1 1v4a1 1 0 0 1 -1 1h-4a1 1 0 0 1 -1-1zm0 7a1 1 0 0 1 1-1h4a1 1 0 0 1 1 1v4a1 1 0 0 1 -1 1h-4a1 1 0 0 1 -1-1zm0 7a1 1 0 0 1 1-1h4a1 1 0 0 1 1 1v4a1 1 0 0 1 -1 1h-4a1 1 0 0 1 -1-1zm0 7a1 1 0 0 1 1-1h4a1 1 0 0 1 1 1v4a1 1 0 0 1 -1 1h-4a1 1 0 0 1 -1-1zm14 20v-7h-3v7h-2v-7h-3v7h-2v-12a1 1 0 0 1 1-1h10a1 1 0 0 1 1 1v12z" fill="#000000" style="fill: rgb(195, 169, 98);"></path><path d="m24 36h2v2h-2z" fill="#000000" style="fill: rgb(195, 169, 98);"></path><path d="m31 29h2v2h-2z" fill="#000000" style="fill: rgb(195, 169, 98);"></path><path d="m28 51h8v2h-8z" fill="#000000" style="fill: rgb(195, 169, 98);"></path><path d="m31 36h2v2h-2z" fill="#000000" style="fill: rgb(195, 169, 98);"></path><path d="m24 22h2v2h-2z" fill="#000000" style="fill: rgb(195, 169, 98);"></path><path d="m31 43h2v2h-2z" fill="#000000" style="fill: rgb(195, 169, 98);"></path><path d="m31 22h2v2h-2z" fill="#000000" style="fill: rgb(195, 169, 98);"></path><path d="m38 29h2v2h-2z" fill="#000000" style="fill: rgb(195, 169, 98);"></path><path d="m24 43h2v2h-2z" fill="#000000" style="fill: rgb(195, 169, 98);"></path><path d="m24 29h2v2h-2z" fill="#000000" style="fill: rgb(195, 169, 98);"></path><path d="m38 22h2v2h-2z" fill="#000000" style="fill: rgb(195, 169, 98);"></path><path d="m38 43h2v2h-2z" fill="#000000" style="fill: rgb(195, 169, 98);"></path><path d="m38 36h2v2h-2z" fill="#000000" style="fill: rgb(195, 169, 98);"></path><path d="m57 48h2v2h-2z" fill="#000000" style="fill: rgb(195, 169, 98);"></path><path d="m50 48h2v2h-2z" fill="#000000" style="fill: rgb(195, 169, 98);"></path><path d="m57 55h2v2h-2z" fill="#000000" style="fill: rgb(195, 169, 98);"></path><path d="m50 55h2v2h-2z" fill="#000000" style="fill: rgb(195, 169, 98);"></path><path d="m57 34h2v2h-2z" fill="#000000" style="fill: rgb(195, 169, 98);"></path><path d="m50 34h2v2h-2z" fill="#000000" style="fill: rgb(195, 169, 98);"></path><path d="m57 41h2v2h-2z" fill="#000000" style="fill: rgb(195, 169, 98);"></path><path d="m50 41h2v2h-2z" fill="#000000" style="fill: rgb(195, 169, 98);"></path><path d="m5 48h2v2h-2z" fill="#000000" style="fill: rgb(195, 169, 98);"></path><path d="m12 48h2v2h-2z" fill="#000000" style="fill: rgb(195, 169, 98);"></path><path d="m5 55h2v2h-2z" fill="#000000" style="fill: rgb(195, 169, 98);"></path><path d="m12 55h2v2h-2z" fill="#000000" style="fill: rgb(195, 169, 98);"></path><path d="m5 34h2v2h-2z" fill="#000000" style="fill: rgb(195, 169, 98);"></path><path d="m12 34h2v2h-2z" fill="#000000" style="fill: rgb(195, 169, 98);"></path><path d="m5 41h2v2h-2z" fill="#000000" style="fill: rgb(195, 169, 98);"></path><path d="m12 41h2v2h-2z" fill="#000000" style="fill: rgb(195, 169, 98);"></path></g></svg>