<svg xmlns="http://www.w3.org/2000/svg" viewBox="0 0 432.24 432.24"><defs><style>.cls-1{fill:#fff;}.cls-2{fill:none;stroke:#965715;stroke-linecap:round;stroke-miterlimit:10;stroke-width:3px;stroke-dasharray:10.06 10.06;}.cls-3{fill:#4a2b17;}</style></defs><g id="Слой_2" data-name="Слой 2"><g id="Слой_1-2" data-name="Слой 1"><g id="Слой_1-2-2" data-name="Слой 1-2"><circle class="cls-1" cx="216.12" cy="216.12" r="214.62"/><circle class="cls-2" cx="216.12" cy="216.12" r="214.62"/></g><g id="Layer_2" data-name="Layer 2"><g id="Layer_1-2" data-name="Layer 1-2"><path id="browser_testing" data-name="browser testing" class="cls-3" d="M339.43,89H92.81A3.83,3.83,0,0,0,89,92.81V278.72a3.85,3.85,0,0,0,7.69.42,2.94,2.94,0,0,0,0-.42V132.66H335.58V143.6a3.86,3.86,0,0,0,7.71,0V92.83A3.85,3.85,0,0,0,339.43,89Zm-3.85,36H96.65V96.68H335.58Zm-23.49-11.39c-3.69-3.53,1.93-8.92,5.4-5.45S315.58,117.14,312.09,113.56Zm-21.73-2.73a3.86,3.86,0,1,1,3.85,3.86A3.85,3.85,0,0,1,290.36,110.83Zm-19.42,2.73c-3.6-3.51,2-9,5.44-5.45S274.41,117.14,270.94,113.56Zm-94.11,46.08a3.84,3.84,0,0,1-3.84,3.84H127.5v53.93h53.95c0-3.13-.76-8.63,3.84-8.64,5.82,0,3.38,9,3.86,12.48a3.85,3.85,0,0,1-3.86,3.85H123.64a3.85,3.85,0,0,1-3.85-3.85V159.64a3.84,3.84,0,0,1,3.83-3.85H173a3.83,3.83,0,0,1,3.87,3.8ZM242.18,247v61.69a3.85,3.85,0,0,0,3.85,3.86h61.6a3.86,3.86,0,0,0,3.86-3.86V247a3.85,3.85,0,0,0-3.86-3.85H246A3.85,3.85,0,0,0,242.18,247Zm7.71,3.85h53.94v54h-54ZM159.8,200.41l43.5-43.5c3.46-3.57,9,2,5.45,5.44l-46.19,46.19a3.83,3.83,0,0,1-5.42,0l0,0-20.5-20.42a3.87,3.87,0,0,1,5.19-5.73l.27.26ZM291.86,268.2l-9.6,9.6,9.6,9.61a3.85,3.85,0,0,1-5.3,5.59,1.85,1.85,0,0,1-.14-.14l-9.61-9.61-9.61,9.61a3.85,3.85,0,0,1-5.44-5.45l9.59-9.61-9.59-9.6a3.86,3.86,0,0,1,5.44-5.46l9.61,9.61,9.61-9.61C289.9,259.16,295.45,264.73,291.86,268.2Zm47.2-107.9a4,4,0,0,0-3,1.13l-45.45,45.41-20.28-20.28a3.84,3.84,0,0,0-5.42,0l0,0L182.47,269l-27.19-27.14a3.86,3.86,0,0,0-5.45,0L90.12,301.6A3.86,3.86,0,0,0,89,304.33v35.09a3.83,3.83,0,0,0,3.82,3.84H339.43a3.84,3.84,0,0,0,3.86-3.83h0V164.14a3.92,3.92,0,0,0-4-3.85Zm-3.5,175.31H96.65V306l55.9-55.88,27.14,27.15a3.87,3.87,0,0,0,5.46,0l82.5-82.5L287.93,215a3.84,3.84,0,0,0,5.45,0h0l42.18-42.18Z"/></g></g></g></g></svg>