<svg xmlns="http://www.w3.org/2000/svg" viewBox="0 0 432.24 432.24"><defs><style>.cls-1{fill:#fff;}.cls-2{fill:none;stroke:#965715;stroke-linecap:round;stroke-miterlimit:10;stroke-width:3px;stroke-dasharray:10.06 10.06;}.cls-3{fill:#4a2b17;}</style></defs><g id="Слой_2" data-name="Слой 2"><g id="Слой_1-2" data-name="Слой 1"><g id="Слой_1-2-2" data-name="Слой 1-2"><circle class="cls-1" cx="216.12" cy="216.12" r="214.62"/><circle class="cls-2" cx="216.12" cy="216.12" r="214.62"/></g><g id="Partnership_management" data-name="Partnership management"><path class="cls-3" d="M326.12,118.74a12.62,12.62,0,0,0-12.6-12.63H118.74a12.62,12.62,0,0,0-12.62,12.63h0V313.46a12.62,12.62,0,0,0,12.62,12.62l194.76.05a12.62,12.62,0,0,0,12.62-12.63Zm-13.3,194.08h-96.7V292.59a5.39,5.39,0,0,1,7-5.17,32.27,32.27,0,0,1,3.79,1.47,20.12,20.12,0,1,0,9.33-37.95c-3.37,0-9.33,2.3-9.33,2.3a34,34,0,0,1-3.78,1.48,5.4,5.4,0,0,1-6.77-3.52,5.52,5.52,0,0,1-.25-1.66V216.12H182.64a5.41,5.41,0,0,0-5.43,5.38,5.72,5.72,0,0,0,.25,1.64,31.36,31.36,0,0,0,1.48,3.77s2.29,6,2.29,9.34a20.13,20.13,0,1,1-37.94-9.33,30.52,30.52,0,0,0,1.48-3.78,5.4,5.4,0,0,0-3.55-6.77,5.24,5.24,0,0,0-1.63-.25H119.42v-96.7h96.7V139.6a5.41,5.41,0,0,1-5.39,5.42,5.22,5.22,0,0,1-1.62-.25,30.05,30.05,0,0,1-3.79-1.48,20.13,20.13,0,1,0-9.33,38c3.37,0,9.33-2.29,9.33-2.29a30.52,30.52,0,0,1,3.78-1.48,5.39,5.39,0,0,1,7,5.17v33.49h33.52a5.39,5.39,0,0,0,5.36-5.43,5.26,5.26,0,0,0-.24-1.58,31.66,31.66,0,0,0-1.48-3.79s-2.29-6-2.29-9.33a20.13,20.13,0,1,1,37.95,9.33,33.44,33.44,0,0,0-1.48,3.79,5.4,5.4,0,0,0,3.55,6.76,5.27,5.27,0,0,0,1.58.25h20.22Z"/></g></g></g></svg>