<svg xmlns="http://www.w3.org/2000/svg" viewBox="0 0 432.24 432.24"><defs><style>.cls-1{fill:#fff;}.cls-2{fill:none;stroke:#965715;stroke-linecap:round;stroke-miterlimit:10;stroke-width:3px;stroke-dasharray:10.06 10.06;}.cls-3{fill:#4a2b17;}</style></defs><g id="Слой_2" data-name="Слой 2"><g id="Слой_1-2" data-name="Слой 1"><g id="Слой_1-2-2" data-name="Слой 1-2"><circle class="cls-1" cx="216.12" cy="216.12" r="214.62"/><circle class="cls-2" cx="216.12" cy="216.12" r="214.62"/></g><g id="layer1"><path id="path1120" class="cls-3" d="M146.85,89.65c-23.7.41-46.92,7.2-69.41,19.08a6.19,6.19,0,0,0-3.32,5.43V336.4a6.16,6.16,0,0,0,9.16,5.41c44-24.19,86.31-23.44,129.5-.21a6.08,6.08,0,0,0,3.33,1h117.3a24.81,24.81,0,0,0,24.7-24.7V132.71A24.79,24.79,0,0,0,333.41,108H217.64c-23.89-13-47.56-18.78-70.79-18.37Zm.09,12.06c20.48-.37,41.43,5.57,63,17V277.31c-28.41-12.74-51.86-16.05-72.32-14.24-19,1.69-35.5,7.77-51.17,14.54V118.72C106.53,108.59,126.54,102.09,146.94,101.71Zm75.38,18.65H333.41a12.25,12.25,0,0,1,12.35,12.34V280.84H222.32ZM284,138.85a6.18,6.18,0,0,0-6.15,6.2H247a6.17,6.17,0,0,0-6.15,6.16v11.21l-11.88,29.71a6.18,6.18,0,0,0,5.73,8.48h24.65a6.18,6.18,0,0,0,6.19-6.16,6,6,0,0,0-.44-2.32l-11.9-29.71v-5h24.7V225.3H265.52a6.17,6.17,0,0,0-5.52,3.42l-12.35,24.65a6.17,6.17,0,0,0,5.51,8.93h61.75a6.16,6.16,0,0,0,5.51-8.93l-12.34-24.65a6.17,6.17,0,0,0-5.52-3.42H290.21V157.41h24.7v4.89L303,192.13a6.18,6.18,0,0,0,5.74,8.48h24.7a6.18,6.18,0,0,0,6.18-6.17,6.08,6.08,0,0,0-.44-2.31l-11.89-29.71V151.21a6.18,6.18,0,0,0-6.19-6.16H290.21a6.18,6.18,0,0,0-6.15-6.2ZM143.2,139a116.28,116.28,0,0,0-32.58,6.33,6.17,6.17,0,0,0-3.87,7.82v0a6.19,6.19,0,0,0,7.84,3.82c28.59-9.76,49.19-5.76,70.45.13a6.17,6.17,0,0,0,3.28-11.9c-11-3-22.55-5.68-35.32-6.23-3.19-.13-6.45-.13-9.8,0Zm9.8,37a114,114,0,0,0-42.38,6.39,6.17,6.17,0,0,0-3.87,7.82v0a6.19,6.19,0,0,0,7.84,3.82c28.59-9.76,49.19-5.8,70.45.09a6.17,6.17,0,0,0,3.28-11.9c-11-3-22.55-5.68-35.32-6.23Zm94,4.11,3.23,8.1h-6.51Zm74.05,0,3.24,8.07h-6.48ZM153,213.08a113.84,113.84,0,0,0-42.38,6.34,6.18,6.18,0,0,0-3.87,7.83h0a6.18,6.18,0,0,0,7.83,3.88h0c28.59-9.75,49.2-5.8,70.45.1a6.17,6.17,0,0,0,3.28-11.9c-11-3.05-22.55-5.7-35.32-6.25Zm116.34,24.56h29.39L304.88,250H263.14Zm-123,36.75c17.75-.25,38.18,4.24,63.66,16.53v37.59c-40.53-19.1-82.19-19.65-123.49,0V291C105.61,282.47,123.89,274.71,146.3,274.39Zm-3.1,12.79a116.64,116.64,0,0,0-32.58,6.33,6.18,6.18,0,0,0-3.87,7.83h0a6.18,6.18,0,0,0,7.83,3.88h0c28.59-9.75,49.2-5.8,70.45.1a6.17,6.17,0,0,0,3.28-11.89c-11-3.05-22.55-5.7-35.32-6.25-3.19-.13-6.45-.13-9.8,0Zm79.12,6H345.76v12.35H314.91a6.16,6.16,0,0,0-6.2,6.13v0a6.16,6.16,0,0,0,6.14,6.19h30.91a12.26,12.26,0,0,1-12.35,12.35H222.32Zm43.2,12.35a6.17,6.17,0,0,0-6.21,6.13v0a6.17,6.17,0,0,0,6.15,6.19h24.75a6.17,6.17,0,0,0,0-12.34Z"/></g></g></g></svg>