<svg xmlns="http://www.w3.org/2000/svg" viewBox="0 0 432.24 432.24"><defs><style>.cls-1{fill:#fff;}.cls-2{fill:none;stroke:#965715;stroke-linecap:round;stroke-miterlimit:10;stroke-width:3px;stroke-dasharray:10.06 10.06;}.cls-3{fill:#4a2b17;}</style></defs><g id="Слой_2" data-name="Слой 2"><g id="Слой_1-2" data-name="Слой 1"><g id="Слой_1-2-2" data-name="Слой 1-2"><circle class="cls-1" cx="216.12" cy="216.12" r="214.62"/><circle class="cls-2" cx="216.12" cy="216.12" r="214.62"/></g><path class="cls-3" d="M292.73,161a6.51,6.51,0,0,0-1.43-1.89,5.94,5.94,0,0,0-2-1.19l-36.94-13.28a23.49,23.49,0,0,0-16.36.16l-28,10.69a63.18,63.18,0,0,0-5.86,2.61c-.65.34-1.28.7-1.91,1.05a53.05,53.05,0,0,0-6.63-3,50.56,50.56,0,0,0-22.16-3.05l-18.86,1.61a5.78,5.78,0,0,0-2.42.78,6.41,6.41,0,0,0-1.92,1.78l-42.45,60.44a6.83,6.83,0,0,0-1.2,4.49,6.67,6.67,0,0,0,1.92,4.19L125,244.72a15,15,0,0,0,12.2,22.13l.64,0a15,15,0,0,0,13.31,19.45A15,15,0,0,0,165,307a14.88,14.88,0,0,0,10.6-4.4,15,15,0,0,0,13.85,12.69c.33,0,.67,0,1,0a14.82,14.82,0,0,0,5.21-1,15.39,15.39,0,0,0,9.2,2.62,15.76,15.76,0,0,0,10.64-4.87L205.35,302c0-.23.07-.46.08-.7a15.07,15.07,0,0,0-.73-5.71l20.78,20.73a20.14,20.14,0,0,0,8.45,1.49,21,21,0,0,0,15-7.4L251,308a3.71,3.71,0,0,0,.47-.76l-32-31.92a2.26,2.26,0,0,1-.16-3,1.9,1.9,0,0,1,2.82-.06l38.06,38a17.76,17.76,0,0,0,6.6,1,18.45,18.45,0,0,0,13.2-6.51l5-5.82a7.5,7.5,0,0,0,1.78-5.12l-33.4-33.3a2.27,2.27,0,0,1-.16-3,1.9,1.9,0,0,1,2.82-.06l33.56,33.46a14.67,14.67,0,0,0,4.31.48,15,15,0,0,0,10.8-5.33l1.35-1.56a17.38,17.38,0,0,0,4.13-12,17.2,17.2,0,0,0-4.95-11.61l-9-8.93,2.26,2.25,24.23-21.87a6.57,6.57,0,0,0,2-3.74,6.86,6.86,0,0,0-.6-4.29ZM137.6,260.37a8.52,8.52,0,0,1-7.95-9.06,8.54,8.54,0,0,1,8.49-8l.58,0a8.52,8.52,0,1,1-1.12,17Zm14.52,19.51a8.52,8.52,0,0,1-6.28-14.29c.16-.17,3.48-3.69,5.08-5.37l.84-.89a8.52,8.52,0,0,1,12.38,11.72l-2.37,2.51-1.61,1.69-.27.3-1.06,1.11-.49.52-.08.09A8.46,8.46,0,0,1,152.12,279.88Zm19,18a8.52,8.52,0,0,1-12,.28,8.54,8.54,0,0,1-.44-11.94l4.24-4.49h0L164.6,280c2.88-3.05,3.83-4,4.14-4.39l.11-.1h0c.28-.3.44-.47.45-.47a8.52,8.52,0,1,1,12.37,11.72Zm27.81,3a8.53,8.53,0,1,1-8.52-9.08H191A8.55,8.55,0,0,1,199,300.86Zm95.15-51.2-66.35-66.15.75-1.89a3.68,3.68,0,0,0-.23-3.13,3.12,3.12,0,0,0-2.52-1.59l-4.93-.3-5.38-.32-.41,6.39c0,.13-1.08,14.65-8.48,27.77-7.59,13.46-17.65,18.1-19.18,18.4a28.37,28.37,0,0,1-5,.65,5.81,5.81,0,0,1-2.49-.45l-2.52-1.17a4.47,4.47,0,0,1-2.29-2.53,4.91,4.91,0,0,1,0-3.42l25.24-55.38,4.29-2.83,1.72-.66h0L238,151a17.91,17.91,0,0,1,6.21-1.18h.17a17.88,17.88,0,0,1,6.05,1.06l36.94,13.27,31.5,63.16Z"/><path class="cls-3" d="M330,120.71l-24.93,12.43a15.67,15.67,0,0,0-7,21l32.64,65.45a15.67,15.67,0,0,0,21,7l24.93-12.44Zm21.64,93.53a6,6,0,1,1,6-6A6,6,0,0,1,351.64,214.24Z"/><path class="cls-3" d="M144.89,140.58a15.6,15.6,0,0,0-6.42-10.13l-22.8-16L55.61,199.93,78.4,216a15.67,15.67,0,0,0,21.83-3.82l42.05-59.85A15.56,15.56,0,0,0,144.89,140.58ZM87.15,198.65a6,6,0,1,1-5.05-6.84A6,6,0,0,1,87.15,198.65Z"/></g></g></svg>