<svg xmlns="http://www.w3.org/2000/svg" viewBox="0 0 350 350"><defs><style>.cls-1{fill:#fff;}.cls-2{fill:#185650;fill-rule:evenodd;}</style></defs><g id="Слой_2" data-name="Слой 2"><g id="Слой_1-2" data-name="Слой 1"><rect class="cls-1" width="350" height="350" rx="175"/><path class="cls-2" d="M73.81,236.33a16.35,16.35,0,0,1,3-11.48,30.21,30.21,0,0,1,12.9-10.22h0a42.73,42.73,0,0,1,9.85-2.93l.65-.11c-5.11-2.32-10-4.42-15.25-6.45-19.64-7.67-32.28-.93-34.84,8.42-3.32,12.18,9.6,22.49,23.74,22.77m173.76-22.88c11.64,37.93,58.34,22,52.35.11-1.87-6.86-9.18-12.32-20.7-11.7C266.66,202.52,252,211.32,247.57,213.45Zm-147,5A46.1,46.1,0,0,0,85.82,224a19.71,19.71,0,0,0-6.89,6.45,8.68,8.68,0,0,0-1.22,5.71C86.61,235.12,95.45,229.89,100.56,218.44ZM77.33,244.09c-.61,0-1.22.06-1.83.07-18.51.38-39.27-14.49-33.12-32.68,4.37-12.94,23.18-22.47,52.83-9,3.16,1.43,6.13,2.82,9,4.18,3.28-15.6,2-52.95,2.14-69.22V105.89c-.18-10.61-.62-18.9-1.49-21.81a48.94,48.94,0,0,0-5-10.85h35.33a22.06,22.06,0,0,0-1.62,8.32c-.12,5.21,6.47,19.73,6.47,19.73l35,62.87v0l0,0,0,0v0l35-62.88s6.59-14.52,6.47-19.73a22.06,22.06,0,0,0-1.62-8.32h35.33a48.94,48.94,0,0,0-5,10.85c-.87,2.91-1.31,11.2-1.49,21.81v31.55c.17,15.83-1.07,51.62,1.88,67.91,11.9-4.65,21.8-9.11,34.76-9.39,14.88-.33,24.34,6.82,27.28,15.52,6.14,18.19-14.61,33.06-33.12,32.68-13.43-.28-26.95-5.88-34.74-17.76a41.44,41.44,0,0,1-3.76-7.91c-11.1,4.57-22.1,8.43-33.27,12.34-6.84,2.4-13.74,4.81-20.78,7.44l.53.32c1.27.76,2.2,1.33,3.21,2h0a116.64,116.64,0,0,0,12.61,6.79A90.93,90.93,0,0,0,210,251.78l.88-.47.08-.05,1.5-.8h0c4.35-2.34,8.75-4.7,12.94-6.62a48.54,48.54,0,0,1,11.89-4,13.12,13.12,0,0,1,1.42-.16,14.79,14.79,0,0,1,6.73,1.07,7.21,7.21,0,0,1,4.48,5.46v.06a6,6,0,0,1,.08.73,6.29,6.29,0,0,1-.52,2.93,8.63,8.63,0,0,1-1.77,2.61c-2.91,3-8.36,5.29-15.67,5.86h0a63.36,63.36,0,0,1-21.54-2.44q-2.41,1.27-5,2.58c-1.81.91-3.62,1.78-5.4,2.58a194,194,0,0,1-38.86,13c-19.16,4-30.47,2.41-32.53,2h-.17l-.15,0h0l-.07,0a7.12,7.12,0,0,1-1.85-1.45,3.74,3.74,0,0,1-1.07-3.22,4.76,4.76,0,0,1,.51-1.3,4.1,4.1,0,0,1,2.47-1.85,5.48,5.48,0,0,1,1.06-.19,6.71,6.71,0,0,1,1.48,0l.32.07.09,0h0c.79.31,23.38,8.91,67.19-10.63,1.58-.71,3.2-1.49,4.84-2.31l1.84-.94c-2.91-1-5.93-2.21-9-3.64h0a115.79,115.79,0,0,1-12.47-6.71l-.09-.05c-1.95-1.21-3.61-2.15-5.52-3.22h0l-1-.58c-20.13,7.54-40.68,12.86-57.85,14.63-16,1.65-29.19.2-36.56-5.43A29.84,29.84,0,0,1,77.33,244.09Zm37.18-26.42c-.1.27-.19.5-.27.66-5.42,15.07-18.33,23.14-32.18,25.26a32.22,32.22,0,0,0,3,2.58c3.9,3,10,4.32,18.11,4.35,8.28,0,18.52-1.34,30.36-3.76,10.41-2.13,19.37-5.56,30.09-9.66l4.47-1.71c-3.09-1.63-6.1-3.09-9.09-4.45-3.94-1.79-7.85-3.4-11.83-5a130.62,130.62,0,0,0-18-6A84,84,0,0,0,114.51,217.67Zm118.34-10.4a163.35,163.35,0,0,1-2.59-30c0-.87,0-1.57,0-2.06v-.09c0-1.55,0-3.11,0-4.66V95.92h-2.48L179,186.12H171l-48.76-90.2h-2.49v74.55c0,1.55,0,3.11,0,4.66v.09c0,.49,0,1.19,0,2.06a163.32,163.32,0,0,1-3.4,34.21,122.73,122.73,0,0,1,21.29,6,267.17,267.17,0,0,1,35.17,15.92c2.19-.83,4.22-1.63,6.21-2.42,2.72-1.07,5.35-2.1,8.59-3.29,13.67-5,30-11.41,45.85-17.6C233.2,209.1,233,208.14,232.85,207.27Zm-5.71,40.07c-3.71,1.7-7.64,3.78-11.56,5.87,1.54.33,3,.59,4.45.8a54.43,54.43,0,0,0,7.78.57,37.79,37.79,0,0,0,10.44-1.33,15.13,15.13,0,0,0,6.66-3.45,5,5,0,0,0,1-1.35,2.41,2.41,0,0,0,.25-1.14,2.19,2.19,0,0,0,0-.42h0a3.41,3.41,0,0,0-2.17-2.55,10.34,10.34,0,0,0-4.51-.82,9.09,9.09,0,0,0-1.28.12A43,43,0,0,0,227.14,247.34Z"/></g></g></svg>