<svg xmlns="http://www.w3.org/2000/svg" viewBox="0 0 350 350"><defs><style>.cls-1{fill:#fff;}.cls-2{fill:#671f14;}</style></defs><g id="Слой_2" data-name="Слой 2"><g id="Слой_1-2" data-name="Слой 1"><rect class="cls-1" width="350" height="350" rx="175"/><path class="cls-2" d="M44.81,183.41a15.17,15.17,0,0,1-5-1.07,31.26,31.26,0,0,1-5.72-3,18.76,18.76,0,0,1-5.25,2.16,14.83,14.83,0,0,1-6.37,0A8.5,8.5,0,0,1,18.92,180a4.23,4.23,0,0,1-1.66-2.59,3.52,3.52,0,0,1,.31-2.12,4.08,4.08,0,0,1,1.5-1.68,7.24,7.24,0,0,1,5.26-.84,18.74,18.74,0,0,1,6.74,2.84l1.86,1.2,1.94,1.25a29.55,29.55,0,0,0,3.26-2.28l.83-.63h0l-.25-.46c-.11-.21-.21-.43-.3-.65a5.77,5.77,0,0,1-.32-3.94,5.58,5.58,0,0,1,2.47-3h0a10.31,10.31,0,0,1,1.65-.87,14.37,14.37,0,0,1,5.35-1.14c1.72,0,3.15.4,3.73,1.3h0a2.1,2.1,0,0,1,.13.26v0h0a.4.4,0,0,1,0,.15h0a.26.26,0,0,1-.11.22h0a.09.09,0,0,1-.06,0,.18.18,0,0,1-.16,0L51,167c-1-.3-6.24-1.82-10.06.61a5,5,0,0,0-2.22,2.68,5.15,5.15,0,0,0,.32,3.5h0c.09.2.18.4.28.59s.12.25.19.37a35.91,35.91,0,0,1,6.13-4,12.49,12.49,0,0,1,7.24-1.21,8.2,8.2,0,0,1,4.08,1.66,4.55,4.55,0,0,1,1.75,3.19,4.62,4.62,0,0,1-1.25,3.45,8.42,8.42,0,0,1-3.8,2.32h0a10.22,10.22,0,0,1-1.61.38,11.58,11.58,0,0,1-1.58.16A3.88,3.88,0,0,1,49,182.42a7.22,7.22,0,0,1-4,1h-.15Zm.3-3.43a12.48,12.48,0,0,1-3.44-1.8,10.06,10.06,0,0,1-2.35-2.44c-.42.31-.75.57-1.06.81a27.57,27.57,0,0,1-2.73,1.95,44.09,44.09,0,0,0,5.16,2.94,11.52,11.52,0,0,0,4.61,1.23h0a6,6,0,0,0,3.46-.77,2.75,2.75,0,0,0,1-1.13,15.27,15.27,0,0,1-4.61-.79Zm-14.67-3.17a16.06,16.06,0,0,0-6.1-3.16,6.31,6.31,0,0,0-4.92.55,3.43,3.43,0,0,0-1.26,1.4h0a2.83,2.83,0,0,0-.24,1.72,3.54,3.54,0,0,0,1.43,2.2,7.79,7.79,0,0,0,3.24,1.38,14.11,14.11,0,0,0,6,0A17.6,17.6,0,0,0,33.45,179c-.45-.3-.9-.61-1.35-.94h0Q31.26,177.46,30.44,176.81ZM49,176.69a2.2,2.2,0,0,0-1.64-.75,5,5,0,0,0-2,.63h0a.49.49,0,0,1-.33,0,.91.91,0,0,1-.52-.4v0l0,0a1.84,1.84,0,0,1-.07-.24c0-.16,0-.33.09-.4l0,0a4.69,4.69,0,0,1,2.68-.45,4.1,4.1,0,0,1,2.32,1.19,4.39,4.39,0,0,1,1.14,2h0a4,4,0,0,1,0,1.89c.45,0,.88-.08,1.31-.15a10.29,10.29,0,0,0,1.48-.35,7.71,7.71,0,0,0,3.48-2.11,4,4,0,0,0,1.11-3,4,4,0,0,0-1.53-2.75,7.53,7.53,0,0,0-3.74-1.49,11.85,11.85,0,0,0-6.91,1.16,35.34,35.34,0,0,0-6,3.92,9.48,9.48,0,0,0,2.21,2.31,12,12,0,0,0,3.26,1.7,13.78,13.78,0,0,0,2.36.58,15.11,15.11,0,0,0,2.32.18,3.31,3.31,0,0,0,0-1.71A3.85,3.85,0,0,0,49,176.69Z"/><path class="cls-2" d="M309.61,182.34a15.22,15.22,0,0,1-5,1.07h-.14a7.22,7.22,0,0,1-4.05-1,3.81,3.81,0,0,1-1.44-1.66,11.58,11.58,0,0,1-1.58-.16,10.22,10.22,0,0,1-1.61-.38,8.42,8.42,0,0,1-3.8-2.32,4.62,4.62,0,0,1-1.25-3.45,4.55,4.55,0,0,1,1.75-3.19,8.16,8.16,0,0,1,4.08-1.66,12.5,12.5,0,0,1,7.24,1.21,35.45,35.45,0,0,1,6.12,4l.2-.37c.1-.19.19-.39.28-.59h0a5.08,5.08,0,0,0,.31-3.5,5,5,0,0,0-2.21-2.68c-3.83-2.43-9-.91-10.06-.61l-.17.05a.18.18,0,0,1-.16,0l-.06,0h0a.28.28,0,0,1-.1-.22h0a.4.4,0,0,1,0-.15h0v0a2.15,2.15,0,0,1,.14-.26h0c.59-.9,2-1.31,3.74-1.3a14.37,14.37,0,0,1,5.35,1.14,10.75,10.75,0,0,1,1.65.87h0a5.67,5.67,0,0,1,2.47,3,5.83,5.83,0,0,1-.32,3.94c-.1.22-.19.44-.3.65l-.25.46h0l.82.63a30.53,30.53,0,0,0,3.26,2.28l2-1.25,1.86-1.2a18.74,18.74,0,0,1,6.74-2.84,7.24,7.24,0,0,1,5.26.84,4.08,4.08,0,0,1,1.5,1.68,3.44,3.44,0,0,1,.3,2.12,4.21,4.21,0,0,1-1.65,2.59,8.5,8.5,0,0,1-3.53,1.53,14.83,14.83,0,0,1-6.37,0,18.64,18.64,0,0,1-5.25-2.16,31.26,31.26,0,0,1-5.72,3m-1.88-4.16a12.48,12.48,0,0,1-3.44,1.8,15.39,15.39,0,0,1-4.62.79,2.86,2.86,0,0,0,1,1.13,6,6,0,0,0,3.45.77h0a11.44,11.44,0,0,0,4.61-1.23,45,45,0,0,0,5.17-2.94,29,29,0,0,1-2.74-1.95c-.3-.24-.63-.5-1.05-.81A10.06,10.06,0,0,1,307.73,178.18Zm17.33-4.53a15.92,15.92,0,0,0-6.1,3.16q-.84.65-1.65,1.23h0c-.45.33-.9.64-1.35.94a17.6,17.6,0,0,0,4.83,1.92,14.07,14.07,0,0,0,6,0,7.83,7.83,0,0,0,3.25-1.38,3.58,3.58,0,0,0,1.43-2.2,2.91,2.91,0,0,0-.24-1.72h0a3.39,3.39,0,0,0-1.27-1.4A6.28,6.28,0,0,0,325.06,173.65Zm-23,2.29a2.18,2.18,0,0,0-1.64.75,3.75,3.75,0,0,0-1,1.71,3.31,3.31,0,0,0,0,1.71,15.3,15.3,0,0,0,2.32-.18,13.67,13.67,0,0,0,2.35-.58,11.71,11.71,0,0,0,3.26-1.7,9.52,9.52,0,0,0,2.22-2.31,35.41,35.41,0,0,0-6-3.92,11.8,11.8,0,0,0-6.9-1.16,7.49,7.49,0,0,0-3.74,1.49,3.79,3.79,0,0,0-.43,5.73,7.75,7.75,0,0,0,3.49,2.11,10.29,10.29,0,0,0,1.48.35c.43.07.86.12,1.3.15a4.17,4.17,0,0,1,.06-1.89h0a4.5,4.5,0,0,1,1.15-2,4.07,4.07,0,0,1,2.32-1.19,4.64,4.64,0,0,1,2.67.45l0,0c.11.07.12.24.09.4a1,1,0,0,1-.08.24,0,0,0,0,1,0,0v0a.91.91,0,0,1-.52.4.49.49,0,0,1-.33,0h0A5.08,5.08,0,0,0,302,175.94Z"/><path class="cls-2" d="M134.22,144.84c-3.06-2-7.38-3.2-12.92-3.2a27.15,27.15,0,0,0-3,.16A28.73,28.73,0,0,0,103,148.27c-4.06,3.48-6.72,8.12-6.72,13.43a17.19,17.19,0,0,0,.09,1.77c.58,5.3,3.79,9.8,8.78,13s12.06,5.16,20,5.16c27.19,0,35.6-16.9,44.15-34.09,4.1-8.24,8.24-16.55,14.47-23.23a46.22,46.22,0,0,1,6.75-6c3.19-2.32,6-3.64,6.73-3.64a1.37,1.37,0,0,1,.93.3l.05,0a1.35,1.35,0,0,1,.44.94c.13,1.16-1,1.74-2.54,2.59a16,16,0,0,0-6,4.74,85.12,85.12,0,0,0-5.91,10.45Q181,140.28,177,149.9c-4.59,11-11.48,19.89-20.44,25.91-8.66,5.81-19.22,9-31.49,9-8.66,0-16.69-2.24-22.67-6.39a23.07,23.07,0,0,1-10.27-16.68,19.35,19.35,0,0,1-.13-2.25h0a21.43,21.43,0,0,1,7.08-15.65,30.24,30.24,0,0,1,20.2-7.75A29.55,29.55,0,0,1,135.73,141a16.77,16.77,0,0,1,7.41,12.11,15.65,15.65,0,0,1,.11,1.89,15.35,15.35,0,0,1-5.94,12.15,25.26,25.26,0,0,1-13.1,5.18,29.53,29.53,0,0,1-3.09.17,29,29,0,0,1-8.07-1.24,18.73,18.73,0,0,1-6.07-2.91,1,1,0,0,1-.63-.79c0-.13,0-.23,0-.31a1.59,1.59,0,0,1,.12-.64l0-.12a1.16,1.16,0,0,1,1-.62,6,6,0,0,1,2.18.75,26.34,26.34,0,0,0,14.33,2.56h0a20.92,20.92,0,0,0,10.88-4.28,12.3,12.3,0,0,0,4.72-9.76,14.35,14.35,0,0,0-.08-1.61,11.66,11.66,0,0,0-5.35-8.69m11.85,44.71a36.88,36.88,0,0,0-8.62,8.77h0v0a.94.94,0,0,1-1.31.22l-1-.71h0a.94.94,0,0,1-.24-1.31,39.59,39.59,0,0,1,7.44-8,45.72,45.72,0,0,1,9.67-6.13,41.39,41.39,0,0,1,10-3.3h0a26.51,26.51,0,0,1,10.57.1,15.05,15.05,0,0,1,8.65,5.09A18.7,18.7,0,0,1,185,194.31a30.66,30.66,0,0,1-2.89,15.5c-.58,1.14-1.12,2.14-1.65,3.12-2.05,3.81-4,7.34-3.73,9.49v0a2.21,2.21,0,0,0,.8,1.64,4.35,4.35,0,0,0,2.58.58c3,0,9-3.61,15.83-10.51a106,106,0,0,0,16.84-22.77l0,0c.6-1.08,1.22-2.21,1.78-3.25,2.53-4.66,4.14-7.63,6.76-7.78h0L227,180a1,1,0,0,1,.55.1,1,1,0,0,1,.39,1.27l-18.82,35.4h0c-1.85,3.46-3.79,6.93-5.69,10.33-6.69,12-12.89,23.07-12.2,27.9v0a2.89,2.89,0,0,0,.62,1.57l.05,0a1.62,1.62,0,0,0,1.21.49,7.8,7.8,0,0,0,4.3-1.87,47,47,0,0,0,5.57-5.09h0a67.53,67.53,0,0,0,6-7.16c1-1.34,1.55-2.09,2.25-2.09a2,2,0,0,1,1.09.31,1.55,1.55,0,0,1,.7,1.09h0c0,.38-.81,1.65-2,3.24-1.09,1.44-2.46,3.21-3.69,4.77l0,0a39.86,39.86,0,0,1-7.34,7.07c-2.33,1.72-4.71,2.95-6.53,2.95a5.6,5.6,0,0,1-4.69-2.14,10.5,10.5,0,0,1-1.86-5.4,28.58,28.58,0,0,1,.45-9.17,56.33,56.33,0,0,1,2.52-8.16h0a.47.47,0,0,1,.05-.1l11.62-22.49a82.54,82.54,0,0,1-8.86,8.59c-4.56,3.74-9.21,6.42-12.88,6.42a12.69,12.69,0,0,1-6.5-1.44c-1.94-1.17-3.35-3.15-3.71-6.44-.43-3.88.93-6.4,3.46-11.09.43-.79.89-1.64,1.34-2.49a59.23,59.23,0,0,0,4.05-9.24v0a16.62,16.62,0,0,0,.94-6.75,8.57,8.57,0,0,0-3-5.72,12.67,12.67,0,0,0-7-2.79h0a24.15,24.15,0,0,0-5.43.31,43.2,43.2,0,0,0-6.56,1.48A40.3,40.3,0,0,0,146.07,189.55Zm100-85.61a100.08,100.08,0,1,0,21.83,32.63A100.71,100.71,0,0,0,246.06,103.94ZM175,69.15a105.58,105.58,0,1,1-40.48,8A105.52,105.52,0,0,1,175,69.15Zm.33,49.82a.91.91,0,0,1,.75-.37,1.65,1.65,0,0,1,1,.37h0a1.52,1.52,0,0,1,.64,1.15c0,.91-2.06,6.5-6.15,11.95S161.34,143,153.15,143.88a20.27,20.27,0,0,1-2.34.13,21.32,21.32,0,0,1-12.27-3.42,13,13,0,0,1-5.72-9.29,14.85,14.85,0,0,1-.08-1.52c0-4.22,2-9,7.06-13.11s12.65-7.24,24.24-8.51A103.91,103.91,0,0,1,176,107.6l39.17.21a73.2,73.2,0,0,0,13.64-1.43,21.62,21.62,0,0,1,3.76-.52,1.21,1.21,0,0,1,1,.56h0a1.87,1.87,0,0,1,.31.77,1.09,1.09,0,0,1,0,.18c0,.54-1.06,2.36-3.41,4a22.15,22.15,0,0,1-10.26,3.56,31.93,31.93,0,0,1-3.47.18l-2.47,0a1.42,1.42,0,0,1,.31.29,1.37,1.37,0,0,1,.3.75c.12,1.11-.79,2.19-2.38,4.08-.68.81-1.51,1.8-2.48,3l0,0c-2.73,3.59-6.73,12.51-10.18,20.21-1.36,3-2.64,5.87-3.66,8h0c-1,2.14-2,4.11-2.86,5.91C187,170.3,184.71,175,185.15,179c.11,1,.62,2,1.74,2A7.41,7.41,0,0,0,191,179.2a43.58,43.58,0,0,0,5.3-4.85,65.1,65.1,0,0,0,5.66-6.79c1-1.29,1.49-2,2.18-2a1.88,1.88,0,0,1,1.06.31,1.53,1.53,0,0,1,.69,1.08c0,.38-.77,1.59-1.93,3.12l-.47.62a72.78,72.78,0,0,1-5.35,6.55,39.68,39.68,0,0,1-4.7,4.13c-2.23,1.63-4.5,2.81-6.25,2.81-4.33,0-5.86-3.44-6.27-7.21a27.9,27.9,0,0,1,.4-8.77,52.46,52.46,0,0,1,3-9.39h0c8.43-20.27,16.78-29.95,19.57-33.19,1.13-1.31,2.19-2.68,3.26-4,2.4-3,4.63-5.8,5.81-6.55-4.42-.16-9.05-.57-14.21-1-8.9-.78-19.35-1.7-32.82-1.7a53.91,53.91,0,0,0-5.82.3c-7.42.81-13.41,3.16-17.53,6.3s-6.24,6.85-6.24,10.69a9.56,9.56,0,0,0,.06,1.09,8.56,8.56,0,0,0,3.24,5.94,11.86,11.86,0,0,0,7.39,2.28c17,0,25.57-15,27.71-18.89A6.7,6.7,0,0,1,175.33,119Z"/></g></g></svg>