<svg xmlns="http://www.w3.org/2000/svg" viewBox="0 0 77.56 59.03"><defs><style>.cls-1{fill:#0e3a35;fill-rule:evenodd;}</style></defs><g id="Слой_2" data-name="Слой 2"><g id="Слой_1-2" data-name="Слой 1"><path class="cls-1" d="M9.44,47.3A4.71,4.71,0,0,1,10.29,44,8.67,8.67,0,0,1,14,41h0a11.87,11.87,0,0,1,2.86-.85l.19,0c-1.49-.67-2.92-1.28-4.43-1.87C7,36,3.29,38,2.55,40.7c-1,3.53,2.78,6.52,6.89,6.6m50.39-6.64c3.37,11,16.92,6.4,15.18,0-.54-2-2.66-3.58-6-3.4C65.36,37.5,61.11,40.05,59.83,40.66ZM17.19,42.11a13.47,13.47,0,0,0-4.27,1.61,5.68,5.68,0,0,0-2,1.87,2.55,2.55,0,0,0-.36,1.66A8.17,8.17,0,0,0,17.19,42.11Zm-6.73,7.44-.54,0c-5.36.11-11.38-4.2-9.6-9.48C1.59,36.34,7,33.58,15.64,37.48c.92.42,1.78.82,2.6,1.22,1-4.53.56-15.36.62-20.08V9.47a35.15,35.15,0,0,0-.44-6.32A13.93,13.93,0,0,0,17,0H27.22a6.45,6.45,0,0,0-.47,2.41c0,1.51,1.88,5.72,1.88,5.72L38.77,26.37h0L48.93,8.13s1.92-4.21,1.88-5.72A6.45,6.45,0,0,0,50.34,0H60.59a13.93,13.93,0,0,0-1.45,3.15,35.15,35.15,0,0,0-.44,6.32v9.15c0,4.59-.31,15,.55,19.7,3.45-1.35,6.32-2.65,10.08-2.73,4.32-.09,7.06,2,7.91,4.5,1.78,5.28-4.24,9.59-9.6,9.48a12.13,12.13,0,0,1-10.08-5.15,12.24,12.24,0,0,1-1.09-2.29c-3.22,1.32-6.41,2.44-9.65,3.57-2,.7-4,1.4-6,2.16L41,48l.93.56h0a31.71,31.71,0,0,0,3.66,2,25.45,25.45,0,0,0,3.39,1.29l.25-.14h0l.43-.23h0c1.27-.68,2.54-1.37,3.76-1.92a13.52,13.52,0,0,1,3.45-1.17l.41-.05a4.26,4.26,0,0,1,2,.31,2.11,2.11,0,0,1,1.3,1.59h0a1.5,1.5,0,0,1,0,.22,1.83,1.83,0,0,1-.15.85,2.5,2.5,0,0,1-.51.75,7.07,7.07,0,0,1-4.54,1.7h0A18.25,18.25,0,0,1,49.08,53l-1.45.75c-.52.27-1.05.52-1.56.75a56.49,56.49,0,0,1-11.28,3.77,26.1,26.1,0,0,1-9.43.59h-.12a1.84,1.84,0,0,1-.53-.42,1,1,0,0,1-.31-.93,1.57,1.57,0,0,1,.14-.38,1.16,1.16,0,0,1,.72-.53,1.55,1.55,0,0,1,.31-.06,2.81,2.81,0,0,1,.43,0l.09,0h0c.23.09,6.78,2.59,19.49-3.08.45-.21.93-.43,1.4-.67l.54-.27c-.85-.3-1.72-.65-2.62-1.06h0a33.29,33.29,0,0,1-3.62-2h0c-.57-.35-1-.62-1.6-.93h0l-.3-.16a71,71,0,0,1-16.78,4.24c-4.64.48-8.46.06-10.6-1.57A8.58,8.58,0,0,1,10.46,49.55Zm10.78-7.66-.08.19a11.36,11.36,0,0,1-9.33,7.33,9.61,9.61,0,0,0,.86.74c1.13.87,2.92,1.26,5.25,1.26a44.3,44.3,0,0,0,8.81-1.09,53.46,53.46,0,0,0,8.73-2.8L36.77,47c-.89-.48-1.77-.9-2.63-1.29-1.15-.52-2.28-1-3.43-1.46a37.38,37.38,0,0,0-5.24-1.73A24.09,24.09,0,0,0,21.24,41.89Zm34.32-3a47.16,47.16,0,0,1-.75-8.7c0-.25,0-.45,0-.59v-23h-.72L40,32.74H37.61L23.47,6.58h-.72v23c0,.14,0,.34,0,.59a48.34,48.34,0,0,1-1,9.93,34.66,34.66,0,0,1,6.17,1.74,77.06,77.06,0,0,1,10.2,4.62l1.8-.71c.79-.31,1.55-.61,2.49-1,4-1.46,8.71-3.31,13.3-5.11C55.66,39.4,55.6,39.12,55.56,38.87ZM53.9,50.49c-1.07.49-2.21,1.1-3.35,1.7q.68.15,1.29.24a16.66,16.66,0,0,0,2.26.16,11.12,11.12,0,0,0,3-.38,4.54,4.54,0,0,0,1.94-1,1.48,1.48,0,0,0,.27-.4.67.67,0,0,0,.08-.33s0-.07,0-.12h0a1,1,0,0,0-.64-.74,3,3,0,0,0-1.3-.24l-.37,0A12.44,12.44,0,0,0,53.9,50.49Z"/></g></g></svg>