<svg xmlns="http://www.w3.org/2000/svg" viewBox="0 0 350 350"><defs><style>.cls-1{fill:#fff;}.cls-2{font-size:13.6px;fill:#010101;font-family:Cinzel-SemiBold, Cinzel;font-weight:600;}.cls-3{fill:none;}.cls-4{fill:#1d2041;}.cls-5{fill:#c79a55;}</style></defs><g id="Слой_2" data-name="Слой 2"><g id="Слой_1-2" data-name="Слой 1"><rect class="cls-1" width="350" height="350" rx="175"/><text class="cls-2" transform="translate(108.49 236.53)">Boutique hotel</text><path class="cls-3" d="M124.8,180.62l-.07,0,.13.11Z"/><path class="cls-3" d="M77.52,181.41a.2.2,0,0,1,.22-.19l16.81,1.43V156.43l-5.85,2-9.37,4.45-5.44,3.67a21.37,21.37,0,0,1-.9,2.66,15.93,15.93,0,0,1-4.68,6.23,15.07,15.07,0,0,1-8.17,3.13c.09,0,.18.07.27.1l4,.33a.2.2,0,0,1,.18.22.2.2,0,0,1-.2.18h0l-1.8.28a14.39,14.39,0,0,1,2.66,2,28.34,28.34,0,0,1,3.81,4.56c.06.13.4.66,1,1.58s1.37,2.11,2.28,3.48,1.85,2.76,2.85,4.16,1.9,2.63,2.71,3.7A36.34,36.34,0,0,0,81.48,203a9.91,9.91,0,0,0,3.33,2.1,12.57,12.57,0,0,0,4,.75h.08a5.38,5.38,0,0,0,3.93-1.62,5.75,5.75,0,0,0,1.7-3.91V184L87,182.41l-9.33-.79A.2.2,0,0,1,77.52,181.41Zm-3.48.37a3.17,3.17,0,1,1-1.73-4.13A3.17,3.17,0,0,1,74,181.78Z"/><path class="cls-3" d="M254.4,203.79a16.27,16.27,0,0,0,5.4-1.95,15.38,15.38,0,0,0,6-6.63,22.91,22.91,0,0,0,2.1-10,26,26,0,0,1-3.36,3.92L257,199.37Z"/><path class="cls-3" d="M53,175.11c.24-.08.47-.16.71-.26a10.49,10.49,0,0,0,4-3.17,13.61,13.61,0,0,0,2.45-6c.11-.55.21-1.15.3-1.85a12.3,12.3,0,0,0,.05-2.38c-.17-4.21-1.23-7.3-3.15-9.26a10.06,10.06,0,0,0-7.21-3,25.79,25.79,0,0,0-2.68,0c-1,0-1.83,0-2.63,0H43.46v24.69a7,7,0,0,1,1-.63,5.86,5.86,0,0,1,7.87,1.18A7.55,7.55,0,0,1,53,175.11Z"/><path class="cls-4" d="M121.21,142.94,108.38,149H123a8.72,8.72,0,0,1,5.66,2.45,8.87,8.87,0,0,1,2.41,6.49v1.07h.87V139.81a4.65,4.65,0,0,1-.34,1.62,4.92,4.92,0,1,1-7.65-5.66,5.28,5.28,0,0,0-2.4,6.73l-.28.14,0,0A.2.2,0,0,1,121.21,142.94Z"/><path class="cls-4" d="M131.94,139.05l0,0a1.11,1.11,0,0,1,0,.19Z"/><path class="cls-4" d="M121.12,190.94a6.08,6.08,0,0,0,.84-.11,6,6,0,0,1-.85.09Z"/><path class="cls-4" d="M87.79,145.26v.87h1.13a5.39,5.39,0,0,1,3.93,1.63,5.75,5.75,0,0,1,1.7,3.91v3.5l20.85-9.91Z"/><path class="cls-4" d="M137.3,188.8h-.87c-.14.41-.29.8-.44,1.19l.95.42Z"/><path class="cls-4" d="M135.83,190.35l-.3.83a25.15,25.15,0,0,1-2.88,5.13,16.34,16.34,0,0,1-5.71,4.92,16.82,16.82,0,0,1-7.72,1.7h-11.5V184.76l0-.59-13.15-1.12V200.3a5.75,5.75,0,0,1-1.7,3.91,5.38,5.38,0,0,1-3.93,1.62h-.08a12.57,12.57,0,0,1-4-.75,9.91,9.91,0,0,1-3.33-2.1A36.34,36.34,0,0,1,78,199.17c-.81-1.07-1.72-2.3-2.71-3.7s-1.94-2.79-2.85-4.16-1.68-2.54-2.28-3.48-1-1.45-1-1.58a28.34,28.34,0,0,0-3.81-4.56,14.39,14.39,0,0,0-2.66-2l1.8-.28-8.11-.67a.2.2,0,0,1-.18-.22.19.19,0,0,1,.19-.18h0l4.07.34c-.09,0-.18-.08-.27-.1a15.07,15.07,0,0,0,8.17-3.13A15.93,15.93,0,0,0,73,169.18a21.37,21.37,0,0,0,.9-2.66l.32-1.24-17.65,8.4-.09,0a.21.21,0,0,1-.18-.11.21.21,0,0,1,.1-.27l17.87-8.5a17.44,17.44,0,0,0,.28-3A16,16,0,0,0,72.79,154,14.29,14.29,0,0,0,68.08,149a20.43,20.43,0,0,0-6.71-2.83,34.89,34.89,0,0,0-7.73-.87H23.53v.87h1.15a5.38,5.38,0,0,1,3.91,1.63,5.75,5.75,0,0,1,1.7,3.91V200.3a5.75,5.75,0,0,1-1.7,3.91,5.37,5.37,0,0,1-3.91,1.62H23.53v.88h26.6v-.88H49.08a5.52,5.52,0,0,1-4-1.62,5.3,5.3,0,0,1-1.66-3.91V184.53a7.28,7.28,0,0,0,1.53.91,6.74,6.74,0,0,0,7.71-1.88c.14.36.31.76.51,1.21.39.92.89,2,1.45,3.11l1.7,3.56c.59,1.22,1.15,2.39,1.71,3.47a24.65,24.65,0,0,0,1.55,2.66A17.58,17.58,0,0,0,64.8,203a20.3,20.3,0,0,0,6.84,2.85,38.52,38.52,0,0,0,8.59.88h53l3.39-15,.21-.85Zm-82.58-10a5.94,5.94,0,1,1-8.79-7.19,7,7,0,0,0-1,.63V149.13h1.36c.8,0,1.67,0,2.63,0a25.79,25.79,0,0,1,2.68,0,10.06,10.06,0,0,1,7.21,3c1.92,2,3,5,3.15,9.26a12.3,12.3,0,0,1-.05,2.38c-.09.7-.19,1.3-.3,1.85a13.61,13.61,0,0,1-2.45,6,10.49,10.49,0,0,1-4,3.17c-.24.1-.47.18-.71.26a7.55,7.55,0,0,0-.64-.74A5.91,5.91,0,0,1,53.25,180.38Z"/><path class="cls-4" d="M94.55,155.61v27l13.17,1.12v-3.72h10.07a5.86,5.86,0,0,1,5.35-.46,5.78,5.78,0,0,1,1.59,1l.07,0,.06.08a5.88,5.88,0,0,1-2.71,10.1,11,11,0,0,0,3.62-1.47l0,0a6.83,6.83,0,0,0,1.83-4.26v-18.7h-.88v.7a7.33,7.33,0,0,1-2.1,5.31,7.5,7.5,0,0,1-5.36,2.23H107.72V149.35Z"/><path class="cls-4" d="M188.87,206.23a39.2,39.2,0,0,0,10-4.35,25.36,25.36,0,0,0,6.28-5.26V182.13q-.18-3.94,4.39-3.95h1.31v-.88H186.2v.88h1.4q4.49,0,4.48,3.95L192,195.56a10.59,10.59,0,0,1-3.25,4.74,15.79,15.79,0,0,1-5.31,2.94,19.53,19.53,0,0,1-6.28,1,17.91,17.91,0,0,1-10.88-3.46,20.69,20.69,0,0,1-6.8-9.66,42.05,42.05,0,0,1-2.33-14.71,42.22,42.22,0,0,1,2.5-15.36,21.06,21.06,0,0,1,7.42-9.87,20.49,20.49,0,0,1,12.11-3.47,25.14,25.14,0,0,1,8.82,1.54,18,18,0,0,1,7.34,5.09,23.76,23.76,0,0,1,4.82,9.52h.79l-.17-15a29.55,29.55,0,0,0-6.41-2.46,70.8,70.8,0,0,0-8.43-1.71,65.49,65.49,0,0,0-9.39-.66,38.79,38.79,0,0,0-17.95,3.91,27.65,27.65,0,0,0-11.68,11,33.46,33.46,0,0,0-4.08,16.94,33.59,33.59,0,0,0,4.13,17,28.74,28.74,0,0,0,1.82,2.77l27.42,12.23A45.47,45.47,0,0,0,188.87,206.23Z"/><path class="cls-4" d="M149.24,196.34l0,0,0,0,1.84,2.1a28.37,28.37,0,0,0,7.46,5.59A35.52,35.52,0,0,0,173,207.84l2.17.07Z"/><path class="cls-4" d="M274.07,145.26h-12.2v.88h1.4a4.71,4.71,0,0,1,3.29,1.23,4.05,4.05,0,0,1,1.36,3.16V165.7l1.29.9a.21.21,0,0,1,.05.28.18.18,0,0,1-.16.08.27.27,0,0,1-.12,0l-1.09-.77,0,.61V184l5.13-6.9a.2.2,0,1,1,.33.23l-5.46,7.35v.59a22.91,22.91,0,0,1-2.1,10,15.38,15.38,0,0,1-6,6.63,16.27,16.27,0,0,1-5.4,1.95l-.81.11-2.94,3.95,1.09,0a28.46,28.46,0,0,0,10.79-2.72,20.39,20.39,0,0,0,8.69-8.12,24.69,24.69,0,0,0,3-12.47v-6.85a5.36,5.36,0,0,0,5.69-7.26,5.29,5.29,0,0,1-.36,2.53,5.4,5.4,0,1,1-5.33-7.43h0v-15a4.09,4.09,0,0,1,1.36-3.16,4.76,4.76,0,0,1,3.3-1.23h1.4v-.88h-6.23Z"/><path class="cls-4" d="M250.54,204.16a16.38,16.38,0,0,1-9.08-2.45,15.8,15.8,0,0,1-5.88-7,25.93,25.93,0,0,1-2.07-10.79V153.05c0-1.36,0-2.82,2.74-2.94v0a7.16,7.16,0,0,0,5.68-4.36,7.08,7.08,0,0,0,.44-3.81,6.15,6.15,0,1,1-11.82-2.68,6.08,6.08,0,0,1,3-3.18,7.12,7.12,0,0,0-4.92,4.21,2.58,2.58,0,0,0-.08.26v0a9.75,9.75,0,0,1-.54,1.21h.09a.2.2,0,0,1,.2.21.21.21,0,0,1-.2.19h-.3l-.31.44a6.1,6.1,0,0,1-4.56,2.7h-8.66v.88h1.4a4.71,4.71,0,0,1,3.29,1.23,4.05,4.05,0,0,1,1.36,3.16v34.06A23.24,23.24,0,0,0,223.55,197a20.83,20.83,0,0,0,9.61,8.08,38.61,38.61,0,0,0,15.72,2.85c.43,0,.84,0,1.26-.06L253,204A19.87,19.87,0,0,1,250.54,204.16Z"/><path class="cls-4" d="M334.11,188.8a26.05,26.05,0,0,1-3.77,7.51,16.31,16.31,0,0,1-5.71,4.91,16.69,16.69,0,0,1-7.72,1.72h-11.5V151.67a5.69,5.69,0,0,1,1.71-3.91,5.32,5.32,0,0,1,3.91-1.62h1.14v-.88H285.48v.88h1.14a5.35,5.35,0,0,1,3.91,1.62,5.69,5.69,0,0,1,1.71,3.91V200.3a5.67,5.67,0,0,1-1.71,3.91,5.35,5.35,0,0,1-3.91,1.62h-1.14v.88H331l4-17.91Z"/><path class="cls-5" d="M56.39,173.32a.21.21,0,0,0-.1.27.21.21,0,0,0,.18.11l.09,0,22.77-10.83,9.37-4.45,19-9.05.66-.31,12.83-6.1a.2.2,0,0,0,.09-.27l0,0a.2.2,0,0,0-.23-.07l-5.64,2.69-20.85,9.91-20.29,9.65Z"/><path class="cls-5" d="M228.11,142.12h0a.21.21,0,0,0,.2-.19.2.2,0,0,0-.2-.21H228l-94.78-2.87h0a.2.2,0,0,0-.2.2.19.19,0,0,0,.19.2l88.9,2.69Z"/><path class="cls-5" d="M237.17,134h0a.2.2,0,0,0,.2-.17l3.09-21.46a.2.2,0,0,0-.17-.23.18.18,0,0,0-.22.17L237,133.75A.21.21,0,0,0,237.17,134Z"/><path class="cls-5" d="M269.1,167a.18.18,0,0,0,.16-.08.21.21,0,0,0-.05-.28l-1.29-.9-26-18.32a.2.2,0,0,0-.28.05.19.19,0,0,0,0,.27l24.17,17,3.15,2.22A.27.27,0,0,0,269.1,167Z"/><path class="cls-5" d="M264.56,189.14l8.82-11.86a.2.2,0,1,0-.33-.23l-5.13,6.9L253,204l-2.88,3.88L235.92,227a.22.22,0,0,0,0,.28.27.27,0,0,0,.12,0,.18.18,0,0,0,.16-.08l9.81-13.19L257,199.37Z"/><path class="cls-5" d="M64.64,179.19a.2.2,0,0,0-.18-.22l-4-.33-4.07-.34h0a.19.19,0,0,0-.19.18.2.2,0,0,0,.18.22l8.11.67h0A.2.2,0,0,0,64.64,179.19Z"/><path class="cls-5" d="M77.74,181.22a.2.2,0,0,0-.22.19.2.2,0,0,0,.18.21l9.33.79,24.89,2.11,1.31.11h0a.19.19,0,0,0,.2-.18.19.19,0,0,0-.18-.21l-5.54-.47-13.17-1.12Z"/><path class="cls-5" d="M176.2,207.93,148.78,195.7l-11.84-5.29L136,190l-7.33-3.27a.2.2,0,0,0-.27.1.2.2,0,0,0,.1.26l1.18.52,13,5.81,6.58,2.93,29.45,13.14,43.95,19.62.08,0a.2.2,0,0,0,.18-.12.2.2,0,0,0-.1-.27Z"/><path class="cls-5" d="M282.68,84.79l-35,17.62a.2.2,0,0,0-.08.27.18.18,0,0,0,.17.11l.09,0,35-17.63a.2.2,0,0,0,.09-.27A.19.19,0,0,0,282.68,84.79Z"/><path class="cls-5" d="M316.71,121.26a.21.21,0,0,0,.16.08.19.19,0,0,0,.12,0,.2.2,0,0,0,0-.28L292.62,87.8a.2.2,0,0,0-.28,0,.18.18,0,0,0,0,.27Z"/><path class="cls-5" d="M291.71,84a4.11,4.11,0,1,0-5.37,2.24A4.12,4.12,0,0,0,291.71,84Z"/><path class="cls-5" d="M240.11,110.39a4.69,4.69,0,1,0-2.56-6.13A4.7,4.7,0,0,0,240.11,110.39Z"/><path class="cls-5" d="M269.59,168.81a5.4,5.4,0,1,0,10,4.11,5.29,5.29,0,0,0,.36-2.53,5.38,5.38,0,0,0-.56-2,1.71,1.71,0,0,0-.13-.23,4.34,4.34,0,0,0-.28-.46,4.85,4.85,0,0,0-.49-.61l-.23-.21a5.66,5.66,0,0,0-.52-.43l-.24-.16a5.29,5.29,0,0,0-.85-.46h0a5.1,5.1,0,0,0-1.17-.32h-.07a5.57,5.57,0,0,0-1.15,0h0A5.39,5.39,0,0,0,269.59,168.81Z"/><path class="cls-5" d="M122.5,137.69a4.92,4.92,0,1,0,9.1,3.74,5.3,5.3,0,0,0,.34-2.15,1.11,1.11,0,0,0,0-.19,4.92,4.92,0,0,0-9.42-1.4Z"/><path class="cls-5" d="M72.31,177.65A3.17,3.17,0,1,0,74,181.78,3.15,3.15,0,0,0,72.31,177.65Z"/><path class="cls-5" d="M50,172.63a6,6,0,1,0,2.31,1.74A5.94,5.94,0,0,0,50,172.63Z"/><path class="cls-5" d="M126.35,187.28a5.87,5.87,0,0,0-1.49-6.58l-.13-.11a5.78,5.78,0,0,0-1.59-1,5.89,5.89,0,1,0-2,11.33,6,6,0,0,0,.85-.09l.19,0A5.88,5.88,0,0,0,126.35,187.28Z"/><path class="cls-5" d="M230.91,231.29a2.15,2.15,0,1,0,1.17,2.81A2.15,2.15,0,0,0,230.91,231.29Z"/><path class="cls-5" d="M104,231.29a2.15,2.15,0,1,0,1.17,2.81A2.14,2.14,0,0,0,104,231.29Z"/><path class="cls-5" d="M230.55,139.24a6.24,6.24,0,1,0,3-3.18A6.08,6.08,0,0,0,230.55,139.24Z"/><path class="cls-5" d="M318.93,132.13a4.94,4.94,0,1,0-2.69-6.45A4.94,4.94,0,0,0,318.93,132.13Z"/></g></g></svg>