<svg xmlns="http://www.w3.org/2000/svg" viewBox="0 0 350 350"><defs><style>.cls-1,.cls-3{fill:#fff;}.cls-2{fill:#010101;}.cls-2,.cls-3{fill-rule:evenodd;}</style></defs><g id="Слой_2" data-name="Слой 2"><g id="Слой_1-2" data-name="Слой 1"><rect class="cls-1" width="350" height="350" rx="175"/><path class="cls-2" d="M192.72,178.69a11.3,11.3,0,0,0-.42-3.23,6.72,6.72,0,0,0-1.25-2.39,5.24,5.24,0,0,0-2-1.49,7.31,7.31,0,0,0-5.34,0,5.45,5.45,0,0,0-2,1.54,6.87,6.87,0,0,0-1.29,2.46,11.46,11.46,0,0,0-.44,3.3,11.9,11.9,0,0,0,.42,3.32,6.71,6.71,0,0,0,1.24,2.41,5.13,5.13,0,0,0,2,1.49,6.87,6.87,0,0,0,2.69.49,6.17,6.17,0,0,0,2.58-.53,5.94,5.94,0,0,0,2.05-1.62,7.36,7.36,0,0,0,1.33-2.51,10.91,10.91,0,0,0,.45-3.25m29.71.15a8.27,8.27,0,0,0-.52-3,7.58,7.58,0,0,0-1.55-2.49,7,7,0,0,0-2.3-1.67,7.08,7.08,0,0,0-5.52,0,7,7,0,0,0-2.3,1.67,7.45,7.45,0,0,0-1.56,2.49,8.73,8.73,0,0,0,0,6,7.31,7.31,0,0,0,1.56,2.48,7.05,7.05,0,0,0,2.3,1.68,7.18,7.18,0,0,0,5.51,0,7,7,0,0,0,2.3-1.68,7.63,7.63,0,0,0,1.56-2.48A8.29,8.29,0,0,0,222.43,178.84Zm-20.59-.05a13.08,13.08,0,0,1,.26-2.59,13.31,13.31,0,0,1,.76-2.47,12.66,12.66,0,0,1,1.25-2.25,13.05,13.05,0,0,1,1.67-2,13.61,13.61,0,0,1,2-1.62,14,14,0,0,1,2.31-1.19,12.89,12.89,0,0,1,2.51-.73,13.27,13.27,0,0,1,2.61-.25,13.92,13.92,0,0,1,2.68.25,12.89,12.89,0,0,1,2.51.73,12.71,12.71,0,0,1,2.31,1.21,13.57,13.57,0,0,1,2.06,1.67,13.93,13.93,0,0,1,1.7,2,13,13,0,0,1,1.24,2.25,12.58,12.58,0,0,1,1,5,13.13,13.13,0,0,1-.25,2.61,12.54,12.54,0,0,1-.74,2.47,12.79,12.79,0,0,1-1.22,2.24,13,13,0,0,1-1.69,2,14.69,14.69,0,0,1-2.11,1.7,14.07,14.07,0,0,1-2.34,1.22,12.81,12.81,0,0,1-2.52.74,13.4,13.4,0,0,1-2.63.25,13.72,13.72,0,0,1-5.1-1,13.5,13.5,0,0,1-2.32-1.22,13.17,13.17,0,0,1-2-1.65,13.85,13.85,0,0,1-1.69-2,13.53,13.53,0,0,1-1.24-2.27,12.32,12.32,0,0,1-.76-2.44A14,14,0,0,1,201.84,178.79Zm28.31,7.38,4.84-2.64.08.31a5,5,0,0,0,.69,1.51,4,4,0,0,0,1.08,1.08,4.76,4.76,0,0,0,1.48.67,7.28,7.28,0,0,0,1.88.23,5.83,5.83,0,0,0,1.58-.2,3.21,3.21,0,0,0,1.15-.59,2.38,2.38,0,0,0,.71-.91,2.87,2.87,0,0,0,.24-1.21,2.18,2.18,0,0,0-.85-1.62,8.51,8.51,0,0,0-2.71-1.47l-1-.4-.9-.37a26.8,26.8,0,0,1-3.3-1.62,10.15,10.15,0,0,1-2.17-1.67,6,6,0,0,1-1.19-1.9,6.17,6.17,0,0,1-.4-2.26,6.57,6.57,0,0,1,2.61-5.41,8.67,8.67,0,0,1,3-1.54,13.19,13.19,0,0,1,3.8-.51,12.07,12.07,0,0,1,2.63.27,8.8,8.8,0,0,1,2.25.79,7.29,7.29,0,0,1,1.78,1.28,6.32,6.32,0,0,1,1.22,1.75l.1.2-4.34,3-.12-.31a3.3,3.3,0,0,0-.54-1,3.77,3.77,0,0,0-.85-.73,3.91,3.91,0,0,0-1.09-.47,4.63,4.63,0,0,0-1.26-.16,5,5,0,0,0-1.34.17,3.1,3.1,0,0,0-1,.51,2.25,2.25,0,0,0-.64.78,2.37,2.37,0,0,0-.21,1,2.13,2.13,0,0,0,1,1.59,11.16,11.16,0,0,0,3.1,1.58l1.19.44.89.34a18.41,18.41,0,0,1,2.88,1.42,8.63,8.63,0,0,1,2,1.62,5.89,5.89,0,0,1,1.12,1.94,7.44,7.44,0,0,1,.37,2.36,7.8,7.8,0,0,1-.68,3.31,6.78,6.78,0,0,1-2,2.51,9.11,9.11,0,0,1-3.18,1.57,16.62,16.62,0,0,1-7.42.19,9.94,9.94,0,0,1-2.68-1,8.39,8.39,0,0,1-2.14-1.72,10.45,10.45,0,0,1-1.61-2.41l-.11-.22Zm20.87,0,4.84-2.64.08.31a5,5,0,0,0,.69,1.51,4,4,0,0,0,1.08,1.08,4.76,4.76,0,0,0,1.48.67,7.33,7.33,0,0,0,1.88.23,5.83,5.83,0,0,0,1.58-.2,3.21,3.21,0,0,0,1.15-.59,2.31,2.31,0,0,0,.71-.91,2.87,2.87,0,0,0,.24-1.21,2.18,2.18,0,0,0-.85-1.62,8.4,8.4,0,0,0-2.71-1.47l-1.08-.41-.87-.36a26.8,26.8,0,0,1-3.3-1.62,9.81,9.81,0,0,1-2.16-1.67,5.87,5.87,0,0,1-1.2-1.9,6.17,6.17,0,0,1-.4-2.26,6.93,6.93,0,0,1,.65-3,6.83,6.83,0,0,1,2-2.39,8.71,8.71,0,0,1,3-1.54,13.31,13.31,0,0,1,3.81-.51,12.14,12.14,0,0,1,2.63.27,8.8,8.8,0,0,1,2.25.79,6.89,6.89,0,0,1,1.78,1.29,6.13,6.13,0,0,1,1.22,1.74l.1.2-4.34,3-.12-.31a3.3,3.3,0,0,0-.54-1,3.77,3.77,0,0,0-.85-.73,3.91,3.91,0,0,0-1.09-.47,4.63,4.63,0,0,0-1.26-.16,5,5,0,0,0-1.34.17,3.31,3.31,0,0,0-1,.51,2.25,2.25,0,0,0-.64.78,2.37,2.37,0,0,0-.21,1,2.12,2.12,0,0,0,1,1.59,10.94,10.94,0,0,0,3.09,1.58l1.2.44.88.34a18.41,18.41,0,0,1,2.88,1.42,8.63,8.63,0,0,1,2,1.62,5.79,5.79,0,0,1,1.12,1.94,7.44,7.44,0,0,1,.37,2.36,7.83,7.83,0,0,1-.68,3.31,6.78,6.78,0,0,1-2,2.51,9.14,9.14,0,0,1-3.17,1.57,16.66,16.66,0,0,1-7.43.19,9.94,9.94,0,0,1-2.68-1,8.39,8.39,0,0,1-2.14-1.72,10.24,10.24,0,0,1-1.61-2.41l-.1-.22Zm41.15-7.33a8.27,8.27,0,0,0-.52-3,7.45,7.45,0,0,0-1.56-2.49,6.62,6.62,0,0,0-5.06-2.23,6.76,6.76,0,0,0-2.75.56,7,7,0,0,0-2.3,1.67,7.64,7.64,0,0,0-1.57,2.49,8.49,8.49,0,0,0-.52,3,7.74,7.74,0,0,0,2.09,5.48,7.05,7.05,0,0,0,2.3,1.68,7.15,7.15,0,0,0,5.5,0,6.91,6.91,0,0,0,2.3-1.68,7.5,7.5,0,0,0,1.57-2.48A8.29,8.29,0,0,0,292.17,178.84Zm-20.59-.05a13.09,13.09,0,0,1,1-5.06,13.77,13.77,0,0,1,1.24-2.26,14.21,14.21,0,0,1,1.68-2,13.61,13.61,0,0,1,2-1.62,12.6,12.6,0,0,1,2.31-1.19,13,13,0,0,1,2.5-.73,14.27,14.27,0,0,1,2.62-.25,13.92,13.92,0,0,1,2.68.25,12.89,12.89,0,0,1,2.51.73,12.71,12.71,0,0,1,2.31,1.21,13.57,13.57,0,0,1,2.06,1.67,13.93,13.93,0,0,1,1.7,2,13,13,0,0,1,1.24,2.25,12.68,12.68,0,0,1,1,5,13.13,13.13,0,0,1-.25,2.61,12.54,12.54,0,0,1-.74,2.47,12.7,12.7,0,0,1-1.22,2.23,13.05,13.05,0,0,1-1.69,2,14.23,14.23,0,0,1-2.12,1.7,14,14,0,0,1-2.33,1.22,13.22,13.22,0,0,1-2.52.74A13.55,13.55,0,0,1,285,192a13.07,13.07,0,0,1-2.59-.25,13.34,13.34,0,0,1-2.51-.74,14.19,14.19,0,0,1-2.32-1.21,13.35,13.35,0,0,1-2-1.66,13.85,13.85,0,0,1-1.69-2,13.58,13.58,0,0,1-1.25-2.27,13.09,13.09,0,0,1-.75-2.45A13.89,13.89,0,0,1,271.58,178.79ZM92.41,175.31a12.82,12.82,0,0,1,0,6.77,8,8,0,0,1-1.45,2.7,6.33,6.33,0,0,1-2.21,1.75,6.56,6.56,0,0,1-2.8.59,7.25,7.25,0,0,1-2.88-.54A5.69,5.69,0,0,1,80.87,185a7.19,7.19,0,0,1-1.33-2.6,13.63,13.63,0,0,1,0-6.91,7.4,7.4,0,0,1,1.39-2.64,6.08,6.08,0,0,1,2.2-1.68,7.86,7.86,0,0,1,5.75,0,5.66,5.66,0,0,1,2.17,1.63A7.08,7.08,0,0,1,92.41,175.31Zm.29,15.17h5V167.05h-5V172l-.5-1.19a6.8,6.8,0,0,0-2.93-3.38,7.83,7.83,0,0,0-2.23-.89,11.11,11.11,0,0,0-2.66-.3,10,10,0,0,0-4.24.86,9.56,9.56,0,0,0-3.35,2.57,11.73,11.73,0,0,0-2.19,4,16.49,16.49,0,0,0-.73,5.1,18.07,18.07,0,0,0,.72,5.32,11.16,11.16,0,0,0,2.14,4,8.93,8.93,0,0,0,3.36,2.54,11.13,11.13,0,0,0,4.44.85,10.88,10.88,0,0,0,2.33-.25,8.21,8.21,0,0,0,3.82-2,10.14,10.14,0,0,0,1.55-1.75l.47-.66Zm19.51-21.79a9.76,9.76,0,0,0-1,2l-.49,1.33v-5h-5v23.49h5V180.24a28.38,28.38,0,0,1,.3-4.45,9.49,9.49,0,0,1,.92-3A4.32,4.32,0,0,1,113.6,171a5.08,5.08,0,0,1,2.48-.58,6.41,6.41,0,0,1,1,.07,5.05,5.05,0,0,1,.91.19,4.87,4.87,0,0,1,.83.31c.17.09.34.18.51.29l1.76-4.15c-.28-.13-.57-.25-.85-.35a9,9,0,0,0-1.09-.33,8,8,0,0,0-1.11-.2,8.32,8.32,0,0,0-1.12-.07,6.32,6.32,0,0,0-1.9.27,4.88,4.88,0,0,0-1.55.81A5.84,5.84,0,0,0,112.21,168.69Zm19,0a10.28,10.28,0,0,0-1,2l-.5,1.33v-5h-5v23.49h5V180.24a28.38,28.38,0,0,1,.3-4.45,9.75,9.75,0,0,1,.92-3,4.34,4.34,0,0,1,1.68-1.74,5.07,5.07,0,0,1,2.47-.58,6.45,6.45,0,0,1,1,.07,5.24,5.24,0,0,1,.91.19,4.77,4.77,0,0,1,.82.31,5.29,5.29,0,0,1,.52.29l1.76-4.15a9.07,9.07,0,0,0-.88-.36,8.2,8.2,0,0,0-1.07-.32,7.91,7.91,0,0,0-1.1-.2,8.32,8.32,0,0,0-1.12-.07,6.32,6.32,0,0,0-1.9.27,4.88,4.88,0,0,0-1.55.81A5.87,5.87,0,0,0,131.25,168.69Zm29.36,6.62a11.62,11.62,0,0,1,.45,3.38,11.19,11.19,0,0,1-.48,3.39,8,8,0,0,1-1.44,2.7,6.45,6.45,0,0,1-2.22,1.75,6.55,6.55,0,0,1-2.79.59,7.34,7.34,0,0,1-2.89-.54,5.76,5.76,0,0,1-2.17-1.63,7.19,7.19,0,0,1-1.33-2.6,12.53,12.53,0,0,1-.44-3.46,11.81,11.81,0,0,1,.46-3.45,7.38,7.38,0,0,1,1.38-2.64,6.11,6.11,0,0,1,2.21-1.68,7.83,7.83,0,0,1,5.74,0,5.59,5.59,0,0,1,2.17,1.63A6.79,6.79,0,0,1,160.61,175.31Zm.29,15.17h5V167.05h-5V172l-.49-1.19a7.25,7.25,0,0,0-1.2-1.95,6.93,6.93,0,0,0-1.74-1.43,7.76,7.76,0,0,0-2.22-.89,11.25,11.25,0,0,0-2.67-.3,10.07,10.07,0,0,0-4.24.86,9.56,9.56,0,0,0-3.35,2.57,11.73,11.73,0,0,0-2.19,4,16.79,16.79,0,0,0-.73,5.1,18.07,18.07,0,0,0,.72,5.32,11.31,11.31,0,0,0,2.14,4,9.09,9.09,0,0,0,3.36,2.54,11.13,11.13,0,0,0,4.44.85,10.74,10.74,0,0,0,2.33-.25,8.18,8.18,0,0,0,3.83-2,11.06,11.06,0,0,0,1.55-1.75l.46-.66ZM254.31,72.27A132.64,132.64,0,0,0,172,43.6V202.28H50.49V186.84l.46.66a11.06,11.06,0,0,0,1.55,1.75,8.18,8.18,0,0,0,3.83,2,10.74,10.74,0,0,0,2.33.25,11.13,11.13,0,0,0,4.44-.85,9,9,0,0,0,3.35-2.54,11.18,11.18,0,0,0,2.15-4,18.07,18.07,0,0,0,.72-5.32,16.84,16.84,0,0,0-.73-5.1,11.71,11.71,0,0,0-2.18-4,9.41,9.41,0,0,0-3.33-2.57,10,10,0,0,0-4.22-.86,11.25,11.25,0,0,0-2.67.3,8.54,8.54,0,0,0-2.25.9,6.95,6.95,0,0,0-3,3.37L50.49,172v-4.91h-5v40.2H172V310A133.21,133.21,0,0,0,305,176.8c0-4.27-.21-8.5-.6-12.65s-1-8.27-1.75-12.31h-104V191h-6v-2.59a11.29,11.29,0,0,1-1.16,1.22,8.77,8.77,0,0,1-1.89,1.31,8.91,8.91,0,0,1-2.17.78,11.2,11.2,0,0,1-2.44.26,11.57,11.57,0,0,1-4.64-.89,9.45,9.45,0,0,1-3.55-2.68,11.77,11.77,0,0,1-2.24-4.2,18.42,18.42,0,0,1-.74-5.47,17.27,17.27,0,0,1,.75-5.26,12.14,12.14,0,0,1,2.29-4.16,10.05,10.05,0,0,1,3.53-2.71,10.73,10.73,0,0,1,4.45-.91,11.74,11.74,0,0,1,2.79.32,8.76,8.76,0,0,1,2.36.94,7.58,7.58,0,0,1,1.87,1.54,8.77,8.77,0,0,1,.79,1.1V145.84H301.32A133.26,133.26,0,0,0,254.31,72.27ZM52.23,184.8a9.22,9.22,0,0,1-1.93-6.11,12,12,0,0,1,.45-3.38,7.1,7.1,0,0,1,1.36-2.57,5.73,5.73,0,0,1,2.19-1.63,7.83,7.83,0,0,1,5.74,0,6.11,6.11,0,0,1,2.21,1.68,7.55,7.55,0,0,1,1.38,2.64,11.81,11.81,0,0,1,.46,3.45,12.53,12.53,0,0,1-.44,3.46,7.19,7.19,0,0,1-1.33,2.6,5.62,5.62,0,0,1-2.15,1.63,7.15,7.15,0,0,1-2.86.54A6.27,6.27,0,0,1,52.23,184.8ZM171.74,39.05A137.75,137.75,0,1,1,34,176.8,137.75,137.75,0,0,1,171.74,39.05Z"/><path class="cls-3" d="M192.74,178.69a10.94,10.94,0,0,0-.43-3.23,6.41,6.41,0,0,0-1.25-2.39,5.24,5.24,0,0,0-2-1.49,6.71,6.71,0,0,0-2.66-.5,6.62,6.62,0,0,0-2.67.51,5.48,5.48,0,0,0-2,1.54,6.87,6.87,0,0,0-1.29,2.46,11.48,11.48,0,0,0-.43,3.3,11.9,11.9,0,0,0,.42,3.32,6.54,6.54,0,0,0,1.23,2.41,5.24,5.24,0,0,0,2,1.49,6.81,6.81,0,0,0,2.68.49,6.21,6.21,0,0,0,2.59-.53,5.81,5.81,0,0,0,2-1.62,7.38,7.38,0,0,0,1.34-2.51,10.91,10.91,0,0,0,.45-3.25m29.71.15a8.49,8.49,0,0,0-.52-3,7.78,7.78,0,0,0-1.56-2.49,7,7,0,0,0-2.3-1.67,7.06,7.06,0,0,0-5.51,0,7.16,7.16,0,0,0-2.31,1.67,7.78,7.78,0,0,0-1.56,2.49,8.89,8.89,0,0,0,0,6,7.63,7.63,0,0,0,1.56,2.48,7,7,0,0,0,2.31,1.68,7.15,7.15,0,0,0,5.5,0,6.91,6.91,0,0,0,2.3-1.68,7.5,7.5,0,0,0,1.57-2.48A8.51,8.51,0,0,0,222.45,178.84Zm-20.59-.05a13.07,13.07,0,0,1,.25-2.59,12.82,12.82,0,0,1,2-4.72,13.73,13.73,0,0,1,1.68-2,13.53,13.53,0,0,1,2-1.62,14.82,14.82,0,0,1,2.31-1.19,14,14,0,0,1,5.13-1,13.89,13.89,0,0,1,2.67.25,13.19,13.19,0,0,1,2.52.73,13,13,0,0,1,2.3,1.21,14.15,14.15,0,0,1,2.07,1.67,13.85,13.85,0,0,1,1.69,2,12.34,12.34,0,0,1,1.24,2.25,12.14,12.14,0,0,1,.76,2.42,13.52,13.52,0,0,1,.25,2.55,13.92,13.92,0,0,1-.25,2.61,13.28,13.28,0,0,1-.75,2.47,12.25,12.25,0,0,1-2.9,4.2,15.33,15.33,0,0,1-2.12,1.7,14,14,0,0,1-2.33,1.22,13.22,13.22,0,0,1-2.52.74,13.55,13.55,0,0,1-2.63.25,13.17,13.17,0,0,1-2.6-.25,13.34,13.34,0,0,1-4.82-2,12.29,12.29,0,0,1-2-1.65,13.93,13.93,0,0,1-1.7-2,13.53,13.53,0,0,1-1.24-2.27,13,13,0,0,1-.75-2.44A13.2,13.2,0,0,1,201.86,178.79Zm28.3,7.38,4.84-2.64.09.31a5.22,5.22,0,0,0,.68,1.51,4.15,4.15,0,0,0,1.09,1.08,4.66,4.66,0,0,0,1.48.67,7.2,7.2,0,0,0,1.87.23,5.83,5.83,0,0,0,1.58-.2,3.26,3.26,0,0,0,1.16-.59,2.48,2.48,0,0,0,.71-.91,2.87,2.87,0,0,0,.23-1.21,2.2,2.2,0,0,0-.84-1.62,8.58,8.58,0,0,0-2.72-1.47l-1.05-.4-.9-.37a25.92,25.92,0,0,1-3.29-1.62,9.9,9.9,0,0,1-2.17-1.67,6,6,0,0,1-1.2-1.9,6.39,6.39,0,0,1-.4-2.26,6.64,6.64,0,0,1,2.61-5.41,8.76,8.76,0,0,1,3-1.54,13.21,13.21,0,0,1,3.81-.51,12.14,12.14,0,0,1,2.63.27,8.87,8.87,0,0,1,2.24.79A7.1,7.1,0,0,1,247.4,168a6.57,6.57,0,0,1,1.23,1.75l.09.2-4.34,3-.11-.31a3.31,3.31,0,0,0-1.4-1.68,3.79,3.79,0,0,0-1.09-.47,4.63,4.63,0,0,0-1.26-.16,4.93,4.93,0,0,0-1.33.17,3.05,3.05,0,0,0-1,.51,2.21,2.21,0,0,0-.85,1.79,2.15,2.15,0,0,0,1,1.59,11,11,0,0,0,3.1,1.58l1.19.44.88.34a18.41,18.41,0,0,1,2.88,1.42,8.42,8.42,0,0,1,2,1.62,5.89,5.89,0,0,1,1.12,1.94,7.17,7.17,0,0,1,.37,2.36,7.8,7.8,0,0,1-.68,3.31,6.75,6.75,0,0,1-2,2.51,9.07,9.07,0,0,1-3.19,1.57,16.57,16.57,0,0,1-7.41.19,9.88,9.88,0,0,1-2.69-1,8.18,8.18,0,0,1-2.13-1.72,9.85,9.85,0,0,1-1.61-2.41l-.11-.22Zm20.88,0,4.83-2.64.09.31a5.22,5.22,0,0,0,.68,1.51,4.15,4.15,0,0,0,1.09,1.08,4.66,4.66,0,0,0,1.48.67,7.26,7.26,0,0,0,1.87.23,5.78,5.78,0,0,0,1.58-.2,3.26,3.26,0,0,0,1.16-.59,2.5,2.5,0,0,0,.71-.91,2.87,2.87,0,0,0,.24-1.21,2.21,2.21,0,0,0-.85-1.62,8.58,8.58,0,0,0-2.72-1.47l-1.08-.41-.87-.36a25.92,25.92,0,0,1-3.29-1.62,9.9,9.9,0,0,1-2.17-1.67,5.87,5.87,0,0,1-1.2-1.9,6.39,6.39,0,0,1-.4-2.26,6.64,6.64,0,0,1,2.61-5.41,8.76,8.76,0,0,1,3-1.54,13.21,13.21,0,0,1,3.81-.51,12.14,12.14,0,0,1,2.63.27,8.87,8.87,0,0,1,2.24.79,7,7,0,0,1,1.79,1.29,6.13,6.13,0,0,1,1.22,1.74l.09.2-4.34,3-.11-.31a3.33,3.33,0,0,0-.55-1,3.56,3.56,0,0,0-.85-.73,3.79,3.79,0,0,0-1.09-.47,4.63,4.63,0,0,0-1.26-.16,4.93,4.93,0,0,0-1.33.17,3.25,3.25,0,0,0-1,.51,2.22,2.22,0,0,0-.63.78,2.37,2.37,0,0,0-.22,1,2.15,2.15,0,0,0,1,1.59,11,11,0,0,0,3.1,1.58l1.19.44.88.34a18.41,18.41,0,0,1,2.88,1.42,8.7,8.7,0,0,1,2,1.62,5.94,5.94,0,0,1,1.11,1.94,7.17,7.17,0,0,1,.37,2.36,8,8,0,0,1-.67,3.31,6.88,6.88,0,0,1-2,2.51,9.11,9.11,0,0,1-3.18,1.57,16.62,16.62,0,0,1-7.42.19,9.88,9.88,0,0,1-2.69-1,8.18,8.18,0,0,1-2.13-1.72,9.94,9.94,0,0,1-1.61-2.41l-.11-.22Zm41.15-7.33a8.49,8.49,0,0,0-.52-3,7.78,7.78,0,0,0-1.56-2.49,7,7,0,0,0-2.3-1.67,7.06,7.06,0,0,0-5.51,0,7.16,7.16,0,0,0-2.31,1.67,7.78,7.78,0,0,0-1.56,2.49,8.27,8.27,0,0,0-.52,3,7.74,7.74,0,0,0,2.08,5.48A7,7,0,0,0,282.3,186a7.15,7.15,0,0,0,5.5,0,6.91,6.91,0,0,0,2.3-1.68,7.47,7.47,0,0,0,1.56-2.48A8.29,8.29,0,0,0,292.19,178.84Zm-20.59-.05a13.07,13.07,0,0,1,.25-2.59,12.42,12.42,0,0,1,.77-2.47,13.06,13.06,0,0,1,1.24-2.26,13.56,13.56,0,0,1,1.68-2,12.66,12.66,0,0,1,2-1.62,12.84,12.84,0,0,1,2.3-1.19,13.21,13.21,0,0,1,2.5-.73,14.27,14.27,0,0,1,2.62-.25,14,14,0,0,1,2.69.25,13,13,0,0,1,4.81,1.94,14.15,14.15,0,0,1,2.07,1.67,13.85,13.85,0,0,1,1.69,2,12.34,12.34,0,0,1,1.24,2.25,12,12,0,0,1,.76,2.43,13.42,13.42,0,0,1,.25,2.54,13.92,13.92,0,0,1-.25,2.61,13.28,13.28,0,0,1-.75,2.47,12.08,12.08,0,0,1-1.22,2.23,13,13,0,0,1-1.68,2,15.33,15.33,0,0,1-2.12,1.7,13.69,13.69,0,0,1-2.34,1.22,13,13,0,0,1-2.52.74A13.4,13.4,0,0,1,285,192a13.62,13.62,0,0,1-5.09-1,13.8,13.8,0,0,1-2.32-1.21,12.88,12.88,0,0,1-2-1.66,13.93,13.93,0,0,1-1.7-2,13.53,13.53,0,0,1-1.24-2.27,12.38,12.38,0,0,1-.75-2.45A13.1,13.1,0,0,1,271.6,178.79ZM92.42,175.31a11.62,11.62,0,0,1,.45,3.38,11.19,11.19,0,0,1-.48,3.39,8,8,0,0,1-1.44,2.7,6.27,6.27,0,0,1-2.22,1.75,6.55,6.55,0,0,1-2.79.59,7.34,7.34,0,0,1-2.89-.54A5.66,5.66,0,0,1,80.89,185a7.21,7.21,0,0,1-1.34-2.6,12.53,12.53,0,0,1-.44-3.46,11.81,11.81,0,0,1,.46-3.45A7.38,7.38,0,0,1,81,172.8a6.11,6.11,0,0,1,2.21-1.68,7.83,7.83,0,0,1,5.74,0,5.59,5.59,0,0,1,2.17,1.63A6.79,6.79,0,0,1,92.42,175.31Zm.29,15.17h5V167.05h-5V172l-.49-1.19a7.25,7.25,0,0,0-1.2-1.95,6.93,6.93,0,0,0-1.74-1.43,7.76,7.76,0,0,0-2.22-.89,11.25,11.25,0,0,0-2.67-.3,10.07,10.07,0,0,0-4.24.86,9.56,9.56,0,0,0-3.35,2.57,11.73,11.73,0,0,0-2.19,4,16.79,16.79,0,0,0-.73,5.1,18.07,18.07,0,0,0,.72,5.32,11.31,11.31,0,0,0,2.14,4,9.09,9.09,0,0,0,3.36,2.54,11.13,11.13,0,0,0,4.44.85,10.81,10.81,0,0,0,2.33-.25,8.18,8.18,0,0,0,3.83-2,11.06,11.06,0,0,0,1.55-1.75l.46-.66Zm19.51-21.79a9.75,9.75,0,0,0-1,2l-.5,1.33v-5h-5v23.48h5V180.24a28.38,28.38,0,0,1,.3-4.45,9.49,9.49,0,0,1,.92-3,4.27,4.27,0,0,1,1.68-1.74,5,5,0,0,1,2.47-.58,6.54,6.54,0,0,1,1,.07,5.24,5.24,0,0,1,.91.19,4.77,4.77,0,0,1,.82.31,5.29,5.29,0,0,1,.52.29l1.75-4.15a8.93,8.93,0,0,0-.85-.35,8.53,8.53,0,0,0-1.09-.33,8.18,8.18,0,0,0-1.1-.2,8.32,8.32,0,0,0-1.12-.07,6.39,6.39,0,0,0-1.91.27,4.88,4.88,0,0,0-1.55.81A5.84,5.84,0,0,0,112.22,168.69Zm19.05,0a9.28,9.28,0,0,0-1,2l-.5,1.33v-5h-5v23.48h5V180.24a28.38,28.38,0,0,1,.3-4.45,9.49,9.49,0,0,1,.92-3,4.32,4.32,0,0,1,1.67-1.74,5.11,5.11,0,0,1,2.48-.58,6.41,6.41,0,0,1,1,.07,5.35,5.35,0,0,1,.92.19,5.1,5.1,0,0,1,.82.31c.17.09.35.18.52.29l1.75-4.15a8.92,8.92,0,0,0-.87-.36,8.69,8.69,0,0,0-1.07-.32,8,8,0,0,0-1.11-.2,8.22,8.22,0,0,0-1.12-.07,6.32,6.32,0,0,0-1.9.27,4.88,4.88,0,0,0-1.55.81A5.84,5.84,0,0,0,131.27,168.69Zm29.36,6.62a12,12,0,0,1,.44,3.38,11.19,11.19,0,0,1-.48,3.39,8,8,0,0,1-1.44,2.7,6.27,6.27,0,0,1-2.22,1.75,6.48,6.48,0,0,1-2.79.59,7.25,7.25,0,0,1-2.88-.54,5.69,5.69,0,0,1-2.17-1.63,7.21,7.21,0,0,1-1.34-2.6,12.53,12.53,0,0,1-.44-3.46,12.16,12.16,0,0,1,.46-3.45,7.4,7.4,0,0,1,1.39-2.64,6,6,0,0,1,2.2-1.68,7.86,7.86,0,0,1,5.75,0,5.66,5.66,0,0,1,2.17,1.63A7.08,7.08,0,0,1,160.63,175.31Zm.29,15.17h5V167.05h-5V172l-.5-1.19a7.49,7.49,0,0,0-1.19-1.95,6.93,6.93,0,0,0-1.74-1.43,7.83,7.83,0,0,0-2.23-.89,11.11,11.11,0,0,0-2.66-.3,10,10,0,0,0-4.24.86,9.56,9.56,0,0,0-3.35,2.57,11.4,11.4,0,0,0-2.19,4,16.49,16.49,0,0,0-.73,5.1,18.07,18.07,0,0,0,.72,5.32,11.16,11.16,0,0,0,2.14,4,8.93,8.93,0,0,0,3.36,2.54,11.13,11.13,0,0,0,4.44.85,10.88,10.88,0,0,0,2.33-.25,8.84,8.84,0,0,0,2-.73,8.5,8.5,0,0,0,1.78-1.24,10.58,10.58,0,0,0,1.55-1.75l.47-.66Zm93.4-118.21A132.64,132.64,0,0,0,172,43.6V202.28H50.5V186.84l.47.66a10.14,10.14,0,0,0,1.55,1.75,8.21,8.21,0,0,0,3.82,2,10.88,10.88,0,0,0,2.33.25,11.13,11.13,0,0,0,4.44-.85,9.09,9.09,0,0,0,3.36-2.53,11.29,11.29,0,0,0,2.14-4,18.07,18.07,0,0,0,.72-5.32,16.53,16.53,0,0,0-.73-5.1,11.69,11.69,0,0,0-2.17-4,9.53,9.53,0,0,0-3.34-2.57,10,10,0,0,0-4.22-.86,11.11,11.11,0,0,0-2.66.3,8.28,8.28,0,0,0-2.25.9,7.1,7.1,0,0,0-1.76,1.44A7.33,7.33,0,0,0,51,170.79L50.5,172v-4.91h-5v40.2H172V310A133.19,133.19,0,0,0,305,176.8c0-4.27-.2-8.5-.6-12.65s-1-8.27-1.75-12.31h-104V191h-6v-2.59a9.63,9.63,0,0,1-1.16,1.22,8.88,8.88,0,0,1-4,2.09,10.7,10.7,0,0,1-2.45.26,11.63,11.63,0,0,1-4.64-.89,9.53,9.53,0,0,1-3.55-2.68,11.92,11.92,0,0,1-2.24-4.2,18.75,18.75,0,0,1-.74-5.47,17,17,0,0,1,.76-5.26,12.12,12.12,0,0,1,2.28-4.16,10,10,0,0,1,3.54-2.71,10.69,10.69,0,0,1,4.45-.91,11.71,11.71,0,0,1,2.78.32,8.63,8.63,0,0,1,2.36.94,7.4,7.4,0,0,1,1.87,1.54,7.12,7.12,0,0,1,.79,1.1V145.84H301.33A133.21,133.21,0,0,0,254.32,72.27ZM52.24,184.8a9.22,9.22,0,0,1-1.92-6.11,11.67,11.67,0,0,1,.45-3.38,7,7,0,0,1,1.36-2.57,5.69,5.69,0,0,1,2.18-1.63,7.86,7.86,0,0,1,5.75,0,6.08,6.08,0,0,1,2.2,1.68,7.4,7.4,0,0,1,1.39,2.64,12.17,12.17,0,0,1,.45,3.45,12.55,12.55,0,0,1-.43,3.46,7.35,7.35,0,0,1-1.33,2.6,5.73,5.73,0,0,1-2.16,1.63,7.1,7.1,0,0,1-2.85.54A6.29,6.29,0,0,1,52.24,184.8Z"/></g></g></svg>