<svg width="27" height="29" viewBox="0 0 27 29" fill="none" xmlns="http://www.w3.org/2000/svg">
<path d="M19.7659 14.4624C15.7709 14.4624 12.5322 17.701 12.5322 21.6961C12.5322 25.6912 15.7709 28.9298 19.7659 28.9298C23.761 28.9298 26.9997 25.6912 26.9997 21.6961C26.9997 17.701 23.761 14.4624 19.7659 14.4624ZM19.7659 26.5188C17.1064 26.5188 14.9429 24.3553 14.9429 21.6958C14.9429 19.0363 17.1064 16.8728 19.7659 16.8728C22.4251 16.8728 24.589 19.0363 24.589 21.6958C24.589 24.3553 22.4251 26.5188 19.7659 26.5188Z" fill="#C6C6C6"/>
<path d="M19.2576 22.4246L17.3324 20.7232L16.1353 22.0779L19.4261 24.9872L23.4683 20.3363L22.104 19.1497L19.2576 22.4246ZM3.46521 24.4368C2.69 23.1336 2.65934 21.5597 3.38347 20.2275L10.4425 7.2324H14.6363L17.9735 13.3287L20.0876 12.1714L17.3839 7.2324H18.5381V4.82171H17.4379L19.7435 0H5.27834L7.79417 4.82171H6.48401V7.2324H7.69826L1.26448 19.0762C0.130989 21.1639 0.17911 23.6283 1.39335 25.6695C2.6076 27.7107 4.75065 28.9296 7.12541 28.9296H11.2995V26.5189H7.12541C5.6086 26.5186 4.24043 25.7407 3.46521 24.4368ZM9.25561 2.41102H15.9181L14.7652 4.82171H10.5137L9.25561 2.41102Z" fill="#C6C6C6"/>
</svg>
