<svg xmlns="http://www.w3.org/2000/svg" viewBox="0 0 432.24 432.24"><defs><style>.cls-1{fill:#fff;}.cls-2{fill:none;stroke:#965715;stroke-linecap:round;stroke-miterlimit:10;stroke-width:3px;stroke-dasharray:10.06 10.06;}.cls-3{fill:#4a2b17;}</style></defs><g id="Слой_2" data-name="Слой 2"><g id="Слой_1-2" data-name="Слой 1"><g id="Слой_1-2-2" data-name="Слой 1-2"><circle class="cls-1" cx="216.12" cy="216.12" r="214.62"/><circle class="cls-2" cx="216.12" cy="216.12" r="214.62"/></g><g id="Promotion-2"><path class="cls-3" d="M196.62,242.21l7.78-2.48,16.43,14.58a4.84,4.84,0,0,0,6.85-.34L238,242.5a4.85,4.85,0,0,0-.3-6.86l0,0-5.44-4.86,17.44-5.49a4.86,4.86,0,0,0,2.72-7.09l-22.84-39.51a4.85,4.85,0,0,0-6.63-1.79,4.75,4.75,0,0,0-.85.62L181,215.05a4.86,4.86,0,0,0-.92,6l10.84,18.76A4.84,4.84,0,0,0,196.62,242.21Zm30.91-2.38-3.84,4.28-8.55-7.73,6.37-2ZM224.18,189,241,218.11l-43.74,13.75-6.9-12.1Z"/><path class="cls-3" d="M211.2,304.91v.29A10.93,10.93,0,0,0,216.06,326a1.26,1.26,0,0,1,1.27,1.26c0,1.12-1.7,1.31-2.14.88a4.88,4.88,0,1,0-6.9,6.9h0a12,12,0,0,0,2.91,2v.29a4.86,4.86,0,1,0,9.72,0V337a11,11,0,0,0-4.86-20.8,1.26,1.26,0,0,1-.49-2.48,1.35,1.35,0,0,1,.49,0,1.21,1.21,0,0,1,.88.34,4.85,4.85,0,0,0,6.87,0l0,0a4.86,4.86,0,0,0,0-6.85,10.59,10.59,0,0,0-2.92-2v-.29a4.86,4.86,0,1,0-9.72,0Z"/><path class="cls-3" d="M220.92,127.32V127a10.93,10.93,0,0,0-4.86-20.75,1.27,1.27,0,0,1,0-2.53h0a1.26,1.26,0,0,1,.88.39,4.86,4.86,0,0,0,6.87.23l0,0a4.86,4.86,0,0,0,0-6.85,9.76,9.76,0,0,0-2.92-2v-.53a4.86,4.86,0,1,0-9.72,0v.34A10.93,10.93,0,0,0,216.06,116a1.27,1.27,0,0,1,1.27,1.26c0,1.12-1.7,1.32-2.14.88a4.85,4.85,0,0,0-6.87,0l0,0a4.85,4.85,0,0,0,0,6.85,10.69,10.69,0,0,0,2.91,2v.29a4.86,4.86,0,1,0,9.72,0Z"/><path class="cls-3" d="M111.09,221a1.28,1.28,0,0,1,1.49,1,1.26,1.26,0,0,1-1,1.48,1,1,0,0,1-.49,0,1.21,1.21,0,0,1-.88-.34,4.85,4.85,0,0,0-6.87,0l0,0a4.88,4.88,0,0,0,0,6.86,11.2,11.2,0,0,0,2.92,2v.29a4.86,4.86,0,0,0,9.72,0V232a10.93,10.93,0,0,0-4.86-20.75,1.26,1.26,0,0,1-1.26-1.27h0c0-1.12,1.7-1.31,2.13-.87a4.88,4.88,0,1,0,6.91-6.9,13.48,13.48,0,0,0-2.92-2.05h0a4.86,4.86,0,0,0-9.72,0h0a11,11,0,0,0,4.86,20.8Z"/><path class="cls-3" d="M111.09,252.08A36,36,0,0,0,146.66,221h9.43a60.26,60.26,0,0,0,14.14,34l-6.65,6.76a36,36,0,1,0,6.85,6.85l6.75-6.66a60.23,60.23,0,0,0,34,14.15v9.42a36,36,0,1,0,9.72,0v-9.42a60.13,60.13,0,0,0,34-14.15l6.66,6.66a36,36,0,1,0,6.85-6.85L261.89,255A59.86,59.86,0,0,0,276,221h9.43a36,36,0,1,0,0-9.71H276a59.7,59.7,0,0,0-14.14-34l6.66-6.66a36,36,0,1,0-6.85-6.85l-6.76,6.56a59.8,59.8,0,0,0-34-14.15v-9.42a36,36,0,1,0-9.72,0v9.42a60,60,0,0,0-34,14.15l-6.75-6.66a36,36,0,1,0-6.85,6.85l6.65,6.76a60.06,60.06,0,0,0-14.14,34h-9.43a35.91,35.91,0,1,0-35.57,40.82Zm49.28,56.81a26.24,26.24,0,1,1,0-37.11l0,0a26.19,26.19,0,0,1,0,37Zm81.94,12.2a26.25,26.25,0,1,1-26.25-26.24h0A26.24,26.24,0,0,1,242.31,321.09Zm66.53-49.28a26.24,26.24,0,1,1-18.52-7.68A26.24,26.24,0,0,1,308.84,271.81ZM321,189.87a26.25,26.25,0,1,1-26.25,26.25h0A26.25,26.25,0,0,1,321,189.87Zm-49.28-66.53a26.24,26.24,0,0,1,38.64,35.52q-.75.81-1.56,1.56a26.24,26.24,0,0,1-37.08,0h0a26.19,26.19,0,0,1,0-37Zm-81.94-12.2a26.25,26.25,0,1,1,26.29,26.2h-.05A26.25,26.25,0,0,1,189.82,111.14Zm-66.53,49.28a26.25,26.25,0,0,1,18.56-44.76,26,26,0,0,1,18.52,7.68A26.24,26.24,0,1,1,124.85,162Q124,161.23,123.29,160.42Zm92.77,5.2a50.5,50.5,0,0,1,0,101h0a50.5,50.5,0,0,1,0-101Zm-105,24.3a26.25,26.25,0,1,1-26.24,26.24v0a26.24,26.24,0,0,1,26.24-26.25Z"/><path class="cls-3" d="M321,221a1.26,1.26,0,0,1,.49,2.48,1,1,0,0,1-.49,0,1.21,1.21,0,0,1-.88-.34,4.86,4.86,0,0,0-6.9,6.86,11.88,11.88,0,0,0,2.92,2v.29a4.86,4.86,0,1,0,9.72,0V232A10.93,10.93,0,0,0,321,211.26a1.27,1.27,0,0,1-1.27-1.27c0-1.12,1.75-1.31,2.19-.87a4.86,4.86,0,0,0,6.88-6.88l0,0a12.34,12.34,0,0,0-2.91-2.05h0a4.86,4.86,0,1,0-9.72,0h0A11,11,0,0,0,321,221Z"/></g></g></g></svg>