<svg xmlns="http://www.w3.org/2000/svg" viewBox="0 0 432.24 432.24"><defs><style>.cls-1{fill:#fff;}.cls-2{fill:none;stroke:#965715;stroke-linecap:round;stroke-miterlimit:10;stroke-width:3px;stroke-dasharray:10.06 10.06;}.cls-3{fill:#4a2b17;}</style></defs><g id="Слой_2" data-name="Слой 2"><g id="Слой_1-2" data-name="Слой 1"><g id="Слой_1-2-2" data-name="Слой 1-2"><circle class="cls-1" cx="216.12" cy="216.12" r="214.62"/><circle class="cls-2" cx="216.12" cy="216.12" r="214.62"/></g><path class="cls-3" d="M226.35,213.34a5.12,5.12,0,1,0,5.12,5.12A5.12,5.12,0,0,0,226.35,213.34Z"/><path class="cls-3" d="M134.24,140.17a5.12,5.12,0,0,1,0-10.24,8.23,8.23,0,0,1,5.54,2.68,5.12,5.12,0,0,0,7.11-7.36,19.78,19.78,0,0,0-7.53-4.71v-6a5.12,5.12,0,1,0-10.23,0v6a15.35,15.35,0,0,0,5.11,29.82,5.12,5.12,0,0,1,0,10.24c-2.18,0-4.54-1.38-6.64-3.87a5.12,5.12,0,0,0-7.84,6.58,21.28,21.28,0,0,0,9.37,6.67v6a5.12,5.12,0,1,0,10.23,0v-6a15.35,15.35,0,0,0-5.12-29.82Z"/><path class="cls-3" d="M226.35,257.35H205.89a5.12,5.12,0,0,0-5.12,5.12v20.47a5.12,5.12,0,0,0,5.12,5.12h20.46a5.12,5.12,0,0,0,5.12-5.12V262.47A5.12,5.12,0,0,0,226.35,257.35Zm-5.11,20.47H211V267.59h10.24Z"/><path class="cls-3" d="M267.29,257.35H246.82a5.11,5.11,0,0,0-5.11,5.12v20.47a5.11,5.11,0,0,0,5.11,5.12h20.47a5.12,5.12,0,0,0,5.12-5.12V262.47A5.12,5.12,0,0,0,267.29,257.35Zm-5.11,20.47H251.94V267.59h10.24Z"/><path class="cls-3" d="M226.35,298.29H205.89a5.12,5.12,0,0,0-5.12,5.12v20.47a5.12,5.12,0,0,0,5.12,5.12h20.46a5.12,5.12,0,0,0,5.12-5.12V303.41A5.12,5.12,0,0,0,226.35,298.29Zm-5.11,20.47H211V308.53h10.24Z"/><path class="cls-3" d="M267.29,298.29H246.82a5.11,5.11,0,0,0-5.11,5.12v20.47a5.12,5.12,0,0,0,5.11,5.12h20.47a5.12,5.12,0,0,0,5.12-5.12V303.41A5.12,5.12,0,0,0,267.29,298.29Zm-5.11,20.47H251.94V308.53h10.24Z"/><path class="cls-3" d="M308.23,257.35H287.76a5.11,5.11,0,0,0-5.11,5.12v61.41a5.12,5.12,0,0,0,5.11,5.12h20.47a5.12,5.12,0,0,0,5.12-5.12V262.47A5.12,5.12,0,0,0,308.23,257.35Zm-5.12,61.41H292.88V267.59h10.23Z"/><path class="cls-3" d="M308.23,192.87H205.89a5.12,5.12,0,0,0-5.12,5.12v44a5.12,5.12,0,0,0,5.12,5.12H308.23a5.12,5.12,0,0,0,5.12-5.12V198A5.12,5.12,0,0,0,308.23,192.87Zm-5.12,44H211V203.11h92.11Z"/><path class="cls-3" d="M318.47,170.87H272.41V140a15.25,15.25,0,0,0-4.31-10.67L233.69,93.67a15.42,15.42,0,0,0-5.25-3.54l-.21-.08h0A15.34,15.34,0,0,0,222.65,89H113.77a15.37,15.37,0,0,0-15.35,15.36V303.41a15.37,15.37,0,0,0,15.35,15.35H180.3v16.89A15.37,15.37,0,0,0,195.65,351H318.47a15.37,15.37,0,0,0,15.35-15.35V186.22A15.37,15.37,0,0,0,318.47,170.87Zm-87-64.76,29.27,30.29a5.08,5.08,0,0,1,1.44,3.56v.21H236.59a5.13,5.13,0,0,1-5.12-5.12ZM180.3,186.22V308.53H113.77a5.12,5.12,0,0,1-5.11-5.12V104.35a5.11,5.11,0,0,1,5.11-5.12H221.24v35.82a15.37,15.37,0,0,0,15.35,15.35h25.59v20.47H195.65A15.37,15.37,0,0,0,180.3,186.22ZM323.58,335.65a5.12,5.12,0,0,1-5.11,5.12H195.65a5.13,5.13,0,0,1-5.12-5.12V186.22a5.12,5.12,0,0,1,5.12-5.11H318.47a5.11,5.11,0,0,1,5.11,5.11Z"/><path class="cls-3" d="M287.76,213.34H246.82a5.12,5.12,0,0,0,0,10.24h40.94a5.12,5.12,0,0,0,0-10.24Z"/><path class="cls-3" d="M205.89,150.4H165a5.12,5.12,0,1,0,0,10.24h40.94a5.12,5.12,0,0,0,0-10.24Z"/><path class="cls-3" d="M205.89,129.93H165a5.12,5.12,0,0,0,0,10.24h40.94a5.12,5.12,0,0,0,0-10.24Z"/><path class="cls-3" d="M165,192.87H124a5.12,5.12,0,1,0,0,10.24H165a5.12,5.12,0,0,0,0-10.24Z"/><path class="cls-3" d="M134.24,213.34H124a5.12,5.12,0,0,0,0,10.24h10.23a5.12,5.12,0,0,0,0-10.24Z"/><path class="cls-3" d="M165,213.34H154.71a5.12,5.12,0,0,0,0,10.24H165a5.12,5.12,0,0,0,0-10.24Z"/><path class="cls-3" d="M134.24,236.88H124a5.12,5.12,0,1,0,0,10.24h10.23a5.12,5.12,0,0,0,0-10.24Z"/><path class="cls-3" d="M165,236.88H154.71a5.12,5.12,0,0,0,0,10.24H165a5.12,5.12,0,0,0,0-10.24Z"/><path class="cls-3" d="M134.24,257.35H124a5.12,5.12,0,0,0,0,10.24h10.23a5.12,5.12,0,1,0,0-10.24Z"/><path class="cls-3" d="M165,257.35H154.71a5.12,5.12,0,0,0,0,10.24H165a5.12,5.12,0,0,0,0-10.24Z"/><path class="cls-3" d="M134.24,277.82H124a5.12,5.12,0,1,0,0,10.24h10.23a5.12,5.12,0,0,0,0-10.24Z"/><path class="cls-3" d="M165,277.82H154.71a5.12,5.12,0,1,0,0,10.24H165a5.12,5.12,0,0,0,0-10.24Z"/></g></g></svg>