<svg xmlns="http://www.w3.org/2000/svg" viewBox="0 0 346.8 254.04"><defs><style>.cls-1{fill:#c7940d;}</style></defs><g id="Слой_2" data-name="Слой 2"><g id="Слой_1-2" data-name="Слой 1"><path class="cls-1" d="M227.64,223c8.56,2.54,8.75-6.09,8.75-6.09,9.79.85,8.2-6.81,8.2-6.81,10.7-6.92,3-10,3-10,6.77-14.5-2.19-11.83-2.19-11.83.1-19.89-9-3.9-9-3.9-3.49-3.32-3,4.1-2.37,9a4.27,4.27,0,0,0-3.7-2.73c-3.44-1.51-3,3.13-3,3.13-7.07-1.76-.35,14.44-.35,14.44-8-2,.62,14.81.62,14.81m31.9-10.6s.45-.35,1.25-.92c.39-.29.9-.59,1.42-1s1.1-.93,1.74-1.44,1.25-1.19,1.95-1.81,1.33-1.41,2.06-2.13,1.35-1.6,2.09-2.39,1.36-1.7,2-2.56,1.34-1.75,1.94-2.66,1.26-1.75,1.81-2.63,1.12-1.7,1.63-2.51l1.43-2.28,2.1-3.47.79-1.33a35.28,35.28,0,0,1-1.84,5.34c-.34.78-.68,1.63-1.14,2.49s-.88,1.8-1.42,2.71-1.09,1.87-1.7,2.81-1.3,1.84-1.95,2.78-1.43,1.77-2.16,2.62-1.52,1.64-2.31,2.36a30.06,30.06,0,0,1-2.34,2c-.8.58-1.52,1.15-2.26,1.6s-1.42.82-2,1.15a13.8,13.8,0,0,1-1.64.72C260.06,212.23,259.54,212.42,259.54,212.42Zm39.15,3s14.28,10.19,14.15,2.9c0,0,4.42,1.52,3.72-2.18a4.27,4.27,0,0,0-1.83-4.22c4.63,1.72,11.75,3.86,9.31-.28,0,0,17.63-5.29-1.78-9.67,0,0,4.61-8.13-11-4.79,0,0-1.29-8.18-10.44.68,0,0-7.11-3.27-8.48,6.47,0,0-8.46-1.76-7.9,7.15C284.41,211.45,298.81,223.66,298.69,215.39ZM286.6,210a15.79,15.79,0,0,1,1.47-1c.61-.34,1.29-.72,2.06-1.12s1.63-.71,2.54-1.08a28.39,28.39,0,0,1,2.95-.93c1-.3,2.12-.5,3.22-.72s2.24-.33,3.37-.47,2.27-.17,3.38-.19,2.22,0,3.29,0,2.08.12,3.05.21,1.88.23,2.72.34a34.93,34.93,0,0,1,5.51,1.25l-1.55,0-4.05,0-2.7,0c-.95,0-1.95,0-3,.07s-2.1.12-3.19.16-2.17.17-3.27.25-2.19.23-3.26.38-2.12.29-3.12.52-2,.37-2.9.64-1.78.45-2.57.7-1.49.52-2.14.73-1.16.49-1.62.67l-1.44.58S285.8,210.54,286.6,210Zm-30,6a16.94,16.94,0,0,1,1.7.57c.63.29,1.35.6,2.12,1s1.55.88,2.4,1.39a29.47,29.47,0,0,1,2.51,1.8c.85.65,1.67,1.39,2.51,2.15s1.59,1.6,2.39,2.41,1.5,1.72,2.18,2.6,1.35,1.77,1.94,2.65,1.16,1.73,1.67,2.57.94,1.63,1.35,2.37a34.09,34.09,0,0,1,2.3,5.16l-.9-1.25-2.4-3.27c-.5-.67-1.05-1.39-1.63-2.15s-1.2-1.54-1.85-2.35-1.35-1.62-2-2.46-1.44-1.64-2.16-2.47-1.5-1.62-2.26-2.38-1.5-1.53-2.29-2.19-1.49-1.38-2.24-1.94-1.43-1.16-2.11-1.63-1.31-.89-1.86-1.28-1.09-.64-1.51-.9l-1.32-.8S255.64,215.7,256.59,216Zm-27.87,26.59s7.15,16,10.73,9.67c0,0,3,3.55,4.31,0a4.29,4.29,0,0,0,.56-4.57c3.12,3.83,8.18,9.29,8.17,4.48,0,0,17.88,4.37,3.37-9.24,0,0,8.09-4.67-7.09-9.71,0,0,3-7.72-9.35-4.71,0,0-4.47-6.42-10.59,1.28,0,0-6.39-5.8-10.43,2.17C218.4,232,224.63,249.77,228.72,242.57Zm-7.67-10.81a12.67,12.67,0,0,1,1.79-.13c.69,0,1.48,0,2.34.07s1.76.22,2.74.36a30.7,30.7,0,0,1,3,.69c1,.27,2.08.64,3.14,1s2.1.86,3.14,1.3,2,1,3,1.55,1.93,1.11,2.82,1.69,1.74,1.15,2.52,1.73,1.51,1.14,2.18,1.66a34.69,34.69,0,0,1,4.11,3.87l-1.32-.81-3.47-2.09-2.33-1.34c-.83-.48-1.71-1-2.62-1.46s-1.87-1-2.82-1.48-2-.95-3-1.44-2-.91-3-1.32-2-.83-3-1.13-1.9-.7-2.81-.92-1.77-.52-2.58-.69-1.55-.32-2.21-.46-1.25-.17-1.74-.25c-1-.13-1.53-.23-1.53-.23S220.06,231.86,221.05,231.76ZM324.6,129s14.39,3,11.82-2.57c0,0,3.9-.33,2.11-2.93a3.56,3.56,0,0,0-2.83-2.61c4.13-.25,10.31-1,7-3.37,0,0,11.72-10-4.63-6.81,0,0,.78-7.78-10.07.07,0,0-3.76-5.83-7.76,4.06,0,0-6.55-.1-4.32,7.83,0,0-7.06,1.51-3.62,8.15C312.33,130.84,327.49,135.31,324.6,129Zm-28.48,11.37a11.47,11.47,0,0,1,1.5-.14c.58,0,1.24,0,2,0s1.48.15,2.3.25,1.65.33,2.53.53,1.75.51,2.65.8,1.76.68,2.65,1,1.73.8,2.55,1.25,1.63.89,2.39,1.37,1.47.94,2.14,1.4,1.28.94,1.85,1.36a29.74,29.74,0,0,1,3.5,3.17L321,150.8l-2.94-1.69-2-1.09c-.7-.39-1.44-.78-2.22-1.18s-1.58-.78-2.39-1.2-1.65-.76-2.49-1.16-1.69-.72-2.53-1-1.67-.66-2.5-.9-1.6-.56-2.37-.73-1.49-.4-2.17-.54-1.3-.24-1.86-.35-1.05-.12-1.45-.18c-.82-.09-1.29-.16-1.29-.16S295.3,140.49,296.12,140.39Zm-8.44,2.28s.23-.42.64-1.12c.2-.36.49-.77.74-1.27s.53-1.09.85-1.7.55-1.33.88-2.05.54-1.53.86-2.33.49-1.68.78-2.53.47-1.77.7-2.66.43-1.79.58-2.69.37-1.76.49-2.62.29-1.69.4-2.48.23-1.54.33-2.23c.18-1.39.32-2.55.43-3.36s.15-1.29.15-1.29a28.86,28.86,0,0,1,.41,4.71c0,.71,0,1.48,0,2.29s-.06,1.68-.17,2.56-.2,1.8-.35,2.73-.37,1.85-.55,2.78-.49,1.85-.77,2.74-.61,1.77-1,2.6a25.2,25.2,0,0,1-1.11,2.33c-.41.72-.77,1.4-1.18,2s-.82,1.11-1.17,1.58-.74.8-1,1.11C288,142.35,287.68,142.67,287.68,142.67Zm-7.36,29.54a46.66,46.66,0,0,0,4.33,3.39,22.43,22.43,0,0,0-5.4,3.54c-2.24-4.26-4.16,2.93-5.13,7.76a4.29,4.29,0,0,0-2.63-3.77c-2.78-2.53-3.81,2-3.81,2-6.13-3.93-5,13.57-5,13.57-7-4.45-4.15,14.22-4.15,14.22l.09.07a7.78,7.78,0,0,0-4.58,2.12s-1.15,18.84,5.41,13.8c0,0,.39,17.53,6.15,13.06,0,0,1.43,4.45,4,1.67a4.26,4.26,0,0,0,2.29-4c1.4,4.74,3.94,11.73,5.8,7.28,0,0,14.79,10.95,6.68-7.21,0,0,9.27-1.17-2.77-11.7,0,0,5.77-5.94-6.8-7.95,0,0-1.64-7.65-10.26-2.92a9.39,9.39,0,0,0-1.88-2.54C267,215,268.8,210,268.8,210c9,3.94,9.95-3.83,9.95-3.83,12.35-3.12,6.07-8.52,6.07-8.52,11.06-11.56,1.72-11.9,1.72-11.9,1.36-3.95,1.82-6.52,1.71-8.14,1.85.69,3.35.54,3.56-1.61,0,0,3.53,1.69,3.3-1.45a3.58,3.58,0,0,0-1.11-3.69c3.68,1.87,9.4,4.34,7.76.66,0,0,15.18-2.71-.54-8.22,0,0,4.62-6.31-8.72-5,0,0-.29-6.93-8.75-.43,0,0-5.6-3.41-7.68,4.56,0,0-6.86-2.27-7.26,5.19C268.81,167.56,279.62,179.1,280.32,172.21Zm-9.54-5.69a13.92,13.92,0,0,1,1.32-.7c.54-.23,1.15-.48,1.82-.74s1.43-.43,2.22-.65a23.81,23.81,0,0,1,2.54-.49c.89-.15,1.81-.22,2.75-.29s1.89-.06,2.85-.07,1.9.08,2.83.17,1.85.19,2.73.34,1.73.29,2.52.46,1.54.37,2.23.54a29.44,29.44,0,0,1,4.46,1.57l-1.28-.17-3.37-.43-2.24-.24-2.5-.22c-.86-.1-1.76-.11-2.66-.18s-1.83-.07-2.75-.11-1.85,0-2.75,0-1.79,0-2.65.13-1.69.12-2.47.25-1.53.2-2.2.34-1.3.29-1.86.4-1,.3-1.41.4c-.78.23-1.25.35-1.25.35S270.06,166.94,270.78,166.52Zm2.27-6.67c7.43-.95,4.64-7.63,4.64-7.63,7.79-2.66,4-8,4-8,5.85-8.93-1.08-8.7-1.08-8.7.28-13.39-5.68-8.32-5.68-8.32-6.66-15.27-8.23.07-8.23.07-3.79-1.36-.91,4.16,1.24,7.69a3.6,3.6,0,0,0-3.76-.83c-3.16,0-1.21,3.4-1.21,3.4-6,1.05,4.62,11.18,4.62,11.18C260.74,149.93,273.05,159.85,273.05,159.85Zm.32-.88s.08-.47.25-1.27c.07-.41.22-.88.29-1.44s.15-1.2.26-1.88.1-1.44.18-2.22,0-1.63.06-2.48-.07-1.75-.06-2.65-.13-1.83-.2-2.74-.17-1.84-.31-2.74-.22-1.79-.37-2.64-.27-1.69-.42-2.47-.28-1.54-.4-2.22c-.28-1.38-.51-2.52-.68-3.33s-.26-1.27-.26-1.27A30.15,30.15,0,0,1,273.6,134c.23.68.5,1.4.71,2.19s.47,1.61.65,2.48.39,1.77.54,2.69.25,1.87.38,2.82S276,146,276,147s0,1.87-.08,2.76-.14,1.76-.3,2.57-.29,1.58-.49,2.27-.41,1.31-.6,1.86a12.81,12.81,0,0,1-.6,1.38Zm40.13-30a13.85,13.85,0,0,1,.78-1.28c.35-.47.75-1,1.2-1.55s1-1.1,1.58-1.69,1.26-1.13,1.94-1.72,1.45-1.1,2.23-1.64,1.6-1,2.42-1.5,1.68-.9,2.53-1.29,1.69-.77,2.52-1.09,1.63-.62,2.41-.88,1.51-.46,2.19-.66a30.2,30.2,0,0,1,4.65-.91l-1.2.51-3.12,1.34-2.05.93c-.73.32-1.49.69-2.27,1.06s-1.57.8-2.39,1.2-1.61.87-2.42,1.3-1.6.92-2.37,1.4-1.53.94-2.22,1.46-1.4,1-2,1.46-1.21.95-1.72,1.41-1,.91-1.4,1.29-.73.76-1,1.05c-.56.6-.9.94-.9.94S313.09,129.67,313.5,129ZM259.41,59.77c-4.48-1.79-1.67-5.51-1.67-5.51-4.44-2.92-1.21-5.64-1.21-5.64-2.22-6.51,2.08-5.25,2.08-5.25,2-8.41,4.88-4.29,4.88-4.29,6.62-8.46,5.14,1.37,5.14,1.37,2.58-.24-.11,2.74-2,4.61a2.31,2.31,0,0,1,2.48.08c2,.51.21,2.32.21,2.32,3.59,1.62-4.68,6.24-4.68,6.24C268.69,55.55,259.41,59.77,259.41,59.77ZM248.63,38.29c-3.44-3.39.59-5.73.59-5.73-3-4.41,1.08-5.66,1.08-5.66.47-6.87,3.95-4,3.95-4,5.08-7,6.16-2.06,6.16-2.06,9.37-5.25,4.2,3.25,4.2,3.25,2.48.78-1.16,2.49-3.64,3.47a2.32,2.32,0,0,1,2.26,1c1.62,1.23-.7,2.21-.7,2.21,2.68,2.88-6.74,3.95-6.74,3.95C258.83,38,248.63,38.29,248.63,38.29Zm.18-.58s.15-.27.37-.75c.12-.24.23-.53.41-.85s.39-.68.6-1.07.51-.78.78-1.21.62-.84.93-1.3.72-.87,1.07-1.34.77-.88,1.17-1.33.8-.88,1.22-1.28.81-.84,1.23-1.21.79-.77,1.17-1.11l1.08-1,1.64-1.45.63-.55a18.56,18.56,0,0,0-2.66,1.49c-.38.26-.8.52-1.21.84s-.87.65-1.31,1-.89.76-1.32,1.18-.86.86-1.3,1.3-.8.93-1.18,1.4-.73,1-1,1.45-.61,1-.84,1.44-.47.92-.64,1.36-.29.83-.42,1.19a8.15,8.15,0,0,0-.22.94C248.86,37.42,248.81,37.71,248.81,37.71ZM245.32,25c-4.78.73-4.24-3.9-4.24-3.9-5.3-.27-3.89-4.25-3.89-4.25-5.21-4.5-.87-5.59-.87-5.59-2.56-8.25,2-6.17,2-6.17,1.41-10.65,5.12-1.42,5.12-1.42,2.11-1.52,1.3,2.42.6,5a2.3,2.3,0,0,1,2.18-1.18c2-.56,1.35,1.89,1.35,1.89,3.92-.42-.87,7.75-.87,7.75C251.18,16.7,245.32,25,245.32,25Zm-.35-.49s-.14-.28-.39-.74c-.12-.24-.29-.51-.44-.84s-.3-.72-.49-1.12-.32-.88-.5-1.35-.31-1-.49-1.53-.26-1.09-.43-1.65-.24-1.15-.36-1.73-.23-1.17-.3-1.75-.18-1.15-.24-1.71-.13-1.1-.18-1.61-.09-1-.14-1.45c-.07-.9-.13-1.65-.18-2.18s-.06-.83-.06-.83a18.83,18.83,0,0,0-.4,3c0,.46-.06,1-.05,1.48s0,1.08,0,1.65.07,1.17.14,1.77.18,1.21.27,1.81.26,1.21.41,1.79.34,1.16.55,1.7a14.54,14.54,0,0,0,.64,1.54c.25.47.46.93.71,1.32s.49.74.7,1.05a7.72,7.72,0,0,0,.62.74ZM239.72,39.7s-9.36,1.48-7.54-2c0,0-2.5-.33-1.27-1.95a2.32,2.32,0,0,1,1.9-1.6c-2.65-.28-6.61-1-4.42-2.38,0,0-7.25-6.81,3.18-4.24,0,0-.26-5.05,6.49.34,0,0,2.6-3.64,4.88,2.85,0,0,4.23.14,2.54,5.18,0,0,4.51,1.19,2.09,5.36C247.57,41.25,237.67,43.68,239.72,39.7Zm7.16.3a8.7,8.7,0,0,0-.47-.86l-.72-1c-.28-.37-.62-.73-1-1.13a16.72,16.72,0,0,0-1.2-1.17c-.43-.39-.9-.75-1.38-1.12s-1-.7-1.52-1-1.05-.63-1.59-.91-1.07-.55-1.59-.78-1-.45-1.53-.64-1-.34-1.39-.49a19.76,19.76,0,0,0-3-.73l.76.36,2,1,1.29.66c.46.23.94.49,1.43.76s1,.56,1.51.84,1,.61,1.52.92,1,.63,1.48,1,1,.65,1.39,1,.87.66,1.24,1,.75.65,1.07,1l.86.87c.26.26.45.51.62.71l.56.63Zm0,15.23s-8.4,4.4-7.79.51c0,0-2.48.48-1.83-1.44a2.32,2.32,0,0,1,1.29-2.13c-2.6.58-6.57,1.2-5-.84,0,0-9.05-4.13,1.66-5,0,0-1.87-4.69,6.26-1.75,0,0,1.3-4.28,5.54,1.14,0,0,4-1.23,4.06,4.08,0,0,4.65-.32,3.7,4.42C254.8,54.18,246.19,59.64,246.87,55.23Zm6.87-2c-.2-.18-.42-.43-.72-.66s-.63-.48-1-.75-.83-.5-1.29-.76-1-.48-1.5-.72-1.1-.42-1.67-.62-1.18-.34-1.77-.5-1.2-.26-1.8-.35-1.19-.18-1.76-.23-1.12-.09-1.65-.11-1,0-1.48,0a18.26,18.26,0,0,0-3,.26l.83.1,2.17.27,1.44.21,1.6.26c.55.08,1.12.22,1.69.32s1.16.25,1.74.38,1.15.28,1.71.44,1.12.31,1.64.51,1,.34,1.5.56.92.37,1.32.56.76.39,1.09.55.59.35.82.48l.73.41Zm5.61,6s0-.31,0-.84c0-.26,0-.58.05-.94s.1-.77.14-1.22.17-.91.25-1.41.24-1,.35-1.56.33-1.08.47-1.65.37-1.12.56-1.68.4-1.12.64-1.66.42-1.08.66-1.59l.65-1.48.61-1.32c.4-.81.73-1.49,1-2l.37-.75a18.19,18.19,0,0,0-1.88,2.41c-.25.38-.54.79-.79,1.25s-.56.92-.81,1.44-.53,1-.77,1.6-.46,1.13-.69,1.7-.38,1.16-.55,1.75-.29,1.17-.39,1.74a14.41,14.41,0,0,0-.22,1.65c0,.53-.08,1-.06,1.5s.05.88.07,1.25a8,8,0,0,0,.16,1C259.28,58.88,259.35,59.17,259.35,59.17ZM288,108.24a37.4,37.4,0,0,0,4.55.33c-.62,1.06-1,1.94-1,1.94-3.16-2.51-2.19,3.65-1.3,7.68a3.58,3.58,0,0,0-3.29-2c-3-1-2.23,2.83-2.23,2.83-6-.94.79,12.07.79,12.07-6.85-1,1.63,12.3,1.63,12.3,7.33,1.48,6.84-5.74,6.84-5.74a10.69,10.69,0,0,0,3.09-.4,6.18,6.18,0,0,0-3.12,3.33s5.5,14.82,8.81,8.73c0,0,6.24,13.3,9.14,7.93,0,0,2.6,2.92,3.61-.07a3.58,3.58,0,0,0,.4-3.83c2.67,3.15,7,7.64,6.9,3.62,0,0,15,3.37,2.68-7.79,0,0,6.7-4-6.09-8,0,0,2.41-6.51-7.9-3.79,0,0-3.85-5.31-8.85,1.24,0,0-2.53-2.21-5.18-1.48,4.12-1.53,2.84-5.77,2.84-5.77,8.4-6.57,1.76-8.58,1.76-8.58,4.56-12.6-2.71-9.7-2.71-9.7-.32-3.79-.91-6-1.62-7.1a2.53,2.53,0,0,0-.18-.42s3.17-.46,1.58-2.5a2.93,2.93,0,0,0-2.44-2c3.36-.41,8.38-1.34,5.59-3.1,0,0,9.1-8.77-4.12-5.34,0,0,.26-6.41-8.24.54,0,0-3.36-4.58-6.16,3.7,0,0-5.36.24-3.14,6.62,0,0-5.71,1.58-2.58,6.85C278,110.33,290.64,113.25,288,108.24Zm5.77-26s10.32,6.21,9.84,1.23c0,0,3.1.8,2.43-1.69A3,3,0,0,0,304.53,79c3.26.92,8.25,2,6.35-.69,0,0,11.79-4.57-1.73-6.53,0,0,2.72-5.81-7.81-2.68,0,0-1.32-5.53-7.11,1,0,0-5-1.86-5.45,4.88,0,0-5.88-.75-5,5.32C283.75,80.33,294.27,87.91,293.74,82.25Zm-8.57-3.07a11.75,11.75,0,0,1,1-.78c.39-.26.84-.56,1.34-.87s1.08-.58,1.69-.88a21,21,0,0,1,2-.8c.69-.25,1.43-.45,2.17-.66s1.51-.34,2.28-.5,1.54-.24,2.31-.31,1.51-.14,2.24-.16,1.44,0,2.11,0,1.29,0,1.87.08a23.87,23.87,0,0,1,3.84.56l-1.06.06-2.78.19-1.84.16-2,.21c-.71.06-1.44.19-2.18.28s-1.48.23-2.22.35-1.49.27-2.21.43-1.44.32-2.11.53-1.35.36-1.95.59-1.2.4-1.72.62-1,.43-1.43.61-.77.4-1.07.54l-.95.48Zm13-21.62s11.15-4.55,6.88-7.15c0,0,2.5-2,.1-2.95A2.94,2.94,0,0,0,302,47c2.69-2.06,6.55-5.4,3.25-5.5,0,0,3.4-12.17-6.26-2.53,0,0-3-5.65-6.83,4.65,0,0-5.22-2.25-3.43,6.31,0,0-4.51,2.92.63,7.29,0,0-4.12,4.26,1.26,7.21C290.65,64.4,303,60.53,298.17,57.56Zm-7.59,5a9.1,9.1,0,0,1-.05-1.23c0-.48.05-1,.1-1.61s.19-1.2.31-1.87a19.5,19.5,0,0,1,.54-2c.21-.7.48-1.41.76-2.13s.64-1.42,1-2.13.73-1.38,1.13-2,.8-1.3,1.22-1.9.83-1.17,1.24-1.69.82-1,1.19-1.46a24.41,24.41,0,0,1,2.75-2.73l-.59.88c-.36.57-.88,1.37-1.51,2.34l-1,1.57c-.35.56-.7,1.15-1.06,1.76s-.71,1.27-1.08,1.91-.7,1.32-1,2-.67,1.35-1,2-.61,1.34-.84,2-.52,1.29-.69,1.91-.4,1.2-.54,1.75-.25,1.05-.36,1.51-.15.85-.21,1.18c-.11.66-.19,1-.19,1S290.63,63.26,290.58,62.58ZM280.39,82.5c5.67-2.34,2-7,2-7,5.59-3.78,1.44-7.18,1.44-7.18,2.72-8.31-2.72-6.65-2.72-6.65-2.65-10.65-6.28-5.36-6.28-5.36-8.54-10.66-6.5,1.81-6.5,1.81-3.29-.26.18,3.49,2.63,5.83a2.92,2.92,0,0,0-3.15.14c-2.5.68-.23,3-.23,3-4.53,2.12,6.05,7.86,6.05,7.86C268.53,77.29,280.39,82.5,280.39,82.5Zm.06-.76s0-.39-.07-1.06c0-.34,0-.74-.08-1.2s-.13-1-.19-1.54-.24-1.16-.34-1.8-.33-1.29-.48-2-.43-1.37-.62-2.08-.49-1.42-.74-2.13-.53-1.41-.83-2.09-.56-1.37-.87-2-.57-1.27-.85-1.86-.55-1.16-.8-1.67l-1.24-2.49-.49-1a23.47,23.47,0,0,1,2.43,3c.32.48.7,1,1,1.57s.71,1.17,1,1.82.69,1.32,1,2,.6,1.43.9,2.15.5,1.48.72,2.22.4,1.48.53,2.2a20.91,20.91,0,0,1,.31,2.1c.05.67.11,1.31.1,1.9s-.05,1.12-.07,1.6-.14.88-.19,1.22C280.54,81.37,280.45,81.74,280.45,81.74Zm-2.76,19.38c4.62-4-.32-7.31-.32-7.31,4.09-5.37-.94-7.26-.94-7.26-.09-8.75-4.71-5.43-4.71-5.43-5.92-9.24-7.66-3.07-7.66-3.07-11.51-7.36-5.58,3.8-5.58,3.8-3.2.81,1.28,3.25,4.36,4.68a2.94,2.94,0,0,0-2.94,1.15c-2.15,1.44.73,2.86.73,2.86-3.62,3.46,8.24,5.51,8.24,5.51C264.78,100,277.69,101.12,277.69,101.12Zm-.19-.74s-.16-.36-.41-1c-.13-.31-.25-.7-.46-1.11s-.44-.89-.67-1.4-.6-1-.9-1.59-.73-1.12-1.08-1.72-.85-1.16-1.26-1.78-.92-1.18-1.38-1.77-1-1.18-1.46-1.73-1-1.12-1.47-1.62-1-1-1.41-1.5l-1.29-1.32-2-2c-.49-.47-.76-.75-.76-.75a24.81,24.81,0,0,1,3.26,2.09c.46.36,1,.72,1.48,1.16s1.06.89,1.58,1.4,1.07,1,1.59,1.58,1,1.16,1.55,1.75.95,1.24,1.39,1.87.85,1.27,1.21,1.92a18.71,18.71,0,0,1,1,1.89c.26.62.53,1.2.71,1.76s.32,1.08.44,1.54a11,11,0,0,1,.22,1.21C277.46,100,277.5,100.38,277.5,100.38Zm1.38,8.34a10.07,10.07,0,0,1,.58-1.09c.26-.39.56-.84.9-1.33s.78-.94,1.21-1.45a19.46,19.46,0,0,1,1.51-1.5c.54-.51,1.13-1,1.74-1.45s1.26-.9,1.91-1.35,1.33-.82,2-1.18,1.34-.71,2-1,1.3-.59,1.92-.84,1.22-.45,1.77-.65a23.64,23.64,0,0,1,3.75-1l-.95.47-2.49,1.25-1.63.85-1.81,1c-.63.33-1.25.73-1.89,1.09s-1.28.79-1.92,1.19-1.27.83-1.87,1.25-1.21.85-1.75,1.31-1.1.84-1.56,1.29-.95.84-1.35,1.24-.75.78-1.08,1.12-.55.66-.77.91c-.44.52-.7.81-.7.81S278.58,109.33,278.88,108.72ZM228.4,222.21s.32-.47.89-1.27c.28-.4.66-.85,1-1.43s.75-1.23,1.19-1.92.8-1.53,1.27-2.35.81-1.76,1.27-2.67.77-1.95,1.21-2.93.74-2,1.11-3.09.7-2.08,1-3.13.63-2.07.87-3.07.52-2,.74-2.9.43-1.81.63-2.62l.87-4c.2-1,.32-1.52.32-1.52a35.77,35.77,0,0,1,0,5.65c-.08.85-.13,1.77-.29,2.73s-.26,2-.48,3-.43,2.12-.71,3.2-.64,2.17-.95,3.26-.79,2.14-1.22,3.18-.9,2-1.42,3A30.11,30.11,0,0,1,234.1,216c-.57.81-1.08,1.59-1.63,2.24s-1.08,1.24-1.55,1.75a13.4,13.4,0,0,1-1.33,1.21C228.84,221.87,228.4,222.21,228.4,222.21Z"/><path class="cls-1" d="M101.12,25c4.77.73,4.24-3.9,4.24-3.9,5.3-.27,3.89-4.25,3.89-4.25,5.21-4.5.87-5.59.87-5.59,2.56-8.25-2-6.17-2-6.17C106.66-5.52,103,3.71,103,3.71c-2.11-1.52-1.3,2.42-.6,5a2.3,2.3,0,0,0-2.18-1.18c-2-.56-1.35,1.89-1.35,1.89-3.92-.42.87,7.75.87,7.75-4.44-.46,1.42,7.88,1.42,7.88m5.6,14.66s9.35,1.48,7.54-2c0,0,2.5-.33,1.27-1.95a2.32,2.32,0,0,0-1.91-1.6c2.65-.28,6.62-1,4.43-2.38,0,0,7.25-6.81-3.19-4.24,0,0,.27-5.05-6.48.34,0,0-2.61-3.64-4.89,2.85,0,0-4.22.14-2.54,5.18,0,0-4.51,1.19-2.09,5.36C98.86,41.25,108.77,43.68,106.72,39.7Zm-7.16.3a6.3,6.3,0,0,1,.47-.85l.72-1c.27-.37.62-.73,1-1.13a14.86,14.86,0,0,1,1.2-1.17c.42-.39.9-.75,1.38-1.12s1-.7,1.52-1,1.05-.63,1.59-.91,1.06-.55,1.59-.78,1-.45,1.52-.64,1-.34,1.4-.49a19.51,19.51,0,0,1,3-.73l-.75.36-2,1-1.3.66c-.46.23-.93.49-1.43.76s-1,.56-1.5.84-1,.61-1.52.92-1,.63-1.48,1-1,.65-1.39,1-.87.66-1.24,1-.76.65-1.07,1l-.86.87c-.26.26-.45.51-.63.71-.34.4-.55.63-.55.63Zm-1.75-1.71c3.44-3.39-.59-5.73-.59-5.73,3-4.41-1.08-5.66-1.08-5.66-.47-6.87-4-4-4-4-5.08-7-6.16-2.06-6.16-2.06-9.38-5.25-4.2,3.25-4.2,3.25-2.48.78,1.16,2.49,3.63,3.47a2.3,2.3,0,0,0-2.25,1c-1.62,1.23.7,2.21.7,2.21-2.68,2.88,6.73,3.95,6.73,3.95C87.61,38,97.81,38.29,97.81,38.29Zm-.19-.58s-.14-.27-.36-.75c-.12-.24-.23-.53-.41-.85s-.39-.68-.6-1.07-.51-.78-.78-1.21-.62-.84-.93-1.3-.72-.87-1.07-1.34-.77-.88-1.17-1.33-.8-.88-1.22-1.28-.81-.84-1.23-1.21-.8-.77-1.17-1.11l-1.08-1L86,23.83l-.63-.55A18.56,18.56,0,0,1,88,24.77c.37.26.8.52,1.21.84s.87.65,1.3,1,.89.76,1.33,1.18.86.86,1.3,1.3.8.93,1.18,1.4.72,1,1,1.45a15.87,15.87,0,0,1,.85,1.44c.23.48.47.92.63,1.36s.3.83.42,1.19a8.42,8.42,0,0,1,.23.94C97.58,37.42,97.62,37.71,97.62,37.71Zm1.95,17.52s8.4,4.4,7.79.51c0,0,2.47.48,1.83-1.44a2.32,2.32,0,0,0-1.29-2.13c2.6.58,6.57,1.2,5-.84,0,0,9-4.13-1.66-5,0,0,1.87-4.69-6.26-1.75,0,0-1.3-4.28-5.54,1.14,0,0-4-1.23-4.06,4.08,0,0-4.65-.32-3.7,4.42C91.64,54.18,100.25,59.64,99.57,55.23Zm-6.87-2c.2-.18.42-.43.72-.66s.63-.48,1-.75.82-.5,1.28-.76a16.31,16.31,0,0,1,1.51-.72c.53-.23,1.1-.42,1.67-.62s1.18-.34,1.77-.5,1.2-.26,1.8-.35,1.18-.18,1.76-.23,1.12-.09,1.65-.11,1,0,1.47,0a18.31,18.31,0,0,1,3,.26l-.83.1-2.18.27-1.44.21-1.59.26c-.56.08-1.12.22-1.7.32s-1.15.25-1.73.38-1.15.28-1.71.44-1.12.31-1.64.51-1,.34-1.5.56-.92.37-1.32.56l-1.1.55c-.32.16-.58.35-.81.48l-.73.41ZM87,59.77c4.48-1.79,1.67-5.51,1.67-5.51,4.44-2.92,1.2-5.64,1.2-5.64,2.22-6.51-2.07-5.25-2.07-5.25-2-8.41-4.89-4.29-4.89-4.29-6.61-8.46-5.13,1.37-5.13,1.37-2.59-.24.11,2.74,2,4.61a2.31,2.31,0,0,0-2.48.08c-2,.51-.21,2.32-.21,2.32-3.59,1.62,4.68,6.24,4.68,6.24C77.75,55.55,87,59.77,87,59.77Zm.06-.6s0-.31,0-.84c0-.26,0-.58-.05-.94s-.1-.77-.14-1.22-.17-.91-.25-1.41-.25-1-.35-1.56-.33-1.08-.47-1.65-.38-1.12-.56-1.68-.4-1.12-.64-1.66-.42-1.08-.66-1.59l-.65-1.48c-.22-.47-.43-.91-.61-1.32-.4-.81-.73-1.49-1-2s-.37-.75-.37-.75a18.19,18.19,0,0,1,1.88,2.41c.25.38.54.79.79,1.25s.55.92.81,1.44.52,1,.77,1.6.45,1.13.69,1.7.38,1.16.54,1.75.3,1.17.4,1.74.2,1.12.22,1.65.08,1,.06,1.5,0,.88-.07,1.25-.12.7-.16,1C87.16,58.88,87.09,59.17,87.09,59.17ZM77.92,96.05s11.87-2,8.25-5.51c0,0,2.87-1.42.73-2.86A2.94,2.94,0,0,0,84,86.53c3.07-1.43,7.56-3.87,4.35-4.68,0,0,5.94-11.15-5.57-3.8,0,0-1.74-6.17-7.66,3.07,0,0-4.62-3.32-4.71,5.43,0,0-5,1.89-.94,7.26,0,0-4.94,3.28-.32,7.31C69.11,101.12,82,100,77.92,96.05Zm-8.49,3.28a10.71,10.71,0,0,1,.22-1.22c.12-.46.27-1,.44-1.54s.44-1.14.7-1.76a21.21,21.21,0,0,1,1-1.89c.36-.65.78-1.28,1.2-1.92s.93-1.25,1.4-1.87,1-1.19,1.54-1.75S77,86.29,77.5,85.8s1.06-1,1.58-1.4,1-.8,1.47-1.16a24.46,24.46,0,0,1,3.27-2.09s-.27.28-.76.75l-2,2-1.3,1.32c-.45.47-.92,1-1.4,1.5s-1,1.08-1.47,1.62S76,89.45,75.46,90s-.94,1.17-1.38,1.77S73.2,93,72.82,93.58,72,94.73,71.74,95.3s-.64,1.08-.9,1.59-.47,1-.68,1.4-.32.8-.46,1.11c-.25.62-.41,1-.41,1Zm3.7-24.46S83.71,69.13,79.18,67c0,0,2.27-2.27-.23-3a2.92,2.92,0,0,0-3.15-.14c2.45-2.34,5.92-6.09,2.62-5.83,0,0,2-12.47-6.5-1.81,0,0-3.62-5.29-6.27,5.36,0,0-5.44-1.66-2.72,6.65,0,0-4.16,3.4,1.44,7.18,0,0-3.63,4.69,2,7C66.41,82.5,78.27,77.29,73.13,74.87Zm-7,5.83A10.19,10.19,0,0,1,66,79.48c0-.48-.06-1-.07-1.6s.05-1.23.1-1.9a20.91,20.91,0,0,1,.31-2.1c.13-.72.33-1.46.53-2.2s.47-1.48.72-2.22.58-1.46.9-2.15.65-1.38,1-2,.7-1.25,1-1.82.71-1.09,1-1.57a23.47,23.47,0,0,1,2.43-3l-.49,1-1.24,2.49c-.25.51-.52,1.07-.8,1.67s-.56,1.22-.86,1.86-.56,1.34-.86,2-.55,1.39-.83,2.1-.52,1.41-.74,2.12-.46,1.4-.62,2.08-.38,1.34-.48,2-.26,1.24-.34,1.8-.13,1.08-.19,1.54,0,.86-.08,1.2c0,.67-.07,1.06-.07,1.06S66.26,81.37,66.14,80.7Zm-10-16.3c5.38-3,1.26-7.21,1.26-7.21,5.14-4.37.63-7.29.63-7.29,1.79-8.56-3.43-6.31-3.43-6.31C50.8,33.29,47.78,39,47.78,39c-9.66-9.65-6.26,2.51-6.26,2.51-3.3.11.56,3.45,3.25,5.51a2.94,2.94,0,0,0-3.12.49c-2.4.95.1,2.95.1,2.95-4.27,2.6,6.88,7.15,6.88,7.15C43.79,60.53,56.15,64.4,56.15,64.4Zm0-.76s-.08-.39-.19-1c-.07-.33-.1-.73-.21-1.18s-.24-1-.36-1.51-.36-1.13-.54-1.75-.47-1.25-.69-1.91-.58-1.32-.85-2-.64-1.35-1-2-.68-1.35-1-2-.71-1.3-1.08-1.91-.72-1.2-1.06-1.76l-1-1.57c-.62-1-1.14-1.77-1.51-2.33l-.58-.89a22.92,22.92,0,0,1,2.74,2.73c.38.45.8.92,1.2,1.46s.84,1.08,1.24,1.69.83,1.24,1.22,1.9.75,1.35,1.13,2,.66,1.42,1,2.13.56,1.43.77,2.13.42,1.38.54,2,.25,1.29.31,1.88.08,1.12.1,1.6a11.1,11.1,0,0,1-.05,1.23C56.17,63.26,56.13,63.64,56.13,63.64ZM63,80.33C63.9,74.26,58,75,58,75c-.42-6.74-5.46-4.88-5.46-4.88-5.78-6.56-7.11-1-7.11-1-10.52-3.13-7.8,2.68-7.8,2.68-13.52,2-1.74,6.53-1.74,6.53C34,81,39,79.92,42.27,79a3,3,0,0,0-1.48,2.79c-.68,2.49,2.43,1.69,2.43,1.69-.48,5,9.84-1.23,9.84-1.23C52.53,87.91,63,80.33,63,80.33Zm-.62-.44-1-.47c-.31-.15-.65-.37-1.08-.55s-.91-.38-1.42-.61-1.12-.39-1.72-.62-1.28-.37-2-.59-1.4-.32-2.11-.53-1.47-.29-2.21-.43-1.48-.27-2.23-.35-1.46-.22-2.17-.28l-2-.21-1.84-.16-2.78-.19-1.06-.06a23.87,23.87,0,0,1,3.84-.56c.57,0,1.21-.09,1.87-.08s1.38,0,2.1,0,1.49.07,2.25.16,1.54.2,2.31.31,1.53.32,2.28.5,1.47.41,2.17.67a19.52,19.52,0,0,1,2,.79c.61.3,1.18.57,1.69.88s.94.61,1.34.87a11.75,11.75,0,0,1,1,.78Zm6,29.79s-.26-.29-.7-.81c-.22-.25-.45-.58-.78-.91l-1.08-1.12c-.39-.4-.88-.79-1.34-1.24s-1-.83-1.57-1.29-1.16-.84-1.74-1.31-1.24-.84-1.87-1.25-1.27-.82-1.92-1.19-1.26-.76-1.89-1.09l-1.81-1L52,97.62l-2.48-1.24-1-.47a23.58,23.58,0,0,1,3.76,1c.55.2,1.15.39,1.76.65s1.28.51,1.93.84,1.34.64,2,1,1.34.79,2,1.18,1.29.89,1.91,1.35,1.2.94,1.74,1.45a19.21,19.21,0,0,1,1.5,1.49c.44.52.88,1,1.22,1.46s.64.93.9,1.33a11,11,0,0,1,.58,1.09C68.22,109.33,68.38,109.68,68.38,109.68Zm10.85,39s10.63-10.13,4.62-11.18c0,0,2-3.39-1.21-3.4a3.6,3.6,0,0,0-3.76.83c2.14-3.53,5-9,1.24-7.69,0,0-1.57-15.34-8.23-.07,0,0-6-5.07-5.68,8.32,0,0-6.94-.23-1.09,8.7,0,0-3.81,5.33,4,8,0,0-2.78,6.68,4.64,7.63C73.74,159.85,86.05,149.93,79.23,148.72Zm-21-7a13,13,0,0,1-1-1.1c-.34-.47-.74-1-1.16-1.58s-.77-1.27-1.18-2a24,24,0,0,1-1.11-2.33c-.37-.83-.66-1.7-1-2.6s-.52-1.81-.77-2.74-.41-1.86-.55-2.78-.27-1.84-.35-2.73-.15-1.74-.18-2.56,0-1.58,0-2.29a28.86,28.86,0,0,1,.41-4.71s.05.47.15,1.28.25,2,.43,3.37c.1.69.21,1.44.33,2.23s.25,1.62.4,2.48.33,1.73.49,2.62.39,1.79.58,2.69.44,1.79.69,2.66.49,1.73.79,2.53.53,1.62.86,2.33.58,1.43.88,2.05.6,1.19.85,1.7.53.91.74,1.27c.41.7.64,1.12.64,1.12S58.78,142.35,58.2,141.75ZM34.47,130.84c3.44-6.64-3.63-8.15-3.63-8.15,2.24-7.92-4.31-7.83-4.31-7.83-4-9.89-7.76-4.06-7.76-4.06-10.85-7.85-10.08-.07-10.08-.07-16.34-3.21-4.63,6.81-4.63,6.81-3.27,2.35,2.91,3.11,7,3.37a3.56,3.56,0,0,0-2.82,2.61c-1.79,2.6,2.11,2.93,2.11,2.93C7.81,132,22.19,129,22.19,129,19.31,135.31,34.47,130.84,34.47,130.84Zm-.54-.75s-.34-.34-.91-.94c-.29-.29-.59-.67-1-1.06s-.9-.8-1.4-1.28-1.13-.9-1.73-1.41-1.32-.94-2-1.46-1.48-.94-2.21-1.46-1.58-.94-2.37-1.4-1.6-.91-2.42-1.3-1.6-.84-2.39-1.2-1.54-.74-2.27-1.06l-2.05-.93-3.12-1.34-1.2-.51a30.2,30.2,0,0,1,4.65.91c.67.2,1.43.39,2.19.66s1.59.53,2.41.88,1.68.69,2.52,1.09,1.68.86,2.53,1.29,1.64,1,2.42,1.5,1.54,1.07,2.23,1.64,1.37,1.12,1.94,1.72,1.13,1.13,1.58,1.69.85,1.08,1.19,1.55A11.26,11.26,0,0,1,33.3,129C33.71,129.67,33.93,130.09,33.93,130.09Zm19,10.5a6.18,6.18,0,0,0-3.12-3.33,10.69,10.69,0,0,0,3.09.4s-.49,7.22,6.84,5.74c0,0,8.48-13.34,1.63-12.3,0,0,6.82-13,.79-12.07,0,0,.76-3.84-2.23-2.83a3.58,3.58,0,0,0-3.29,2c.89-4,1.86-10.19-1.3-7.68,0,0-.4-.88-1-1.94a37.45,37.45,0,0,0,4.56-.33c-2.67,5,10,2.09,10,2.09,3.14-5.27-2.57-6.85-2.57-6.85,2.22-6.38-3.14-6.62-3.14-6.62-2.8-8.28-6.16-3.69-6.16-3.69-8.5-7-8.24-.55-8.24-.55C35.45,89.2,44.55,98,44.55,98c-2.8,1.76,2.23,2.69,5.59,3.1a2.93,2.93,0,0,0-2.44,2c-1.59,2,1.58,2.5,1.58,2.5a2.6,2.6,0,0,0-.19.42c-.7,1.13-1.29,3.31-1.61,7.1,0,0-7.27-2.9-2.71,9.7,0,0-6.64,2,1.76,8.58,0,0-1.29,4.24,2.83,5.77-2.64-.73-5.17,1.48-5.17,1.48-5-6.54-8.85-1.24-8.85-1.24-10.32-2.72-7.9,3.79-7.9,3.79-12.79,4-6.09,8-6.09,8C9,160.34,24,157,24,157c-.09,4,4.23-.46,6.9-3.62a3.58,3.58,0,0,0,.4,3.83c1,3,3.61.07,3.61.07,2.9,5.37,9.14-7.93,9.14-7.93C47.39,155.41,52.89,140.59,52.89,140.59Zm-.93,0s-.47.07-1.29.16c-.4.06-.9.08-1.45.18s-1.19.24-1.87.35-1.39.37-2.16.54-1.55.5-2.37.73-1.64.62-2.5.9-1.69.7-2.53,1.06-1.69.73-2.5,1.15-1.63.78-2.39,1.2-1.51.79-2.21,1.18l-2,1.09-2.93,1.69-1.13.66a28.89,28.89,0,0,1,3.51-3.18c.57-.42,1.17-.91,1.85-1.36s1.38-.95,2.14-1.4,1.56-.93,2.39-1.37,1.69-.83,2.55-1.25,1.77-.72,2.65-1,1.77-.59,2.64-.8a23.41,23.41,0,0,1,2.54-.52,22.82,22.82,0,0,1,2.3-.26c.72,0,1.38,0,2,0a11.64,11.64,0,0,1,1.5.14C51.5,140.49,52,140.57,52,140.57Zm26,27c-.4-7.47-7.26-5.2-7.26-5.2-2.08-8-7.68-4.56-7.68-4.56-8.46-6.5-8.75.43-8.75.43-13.34-1.27-8.72,5-8.72,5-15.72,5.51-.55,8.22-.55,8.22-1.63,3.68,4.09,1.21,7.77-.66a3.58,3.58,0,0,0-1.11,3.69C51.46,177.67,55,176,55,176c.59,6.08,11.49-3.77,11.49-3.77C67.18,179.1,78,167.57,78,167.57Zm-.85-.38s-.47-.12-1.26-.35c-.39-.1-.85-.28-1.41-.4s-1.18-.24-1.85-.4-1.43-.2-2.2-.34-1.62-.14-2.47-.25-1.75-.06-2.65-.13-1.83,0-2.75,0-1.84,0-2.75.11-1.8.08-2.66.18-1.71.14-2.5.22l-2.24.24-3.37.43-1.28.17a29.44,29.44,0,0,1,4.46-1.57c.69-.17,1.43-.39,2.23-.54s1.64-.35,2.52-.46,1.79-.26,2.73-.34,1.88-.11,2.83-.17,1.91,0,2.85.07,1.86.14,2.75.29a23.81,23.81,0,0,1,2.54.49c.79.22,1.55.4,2.22.65s1.28.51,1.81.74a14.22,14.22,0,0,1,1.33.7C76.74,166.94,77.14,167.19,77.14,167.19Zm-4.29-9.38a15,15,0,0,1-.61-1.38c-.18-.55-.38-1.17-.59-1.86s-.33-1.46-.49-2.27a25,25,0,0,1-.3-2.56c-.08-.9-.08-1.83-.09-2.77s.09-1.89.15-2.84.22-1.9.38-2.82.33-1.83.54-2.69.42-1.7.65-2.48.48-1.51.71-2.19a30.15,30.15,0,0,1,1.89-4.33s-.1.46-.26,1.27-.4,2-.68,3.33c-.12.68-.26,1.43-.41,2.22s-.27,1.61-.41,2.47-.24,1.75-.38,2.64-.2,1.82-.3,2.74-.16,1.83-.2,2.74-.1,1.79-.07,2.65,0,1.7.07,2.48.09,1.54.18,2.22.19,1.32.26,1.88.21,1,.29,1.44c.17.8.25,1.27.25,1.27S73.21,158.56,72.85,157.81Zm46.93,50.4s6.72-16.2-.36-14.44c0,0,.49-4.64-3-3.13a4.29,4.29,0,0,0-3.71,2.73c.64-4.89,1.13-12.32-2.36-9,0,0-9.12-16-9,3.9,0,0-9-2.67-2.18,11.83,0,0-7.68,3.1,3,10,0,0-1.59,7.66,8.2,6.81,0,0,.19,8.63,8.75,6.09C119.16,223,127.82,206.24,119.78,208.21Zm-30.26,3.65a13.86,13.86,0,0,1-1.65-.72c-.6-.33-1.29-.71-2-1.15s-1.46-1-2.25-1.6-1.54-1.31-2.34-2-1.54-1.54-2.31-2.36-1.45-1.74-2.17-2.62-1.34-1.84-1.94-2.79-1.18-1.87-1.7-2.8-1-1.83-1.43-2.71-.79-1.71-1.14-2.49a34.43,34.43,0,0,1-1.83-5.34l.79,1.33,2.09,3.47,1.44,2.28c.5.81,1.06,1.65,1.63,2.51s1.2,1.73,1.8,2.63,1.29,1.76,1.94,2.66,1.35,1.73,2,2.56,1.36,1.66,2.08,2.39,1.36,1.5,2.06,2.13,1.32,1.28,2,1.81,1.22,1,1.74,1.44,1,.74,1.42,1c.79.57,1.25.92,1.25.92S90.44,212.23,89.52,211.86ZM128.4,232c-4-8-10.44-2.17-10.44-2.17-6.12-7.7-10.59-1.28-10.59-1.28-12.38-3-9.35,4.71-9.35,4.71-15.17,5-7.08,9.71-7.08,9.71-14.51,13.61,3.37,9.24,3.37,9.24,0,4.81,5-.65,8.16-4.48a4.3,4.3,0,0,0,.57,4.57c1.27,3.54,4.3,0,4.3,0,3.59,6.35,10.74-9.67,10.74-9.67C122.17,249.77,128.4,232,128.4,232Zm-1.11,0s-.57.1-1.54.23c-.48.08-1.07.11-1.73.25s-1.41.31-2.22.46-1.66.47-2.57.69-1.83.63-2.81.92-2,.78-3,1.13-2,.87-3,1.32-2,.92-3,1.44-1.93,1-2.82,1.48-1.79,1-2.62,1.46l-2.33,1.34-3.47,2.09-1.32.81a34.69,34.69,0,0,1,4.11-3.87c.67-.52,1.37-1.11,2.17-1.66s1.62-1.18,2.53-1.73,1.84-1.14,2.82-1.69,2-1,3-1.55,2.1-.9,3.15-1.3,2.1-.74,3.14-1a30.7,30.7,0,0,1,3-.69c1-.14,1.89-.31,2.74-.36s1.65-.06,2.34-.07a14.36,14.36,0,0,1,1.79.13C126.74,231.86,127.29,231.94,127.29,231.94ZM92.73,215.13a11,11,0,0,0-2-1.4,12.3,12.3,0,0,0,1.27-.79s2.82-18.67-4.16-14.22c0,0,1.17-17.5-5-13.57,0,0-1-4.55-3.8-2a4.28,4.28,0,0,0-2.63,3.78c-1-4.84-2.89-12-5.13-7.77,0,0-13.76-12.22-7.3,6.59,0,0-9.33.34,1.73,11.9,0,0-6.29,5.4,6.06,8.52,0,0,1,7.77,10,3.83a8.43,8.43,0,0,0,3.23,4,9,9,0,0,0-2.68,3.19C73.64,212.44,72,220.09,72,220.09c-12.58,2-6.8,7.95-6.8,7.95-12,10.53-2.77,11.7-2.77,11.7C54.31,257.9,69.11,247,69.11,247c1.85,4.45,4.4-2.54,5.8-7.28a4.26,4.26,0,0,0,2.29,4c2.54,2.78,4-1.67,4-1.67,5.76,4.47,6.15-13.06,6.15-13.06C93.87,234,92.73,215.13,92.73,215.13Zm-1,.43s-.48.3-1.33.8c-.41.26-.94.51-1.5.9s-1.18.83-1.87,1.28-1.35,1.07-2.1,1.63-1.45,1.29-2.24,1.94-1.49,1.47-2.29,2.19-1.51,1.58-2.26,2.38-1.49,1.62-2.17,2.47-1.4,1.63-2,2.46-1.28,1.59-1.86,2.35l-1.63,2.15L68,239.38l-.91,1.25a35.41,35.41,0,0,1,2.3-5.16c.42-.73.83-1.56,1.36-2.37s1-1.71,1.66-2.57,1.25-1.77,2-2.65,1.45-1.72,2.18-2.6,1.58-1.63,2.39-2.41,1.65-1.5,2.51-2.15a29.47,29.47,0,0,1,2.51-1.8c.84-.51,1.62-1,2.39-1.39s1.49-.7,2.12-1a17.91,17.91,0,0,1,1.71-.57C91.16,215.7,91.7,215.56,91.7,215.56Zm-29.31-4.11c.55-8.91-7.9-7.15-7.9-7.15-1.37-9.74-8.48-6.47-8.48-6.47-9.15-8.87-10.45-.68-10.45-.68-15.64-3.34-11,4.79-11,4.79-19.4,4.38-1.77,9.67-1.77,9.67-2.44,4.14,4.68,2,9.31.28a4.27,4.27,0,0,0-1.83,4.22c-.7,3.7,3.72,2.18,3.72,2.18-.13,7.29,14.15-2.9,14.15-2.9C48,223.66,62.39,211.45,62.39,211.45Zm-1-.56s-.54-.2-1.44-.58c-.46-.18-1-.45-1.62-.67s-1.37-.45-2.15-.73-1.67-.43-2.57-.7-1.9-.39-2.89-.64-2.07-.31-3.12-.52-2.17-.26-3.26-.38-2.19-.22-3.27-.26-2.16-.14-3.19-.15-2-.06-3-.07l-2.7,0-4.05,0-1.55,0A34.57,34.57,0,0,1,32.15,205c.84-.11,1.75-.27,2.72-.34s2-.19,3.05-.21,2.16-.05,3.28,0,2.25.13,3.39.19,2.26.29,3.37.47,2.19.42,3.22.72a28.19,28.19,0,0,1,2.94.93c.92.37,1.79.69,2.55,1.08s1.45.78,2,1.12a14.81,14.81,0,0,1,1.48,1C61,210.54,61.44,210.89,61.44,210.89Zm55.76,10.33a14.65,14.65,0,0,1-1.32-1.21c-.47-.51-1-1.09-1.55-1.75s-1.06-1.43-1.63-2.24a30.11,30.11,0,0,1-1.57-2.66c-.52-.94-1-2-1.43-3s-.81-2.11-1.21-3.18-.68-2.17-.95-3.26-.52-2.16-.71-3.2-.36-2.06-.49-3-.2-1.88-.28-2.72a34.28,34.28,0,0,1,0-5.65s.12.55.32,1.51l.87,4c.2.81.41,1.69.63,2.61s.48,1.9.74,2.91.58,2,.87,3.07.65,2.08,1,3.13.72,2.08,1.11,3.09.76,2,1.21,2.93.8,1.86,1.27,2.67.84,1.64,1.26,2.35.84,1.34,1.2,1.92.73,1,1,1.43c.57.8.89,1.27.89,1.27S118,221.87,117.2,221.22ZM101.47,24.55s.14-.28.39-.74c.11-.24.29-.51.43-.84s.31-.72.5-1.12.31-.88.5-1.35.3-1,.48-1.53.27-1.09.44-1.65.24-1.15.36-1.73.22-1.17.3-1.75.18-1.15.23-1.71.14-1.1.19-1.61.09-1,.14-1.45c.07-.9.13-1.65.17-2.18s.06-.83.06-.83a18,18,0,0,1,.41,3c0,.46.06,1,.05,1.48s0,1.08,0,1.65-.07,1.17-.14,1.77-.18,1.21-.27,1.81-.26,1.21-.42,1.79-.33,1.16-.54,1.7a14.54,14.54,0,0,1-.65,1.54c-.24.47-.45.93-.7,1.32s-.49.74-.7,1.05a7.72,7.72,0,0,1-.62.74Z"/></g></g></svg>