<svg xmlns="http://www.w3.org/2000/svg" viewBox="0 0 432.23 432.23"><defs><style>.cls-1{fill:#fff;}.cls-2{fill:none;stroke:#965715;stroke-linecap:round;stroke-miterlimit:10;stroke-width:3px;stroke-dasharray:10.06 10.06;}.cls-3{fill:#4a2a15;}</style></defs><g id="Слой_2" data-name="Слой 2"><g id="Слой_1-2" data-name="Слой 1"><circle class="cls-1" cx="216.12" cy="216.12" r="214.62"/><circle class="cls-2" cx="216.12" cy="216.12" r="214.62"/><rect class="cls-3" x="181.95" y="101.89" width="14.5" height="13.89"/><rect class="cls-3" x="208.88" y="101.89" width="14.5" height="13.89"/><rect class="cls-3" x="235.81" y="101.89" width="14.5" height="13.89"/><rect class="cls-3" x="181.95" y="126.7" width="14.5" height="13.89"/><rect class="cls-3" x="208.88" y="126.7" width="14.5" height="13.89"/><rect class="cls-3" x="235.81" y="126.7" width="14.5" height="13.89"/><rect class="cls-3" x="181.95" y="151.53" width="14.5" height="13.89"/><rect class="cls-3" x="208.88" y="151.53" width="14.5" height="13.89"/><rect class="cls-3" x="235.81" y="151.53" width="14.5" height="13.89"/><rect class="cls-3" x="181.95" y="176.35" width="14.5" height="13.89"/><rect class="cls-3" x="208.88" y="176.35" width="14.5" height="13.89"/><rect class="cls-3" x="235.81" y="176.35" width="14.5" height="13.89"/><rect class="cls-3" x="181.95" y="201.17" width="14.5" height="13.89"/><rect class="cls-3" x="208.88" y="201.17" width="14.5" height="13.89"/><rect class="cls-3" x="235.81" y="201.17" width="14.5" height="13.89"/><rect class="cls-3" x="181.95" y="225.98" width="14.5" height="13.89"/><rect class="cls-3" x="208.88" y="225.98" width="14.5" height="13.89"/><rect class="cls-3" x="235.81" y="225.98" width="14.5" height="13.89"/><rect class="cls-3" x="181.95" y="250.8" width="14.5" height="13.89"/><rect class="cls-3" x="208.88" y="250.8" width="14.5" height="13.89"/><rect class="cls-3" x="235.81" y="250.8" width="14.5" height="13.89"/><path class="cls-3" d="M271,169V82.42H161.24V169H84.37V345.91H347.86V169ZM118.67,323.39H104.18V309.52h14.49Zm0-23.59H104.18V285.93h14.49Zm0-23.59H104.18V262.34h14.49Zm0-23.59H104.18V238.75h14.49Zm0-23.59H104.18V215.16h14.49Zm0-23.59H104.18V191.56h14.49Zm26.92,118H131.1V309.52h14.49Zm0-23.59H131.1V285.93h14.49Zm0-23.59H131.1V262.34h14.49Zm0-23.59H131.1V238.75h14.49Zm0-23.59H131.1V215.16h14.49Zm0-23.59H131.1V191.56h14.49ZM262.8,337.68h-28V293.83H197.43v43.85h-28v-247H262.8Zm38.37-14.29H286.68V309.52h14.49Zm0-23.59H286.68V285.93h14.49Zm0-23.59H286.68V262.34h14.49Zm0-23.59H286.68V238.75h14.49Zm0-23.59H286.68V215.16h14.49Zm0-23.59H286.68V191.56h14.49Zm26.93,118H313.61V309.52H328.1Zm0-23.59H313.61V285.93H328.1Zm0-23.59H313.61V262.34H328.1Zm0-23.59H313.61V238.75H328.1Zm0-23.59H313.61V215.16H328.1Zm0-23.59H313.61V191.56H328.1Z"/></g></g></svg>