<svg xmlns="http://www.w3.org/2000/svg" viewBox="0 0 432.24 432.24"><defs><style>.cls-1{fill:#fff;}.cls-2{fill:none;stroke:#965715;stroke-linecap:round;stroke-miterlimit:10;stroke-width:3px;stroke-dasharray:10.06 10.06;}.cls-3{fill:#4a2b17;}</style></defs><g id="Слой_2" data-name="Слой 2"><g id="Слой_1-2" data-name="Слой 1"><g id="Слой_1-2-2" data-name="Слой 1-2"><circle class="cls-1" cx="216.12" cy="216.12" r="214.62"/><circle class="cls-2" cx="216.12" cy="216.12" r="214.62"/></g><path class="cls-3" d="M322.88,206.41H308.32v-9.7a4.9,4.9,0,0,0-3.3-4.61l-25.81-8.59v-1.36a4.87,4.87,0,0,0-4.86-4.85,63.18,63.18,0,0,0-58.23,38.82,63.18,63.18,0,0,0-58.23-38.82,4.87,4.87,0,0,0-4.86,4.85v1.36l-25.81,8.59a4.85,4.85,0,0,0-3.3,4.61v9.7H109.36a4.88,4.88,0,0,0-4.86,4.86V327.74a4.88,4.88,0,0,0,4.86,4.85h80.51l8.29,8.3a4.83,4.83,0,0,0,3.45,1.4h29.12a5,5,0,0,0,3.44-1.4l8.3-8.3H323a4.87,4.87,0,0,0,4.85-4.85V211.27a4.87,4.87,0,0,0-4.85-4.86ZM133.62,200.2,153,193.75v85.46a4.87,4.87,0,0,0,4.86,4.85,53.49,53.49,0,0,1,49,32.13c-25.14-26.31-59.49-25.09-73.23-23.3Zm69.93,132.39-8.3-8.3a4.8,4.8,0,0,0-3.44-1.41h-77.6V216.12h9.71v82.5a4.88,4.88,0,0,0,1.84,3.83,4.8,4.8,0,0,0,4.17.88c.54-.15,50-11.75,77.6,29.26Zm7.72-28.68a63.12,63.12,0,0,0-48.53-29.36V187.2a53.48,53.48,0,0,1,48.53,53.18Zm67.94-24.7V193.75l19.41,6.45v92.69c-13.74-1.79-48.09-3-73.18,23.3a53.48,53.48,0,0,1,48.91-32.13A4.87,4.87,0,0,0,279.21,279.21ZM221,240.38A53.48,53.48,0,0,1,269.5,187.2v87.3A63.12,63.12,0,0,0,221,303.86V240.38ZM318,322.88H240.38a5,5,0,0,0-3.44,1.41l-8.3,8.3h-4c27.32-40.91,75.46-29.8,77.6-29.26a5,5,0,0,0,4.17-.93,4.75,4.75,0,0,0,1.85-3.83v-82.5H318V322.83Z"/><path class="cls-3" d="M347.15,90H279.21a4.87,4.87,0,0,0-4.86,4.85v48.53a4.87,4.87,0,0,0,4.86,4.85h9.7v19.41a4.86,4.86,0,0,0,3.25,4.56,4.57,4.57,0,0,0,1.61.29,4.71,4.71,0,0,0,3.78-1.84l18-22.42h31.64a4.86,4.86,0,0,0,4.85-4.85V94.8A4.86,4.86,0,0,0,347.15,90Zm-4.86,48.52H313.18a4.84,4.84,0,0,0-3.79,1.85l-10.77,13.44V143.33a4.88,4.88,0,0,0-4.85-4.86h-9.71V99.65h58.23Z"/><path class="cls-3" d="M134.69,170.6a4.86,4.86,0,0,0,3.78,1.84,4.57,4.57,0,0,0,1.61-.29,4.86,4.86,0,0,0,3.25-4.56V148.18H153a4.87,4.87,0,0,0,4.86-4.85V94.8A4.87,4.87,0,0,0,153,90H85.09a4.86,4.86,0,0,0-4.85,4.85v48.53a4.86,4.86,0,0,0,4.85,4.85h31.64ZM90,99.65h58.23v38.82h-9.71a4.88,4.88,0,0,0-4.85,4.86v10.43l-10.77-13.44a4.84,4.84,0,0,0-3.79-1.85H90Z"/><path class="cls-3" d="M182.15,90a4.86,4.86,0,0,0-4.85,4.85v48.53a4.86,4.86,0,0,0,4.85,4.85h21l8.5,21.21a4.86,4.86,0,0,0,9,0l8.5-21.21h21a4.86,4.86,0,0,0,4.85-4.85V94.8A4.86,4.86,0,0,0,250.09,90Zm63.09,48.52H225.83a4.87,4.87,0,0,0-4.52,3.06l-5.19,13-5.19-13a4.87,4.87,0,0,0-4.52-3.06H187V99.65h58.24Z"/></g></g></svg>