<svg xmlns="http://www.w3.org/2000/svg" viewBox="0 0 432.24 432.24"><defs><style>.cls-1{fill:#fff;}.cls-2,.cls-4{fill:none;}.cls-2{stroke:#965715;stroke-linecap:round;stroke-miterlimit:10;stroke-width:3px;stroke-dasharray:10.06 10.06;}.cls-3{fill:#4a2b17;}</style></defs><g id="Слой_2" data-name="Слой 2"><g id="Слой_1-2" data-name="Слой 1"><g id="Слой_1-2-2" data-name="Слой 1-2"><circle class="cls-1" cx="216.12" cy="216.12" r="214.62"/><circle class="cls-2" cx="216.12" cy="216.12" r="214.62"/></g><path class="cls-3" d="M216.12,142.08a55.43,55.43,0,0,0,87.64,45.21l28.83,28.83L345.67,203l-28.83-28.82a55.5,55.5,0,1,0-100.72-32.13Zm18.5,0a37,37,0,1,1,37,37A37,37,0,0,1,234.62,142.08Z"/><rect class="cls-3" x="169.85" y="290.15" width="92.54" height="18.51"/><rect class="cls-3" x="188.35" y="327.16" width="55.52" height="18.51"/><path class="cls-3" d="M168.13,235.92a66.49,66.49,0,0,1-26-56.82,74.09,74.09,0,0,1,55.53-71.6L194,89.34a92.61,92.61,0,0,0-70.45,89.76,84.92,84.92,0,0,0,32,70.48c9.37,8.65,14.26,13.56,14.26,22.06h18.5C188.35,254.61,178.07,245.12,168.13,235.92Z"/><path class="cls-3" d="M281.35,216.12A88.8,88.8,0,0,1,264,235.94c-9.91,9.18-20.15,18.68-20.15,35.7h18.5c0-8.51,4.88-13.42,14.21-22.08a101.35,101.35,0,0,0,21.92-26.22Z"/><rect id="_Transparent_Rectangle_" data-name=" Transparent Rectangle " class="cls-4" x="68.05" y="68.05" width="296.13" height="296.13"/></g></g></svg>