<svg xmlns="http://www.w3.org/2000/svg" viewBox="0 0 432.24 432.24"><defs><style>.cls-1{fill:#fff;}.cls-2{fill:none;stroke:#965715;stroke-linecap:round;stroke-miterlimit:10;stroke-width:3px;stroke-dasharray:10.06 10.06;}.cls-3{fill:#4a2b17;}</style></defs><g id="Слой_2" data-name="Слой 2"><g id="Слой_1-2" data-name="Слой 1"><g id="Слой_2-2" data-name="Слой 2"><g id="Слой_1-2-2" data-name="Слой 1-2"><circle class="cls-1" cx="216.12" cy="216.12" r="214.62"/><circle class="cls-2" cx="216.12" cy="216.12" r="214.62"/></g></g><path class="cls-3" d="M156.07,241.46H266.8v6.82l-57.49,6.39v26.19h-7.46V332h23.43V280.86h-7.46V262.33l57.5-6.39V195.68H156.07Zm60.69,82h-6.39V289.38h6.39ZM164.58,204.19H266.8v28.75H164.58Z"/><path class="cls-3" d="M116,216.55V349H316.21V216.55l17,17L349.86,217l-33.65-33.65V106.23H275.75v36.63L216.12,83.24,82.38,217,99,233.58Zm191.66-8.1v132H124.55v-132h-.43l92-92,92,92ZM216.12,95.16l68.15,68.15V114.75h23.42v72L337.93,217l-4.68,4.69L216.12,104.53,99,221.66,94.31,217Z"/></g></g></svg>