<svg xmlns="http://www.w3.org/2000/svg" viewBox="0 0 432.24 432.24"><defs><style>.cls-1{fill:#fff;}.cls-2{fill:none;stroke:#965715;stroke-linecap:round;stroke-miterlimit:10;stroke-width:3px;stroke-dasharray:10.06 10.06;}.cls-3{fill:#4a2b17;}</style></defs><g id="Слой_2" data-name="Слой 2"><g id="Слой_1-2" data-name="Слой 1"><g id="Слой_2-2" data-name="Слой 2"><g id="Слой_1-2-2" data-name="Слой 1-2"><circle class="cls-1" cx="216.12" cy="216.12" r="214.62"/><circle class="cls-2" cx="216.12" cy="216.12" r="214.62"/></g></g><path class="cls-3" d="M336.46,163.93v97.12H276.87c-.47-1.41-.47-3.28-.94-4.69h32.85a5.94,5.94,0,0,0,2.81-.47,25.57,25.57,0,0,0,20.65-24.4V180.35c0-7-2.82-14.55-8.45-19.24a24.83,24.83,0,0,0-28.62-3.28c-8,4.22-12.67,13.14-13.14,22v30.5h-13.6a66.41,66.41,0,0,0-1.88-9.39,9.44,9.44,0,0,0-8.92-7H177.87c-3.75,0-8.44,2.81-8.91,7-.47,3.29-1.41,6.1-1.88,9.39H151.6V177.53c-1.41-12.2-10.79-21.58-22.52-22.52a25.59,25.59,0,0,0-25.81,16c-1.88,4.69-1.88,8.91-1.88,13.6v48.8c1.41,12.67,12.2,23,24.87,23h31c-.47,1.41-.47,3.28-.94,4.69H96.23V163.93c0-12.2-18.77-12.2-18.77,0V320.64A9.73,9.73,0,0,0,86.85,330a9.41,9.41,0,0,0,9.38-9.38V279.82h56.31c-1.41,8-3.29,15.95-4.7,23.93-.93,4.69-1.87,9.85-2.81,14.54-1.41,6.1,2.81,11.73,8.91,11.73H201.8c6.1,0,10.79-3.28,15-7.51,1.88,1.41,3.76,3.29,5.63,4.7,5.17,4.22,12.67,2.81,18.77,2.81h38a7.17,7.17,0,0,0,4.69-1.88h0l.94-.93a11.79,11.79,0,0,0,2.34-8.92c-2.34-12.67-4.69-25.8-7-38.47H336v40.82a9.73,9.73,0,0,0,9.38,9.38,9.41,9.41,0,0,0,9.39-9.38V163.93C355.23,151.73,336.46,151.73,336.46,163.93Zm-36.13,32.84V178.94c0,.47.47-1.41.47-1.41v-.47c0-.46.47-.93.47-1.4v-.47a.46.46,0,0,0,.47-.47l.47-.47h.47a4.64,4.64,0,0,1,1.4-.47,4.73,4.73,0,0,0,1.41-.47h1.88c.47,0,.94.47,1.41.47a6.8,6.8,0,0,1,1.4.94,1.64,1.64,0,0,0,.94.47l.94,1.41.47.46v.47s.47,1.88.47,1.41V231h0a6.21,6.21,0,0,1-6.1,6.1H273.12l-1.41-8.44h19.71a8.93,8.93,0,0,0,6.1-2.35,10,10,0,0,0,3.28-7C300.33,212.25,300.33,204.75,300.33,196.77ZM131,237.59h-4.69c-3.75,0-6.1-2.81-6.1-6.57V179.88c0-3.75,2.35-6.57,6.1-6.57s6.1,2.82,6.1,6.57v39.88a8.49,8.49,0,0,0,3.28,7,8.92,8.92,0,0,0,6.1,2.34h21.12a54.27,54.27,0,0,1-1.88,8.45ZM232.3,311.25c-3.29-2.81-6.1-5.16-9.39-8-4.22-3.29-9.38-3.76-13.13,0-2.82,2.81-6.1,5.16-8.92,8H165.2c6.1-30.49,12.2-60.52,18.3-91,.47-2.82.94-5.16,1.41-8h64.28c5.63,31.91,11.26,63.81,17.36,95.72,0,.94.47,1.88.47,2.81C255.29,311.25,244,311.25,232.3,311.25Z"/><path class="cls-3" d="M126.26,148a23,23,0,1,0-23-23A23,23,0,0,0,126.26,148Zm0-27.21A4.23,4.23,0,1,1,122,125,4.2,4.2,0,0,1,126.26,120.76Z"/><path class="cls-3" d="M306.9,148a23,23,0,1,0-23-23A23,23,0,0,0,306.9,148Zm0-27.21a4.23,4.23,0,1,1-4.22,4.22A4.2,4.2,0,0,1,306.9,120.76Z"/></g></g></svg>