<svg xmlns="http://www.w3.org/2000/svg" viewBox="0 0 432.23 432.23"><defs><style>.cls-1{fill:#fff;}.cls-2{fill:none;stroke:#965715;stroke-linecap:round;stroke-miterlimit:10;stroke-width:3px;stroke-dasharray:10.06 10.06;}.cls-3{fill:#4a2b17;}</style></defs><g id="Слой_2" data-name="Слой 2"><g id="Слой_1-2" data-name="Слой 1"><circle class="cls-1" cx="216.12" cy="216.12" r="214.62"/><circle class="cls-2" cx="216.12" cy="216.12" r="214.62"/><g id="layer1"><path id="rect3478" class="cls-3" d="M216,66.42a5.7,5.7,0,0,0-4,1.71,213,213,0,0,1-106.34,58.31,5.78,5.78,0,0,0-4.55,5.65V241.85c0,31,12,53.37,31.9,71.68s47.52,33.12,80.22,51.57a5.77,5.77,0,0,0,2.84.72h.18a5.73,5.73,0,0,0,2.83-.72c32.71-18.45,60.29-33.26,80.23-51.57s31.89-40.71,31.89-71.68V132.05a5.76,5.76,0,0,0-4.54-5.65A213.05,213.05,0,0,1,220.14,68.1,5.73,5.73,0,0,0,216,66.42Zm.07,12.88A223.82,223.82,0,0,0,319.64,136V241.85c0,28.13-9.87,46.41-28.15,63.2-17.73,16.27-43.93,30.73-75.37,48.44-31.45-17.71-57.65-32.17-75.37-48.44-18.29-16.79-28.16-35.07-28.16-63.2V136A223.84,223.84,0,0,0,216.05,79.3Zm.07,67.75a69.09,69.09,0,1,0,69.09,69.09A69.18,69.18,0,0,0,216.12,147.05Zm0,11.51a57.3,57.3,0,0,1,44.82,93.34,46.16,46.16,0,0,0-27.5-32.3,22.82,22.82,0,0,0,5.71-15,23,23,0,0,0-46.06,0,22.77,22.77,0,0,0,5.69,15,46.17,46.17,0,0,0-27.53,32.3,57.32,57.32,0,0,1,44.87-93.32Zm0,34.55a11.52,11.52,0,1,1-11.52,11.51A11.42,11.42,0,0,1,216.12,193.11Zm.4,34.55a34.47,34.47,0,0,1,34.14,34.11l0,.18a56.68,56.68,0,0,1-69.21,0,6,6,0,0,0,.11-1A34.46,34.46,0,0,1,216.52,227.66Z"/></g></g></g></svg>