<svg xmlns="http://www.w3.org/2000/svg" viewBox="0 0 432.24 432.24"><defs><style>.cls-1{fill:#fff;}.cls-2{fill:none;stroke:#965715;stroke-linecap:round;stroke-miterlimit:10;stroke-width:3px;stroke-dasharray:10.06 10.06;}.cls-3{fill:#4a2b17;}</style></defs><g id="Слой_2" data-name="Слой 2"><g id="Слой_1-2" data-name="Слой 1"><g id="Слой_1-2-2" data-name="Слой 1-2"><circle class="cls-1" cx="216.12" cy="216.12" r="214.62"/><circle class="cls-2" cx="216.12" cy="216.12" r="214.62"/></g><g id="Layer_1"><path class="cls-3" d="M104.35,114.86h17.72V94.38a6.45,6.45,0,0,1,6.45-6.45H270.75a6.44,6.44,0,0,1,4.12,1.49l64.51,46a6.43,6.43,0,0,1,2.7,5.24l0,171.92a6.45,6.45,0,0,1-6.45,6.45H317.93v20.47a6.45,6.45,0,0,1-6.45,6.45H104.35a6.45,6.45,0,0,1-6.45-6.45V121.31A6.45,6.45,0,0,1,104.35,114.86Zm30.62,0H246.58a6.42,6.42,0,0,1,4.12,1.49l64.12,45.7a6.46,6.46,0,0,1,3.11,5.52V306.11H329.2V143.94l-60.48-43.11H135Zm2.18,125.78c-8.48,0-8.48-12.9,0-12.9h44.19c8.48,0,8.48,12.9,0,12.9Zm0,69.74c-8.48,0-8.48-12.9,0-12.9h44.19c8.48,0,8.48,12.9,0,12.9Zm0-46.49c-8.48,0-8.48-12.9,0-12.9h44.19c8.48,0,8.48,12.9,0,12.9Zm0,23.24c-8.48,0-8.48-12.9,0-12.9h44.19c8.48,0,8.48,12.9,0,12.9ZM248.72,256v48.66c0,8.48-12.9,8.48-12.9,0V256a36.65,36.65,0,1,1,12.9,0Zm-6.45-59.85A23.76,23.76,0,1,0,266,219.87,23.76,23.76,0,0,0,242.27,196.11ZM136.8,145.24h44.88a6.45,6.45,0,0,1,6.45,6.45v52.82a6.44,6.44,0,0,1-6.45,6.44H136.8a6.44,6.44,0,0,1-6.45-6.44V151.69A6.45,6.45,0,0,1,136.8,145.24Zm38.43,12.9h-32v39.91h32Zm69.32-30.38H110.8V333H305V170.87Z"/></g></g></g></svg>