<svg width="86" height="86" viewBox="0 0 86 86" fill="none" xmlns="http://www.w3.org/2000/svg">
<path fill-rule="evenodd" clip-rule="evenodd" d="M71.7549 3.66663V51.2047C76.6642 51.9075 80.6468 55.7339 80.6571 60.8422V13.7394C80.6571 8.57264 76.758 4.29059 71.7549 3.66663ZM4.67624 9.94481V33.5824H28.5424L4.67624 9.94481ZM18.5238 11.9541C17.8323 11.9566 17.2724 12.5167 17.2696 13.2082V18.8741L26.5456 28.0616V18.1708C26.548 17.4788 27.1078 16.919 27.7998 16.9167C28.4954 16.9142 29.0614 17.4751 29.0638 18.1708V30.5552L32.4845 33.9439C33.2908 34.7374 32.7231 36.1091 31.5918 36.1006H29.0638V39.9123C29.061 40.6076 28.4952 41.1691 27.7998 41.1664C27.1082 41.1639 26.5483 40.6038 26.5456 39.9123V36.1006H17.2696V46.6996L26.5456 56.1649V50.7302C26.548 50.0382 27.1078 49.4784 27.7998 49.476C28.4954 49.4735 29.0614 50.0345 29.0638 50.7302V58.7347L38.6176 68.4828H70.5352C74.7492 68.4828 78.1389 65.0962 78.1389 60.8619C78.1389 56.6112 74.7286 53.2016 70.4983 53.2016C69.8029 53.2042 69.237 52.6427 69.2343 51.9474V11.9541H18.5238ZM60.4231 16.9167H65.7767C66.4721 16.9142 67.038 17.4754 67.0407 18.1708C67.0435 18.87 66.4759 19.4376 65.7767 19.4348H60.4231C59.7239 19.4373 59.1563 18.87 59.1591 18.1708C59.1618 17.4754 59.7277 16.914 60.4231 16.9167ZM49.0199 19.2873L61.1215 27.3263C61.4715 27.561 61.681 27.955 61.6797 28.3763V46.0651C61.6824 46.7614 61.1194 47.3277 60.4231 47.3291H36.22C35.5246 47.3266 34.9631 46.7604 34.9658 46.0651V28.3763C34.9644 27.9552 35.174 27.5608 35.524 27.3263L47.6256 19.2873C48.0947 19.0167 48.6282 19.0613 49.0199 19.2873ZM12.0193 21.23L19.6501 28.7943C20.453 29.5845 19.8937 30.9506 18.7673 30.951H11.1365C10.4373 30.9535 9.8698 30.3862 9.87245 29.687V27.6976C9.87497 27.0021 10.4411 26.4407 11.1365 26.4434C11.828 26.446 12.3879 27.006 12.3906 27.6976V28.4329H15.708L10.2438 23.0227C9.74784 22.5335 9.74343 21.7345 10.2337 21.2398C10.7841 20.6894 11.525 20.7371 12.0193 21.23ZM60.4231 21.7956H63.0347C63.7282 21.7969 64.29 22.3588 64.2913 23.0523C64.2941 23.7486 63.7311 24.3148 63.0347 24.3162H60.4231C59.7239 24.3187 59.1563 23.7515 59.1591 23.0523C59.1605 22.3559 59.7267 21.7929 60.4231 21.7956ZM48.3215 21.8433L37.484 29.0559V44.8094H59.1591V29.0461L48.3215 21.8433ZM65.1816 27.9124C65.8808 27.9099 66.4483 28.4773 66.4456 29.1765V46.066C66.4484 46.7653 65.8808 47.3328 65.1816 47.33C64.4862 47.3275 63.9247 46.7614 63.9274 46.066V29.1765C63.9246 28.4811 64.4862 27.9152 65.1816 27.9124ZM42.9876 29.5036H53.6579C54.3494 29.5061 54.9093 30.0662 54.9121 30.7577V41.428C54.9093 42.1195 54.3494 42.6795 53.6579 42.6822H42.9876C42.2961 42.6797 41.7362 42.1195 41.7334 41.428V30.7577C41.7362 30.0662 42.2961 29.5063 42.9876 29.5036ZM44.2516 32.0217V34.8375H47.0575V32.0217H44.2516ZM49.5781 32.0217V34.8375H52.3939V32.0217H49.5781ZM44.2516 37.3556V40.1641H47.0575V37.3556H44.2516ZM49.5781 37.3556V40.1641H52.3939V37.3556H49.5781ZM27.7998 43.5281C28.4952 43.5256 29.0611 44.087 29.0638 44.7824V45.852C29.0666 46.5513 28.499 47.1188 27.7998 47.1161C27.1044 47.1135 26.5429 46.5474 26.5456 45.852V44.7824C26.5482 44.0908 27.1082 43.5308 27.7998 43.5281ZM11.4881 45.0799C11.1693 45.0951 10.8669 45.2246 10.6422 45.451L5.04757 51.0481C4.56096 51.5389 4.56096 52.3302 5.04757 52.8211L8.94535 56.7189L6.64603 59.0134C6.15288 59.5054 6.15288 60.3042 6.64603 60.7962L19.146 73.2986C19.6371 73.7869 20.4304 73.7869 20.9215 73.2986C21.4163 72.8064 21.4163 72.0056 20.9215 71.5133L9.3216 59.9036L10.7258 58.4994L28.7859 76.5596C28.8899 76.6673 29.0124 76.7557 29.1474 76.8203L39.4833 81.5517C40.5398 82.0266 41.6232 80.9434 41.1481 79.8868L36.4167 69.5535C36.3522 69.4174 36.264 69.2941 36.156 69.1894L18.0935 51.1269L14.4809 54.737C13.9898 55.2253 13.1965 55.2253 12.7054 54.737C12.2171 54.2458 12.2171 53.4525 12.7054 52.9614L16.3155 49.3514L12.4177 45.4511C12.1725 45.2043 11.836 45.0699 11.4881 45.0799ZM36.22 49.6909H46.1206C46.8159 49.6934 47.3774 50.2596 47.3747 50.9549V60.8432C47.3774 61.5385 46.8159 62.1043 46.1206 62.1071H36.22C35.5246 62.1046 34.9631 61.5385 34.9658 60.8432V55.8069C34.9672 55.1143 35.5275 54.5528 36.22 54.5501C36.9163 54.5476 37.4826 55.1105 37.484 55.8069V59.5889H44.8566V52.209H36.22C35.5284 52.2065 34.9685 51.6465 34.9658 50.9549C34.963 50.2595 35.5246 49.6936 36.22 49.6909ZM50.9799 49.6909H56.9286C57.6278 49.6884 58.1954 50.2556 58.1926 50.9549C58.1898 51.6503 57.624 52.2117 56.9286 52.209H50.9799C50.2845 52.2115 49.7186 51.6503 49.7159 50.9549C49.7131 50.2556 50.2806 49.6882 50.9799 49.6909ZM50.9799 54.6436H60.8706C61.566 54.6411 62.1319 55.2024 62.1347 55.8978C62.1374 56.597 61.5699 57.1646 60.8706 57.1618H50.9799C50.2806 57.1643 49.7131 56.597 49.7159 55.8978C49.7186 55.2024 50.2845 54.6409 50.9799 54.6436ZM50.9799 59.5889H66.2784C66.9737 59.5864 67.5397 60.1477 67.5424 60.8432C67.5451 61.5423 66.9776 62.1098 66.2784 62.1071H50.9799C50.2807 62.1096 49.7131 61.5423 49.7159 60.8432C49.7186 60.1477 50.2845 59.5862 50.9799 59.5889Z" fill="#C3A962"/>
</svg>
