<svg width="64" height="64" viewBox="0 0 64 64" fill="none" xmlns="http://www.w3.org/2000/svg">
<path d="M41 23H23C22.7348 23.0001 22.4805 23.1054 22.293 23.293L18.293 27.293C18.1532 27.4329 18.058 27.611 18.0194 27.805C17.9808 27.9989 18.0007 28.2 18.0763 28.3827C18.152 28.5654 18.2801 28.7215 18.4445 28.8314C18.609 28.9413 18.8022 29 19 29V42C19 42.2652 19.1054 42.5196 19.2929 42.7071C19.4804 42.8946 19.7348 43 20 43H44C44.2652 43 44.5196 42.8946 44.7071 42.7071C44.8946 42.5196 45 42.2652 45 42V29C45.1978 29 45.391 28.9413 45.5555 28.8314C45.7199 28.7215 45.848 28.5654 45.9237 28.3827C45.9993 28.2 46.0192 27.9989 45.9806 27.805C45.942 27.611 45.8468 27.4329 45.707 27.293L41.707 23.293C41.5195 23.1054 41.2652 23.0001 41 23ZM21 29H23V30C23 30.2652 22.8946 30.5196 22.7071 30.7071C22.5196 30.8946 22.2652 31 22 31C21.7348 31 21.4804 30.8946 21.2929 30.7071C21.1054 30.5196 21 30.2652 21 30V29ZM34 41H30V37H34V41ZM43 41H36V36C36 35.7348 35.8946 35.4804 35.7071 35.2929C35.5196 35.1054 35.2652 35 35 35H29C28.7348 35 28.4804 35.1054 28.2929 35.2929C28.1054 35.4804 28 35.7348 28 36V41H21V32.816C21.5064 33.0046 22.0554 33.0484 22.5853 32.9424C23.1152 32.8364 23.6051 32.5849 24 32.216C24.5453 32.7176 25.2591 32.996 26 32.996C26.7409 32.996 27.4547 32.7176 28 32.216C28.5453 32.7176 29.2591 32.996 30 32.996C30.7409 32.996 31.4547 32.7176 32 32.216C32.5453 32.7176 33.2591 32.996 34 32.996C34.7409 32.996 35.4547 32.7176 36 32.216C36.5453 32.7176 37.2591 32.996 38 32.996C38.7409 32.996 39.4547 32.7176 40 32.216C40.3949 32.5849 40.8848 32.8364 41.4147 32.9424C41.9446 33.0484 42.4936 33.0046 43 32.816V41ZM25 30V29H27V30C27 30.2652 26.8946 30.5196 26.7071 30.7071C26.5196 30.8946 26.2652 31 26 31C25.7348 31 25.4804 30.8946 25.2929 30.7071C25.1054 30.5196 25 30.2652 25 30ZM29 30V29H31V30C31 30.2652 30.8946 30.5196 30.7071 30.7071C30.5196 30.8946 30.2652 31 30 31C29.7348 31 29.4804 30.8946 29.2929 30.7071C29.1054 30.5196 29 30.2652 29 30ZM33 30V29H35V30C35 30.2652 34.8946 30.5196 34.7071 30.7071C34.5196 30.8946 34.2652 31 34 31C33.7348 31 33.4804 30.8946 33.2929 30.7071C33.1054 30.5196 33 30.2652 33 30ZM37 30V29H39V30C39 30.2652 38.8946 30.5196 38.7071 30.7071C38.5196 30.8946 38.2652 31 38 31C37.7348 31 37.4804 30.8946 37.2929 30.7071C37.1054 30.5196 37 30.2652 37 30ZM43 30C43 30.2652 42.8946 30.5196 42.7071 30.7071C42.5196 30.8946 42.2652 31 42 31C41.7348 31 41.4804 30.8946 41.2929 30.7071C41.1054 30.5196 41 30.2652 41 30V29H43V30ZM40 27H21.414L23.414 25H40.586L42.586 27H40Z" fill="#C3A962"/>
<path d="M2.052 53.316C2.1183 53.515 2.24551 53.6882 2.41565 53.811C2.58578 53.9337 2.79021 53.9998 3 54H4V61C4 61.2652 4.10536 61.5196 4.2929 61.7071C4.48043 61.8946 4.73479 62 5 62H17C17.2652 62 17.5196 61.8946 17.7071 61.7071C17.8946 61.5196 18 61.2652 18 61V54H19C19.2099 54 19.4144 53.934 19.5847 53.8112C19.755 53.6885 19.8823 53.5153 19.9487 53.3162C20.0151 53.1171 20.0171 52.9022 19.9545 52.7018C19.8919 52.5015 19.7679 52.3259 19.6 52.2L11.6 46.2C11.4269 46.0702 11.2164 46 11 46C10.7836 46 10.5731 46.0702 10.4 46.2L2.4 52.2C2.23226 52.326 2.1084 52.5016 2.04595 52.7019C1.98349 52.9021 1.98561 53.117 2.052 53.316ZM12 60H10V58H12V60ZM11 48.25L16 52H6L11 48.25ZM6 54H16V60H14V57C14 56.7348 13.8946 56.4804 13.7071 56.2929C13.5196 56.1054 13.2652 56 13 56H9C8.73479 56 8.48043 56.1054 8.2929 56.2929C8.10536 56.4804 8 56.7348 8 57V60H6V54Z" fill="#C3A962"/>
<path d="M59 62C59.2652 62 59.5196 61.8946 59.7071 61.7071C59.8946 61.5196 60 61.2652 60 61V54H61C61.2099 54 61.4144 53.934 61.5847 53.8112C61.755 53.6885 61.8823 53.5153 61.9487 53.3162C62.0151 53.1171 62.0171 52.9022 61.9545 52.7018C61.8919 52.5015 61.7679 52.3259 61.6 52.2L53.6 46.2C53.4269 46.0702 53.2164 46 53 46C52.7836 46 52.5731 46.0702 52.4 46.2L44.4 52.2C44.2321 52.3259 44.1081 52.5015 44.0455 52.7018C43.9829 52.9022 43.9849 53.1171 44.0513 53.3162C44.1177 53.5153 44.245 53.6885 44.4153 53.8112C44.5856 53.934 44.7901 54 45 54H46V61C46 61.2652 46.1054 61.5196 46.2929 61.7071C46.4804 61.8946 46.7348 62 47 62H59ZM53 48.25L58 52H48L53 48.25ZM50 57V60H48V54H58V60H56V57C56 56.7348 55.8946 56.4804 55.7071 56.2929C55.5196 56.1054 55.2652 56 55 56H51C50.7348 56 50.4804 56.1054 50.2929 56.2929C50.1054 56.4804 50 56.7348 50 57ZM54 60H52V58H54V60Z" fill="#C3A962"/>
<path d="M11.6 2.2C11.4269 2.07018 11.2164 2 11 2C10.7836 2 10.5731 2.07018 10.4 2.2L2.4 8.2C2.23209 8.32593 2.10807 8.5015 2.04549 8.70183C1.98291 8.90217 1.98495 9.11712 2.05132 9.31623C2.11769 9.51534 2.24502 9.68852 2.41529 9.81124C2.58556 9.93396 2.79012 10 3 10H4V17C4 17.2652 4.10536 17.5196 4.29289 17.7071C4.48043 17.8946 4.73478 18 5 18H17C17.2652 18 17.5196 17.8946 17.7071 17.7071C17.8946 17.5196 18 17.2652 18 17V10H19C19.2099 10 19.4144 9.93396 19.5847 9.81124C19.755 9.68852 19.8823 9.51534 19.9487 9.31623C20.0151 9.11712 20.0171 8.90217 19.9545 8.70183C19.8919 8.5015 19.7679 8.32593 19.6 8.2L11.6 2.2ZM12 16H10V14H12V16ZM16 16H14V13C14 12.7348 13.8946 12.4804 13.7071 12.2929C13.5196 12.1054 13.2652 12 13 12H9C8.73478 12 8.48043 12.1054 8.29289 12.2929C8.10536 12.4804 8 12.7348 8 13V16H6V10H16V16ZM6 8L11 4.25L16 8H6Z" fill="#C3A962"/>
<path d="M61.6 8.2L53.6 2.2C53.4269 2.07018 53.2164 2 53 2C52.7836 2 52.5731 2.07018 52.4 2.2L44.4 8.2C44.2321 8.32593 44.1081 8.5015 44.0455 8.70183C43.9829 8.90217 43.9849 9.11712 44.0513 9.31623C44.1177 9.51534 44.245 9.68852 44.4153 9.81124C44.5856 9.93396 44.7901 10 45 10H46V17C46 17.2652 46.1054 17.5196 46.2929 17.7071C46.4804 17.8946 46.7348 18 47 18H59C59.2652 18 59.5196 17.8946 59.7071 17.7071C59.8946 17.5196 60 17.2652 60 17V10H61C61.2099 10 61.4144 9.93396 61.5847 9.81124C61.755 9.68852 61.8823 9.51534 61.9487 9.31623C62.0151 9.11712 62.0171 8.90217 61.9545 8.70183C61.8919 8.5015 61.7679 8.32593 61.6 8.2ZM54 16H52V14H54V16ZM58 16H56V13C56 12.7348 55.8946 12.4804 55.7071 12.2929C55.5196 12.1054 55.2652 12 55 12H51C50.7348 12 50.4804 12.1054 50.2929 12.2929C50.1054 12.4804 50 12.7348 50 13V16H48V10H58V16ZM48 8L53 4.25L58 8H48Z" fill="#C3A962"/>
<path d="M55 20H53C52.9984 21.3256 52.4711 22.5964 51.5338 23.5338C50.5964 24.4711 49.3256 24.9984 48 25V27C49.8559 26.9979 51.6351 26.2597 52.9474 24.9474C54.2597 23.6351 54.9979 21.8559 55 20Z" fill="#C3A962"/>
<path d="M16 25C14.6744 24.9984 13.4036 24.4711 12.4662 23.5338C11.5289 22.5964 11.0016 21.3256 11 20H9C9.00212 21.8559 9.7403 23.6351 11.0526 24.9474C12.3649 26.2597 14.1441 26.9979 16 27V25Z" fill="#C3A962"/>
<path d="M9 44H11C11.0016 42.6744 11.5289 41.4036 12.4662 40.4662C13.4036 39.5289 14.6744 39.0016 16 39V37C14.1441 37.0021 12.3649 37.7403 11.0526 39.0526C9.7403 40.3649 9.00212 42.1441 9 44Z" fill="#C3A962"/>
<path d="M48 39C49.3256 39.0016 50.5964 39.5289 51.5338 40.4662C52.4711 41.4036 52.9984 42.6744 53 44H55C54.9979 42.1441 54.2597 40.3649 52.9474 39.0526C51.6351 37.7403 49.8559 37.0021 48 37V39Z" fill="#C3A962"/>
</svg>
