<svg width="16" height="19" viewBox="0 0 16 19" fill="none" xmlns="http://www.w3.org/2000/svg">
<path d="M15 19H1C0.447715 19 0 18.5523 0 18V8.35698C0.0154912 8.11192 0.119639 7.88088 0.293 7.70698L7.293 0.706983C7.48057 0.519206 7.73509 0.413696 8.0005 0.413696C8.26591 0.413696 8.52043 0.519206 8.708 0.706983L15.708 7.70698C15.8957 7.89426 16.0009 8.1488 16 8.41398V18C16 18.5523 15.5523 19 15 19ZM8 2.82798L2 8.82798V17H14V8.82798L8 2.82798ZM8 14.999C7.792 14.814 7.557 14.621 7.308 14.417L7.261 14.379C6.104 13.435 4.661 12.26 4.661 10.799C4.66116 10.3149 4.85626 9.85134 5.20228 9.51285C5.5483 9.17436 6.01606 8.9895 6.5 8.99998C7.0722 8.99844 7.61787 9.24109 8 9.66698C8.3822 9.24119 8.92783 8.99857 9.5 8.99998C9.98342 8.99058 10.4503 9.17607 10.7955 9.51466C11.1407 9.85324 11.3351 10.3165 11.335 10.8C11.335 12.266 9.883 13.449 8.717 14.4L8.66 14.447C8.423 14.641 8.199 14.824 7.999 15.001L8 14.999Z" fill="#C3A962"/>
</svg>
