<svg width="100" height="65" viewBox="0 0 100 65" fill="none" xmlns="http://www.w3.org/2000/svg">
<g clip-path="url(#clip0_201_379)">
<path d="M24.948 11.445C24.948 17.773 19.818 22.89 13.516 22.89C7.175 22.89 2.058 17.773 2.058 11.445C2.057 5.13 7.174 0 13.516 0C19.818 0 24.948 5.13 24.948 11.445Z" fill="#C3A962"/>
<path d="M75.052 11.445C75.052 17.773 80.183 22.89 86.485 22.89C92.826 22.89 97.957 17.773 97.957 11.445C97.956 5.13 92.825 0 86.484 0C80.183 0 75.052 5.13 75.052 11.445Z" fill="#C3A962"/>
<path d="M43.672 50.781C43.412 48.346 44.349 46.093 45.938 44.453C36.25 42.604 32.279 37.878 28.829 33.606C27.149 31.51 25.548 29.518 23.425 28.111C23.36 28.072 23.282 28.072 23.23 28.02C21.42 26.522 19.128 25.572 16.603 25.572H10.418C4.688 25.573 0 30.248 0 35.977V64.844H27.018V46.185C30.963 49.636 36.537 52.917 45.104 54.349C44.388 53.308 43.828 52.136 43.672 50.781Z" fill="#C3A962"/>
<path d="M89.597 25.573H83.399C80.886 25.573 78.582 26.524 76.785 28.021C76.72 28.073 76.641 28.073 76.59 28.112C74.467 29.518 72.865 31.498 71.173 33.607C67.384 38.295 63.087 43.646 51.069 44.974C48.348 45.286 46.395 47.735 46.694 50.456C46.967 52.995 49.116 54.87 51.615 54.87C51.798 54.87 51.98 54.856 52.176 54.844C62.358 53.711 68.66 50.091 72.996 46.25V64.844H100V35.977C100 30.248 95.312 25.573 89.597 25.573Z" fill="#C3A962"/>
</g>
<defs>
<clipPath id="clip0_201_379">
<rect width="100" height="64.844" fill="white"/>
</clipPath>
</defs>
</svg>
