<svg width="60" height="44" viewBox="0 0 60 44" fill="none" xmlns="http://www.w3.org/2000/svg">
<path fill-rule="evenodd" clip-rule="evenodd" d="M12.0314 15.6902H9.76663V36.3747H50.2333V15.6902H47.9688V17.3908C47.9688 17.7245 47.6983 17.9949 47.3647 17.9949H26.7L17.5857 23.6647C17.5595 23.6811 17.5323 23.6947 17.5046 23.7067C17.4951 23.7109 17.4853 23.7136 17.4755 23.7172C17.457 23.7241 17.4385 23.7306 17.4197 23.7357C17.4079 23.7387 17.3962 23.7406 17.3843 23.7431C17.3671 23.7464 17.3497 23.7497 17.3323 23.7515C17.3196 23.7529 17.3073 23.7535 17.2946 23.7542C17.2853 23.7544 17.2761 23.7561 17.2669 23.7561C17.2606 23.7561 17.2544 23.7546 17.2481 23.7544C17.2281 23.7538 17.2084 23.7519 17.1885 23.7493C17.1754 23.7475 17.1624 23.7461 17.1494 23.7433C17.1291 23.7396 17.1094 23.7338 17.0898 23.7278C17.0777 23.724 17.0654 23.7208 17.0534 23.7164C17.0324 23.7083 17.0122 23.6982 16.992 23.688C16.9822 23.683 16.972 23.679 16.9624 23.6733C16.9342 23.657 16.9071 23.6382 16.8814 23.6169C16.8805 23.616 16.8793 23.6156 16.8784 23.6147C16.7283 23.4888 16.6518 23.3011 16.6639 23.113C16.6679 23.0502 16.6818 22.9874 16.7062 22.9269L18.6877 17.995H12.6352C12.3017 17.995 12.0311 17.7247 12.0311 17.391V15.6902H12.0314ZM30.7956 20.7915H45.8453C46.179 20.7915 46.4494 21.0618 46.4494 21.3956C46.4494 21.7292 46.179 21.9995 45.8453 21.9995H30.7956C30.462 21.9995 30.1916 21.7292 30.1916 21.3956C30.1916 21.062 30.462 20.7915 30.7956 20.7915ZM30.7956 24.8527H45.8453C46.179 24.8527 46.4494 25.1232 46.4494 25.4568C46.4494 25.7904 46.179 26.0608 45.8453 26.0608H30.7956C30.462 26.0608 30.1916 25.7904 30.1916 25.4568C30.1916 25.1232 30.462 24.8527 30.7956 24.8527ZM30.7956 28.9138H45.8453C46.179 28.9138 46.4494 29.1842 46.4494 29.5178C46.4494 29.8514 46.179 30.1219 45.8453 30.1219H30.7956C30.462 30.1219 30.1916 29.8514 30.1916 29.5178C30.1916 29.1842 30.462 28.9138 30.7956 28.9138ZM25.9236 21.9995C25.9236 21.6659 26.1941 21.3956 26.5275 21.3956C26.861 21.3956 27.1316 21.6659 27.1316 21.9995V32.9175H46.2068C46.5404 32.9175 46.8108 33.1879 46.8108 33.5215C46.8108 33.8551 46.5404 34.1256 46.2068 34.1256H26.5275C26.1941 34.1256 25.9236 33.8551 25.9236 33.5215V21.9995Z" fill="#C3A962"/>
<path fill-rule="evenodd" clip-rule="evenodd" d="M51.4412 15.0863V36.3749H54.8648V11.6309C54.8648 11.3332 54.6106 11.0815 54.3099 11.0815H47.9688V14.4823H50.8373C51.1708 14.4823 51.4412 14.7527 51.4412 15.0863Z" fill="#C3A962"/>
<path fill-rule="evenodd" clip-rule="evenodd" d="M19.6559 16.7916C19.8277 16.8129 19.9836 16.9072 20.0818 17.0527C20.0957 17.0735 20.1085 17.095 20.1196 17.117C20.1981 17.2713 20.2072 17.4532 20.1418 17.6162L18.5154 21.6637L26.2082 16.878C26.304 16.8185 26.4146 16.7869 26.5273 16.7869H46.7604V15.0861V10.4775V0.711914H13.2393V10.4775V15.0861V16.7869H19.5814C19.6065 16.787 19.6314 16.7885 19.6559 16.7916ZM40.429 7.02136H42.7408V9.32246H40.429V7.02136ZM35.795 7.02136H38.1068V9.32246H35.795V7.02136ZM31.1617 7.02136H33.4738V9.32246H31.1617V7.02136ZM26.5275 7.02136H28.8395V9.32246H26.5275V7.02136ZM21.8933 7.02136H24.2053V9.32246H21.8933V7.02136ZM19.5786 9.32233H17.2666V7.02123H19.5786V9.32233Z" fill="#C3A962"/>
<path fill-rule="evenodd" clip-rule="evenodd" d="M8.55865 15.0863C8.55865 14.7527 8.82909 14.4823 9.1627 14.4823H12.0314V11.0815H5.69113C5.38523 11.0815 5.13644 11.328 5.13644 11.6309V36.3749H8.55865V15.0863Z" fill="#C3A962"/>
<path fill-rule="evenodd" clip-rule="evenodd" d="M55.447 37.5828H50.8372H9.16269H4.53251H0.464355L5.78122 43.2881H54.2189L59.5358 37.5828H55.447Z" fill="#C3A962"/>
</svg>
