<svg width="66" height="66" viewBox="0 0 66 66" fill="none" xmlns="http://www.w3.org/2000/svg">
<path d="M64.45 27.96V27.9507L64.4497 27.9415C64.4301 27.4136 63.9897 26.96 63.44 26.96H54.04H34.59C34.0339 26.96 33.59 27.4038 33.59 27.96V35.72H24.65C24.0939 35.72 23.65 36.1638 23.65 36.72V44.48H15.25C14.6939 44.48 14.25 44.9238 14.25 45.48V53.24H5.03C4.47386 53.24 4.03 53.6838 4.03 54.24V63C4.03 63.5561 4.47386 64 5.03 64H24.43H24.54H43.94H63.45C64.0061 64 64.45 63.5561 64.45 63V54.24V45.48V36.72V27.96ZM43.93 53.25H35.7V46.49H43.99H44.1H53.04V53.25H43.93ZM25.53 55.25H42.93V62.01H25.53V55.25ZM62.44 37.73V44.49H54.04H45.1V37.73H62.44ZM55.04 53.25V46.49H62.44V53.25H55.04ZM62.44 35.73H55.04V28.97H62.44V35.73ZM35.59 28.96H53.04V35.72H44.1H43.99H35.59V28.96ZM25.65 37.73H42.99V44.49H34.7H25.65V37.73ZM6.03 55.25H23.43V62.01H6.03V55.25ZM24.42 53.25H16.25V46.49H24.65H33.7V53.25H24.53H24.42ZM44.93 62.02V55.26H54.04H54.53H62.44V62.02H44.93Z" fill="#C3A962" stroke="#C3A962"/>
<path d="M7.37 25.64L18.83 20.86C20.08 20.34 20.9 19.23 21.12 17.99L23.7 16.91L26.49 23.6C26.88 24.53 27.7 25.17 28.7 25.32C28.84 25.34 28.98 25.35 29.12 25.35C29.97 25.35 30.76 24.98 31.31 24.31L43.84 8.98997C44.52 8.15997 44.67 7.07997 44.26 6.08997C43.85 5.09997 42.97 4.44997 41.9 4.34997L22.21 2.49997C21.22 2.40997 20.25 2.82997 19.65 3.63997C19.05 4.44997 18.93 5.48997 19.32 6.41997L22.26 13.47L19.87 14.47C19.55 14.19 19.2 13.96 18.8 13.79C17.85 13.4 16.81 13.4 15.87 13.8L4.42 18.58C2.47 19.39 1.55 21.64 2.36 23.59C2.75 24.53 3.49 25.27 4.44 25.66C4.91 25.85 5.4 25.95 5.9 25.95C6.39 25.94 6.89 25.84 7.37 25.64ZM29.06 11.71C29.5 11.53 30.01 11.74 30.19 12.17C30.37 12.61 30.16 13.12 29.73 13.3L23.78 15.78L21.15 16.88C21.11 16.53 21.04 16.18 20.9 15.84C20.81 15.63 20.7 15.43 20.58 15.25L29.06 11.71ZM20.24 6.03997C19.99 5.43997 20.07 4.75997 20.46 4.23997C20.85 3.70997 21.47 3.43997 22.12 3.49997L41.82 5.35997C42.51 5.42997 43.08 5.84997 43.35 6.48997C43.62 7.12997 43.51 7.82997 43.08 8.36997L30.54 23.67C30.13 24.18 29.49 24.42 28.85 24.33C28.2 24.24 27.67 23.82 27.42 23.22L24.63 16.53L30.12 14.24C31.07 13.84 31.52 12.75 31.12 11.8C30.73 10.85 29.63 10.4 28.68 10.8L23.19 13.09L20.24 6.03997ZM3.28 23.2C2.68 21.76 3.36 20.1 4.8 19.5L16.26 14.72C16.61 14.57 16.98 14.5 17.35 14.5C17.71 14.5 18.08 14.57 18.43 14.71C18.81 14.87 19.14 15.1 19.41 15.39C19.42 15.4 19.42 15.41 19.43 15.41C19.65 15.65 19.84 15.92 19.97 16.23C20.57 17.67 19.89 19.33 18.45 19.93L6.98 24.72C6.28 25.01 5.51 25.01 4.81 24.73C4.12 24.44 3.57 23.9 3.28 23.2Z" fill="#C3A962"/>
</svg>
