<svg version="1.1" id="Capa_1" xmlns="http://www.w3.org/2000/svg" xmlns:xlink="http://www.w3.org/1999/xlink" x="0px" y="0px" viewBox="0 0 411.937 411.937" style="enable-background:new 0 0 411.937 411.937;" xml:space="preserve"><g><g><path d="M404.366,29.127H7.571C3.389,29.127,0,32.516,0,36.698v29.473c0,4.181,3.389,7.571,7.571,7.571h13.988v271.877 c0,4.182,3.39,7.571,7.571,7.571h353.677c4.182,0,7.571-3.39,7.571-7.571V73.742h13.988c4.182,0,7.571-3.39,7.571-7.571V36.698 C411.938,32.516,408.548,29.127,404.366,29.127z M36.701,338.049V74.079h338.534v263.97H36.701z M396.795,58.6L396.795,58.6 H15.142V44.269h381.653V58.6z" fill="#000000" style="fill: rgb(195, 169, 98);"></path></g></g><g><g><path d="M347.538,162.249c-1.514-1.513-3.686-2.154-5.783-1.708L306.942,168c-2.26,0.484-4.074,2.166-4.729,4.383 c-0.655,2.216-0.045,4.613,1.59,6.248l8.451,8.452l-29.196,29.196l-23.966-23.965c-2.955-2.956-7.752-2.956-10.706,0 l-52.774,52.773c-2.957,2.956-2.957,7.75,0,10.706c1.478,1.48,3.416,2.219,5.354,2.219s3.875-0.739,5.354-2.218l47.419-47.419 l23.967,23.965c2.954,2.955,7.751,2.956,10.705-0.001l34.551-34.549l8.194,8.195c1.2,1.199,2.813,1.848,4.461,1.848 c0.597,0,1.197-0.085,1.786-0.259c2.218-0.655,3.898-2.469,4.383-4.729l7.46-34.812 C349.694,165.94,349.051,163.762,347.538,162.249z" fill="#000000" style="fill: rgb(195, 169, 98);"></path></g></g><g><g><path d="M133.58,120.987c-4.181,0-7.571,3.39-7.571,7.571v41.895H84.115c-4.182-0.001-7.572,3.39-7.572,7.57 c0,31.45,25.587,57.037,57.037,57.037c31.45,0,57.037-25.587,57.037-57.037C190.617,146.573,165.03,120.987,133.58,120.987z M133.578,219.918c-20.517,0-37.635-14.824-41.209-34.324h41.21c4.181,0,7.571-3.39,7.571-7.571v-41.209 c19.499,3.574,34.323,20.692,34.323,41.209C175.473,201.124,156.679,219.918,133.578,219.918z" fill="#000000" style="fill: rgb(195, 169, 98);"></path></g></g><g><g><path d="M108.692,98.3h-0.196c-31.083,0-56.372,25.289-56.372,56.372c0,4.18,3.39,7.57,7.571,7.57h48.997 c4.181,0,7.571-3.39,7.571-7.571v-48.8C116.263,101.69,112.873,98.3,108.692,98.3z" fill="#000000" style="fill: rgb(195, 169, 98);"></path></g></g><g><g><path d="M347.593,297.173h-14.472v-17.306c0-4.181-3.391-7.571-7.571-7.571c-4.18,0-7.571,3.391-7.571,7.571v17.306h-8.045 v-50.476c0-4.182-3.391-7.571-7.571-7.571c-4.182,0-7.571,3.39-7.571,7.571v50.476h-8.045v-33.891 c0-4.181-3.391-7.571-7.571-7.571c-4.18,0-7.571,3.391-7.571,7.571v33.891h-8.045v-58.769c0-4.182-3.391-7.571-7.571-7.571 c-4.18,0-7.571,3.39-7.571,7.571v58.769h-8.045v-25.599c0-4.182-3.391-7.571-7.571-7.571c-4.18,0-7.571,3.39-7.571,7.571v25.599 h-15.563c-4.181,0-7.571,3.391-7.571,7.571c0,4.182,3.39,7.571,7.571,7.571h137.928c4.181,0,7.57-3.39,7.57-7.571 C355.163,300.564,351.774,297.173,347.593,297.173z" fill="#000000" style="fill: rgb(195, 169, 98);"></path></g></g><g><g><path d="M168.854,263.82H62.969c-4.181,0-7.571,3.39-7.571,7.571c0,4.181,3.39,7.571,7.571,7.571h105.885 c4.181,0,7.571-3.391,7.571-7.571C176.425,267.209,173.035,263.82,168.854,263.82z" fill="#000000" style="fill: rgb(195, 169, 98);"></path></g></g><g><g><path d="M168.854,295.477H62.969c-4.181,0-7.571,3.39-7.571,7.57c0,4.182,3.39,7.571,7.571,7.571h105.885 c4.181,0,7.571-3.39,7.571-7.571C176.425,298.866,173.035,295.477,168.854,295.477z" fill="#000000" style="fill: rgb(195, 169, 98);"></path></g></g><g><g><path d="M345.693,98.989H223.435c-4.181,0-7.571,3.39-7.571,7.571c0,4.181,3.39,7.571,7.571,7.571h122.258 c4.181,0,7.571-3.39,7.571-7.571C353.264,102.379,349.873,98.989,345.693,98.989z" fill="#000000" style="fill: rgb(195, 169, 98);"></path></g></g><g><g><path d="M345.693,130.645H223.435c-4.181,0-7.571,3.39-7.571,7.571c0,4.181,3.39,7.571,7.571,7.571h122.258 c4.181,0,7.571-3.39,7.571-7.571C353.264,134.035,349.873,130.645,345.693,130.645z" fill="#000000" style="fill: rgb(195, 169, 98);"></path></g></g><g><g><path d="M125.438,367.668H97.785c-4.181,0-7.571,3.391-7.571,7.571c0,4.182,3.39,7.571,7.571,7.571h27.653 c4.181,0,7.571-3.39,7.571-7.571C133.009,371.059,129.619,367.668,125.438,367.668z" fill="#000000" style="fill: rgb(195, 169, 98);"></path></g></g><g><g><path d="M165.724,367.668h-13.099c-4.181,0-7.571,3.391-7.571,7.571c0,4.182,3.39,7.571,7.571,7.571h13.099 c4.182,0,7.571-3.39,7.571-7.571C173.295,371.059,169.906,367.668,165.724,367.668z" fill="#000000" style="fill: rgb(195, 169, 98);"></path></g></g><g><g><path d="M319.612,367.668h-125.17c-4.181,0-7.571,3.391-7.571,7.571c0,4.182,3.39,7.571,7.571,7.571h125.169 c4.181,0,7.571-3.39,7.571-7.571C327.183,371.059,323.792,367.668,319.612,367.668z" fill="#000000" style="fill: rgb(195, 169, 98);"></path></g></g></svg>