<svg width="62" height="62" viewBox="0 0 62 62" fill="none" xmlns="http://www.w3.org/2000/svg">
<path d="M2.90625 50.375H0.96875C0.96875 54.9281 4.65 58.6094 9.20312 58.6094H61.0312V8.23438H10.1719V0.96875H9.20312C4.65 0.96875 0.96875 4.65 0.96875 9.20312V50.375H2.90625C2.90625 46.8875 5.71563 44.0781 9.20312 44.0781H10.1719V10.1719H59.0938V56.6719H9.20312C5.71563 56.6719 2.90625 53.8625 2.90625 50.375ZM8.23438 42.1891C6.10312 42.4312 4.21406 43.4969 2.90625 45.0469V9.20312C2.90625 6.05469 5.23125 3.43906 8.23438 3.00312V42.1891Z" fill="#C3A962"/>
<path d="M49.8906 14.0469H44.0781V46.7422L46.9844 52.5547L49.8906 46.7422V14.0469ZM47.9531 15.9844V21.3125H46.0156V15.9844H47.9531ZM46.9844 48.1953L46.0156 46.2578V23.25H47.9531V46.2578L46.9844 48.1953Z" fill="#C3A962"/>
<path d="M20.3438 37.2969V39.2344H24.2188L21.7969 52.6516L23.6859 52.9906L26.1562 39.2344H31.9688L34.4391 52.9906L36.3281 52.6516L33.9062 39.2344H37.7812V37.2969H33.5672L32.4531 30.9031C33.9547 29.8375 34.875 28.0453 34.875 26.1563C34.875 23.2984 32.7922 20.8766 30.0312 20.4406V14.0469H28.0938V20.4406C25.3328 20.925 23.25 23.2984 23.25 26.1563C23.25 28.0453 24.1703 29.7891 25.6719 30.9031L24.5578 37.2969H20.3438ZM27.2219 29.5469C25.9625 28.8688 25.1875 27.5609 25.1875 26.1563C25.1875 24.025 26.9312 22.2813 29.0625 22.2813C31.1938 22.2813 32.9375 24.025 32.9375 26.1563C32.9375 27.5609 32.1625 28.8688 30.9031 29.5469L30.2734 29.8859L31.6297 37.2969H26.4953L27.8031 29.8859L27.2219 29.5469Z" fill="#C3A962"/>
</svg>
