<svg width="50" height="70" viewBox="0 0 50 70" fill="none" xmlns="http://www.w3.org/2000/svg">
<g clip-path="url(#clip0_201_369)">
<path d="M29.6691 47.7029C29.6691 50.3062 27.5758 52.4174 25.0038 52.4174C22.4242 52.4174 20.331 50.3055 20.331 47.7029C20.331 45.1087 22.4242 42.9961 25.0038 42.9961C27.5765 42.9968 29.6691 45.1087 29.6691 47.7029Z" fill="#C3A962"/>
<path d="M31.6728 60.1041C31.6728 56.3878 28.6797 53.3757 25.0045 53.3757C21.3134 53.3757 18.3272 56.3885 18.3272 60.1041V70H31.6728V60.1041Z" fill="#C3A962"/>
<path d="M43.3317 42.9968C40.7514 42.9968 38.6588 45.1094 38.6588 47.7036C38.6588 50.3069 40.7521 52.4181 43.3317 52.4181C45.9037 52.4181 47.9969 50.3062 47.9969 47.7036C47.9962 45.1087 45.9037 42.9968 43.3317 42.9968Z" fill="#C3A962"/>
<path d="M50 60.1041C50 56.3878 47.0069 53.3757 43.3317 53.3757C39.6482 53.3757 36.6627 56.3885 36.6627 60.1041V70H50.0007L50 60.1041Z" fill="#C3A962"/>
<path d="M6.67732 42.9968C4.0977 42.9968 2.00446 45.1094 2.00446 47.7036C2.00446 50.3069 4.0977 52.4181 6.67732 52.4181C9.2493 52.4181 11.3342 50.3062 11.3342 47.7036C11.3335 45.1087 9.2493 42.9968 6.67732 42.9968Z" fill="#C3A962"/>
<path d="M13.338 60.1041C13.338 56.3878 10.3525 53.3757 6.67731 53.3757C2.9855 53.3757 0 56.3885 0 60.1041V70H13.338V60.1041Z" fill="#C3A962"/>
<path d="M25.0045 0C22.0266 0 19.6094 2.4388 19.6094 5.4432C19.6094 8.4476 22.0266 10.8864 25.0045 10.8864C27.9817 10.8864 30.392 8.4476 30.392 5.4432C30.392 2.4388 27.9817 0 25.0045 0Z" fill="#C3A962"/>
<path d="M32.7031 19.4971C32.7031 15.2082 29.2548 11.7292 25.0038 11.7292C20.7445 11.7292 17.2969 15.2082 17.2969 19.4971V30.9239H32.7031V19.4971Z" fill="#C3A962"/>
<path d="M25.418 36.6086V33.1996H24.5827V36.6086H6.24713V41.4988H7.08249V37.4514H24.5827V41.4988H25.418V37.4514H42.9092V41.4988H43.7445V36.6086H25.418Z" fill="#C3A962"/>
</g>
<defs>
<clipPath id="clip0_201_369">
<rect width="50" height="70" fill="white"/>
</clipPath>
</defs>
</svg>
