<svg width="70" height="62" viewBox="0 0 70 62" fill="none" xmlns="http://www.w3.org/2000/svg">
<path fill-rule="evenodd" clip-rule="evenodd" d="M53.3608 4.3786H11.5769V55.3091L53.2808 55.1702L53.3608 4.3786ZM48.7832 8.40467H16.1505V24.7525H48.7832V8.40467ZM15.6325 7.36857H49.3012C49.5878 7.36857 49.8192 7.60043 49.8192 7.88662V25.2706C49.8192 25.5526 49.5877 25.7883 49.3012 25.7883H15.6325C15.3461 25.7883 15.1144 25.5526 15.1144 25.2706V7.88662C15.1144 7.60028 15.3461 7.36857 15.6325 7.36857ZM21.2922 29.0355H16.6306V33.6971H21.2922V29.0355ZM16.1125 27.9993H21.8103C22.0923 27.9993 22.3283 28.231 22.3283 28.5174V34.2151C22.3283 34.5015 22.0923 34.7329 21.8103 34.7329H16.1125C15.8262 34.7329 15.5948 34.5013 15.5948 34.2151V28.5174C15.5948 28.231 15.8262 27.9993 16.1125 27.9993ZM30.2959 29.0355H25.634V33.6971H30.2959V29.0355ZM25.1161 27.9993H30.8139C31.0959 27.9993 31.3318 28.231 31.3318 28.5174V34.2151C31.3318 34.5015 31.0961 34.7329 30.8139 34.7329H25.1161C24.8296 34.7329 24.5981 34.5013 24.5981 34.2151V28.5174C24.5981 28.231 24.8296 27.9993 25.1161 27.9993ZM39.2996 29.0355H34.6377V33.6971H39.2996V29.0355ZM34.1196 27.9993H39.8174C40.1039 27.9993 40.3354 28.231 40.3354 28.5174V34.2151C40.3354 34.5015 40.1037 34.7329 39.8174 34.7329H34.1196C33.8334 34.7329 33.6019 34.5013 33.6019 34.2151V28.5174C33.6019 28.231 33.8334 27.9993 34.1196 27.9993ZM48.303 29.0355H43.6414V33.6971H48.303V29.0355ZM43.1234 27.9993H48.8212C49.1032 27.9993 49.3392 28.231 49.3392 28.5174V34.2151C49.3392 34.5015 49.1032 34.7329 48.8212 34.7329H43.1234C42.837 34.7329 42.6055 34.5013 42.6055 34.2151V28.5174C42.6053 28.231 42.837 27.9993 43.1234 27.9993ZM21.2922 37.1671H16.6306V41.8249H21.2922V37.1671ZM16.1125 36.1312H21.8103C22.0923 36.1312 22.3283 36.3629 22.3283 36.6492V42.3428C22.3283 42.629 22.0923 42.8606 21.8103 42.8606H16.1125C15.8262 42.8606 15.5948 42.6289 15.5948 42.3428V36.6492C15.5948 36.3629 15.8262 36.1312 16.1125 36.1312ZM30.2959 37.1671H25.634V41.8249H30.2959V37.1671ZM25.1161 36.1312H30.8139C31.0959 36.1312 31.3318 36.3629 31.3318 36.6492V42.3428C31.3318 42.629 31.0961 42.8606 30.8139 42.8606H25.1161C24.8296 42.8606 24.5981 42.6289 24.5981 42.3428V36.6492C24.5981 36.3629 24.8296 36.1312 25.1161 36.1312ZM39.2996 37.1671H34.6377V41.8249H39.2996V37.1671ZM34.1196 36.1312H39.8174C40.1039 36.1312 40.3354 36.3629 40.3354 36.6492V42.3428C40.3354 42.629 40.1037 42.8606 39.8174 42.8606H34.1196C33.8334 42.8606 33.6019 42.6289 33.6019 42.3428V36.6492C33.6019 36.3629 33.8334 36.1312 34.1196 36.1312ZM48.303 37.1671H43.6414V41.8249H48.303V37.1671ZM43.1234 36.1312H48.8212C49.1032 36.1312 49.3392 36.3629 49.3392 36.6492V42.3428C49.3392 42.629 49.1032 42.8606 48.8212 42.8606H43.1234C42.837 42.8606 42.6055 42.6289 42.6055 42.3428V36.6492C42.6053 36.3629 42.837 36.1312 43.1234 36.1312ZM21.2922 45.2949H16.6306V49.9568H21.2922V45.2949ZM16.1125 44.259H21.8103C22.0923 44.259 22.3283 44.4906 22.3283 44.777V50.4748C22.3283 50.761 22.0923 50.9926 21.8103 50.9926H16.1125C15.8262 50.9926 15.5948 50.7609 15.5948 50.4748V44.777C15.5948 44.4906 15.8262 44.259 16.1125 44.259ZM30.2959 45.2949H25.634V49.9568H30.2959V45.2949ZM25.1161 44.259H30.8139C31.0959 44.259 31.3318 44.4906 31.3318 44.777V50.4748C31.3318 50.761 31.0961 50.9926 30.8139 50.9926H25.1161C24.8296 50.9926 24.5981 50.7609 24.5981 50.4748V44.777C24.5981 44.4906 24.8296 44.259 25.1161 44.259ZM39.2996 45.2949H34.6377V49.9568H39.2996V45.2949ZM34.1196 44.259H39.8174C40.1039 44.259 40.3354 44.4906 40.3354 44.777V50.4748C40.3354 50.761 40.1037 50.9926 39.8174 50.9926H34.1196C33.8334 50.9926 33.6019 50.7609 33.6019 50.4748V44.777C33.6019 44.4906 33.8334 44.259 34.1196 44.259ZM48.303 45.2949H43.6414V49.9568H48.303V45.2949ZM43.1234 44.259H48.8212C49.1032 44.259 49.3392 44.4906 49.3392 44.777V50.4748C49.3392 50.761 49.1032 50.9926 48.8212 50.9926H43.1234C42.837 50.9926 42.6055 50.7609 42.6055 50.4748V44.777C42.6053 44.4906 42.837 44.259 43.1234 44.259ZM20.1133 20.2087H18.8497V22.2343H20.1133V20.2087ZM18.3319 19.1728H20.6311C20.9176 19.1728 21.1491 19.4043 21.1491 19.6905V22.752C21.1491 23.0387 20.9176 23.2701 20.6311 23.2701H18.3319C18.0455 23.2701 17.8139 23.0385 17.8139 22.752V19.6905C17.8139 19.4043 18.0455 19.1728 18.3319 19.1728ZM25.2931 14.3045H24.0253V22.2343H25.2931V14.3045ZM23.5075 13.2684H25.8067C26.0931 13.2684 26.3247 13.5004 26.3247 13.7864V22.752C26.3247 23.0387 26.0931 23.2701 25.8067 23.2701H23.5075C23.2209 23.2701 22.9895 23.0385 22.9895 22.752V13.7864C22.9895 13.5002 23.2209 13.2684 23.5075 13.2684ZM30.4686 17.4631H29.2011V22.2344H30.4686V17.4631ZM28.6831 16.4268H30.9822C31.2687 16.4268 31.5003 16.6584 31.5003 16.9449V22.752C31.5003 23.0387 31.2687 23.2701 30.9822 23.2701H28.6831C28.3966 23.2701 28.165 23.0385 28.165 22.752V16.9449C28.165 16.6584 28.3966 16.4268 28.6831 16.4268ZM35.6441 15.5384H34.3767V22.2343H35.6441V15.5384ZM33.8587 14.5068H36.1623C36.4443 14.5068 36.6802 14.7383 36.6802 15.0245V22.7522C36.6802 23.0388 36.4443 23.2702 36.1623 23.2702H33.8587C33.5766 23.2702 33.3406 23.0387 33.3406 22.7522V15.0245C33.3405 14.7382 33.5765 14.5068 33.8587 14.5068ZM40.8196 13.0243H39.5523V22.2343H40.8196V13.0243ZM39.0342 11.9882H41.3378C41.6199 11.9882 41.8516 12.2201 41.8516 12.5063V22.752C41.8516 23.0387 41.6199 23.2701 41.3378 23.2701H39.0342C38.7522 23.2701 38.5163 23.0385 38.5163 22.752V12.5063C38.5162 12.22 38.752 11.9882 39.0342 11.9882ZM45.9955 16.865H44.7278V22.2343H45.9955V16.865ZM44.2098 15.8332H46.5134C46.7954 15.8332 47.0273 16.0649 47.0273 16.347V22.752C47.0273 23.0387 46.7954 23.2701 46.5134 23.2701H44.2098C43.9278 23.2701 43.692 23.0385 43.692 22.752V16.347C43.692 16.0649 43.9278 15.8332 44.2098 15.8332ZM6.87732 19.3791V18.1871H2.52291V19.3791H6.87732ZM6.87732 17.1512V13.1842C6.87732 13.0577 6.82685 12.9443 6.74685 12.8599C6.65852 12.7757 6.54482 12.7252 6.4185 12.7252H2.63646C2.60707 12.7252 2.57768 12.7377 2.55645 12.7589C2.53523 12.7802 2.52276 12.8094 2.52276 12.8389V17.1512H6.87732ZM2.52291 46.5415C7.18459 46.5415 2.21564 46.5415 6.87717 46.5415V20.4149H2.52291V46.5415ZM29.8834 61.7734C29.5969 61.7734 29.3653 61.5416 29.3653 61.2554C29.3653 60.9734 29.5969 60.7418 29.8834 60.7418H61.4464C61.7327 60.7418 61.9644 60.9734 61.9644 61.2554C61.9644 61.5417 61.7325 61.7734 61.4464 61.7734H29.8834ZM64.6765 61.7734C64.3899 61.7734 64.1585 61.5416 64.1585 61.2554C64.1585 60.9734 64.39 60.7418 64.6765 60.7418H68.6224C68.9086 60.7418 69.1405 60.9734 69.1405 61.2554C69.1405 61.5417 68.9085 61.7734 68.6224 61.7734H64.6765ZM1.37741 61.6891C1.09123 61.6891 0.859665 61.4576 0.859665 61.1714C0.859665 60.8891 1.09123 60.6533 1.37741 60.6533H16.3316C16.6179 60.6533 16.8495 60.8891 16.8495 61.1714C16.8495 61.4577 16.6179 61.6891 16.3316 61.6891H1.37741ZM60.9917 37.6851C61.181 37.8956 61.1643 38.2244 60.9535 38.4137C60.7432 38.6075 60.4147 38.5865 60.2252 38.376L59.0671 37.0869V44.4358C59.0671 44.7178 58.8353 44.9538 58.5492 44.9538C58.2627 44.9538 58.0313 44.7178 58.0313 44.4358V37.0869L56.8731 38.376C56.6836 38.5865 56.3591 38.6075 56.1446 38.4137C55.9338 38.2244 55.9172 37.8956 56.1066 37.6851L58.1405 35.4195L58.1491 35.4112L58.1745 35.3857V35.3816L58.1787 35.3774L58.1827 35.3734C58.2039 35.3563 58.2248 35.3397 58.246 35.3228V35.3186C58.3301 35.2595 58.4353 35.2218 58.5492 35.2218C58.7092 35.2218 58.8524 35.2934 58.9492 35.4114L58.9577 35.4197L60.9917 37.6851ZM65.7965 32.9729C65.9862 33.1835 65.9692 33.512 65.7546 33.7012C65.544 33.8951 65.2196 33.8739 65.0261 33.6634L63.8723 32.3749V42.8776C63.8723 43.164 63.6404 43.3957 63.3542 43.3957C63.068 43.3957 62.8362 43.1638 62.8362 42.8776V32.3749L61.6781 33.6634C61.4888 33.8739 61.1603 33.8951 60.9497 33.7012C60.7392 33.512 60.7223 33.1835 60.9118 32.9729L62.9459 30.7071L62.9542 30.6988L62.9754 30.6734L62.9796 30.6694L62.9836 30.6649L62.9877 30.6608C63.009 30.6443 63.0257 30.6271 63.0468 30.6103L63.051 30.6062C63.135 30.5474 63.2405 30.5092 63.3541 30.5092C63.5141 30.5092 63.6573 30.5809 63.7541 30.6989L63.7583 30.7073H63.7624L65.7965 32.9729ZM60.9283 16.8018C61.1179 17.0167 61.1009 17.3409 60.8865 17.5303C60.6757 17.7242 60.3515 17.7029 60.1579 17.4925L59.0041 16.2037V26.7066C59.0041 26.9929 58.7724 27.2243 58.4861 27.2243C58.1997 27.2243 57.968 26.9928 57.968 26.7066V16.2037L56.8099 17.4925C56.6207 17.7029 56.2922 17.7242 56.0814 17.5303C55.871 17.3409 55.854 17.0167 56.0435 16.8018L58.0776 14.5362L58.086 14.5277L58.1113 14.5025V14.4982H58.1154L58.1199 14.4897C58.1407 14.4728 58.1576 14.456 58.1787 14.4392L58.1827 14.4349C58.2668 14.3762 58.3722 14.3382 58.4859 14.3382C58.6458 14.3382 58.789 14.414 58.886 14.5277L58.8901 14.5362H58.8941L60.9283 16.8018ZM30.5108 0.226501C30.7928 0.226501 31.0244 0.46222 31.0244 0.744549C31.0244 1.03074 30.7928 1.2623 30.5108 1.2623H8.51978V8.4299C8.51978 8.71609 8.28792 8.94765 8.00173 8.94765C7.7154 8.94765 7.48369 8.71594 7.48369 8.4299V0.744549C7.48369 0.46222 7.71555 0.226501 8.00173 0.226501H30.5108ZM3.17559 58.9983C2.8891 58.9983 2.65754 58.7665 2.65754 58.4845C2.65754 58.198 2.8891 57.9665 3.17559 57.9665H48.7875C49.0736 57.9665 49.3052 58.1982 49.3052 58.4845C49.3052 58.7665 49.0735 58.9983 48.7875 58.9983H3.17559ZM6.87732 47.5775H2.52291V50.0368L4.70019 54.6229L6.87732 50.0368V47.5775Z" fill="#C3A962"/>
</svg>
