<svg xmlns="http://www.w3.org/2000/svg" viewBox="0 0 432.24 432.24"><defs><style>.cls-1{fill:#fff;}.cls-2{fill:none;stroke:#965715;stroke-linecap:round;stroke-miterlimit:10;stroke-width:3px;stroke-dasharray:10.06 10.06;}.cls-3{fill:#4a2b17;}</style></defs><g id="Слой_2" data-name="Слой 2"><g id="Слой_1-2" data-name="Слой 1"><g id="Слой_1-2-2" data-name="Слой 1-2"><circle class="cls-1" cx="216.12" cy="216.12" r="214.62"/><circle class="cls-2" cx="216.12" cy="216.12" r="214.62"/></g><circle class="cls-3" cx="152.17" cy="169.22" r="4.26"/><circle class="cls-3" cx="194.8" cy="169.22" r="4.26"/><path class="cls-3" d="M190.54,199.06H182a8.53,8.53,0,1,1-17,0h-8.52a17.05,17.05,0,1,0,34.1,0Z"/><path class="cls-3" d="M331.21,254.48v81a4.27,4.27,0,0,1-4.26,4.27H275.79a4.27,4.27,0,0,1-4.26-4.27v-4.26a12.81,12.81,0,0,0,12.79-12.79v-5.11a29.87,29.87,0,0,0,21.5-19.17c5.54-15.89,8.34-36.4,8.34-61s-2.8-45.09-8.34-61a29.9,29.9,0,0,0-28.19-20H250.22a21.07,21.07,0,0,0-12.79,4.38v-21a30.86,30.86,0,0,0-23.18-29.82,59,59,0,0,0-104.71,37.21v34.82a21.29,21.29,0,0,0,17.81,20.94,47,47,0,0,0,20.56,31.1v8.83l-43.54,14.52A29.79,29.79,0,0,0,84,281.44v32.72H250.22v4.26A12.81,12.81,0,0,0,263,331.21v4.26a12.79,12.79,0,0,0,12.78,12.79H327a12.8,12.8,0,0,0,12.79-12.79v-81a4.26,4.26,0,0,1,4.26-4.26h4.26v-8.53H344A12.81,12.81,0,0,0,331.21,254.48ZM297.77,175c3.58,10.3,7.86,28.75,7.86,58.17s-4.28,47.86-7.86,58.16a21.36,21.36,0,0,1-20.14,14.3H263V263h4.26a12.81,12.81,0,0,0,12.79-12.79v-34.1a12.8,12.8,0,0,0-12.79-12.79H263V160.7h14.62A21.36,21.36,0,0,1,297.77,175ZM173.49,268.56l4.26,3.55v33.52h-8.53V272.11Zm46.13-69.85a21.06,21.06,0,0,0,9.67-4.34,21.33,21.33,0,0,0,20.93,17.48h17a4.27,4.27,0,0,1,4.26,4.27v34.1a4.26,4.26,0,0,1-4.26,4.26h-17a20.45,20.45,0,0,0-3.61.37,28.75,28.75,0,0,0-4-1.71l-43.54-14.52v-8.83A47,47,0,0,0,219.62,198.71Zm.76-33a12.71,12.71,0,0,1,0,24ZM196,246.57l6.64,2.21-6.17,27.79L179.8,262.72Zm-9.67,32.64,15.43,12.86,9-40.57L236.1,260a21.19,21.19,0,0,0-7.2,15.84v17.06a21.07,21.07,0,0,0,4.38,12.78h-47Zm51.15,13.64V275.79A12.8,12.8,0,0,1,250.22,263h4.26v42.62h-4.26A12.8,12.8,0,0,1,237.43,292.85ZM250.22,160.7h4.26v42.63h-4.26a12.81,12.81,0,0,1-12.79-12.79v-17A12.81,12.81,0,0,1,250.22,160.7ZM118.07,177.75a12.76,12.76,0,0,1,8.53-12v24A12.76,12.76,0,0,1,118.07,177.75Zm9.34-21a21.15,21.15,0,0,0-9.34,4V142.93a50.44,50.44,0,0,1,89.83-31.5l1.6,2,1.51.3a22.31,22.31,0,0,1,17.89,21.82v25.27a21.17,21.17,0,0,0-9.34-4,23.41,23.41,0,0,0-36.7-12.7l-9.37,7-9.38-7a23.41,23.41,0,0,0-36.7,12.7Zm7.71,33.76V162.83A14.93,14.93,0,0,1,159,150.89l14.49,10.87L188,150.89a14.92,14.92,0,0,1,23.87,11.94v27.71a38.37,38.37,0,0,1-76.73,0Zm38.37,46.89a46.51,46.51,0,0,0,17-3.26v5.76l-17,17.05-17.05-17.05v-5.76A46.47,46.47,0,0,0,173.49,237.43ZM151,246.57l16.15,16.15-16.61,13.85-6.18-27.78ZM92.49,281.44a21.28,21.28,0,0,1,14.58-20.22l29.18-9.73,9,40.58,15.43-12.86v26.42H126.6V275.79h-8.53v29.84H92.49Zm166.25,37v-4.26h17.05v4.26a4.26,4.26,0,0,1-4.26,4.27H263A4.27,4.27,0,0,1,258.74,318.42Z"/><rect class="cls-3" x="322.69" y="224.64" width="25.58" height="8.53"/><rect class="cls-3" x="322.69" y="207.59" width="25.58" height="8.53"/><path class="cls-3" d="M344,130.86a12.81,12.81,0,0,0-12.79,12.79v42.63a4.26,4.26,0,0,1-4.26,4.26h-4.26v8.52H327a12.8,12.8,0,0,0,12.79-12.78V143.65a4.27,4.27,0,0,1,4.26-4.27h4.26v-8.52Z"/></g></g></svg>