<svg width="140" height="24" viewBox="0 0 140 24" fill="none" xmlns="http://www.w3.org/2000/svg">
<path d="M2.33496 10.3368C2.02171 10.0471 2.19187 9.52339 2.61557 9.47316L8.61914 8.76107C8.79182 8.74059 8.94181 8.63215 9.01465 8.47425L11.5469 2.98446C11.7256 2.59703 12.2764 2.59695 12.4551 2.98439L14.9873 8.47413C15.0601 8.63204 15.2092 8.74077 15.3818 8.76124L21.3857 9.47316C21.8094 9.52339 21.9791 10.0472 21.6659 10.3369L17.2278 14.4419C17.1001 14.56 17.0433 14.7357 17.0771 14.9063L18.255 20.8359C18.3382 21.2544 17.8928 21.5787 17.5205 21.3703L12.2451 18.4166C12.0934 18.3317 11.9091 18.3321 11.7573 18.417L6.48144 21.3695C6.10913 21.5779 5.66294 21.2544 5.74609 20.8359L6.92414 14.9066C6.95803 14.7361 6.90134 14.5599 6.77367 14.4419L2.33496 10.3368Z" fill="#C3A962" stroke="#A48A44" stroke-linecap="round" stroke-linejoin="round"/>
<path d="M118.335 10.3368C118.022 10.0471 118.192 9.52339 118.616 9.47316L124.619 8.76107C124.792 8.74059 124.942 8.63215 125.015 8.47425L127.547 2.98446C127.726 2.59703 128.276 2.59695 128.455 2.98439L130.987 8.47413C131.06 8.63204 131.209 8.74077 131.382 8.76124L137.386 9.47316C137.809 9.52339 137.979 10.0472 137.666 10.3369L133.228 14.4419C133.1 14.56 133.043 14.7357 133.077 14.9063L134.255 20.8359C134.338 21.2544 133.893 21.5787 133.52 21.3703L128.245 18.4166C128.093 18.3317 127.909 18.3321 127.757 18.417L122.481 21.3695C122.109 21.5779 121.663 21.2544 121.746 20.8359L122.924 14.9066C122.958 14.7361 122.901 14.5599 122.774 14.4419L118.335 10.3368Z" fill="#C3A962" stroke="#A48A44" stroke-linecap="round" stroke-linejoin="round"/>
<path d="M89.335 10.3368C89.0217 10.0471 89.1919 9.52339 89.6156 9.47316L95.6191 8.76107C95.7918 8.74059 95.9418 8.63215 96.0146 8.47425L98.5469 2.98446C98.7256 2.59703 99.2764 2.59695 99.4551 2.98439L101.987 8.47413C102.06 8.63204 102.209 8.74077 102.382 8.76124L108.386 9.47316C108.809 9.52339 108.979 10.0472 108.666 10.3369L104.228 14.4419C104.1 14.56 104.043 14.7357 104.077 14.9063L105.255 20.8359C105.338 21.2544 104.893 21.5787 104.52 21.3703L99.2451 18.4166C99.0934 18.3317 98.9091 18.3321 98.7573 18.417L93.4814 21.3695C93.1091 21.5779 92.6629 21.2544 92.7461 20.8359L93.9241 14.9066C93.958 14.7361 93.9013 14.5599 93.7737 14.4419L89.335 10.3368Z" fill="#C3A962" stroke="#A48A44" stroke-linecap="round" stroke-linejoin="round"/>
<path d="M60.335 10.3368C60.0217 10.0471 60.1919 9.52339 60.6156 9.47316L66.6191 8.76107C66.7918 8.74059 66.9418 8.63215 67.0146 8.47425L69.5469 2.98446C69.7256 2.59703 70.2764 2.59695 70.4551 2.98439L72.9873 8.47413C73.0601 8.63204 73.2092 8.74077 73.3818 8.76124L79.3857 9.47316C79.8094 9.52339 79.9791 10.0472 79.6659 10.3369L75.2278 14.4419C75.1001 14.56 75.0433 14.7357 75.0771 14.9063L76.255 20.8359C76.3382 21.2544 75.8928 21.5787 75.5205 21.3703L70.2451 18.4166C70.0934 18.3317 69.9091 18.3321 69.7573 18.417L64.4814 21.3695C64.1091 21.5779 63.6629 21.2544 63.7461 20.8359L64.9241 14.9066C64.958 14.7361 64.9013 14.5599 64.7737 14.4419L60.335 10.3368Z" fill="#C3A962" stroke="#A48A44" stroke-linecap="round" stroke-linejoin="round"/>
<path d="M31.335 10.3368C31.0217 10.0471 31.1919 9.52339 31.6156 9.47316L37.6191 8.76107C37.7918 8.74059 37.9418 8.63215 38.0146 8.47425L40.5469 2.98446C40.7256 2.59703 41.2764 2.59695 41.4551 2.98439L43.9873 8.47413C44.0601 8.63204 44.2092 8.74077 44.3818 8.76124L50.3857 9.47316C50.8094 9.52339 50.9791 10.0472 50.6659 10.3369L46.2278 14.4419C46.1001 14.56 46.0433 14.7357 46.0771 14.9063L47.255 20.8359C47.3382 21.2544 46.8928 21.5787 46.5205 21.3703L41.2451 18.4166C41.0934 18.3317 40.9091 18.3321 40.7573 18.417L35.4814 21.3695C35.1091 21.5779 34.6629 21.2544 34.7461 20.8359L35.9241 14.9066C35.958 14.7361 35.9013 14.5599 35.7737 14.4419L31.335 10.3368Z" fill="#C3A962" stroke="#A48A44" stroke-linecap="round" stroke-linejoin="round"/>
</svg>
