<svg xmlns="http://www.w3.org/2000/svg" viewBox="0 0 432.23 432.23"><defs><style>.cls-1{fill:#fff;}.cls-2{fill:none;stroke:#965715;stroke-linecap:round;stroke-width:3px;stroke-dasharray:10.06 10.06;}.cls-2,.cls-3{stroke-miterlimit:10;}.cls-3{fill:#4a2911;stroke:#fff;stroke-width:2px;}</style></defs><g id="Слой_2" data-name="Слой 2"><g id="Слой_1-2" data-name="Слой 1"><circle class="cls-1" cx="216.12" cy="216.12" r="214.62"/><circle class="cls-2" cx="216.12" cy="216.12" r="214.62"/><path class="cls-3" d="M318.8,187.16a4,4,0,0,0-2.72,1.2L248.84,256.3a5.45,5.45,0,0,1-3.15.95,5.09,5.09,0,0,1-3-.9L211,223.29a11.73,11.73,0,0,0-8.77-3.35,12,12,0,0,0-8.77,3.3l-75.17,75.83a4,4,0,1,0,5.63,5.57l75.16-75.85a5.37,5.37,0,0,1,3.15-.95,5.06,5.06,0,0,1,3.05.9l31.66,33.06a11.71,11.71,0,0,0,8.77,3.35,12,12,0,0,0,8.76-3.3l67.26-68a4,4,0,0,0-2.91-6.77ZM311,171.33c-5.26,0-5.16,7.91,0,7.91H330.8V199c0,5.32,7.91,5.16,7.91,0V175.28a4,4,0,0,0-4-3.95ZM105.22,92.18a4,4,0,0,0-4,3.95V325.67a4,4,0,0,0,4,4H334.75c5.35.08,5.35-8,0-7.92H109.17V96.13A3.84,3.84,0,0,0,105.22,92.18Z"/></g></g></svg>