<svg xmlns="http://www.w3.org/2000/svg" viewBox="0 0 432.24 432.24"><defs><style>.cls-1{fill:#fff;}.cls-2{fill:none;stroke:#965715;stroke-linecap:round;stroke-miterlimit:10;stroke-width:3px;stroke-dasharray:10.06 10.06;}.cls-3{fill:#4a2b17;}</style></defs><g id="Слой_2" data-name="Слой 2"><g id="Слой_1-2" data-name="Слой 1"><g id="Слой_1-2-2" data-name="Слой 1-2"><circle class="cls-1" cx="216.12" cy="216.12" r="214.62"/><circle class="cls-2" cx="216.12" cy="216.12" r="214.62"/></g><path class="cls-3" d="M113.81,88.23a25.58,25.58,0,1,1-25.58,25.58A25.52,25.52,0,0,1,113.81,88.23Zm102.31,0a25.58,25.58,0,1,1-25.58,25.58A25.52,25.52,0,0,1,216.12,88.23Zm102.3,0a25.58,25.58,0,1,1-25.57,25.58A25.53,25.53,0,0,1,318.42,88.23ZM113.81,190.54a25.58,25.58,0,1,1-25.58,25.58A25.52,25.52,0,0,1,113.81,190.54Zm102.31,0a25.58,25.58,0,1,1-25.58,25.58A25.52,25.52,0,0,1,216.12,190.54Zm102.3,0a25.58,25.58,0,1,1-25.57,25.58A25.53,25.53,0,0,1,318.42,190.54ZM113.81,292.85a25.58,25.58,0,1,1-25.58,25.57A25.51,25.51,0,0,1,113.81,292.85Zm102.31,0a25.58,25.58,0,1,1-25.58,25.57A25.52,25.52,0,0,1,216.12,292.85Zm102.3,0a25.58,25.58,0,1,1-25.57,25.57A25.52,25.52,0,0,1,318.42,292.85Z"/></g></g></svg>