<svg xmlns="http://www.w3.org/2000/svg" viewBox="0 0 432.24 432.24"><defs><style>.cls-1{fill:#fff;}.cls-2{fill:none;stroke:#965715;stroke-linecap:round;stroke-miterlimit:10;stroke-width:3px;stroke-dasharray:10.06 10.06;}.cls-3{fill:#4a2b17;}</style></defs><g id="Слой_2" data-name="Слой 2"><g id="Слой_1-2" data-name="Слой 1"><g id="Слой_1-2-2" data-name="Слой 1-2"><circle class="cls-1" cx="216.12" cy="216.12" r="214.62"/><circle class="cls-2" cx="216.12" cy="216.12" r="214.62"/></g><g id="layer1"><path id="path1696" class="cls-3" d="M256.79,79.93a4.12,4.12,0,0,0-3.51,2.1L241.55,101.6h-8.39a8.73,8.73,0,0,0-8.66,8.66v47.65a8.73,8.73,0,0,0,8.66,8.67h47.65a8.74,8.74,0,0,0,8.67-8.67V110.26a8.74,8.74,0,0,0-8.67-8.66h-8.37L260.69,82A3.88,3.88,0,0,0,256.79,79.93Zm.2,12.76,5.33,8.91H251.65Zm-23.83,17.57h47.65v37.11l-3.43-6.47a8.54,8.54,0,0,0-14.8,0l-1.13,2.15-3.92-7.43a10.56,10.56,0,0,0-18.39,0l-6,11.29Zm15.16,28.33a1.77,1.77,0,0,1,1.53,1.09l9.65,18.23H237.15l9.63-18.23a1.81,1.81,0,0,1,1.54-1.09ZM270,145.41l6.58,12.5H269.3l-3-5.59ZM157.35,163.83a4.33,4.33,0,0,0-4.32,4.34h-4.32a13,13,0,0,0-12.9,11.91l-16,40.06H114a13.09,13.09,0,0,0-13,13v12.69a13.07,13.07,0,0,0,13,13h2v70.76a4.33,4.33,0,0,0,4.35,4.32H315.64a4.34,4.34,0,0,0,4.31-4.32V258.83h2a13.07,13.07,0,0,0,13-13V233.15a13.1,13.1,0,0,0-13-13H300.31a17.36,17.36,0,0,0-13-16.68v-.62a4.32,4.32,0,1,0-8.64,0v.62a17.36,17.36,0,0,0-13,16.68H212.89a12.73,12.73,0,0,0,.8-4.32V181.15a13.06,13.06,0,0,0-13-13h-4.31a4.34,4.34,0,1,0-8.67,0H179a4.33,4.33,0,1,0-8.66,0h-8.67a4.33,4.33,0,0,0-4.34-4.35Zm-8.64,13H153a4.33,4.33,0,0,0,8.66,0h8.67a4.33,4.33,0,0,0,8.66,0h8.67a4.34,4.34,0,0,0,8.67,0h4.31a4.26,4.26,0,0,1,4.35,4.31v34.67a4.27,4.27,0,0,1-4.35,4.32h-52a4.27,4.27,0,0,1-4.35-4.32V181.15a4.26,4.26,0,0,1,4.35-4.31Zm8.67,8.65a4.34,4.34,0,1,0,4.31,4.32A4.34,4.34,0,0,0,157.38,185.49Zm17.33,0a4.34,4.34,0,1,0,4.31,4.32A4.33,4.33,0,0,0,174.71,185.49Zm17.32,0a4.34,4.34,0,1,0,4.32,4.32A4.33,4.33,0,0,0,192,185.49Zm-34.65,17.33a4.34,4.34,0,1,0,4.31,4.32A4.33,4.33,0,0,0,157.38,202.82Zm17.33,0a4.34,4.34,0,1,0,4.31,4.32A4.33,4.33,0,0,0,174.71,202.82Zm17.32,0a4.34,4.34,0,1,0,4.32,4.32A4.32,4.32,0,0,0,192,202.82Zm-56.33.85v12.15a12.73,12.73,0,0,0,.8,4.32h-7.38ZM283,211.5a8.6,8.6,0,0,1,8.63,8.64H274.35A8.6,8.6,0,0,1,283,211.5ZM114,228.8H322a4.3,4.3,0,0,1,4.35,4.35v12.69a4.27,4.27,0,0,1-4.35,4.33H114a4.27,4.27,0,0,1-4.34-4.33V233.15A4.29,4.29,0,0,1,114,228.8Zm10.69,30H311.29v8.95h-35a4.34,4.34,0,0,0,0,8.67h35v8.67h-35a4.33,4.33,0,1,0,0,8.66h35v8.66H295.1a4.34,4.34,0,0,0,0,8.67h16.19v14.17H124.73V311.11h14.45a4.34,4.34,0,0,0,0-8.67H124.73v-8.66H158a4.33,4.33,0,0,0,0-8.66H124.73v-8.67H158a4.34,4.34,0,0,0,0-8.67H124.73Z"/></g></g></g></svg>