<svg width="29" height="29" viewBox="0 0 29 29" fill="none" xmlns="http://www.w3.org/2000/svg">
<g clip-path="url(#clip0_64_146)">
<path d="M26.1127 28.8083H2.85496C1.36618 28.8083 0.159424 27.6015 0.159424 26.1127V2.85496C0.159424 1.36618 1.36618 0.159424 2.85496 0.159424H26.1124C27.6015 0.159424 28.8083 1.36618 28.8083 2.85496V26.1124C28.8083 27.6015 27.6015 28.8083 26.1127 28.8083Z" fill="#393939"/>
<path d="M22.4687 6.8436L6.11466 13.1495C4.99831 13.5974 5.005 14.22 5.91126 14.4976L10.1074 15.8075L11.5506 20.5572C11.7403 21.0808 11.6468 21.2887 12.1968 21.2887C12.6211 21.2887 12.8086 21.0945 13.0458 20.8643L15.0849 18.8815L19.3275 22.016C20.1083 22.4467 20.6718 22.2236 20.8663 21.2912L23.6512 8.16685C23.9365 7.02313 23.2158 6.50458 22.4687 6.8436ZM13.6124 16.9025L12.2156 20.0262L10.8315 15.4714L21.4854 9.15078L13.6124 16.9025Z" fill="#FCFDFF"/>
</g>
<defs>
<clipPath id="clip0_64_146">
<rect width="29" height="29" fill="white"/>
</clipPath>
</defs>
</svg>
