<svg xmlns="http://www.w3.org/2000/svg" viewBox="0 0 33.23 9.73"><defs><style>.cls-1{fill:#c4a674;}</style></defs><g id="Слой_2" data-name="Слой 2"><g id="Слой_1-2" data-name="Слой 1"><path class="cls-1" d="M4.52,7.63a1.21,1.21,0,0,1-.4.79,2,2,0,0,1-.74.43A1.89,1.89,0,0,1,2.53,9a2.13,2.13,0,0,1-.82-.26A3.4,3.4,0,0,1,.5,7.44,3.81,3.81,0,0,1,0,5.72,3.8,3.8,0,0,1,.39,4a4.78,4.78,0,0,1,1-1.44,4.25,4.25,0,0,1,1.49-.91,5.23,5.23,0,0,1,1.71-.27A10.15,10.15,0,0,1,8,2c.55.2,1.08.42,1.6.67s1,.54,1.52.84c2,1.19,3.77,2.65,5.75,3.75a13,13,0,0,0,1.5.73,8.93,8.93,0,0,0,1.56.52,6.73,6.73,0,0,0,1.58.21A5.26,5.26,0,0,0,23,8.46a4.08,4.08,0,0,0,1.32-.7,3.27,3.27,0,0,0,.9-1.13,3.62,3.62,0,0,0,.34-1.43,3.37,3.37,0,0,0,0-.72,3,3,0,0,0-.2-.66,2.92,2.92,0,0,0-.85-1.06,3,3,0,0,0-1.24-.56A2.12,2.12,0,0,0,22,2.33a1.68,1.68,0,0,0-.83.87c-.05.11-.08.22-.12.33s0,.12,0,.18l0,.17a1.71,1.71,0,0,0,0,.63,2,2,0,0,0,.25.62,1.41,1.41,0,0,0,.45.46,1.14,1.14,0,0,0,.6.18l.18,0a.35.35,0,0,0,.13,0,.79.79,0,0,0,.29-.17A.94.94,0,0,0,23.29,5a.49.49,0,0,0-.08-.33.89.89,0,0,0-.32-.25v0a.77.77,0,0,1,.43.15.7.7,0,0,1,.18.2.62.62,0,0,1,.09.26,1,1,0,0,1,0,.53,1.63,1.63,0,0,1-.25.47,1.49,1.49,0,0,1-.38.37,1.58,1.58,0,0,1-.26.13l-.24.07a1.72,1.72,0,0,1-1.05-.08,2.23,2.23,0,0,1-.88-.63A2.8,2.8,0,0,1,20,4.87a2.8,2.8,0,0,1-.17-1.13l0-.27c0-.09,0-.17,0-.26A4.42,4.42,0,0,1,20,2.69a3.41,3.41,0,0,1,.55-1A3.12,3.12,0,0,1,21.42,1,3.31,3.31,0,0,1,23.5.71a4.07,4.07,0,0,1,1.86.83A4.15,4.15,0,0,1,26.64,3.2a3.74,3.74,0,0,1,.29,1A4.22,4.22,0,0,1,27,5.3a5.13,5.13,0,0,1-.57,2A4.44,4.44,0,0,1,25,8.78a4.92,4.92,0,0,1-1.74.77,6,6,0,0,1-1.83.15,5.58,5.58,0,0,1-.9-.13,7.74,7.74,0,0,1-.86-.23,11.7,11.7,0,0,1-1.64-.66c-.52-.26-1-.55-1.53-.85-2-1.23-3.74-2.72-5.65-4-.48-.3-1-.59-1.47-.86a14.18,14.18,0,0,0-1.54-.69,12.88,12.88,0,0,0-1.6-.5,8.47,8.47,0,0,0-1.65-.21A5,5,0,0,0,3,1.84a4.1,4.1,0,0,0-1.44.84A4.61,4.61,0,0,0,.52,4a3.91,3.91,0,0,0-.4,1.68A3.43,3.43,0,0,0,.59,7.38,3.15,3.15,0,0,0,1.75,8.62a2,2,0,0,0,.79.27,1.93,1.93,0,0,0,.82-.1,1.79,1.79,0,0,0,.73-.42,1.21,1.21,0,0,0,.38-.75Z"/><path class="cls-1" d="M2.49,3.23A3.12,3.12,0,0,0,.78,7.15,2.37,2.37,0,0,0,2.49,8.68c.74.11,1.8-.21,1.92-1.09h0c-.37.2-.87-.26-1.24-.38s-.86,0-.87-.58c-.11.16-.06.41-.08.62a1.86,1.86,0,0,0-.1-.2c-.36.25.26.72.26,1-.79-.2-.69-1.73-.25-2.22a1.76,1.76,0,0,1,1-.5c.31-.08.67-.53.87-.46-.39-.45-.77-.79-1.38-.47-.07-.74,1.46-.1,1.7,0A4.07,4.07,0,0,1,5.88,6.05c.37.7.54,1.49.88,2.2.26.55.73.7,1.06,1.12a1.37,1.37,0,0,0,.34-1.28,1,1,0,0,1,.15.26C9,8.19,7.94,6.74,8,6.45c.35.08.43.82.56,1.14a4.4,4.4,0,0,0,.83,1.32,1.61,1.61,0,0,0,1.09.59c.25,0,.9,0,.93-.34.58.27,1.84-.84,1.25-1.41A5.57,5.57,0,0,0,12,7.52c-.14-.07-.26-.16-.39-.24a6,6,0,0,1-1-.82C8.5,4.32,5.52,1.65,2.49,3.23m0,4.44s0-.08,0,0a1.18,1.18,0,0,0,.75.24c.07,0,.07.11,0,.11A1,1,0,0,1,2.52,7.67Zm0-2.56c-.9.16-1.11,1.47-.85,2.25,0,0,0,.07-.07,0-.46-.85-.18-2.3.91-2.34A0,0,0,0,1,2.5,5.11Zm-.78-.3a2.44,2.44,0,0,0-.39.83s-.07,0-.06,0a1.89,1.89,0,0,1,.44-.81ZM7.65,7.64s0,0,0,0A5.37,5.37,0,0,0,5.7,4.55s0,0,0,0A4.78,4.78,0,0,1,7.65,7.64ZM7.75,5c1.14,1.07,2,2.78,3.62,3.13h0C9.94,8,9.08,6.61,8.17,5.62A5.71,5.71,0,0,0,4,3.53a0,0,0,1,1,0-.06A5.35,5.35,0,0,1,7.75,5Z"/><path class="cls-1" d="M10.69.32c-.64.37-1.67,1.31-2.43,1A1.07,1.07,0,0,0,9.17.82a6.83,6.83,0,0,0-1.11,0c-.44.08-.86.33-1.31.39a6.23,6.23,0,0,0-2.34.31L6,1.64a11.06,11.06,0,0,0,1.66.29,18,18,0,0,1,1.78.49,40,40,0,0,1,4.24,2c.9.44,2.32,1,3.32.58a1,1,0,0,0,.67-.86c0-.33-.08-.86-.46-.86,0,.18,0,.2.14.27.21.79-1,.84-1.44.8a1.34,1.34,0,0,1,.76-.26c-.24-.24-.32-.55-.61-.77A2.28,2.28,0,0,0,14.84,3c-1-.11-2.25.29-3.14-.22.21-.14.55.07.81,0a1,1,0,0,0,.7-.38.9.9,0,0,1-.43,0c.68.13,1.44-1,1.38-1.62A2.56,2.56,0,0,0,12.63.48a.5.5,0,0,1,.43-.09A2.19,2.19,0,0,0,10.69.32m4.51,3.6a0,0,0,0,1,0,0,5,5,0,0,1-1.88-.18.05.05,0,0,1,0-.1C14,3.76,14.58,3.88,15.2,3.92Zm-2-2.69A5.53,5.53,0,0,1,9,1.72a0,0,0,0,1,0,0,8,8,0,0,0,4.19-.49S13.26,1.21,13.24,1.23Z"/><path class="cls-1" d="M2.11,2.73a7.08,7.08,0,0,1,4.25-.1,13.21,13.21,0,0,1,3.93,1.66c1.34.83,2.57,1.83,3.84,2.75a11.77,11.77,0,0,0,4.15,2.19,0,0,0,0,0,0-.07,31.37,31.37,0,0,1-4.15-2.51,47.62,47.62,0,0,0-4.06-2.9c-2.28-1.31-5.58-2.67-8-1,0,0,0,0,0,0"/><path class="cls-1" d="M29.93,3.44a2,2,0,0,0-.81.77c-.22.34-.34.91-.74,1.07.29-.37.76-1.35.25-1.71a.65.65,0,0,0,0,.14c-1.05.2-1.2,2.29-1.72,3.06a5.56,5.56,0,0,1-4.55,2.62l-1.14.06A4.46,4.46,0,0,0,24,9.57a6.82,6.82,0,0,0,3.28-1.94c1.06-1,2.45-2.32,3.91-2.44a1.7,1.7,0,0,1,1.37.28c.22.22.44.58.23.86.48.13.55-1,.45-1.34a1.8,1.8,0,0,0-1.58-1.16.52.52,0,0,1,.55,0c-.33-.72-1.61-.7-2.23-.42M27.71,6.11c.14-.35.27-.69.4-1h0a4.35,4.35,0,0,1-.33,1.06C27.77,6.19,27.69,6.16,27.71,6.11ZM30.87,4A3,3,0,0,0,29.3,5.32a0,0,0,0,1-.09,0A1.92,1.92,0,0,1,30.87,4S30.88,4,30.87,4Z"/><path class="cls-1" d="M15.67,6.12a19,19,0,0,0,2.6,1.55,10,10,0,0,0,3.22.75,3.76,3.76,0,0,0,3.94-2c.86-2-.23-5.76-2.84-5.15a.11.11,0,0,0,0,.2A2.91,2.91,0,0,1,25,3.14a4,4,0,0,1,0,3.22c-.71,1.5-2.39,1.77-3.84,1.69a10.75,10.75,0,0,1-2.8-.59,13,13,0,0,1-2.65-1.35s0,0,0,0"/></g></g></svg>