<svg width="40" height="24" viewBox="0 0 40 24" fill="none" xmlns="http://www.w3.org/2000/svg">
<path fill-rule="evenodd" clip-rule="evenodd" d="M38.8287 1.83262C39.1035 0.916735 38.8287 0.243652 37.5216 0.243652H33.1986C32.0992 0.243652 31.5925 0.824971 31.3181 1.46644C31.3181 1.46644 29.1193 6.82476 26.005 10.3056C24.9978 11.3133 24.5398 11.6342 23.9897 11.6342C23.7153 11.6342 23.3175 11.3133 23.3175 10.3979V1.83262C23.3175 0.733646 22.9983 0.243652 22.0824 0.243652H15.2884C14.6017 0.243652 14.1881 0.753843 14.1881 1.23769C14.1881 2.27958 15.7454 2.52019 15.9061 5.45137V11.8173C15.9061 13.2131 15.6541 13.4669 15.1044 13.4669C13.6392 13.4669 10.074 8.08399 7.95952 1.92482C7.54504 0.727499 7.12969 0.244091 6.02501 0.244091H1.702C0.46648 0.243652 0.219727 0.824971 0.219727 1.466C0.219727 2.61108 1.68488 8.29035 7.04364 15.8014C10.6158 20.9305 15.6488 23.7115 20.2291 23.7115C22.9768 23.7115 23.317 23.0938 23.317 22.0299V18.1535C23.317 16.9179 23.5774 16.6716 24.4476 16.6716C25.0887 16.6716 26.1876 16.9917 28.7526 19.4649C31.6838 22.3961 32.1668 23.7111 33.8159 23.7111H38.1389C39.3736 23.7111 39.9913 23.0933 39.6352 21.8749C39.2449 20.6601 37.8456 18.8977 35.9888 16.809C34.9812 15.6183 33.4695 14.3358 33.0115 13.6943C32.3701 12.8702 32.5536 12.504 33.0115 11.7708C33.0115 11.7708 38.2794 4.35152 38.8287 1.83262Z" fill="#393939"/>
</svg>
