<svg width="29" height="29" viewBox="0 0 29 29" fill="none" xmlns="http://www.w3.org/2000/svg">
<g clip-path="url(#clip0_64_143)">
<path fill-rule="evenodd" clip-rule="evenodd" d="M24.5857 4.32274C21.9054 1.63929 18.3408 0.161015 14.5433 0.159424C6.71833 0.159424 0.350018 6.52742 0.346835 14.3546C0.34588 16.8566 0.999392 19.2987 2.2418 21.4519L0.227783 28.8083L7.75351 26.834C9.82705 27.965 12.1616 28.5612 14.5376 28.5619H14.5433C14.543 28.5619 14.5436 28.5619 14.5433 28.5619C22.3673 28.5619 28.7362 22.1932 28.7394 14.3657C28.741 10.5726 27.2659 7.00618 24.5857 4.32274ZM8.77819 14.8712C8.60088 14.6344 7.32983 12.9479 7.32983 11.202C7.32983 9.45597 8.24627 8.59778 8.57128 8.24285C8.89628 7.88792 9.28081 7.79911 9.51733 7.79911C9.75384 7.79911 9.99067 7.80134 10.1973 7.81153C10.415 7.82267 10.7075 7.72876 10.9953 8.42047C11.291 9.13064 12.0002 10.877 12.089 11.0543C12.1778 11.2319 12.2367 11.4388 12.1186 11.6756C12.0005 11.9121 11.9413 12.0601 11.764 12.2674C11.5867 12.4746 11.3916 12.7299 11.2318 12.8887C11.0542 13.0657 10.8692 13.2577 11.0761 13.6126C11.283 13.9678 11.9948 15.1294 13.0494 16.07C14.4042 17.2787 15.5473 17.653 15.9019 17.8307C16.2565 18.0083 16.4634 17.9787 16.6703 17.7418C16.8772 17.505 17.5571 16.706 17.7937 16.3511C18.0302 15.9962 18.2667 16.0554 18.5917 16.1735C18.917 16.2919 20.6608 17.1501 21.0154 17.3274C21.37 17.505 21.6065 17.5938 21.6953 17.7418C21.7841 17.8899 21.7841 18.6 21.4884 19.4286C21.1927 20.2572 19.7755 21.0135 19.094 21.1151C18.4828 21.2064 17.7096 21.2446 16.8597 20.9744C16.3447 20.8111 15.6838 20.5927 14.8374 20.2273C11.2795 18.6908 8.95581 15.1081 8.77819 14.8712Z" fill="#393939"/>
</g>
<defs>
<clipPath id="clip0_64_143">
<rect width="29" height="29" fill="white"/>
</clipPath>
</defs>
</svg>
