<svg xmlns="http://www.w3.org/2000/svg" viewBox="0 0 432.24 432.24"><defs><style>.cls-1{fill:#fff;}.cls-2{fill:none;stroke:#965715;stroke-linecap:round;stroke-miterlimit:10;stroke-width:3px;stroke-dasharray:10.06 10.06;}.cls-3{fill:#4a2b17;}</style></defs><g id="Слой_2" data-name="Слой 2"><g id="Слой_1-2" data-name="Слой 1"><g id="Слой_1-2-2" data-name="Слой 1-2"><circle class="cls-1" cx="216.12" cy="216.12" r="214.62"/><circle class="cls-2" cx="216.12" cy="216.12" r="214.62"/></g><g id="layer1"><path id="rect103220" class="cls-3" d="M91.58,102.12a4.62,4.62,0,0,0-4.64,4.63v13.82H77.72a4.62,4.62,0,0,0,0,9.23h9.22V314.33H77.72a4.61,4.61,0,0,0,0,9.22h9.22v13.82a4.62,4.62,0,1,0,9.23,0V323.55H336.06v13.82a4.62,4.62,0,1,0,9.23,0V323.55h9.19a4.61,4.61,0,1,0,0-9.22h-9.19V129.8h9.19a4.62,4.62,0,1,0,0-9.23h-9.19V106.75a4.62,4.62,0,1,0-9.23,0v13.82H96.17V106.75A4.62,4.62,0,0,0,91.58,102.12Zm4.59,27.68H336.06V314.33H96.17ZM110,139a4.62,4.62,0,1,0,0,9.23h4.6a4.62,4.62,0,1,0,0-9.23Zm23.05,0a4.62,4.62,0,0,0,0,9.23h4.63a4.62,4.62,0,0,0,0-9.23Zm143,0a4.62,4.62,0,1,0,0,9.23h4.6a4.62,4.62,0,0,0,0-9.23Zm23.06,0a4.62,4.62,0,1,0,0,9.23h4.59a4.62,4.62,0,1,0,0-9.23Zm23.07,0a4.62,4.62,0,1,0,4.6,4.6A4.61,4.61,0,0,0,322.22,139ZM137.41,158.65a9.22,9.22,0,0,0-9.23,9.22v10.39a9.15,9.15,0,0,0,9.23,9.19H294.82a9.22,9.22,0,0,0,9.23-9.19V167.87a9.22,9.22,0,0,0-9.23-9.22Zm0,9.22h134v10.39h-134Zm143.28,0h14.13v10.39H280.69ZM115.31,194.4a10,10,0,0,0-9.91,9.87V216.8a10,10,0,0,0,9.91,9.88H117v46.13h-1.64a10,10,0,0,0-9.91,9.89v12.52a10,10,0,0,0,9.91,9.87H127.8a10,10,0,0,0,9.91-9.87v-1.67h50.74v1.67a9.94,9.94,0,0,0,9.88,9.87h12.53a9.94,9.94,0,0,0,9.87-9.87V282.7a10,10,0,0,0-9.87-9.89h-1.68V226.68h1.68a10,10,0,0,0,9.87-9.88V204.27a9.94,9.94,0,0,0-9.87-9.87H198.33a9.94,9.94,0,0,0-9.88,9.87v1.64H137.71v-1.64a10,10,0,0,0-9.91-9.87Zm0,9.22H127.8c.45,0,.69.21.69.65V216.8c0,.45-.24.65-.69.65H115.31c-.45,0-.68-.2-.68-.65V204.27C114.63,203.83,114.86,203.62,115.31,203.62Zm83,0h12.53c.44,0,.64.21.64.65V216.8c0,.45-.2.65-.64.65H198.33c-.45,0-.65-.2-.65-.65V204.27A.57.57,0,0,1,198.33,203.62Zm36.22,4.61a4.61,4.61,0,0,0,0,9.22H322.2a4.61,4.61,0,1,0,0-9.22Zm-96.84,6.91h50.74v1.66a10,10,0,0,0,9.88,9.88H200v46.13h-1.63a10,10,0,0,0-9.88,9.89v1.63H137.71V282.7a10,10,0,0,0-9.91-9.89h-1.63V226.68h1.63a10,10,0,0,0,9.91-9.88Zm150.2,12.11a4.62,4.62,0,1,0,0,9.24H322.2a4.62,4.62,0,1,0,0-9.24ZM176.8,231.41a4.43,4.43,0,0,0-1.49.24l-27.42,9.16a4.62,4.62,0,0,0-1.8,7.63l5.88,5.87-2.55,2.54a4.61,4.61,0,0,0,6.54,6.5l2.54-2.53,5.87,5.87a4.62,4.62,0,0,0,7.63-1.8l9.16-27.38a4.61,4.61,0,0,0-4.36-6.1Zm-7.35,11.92-3.85,11.55-7.7-7.71Zm92.79,2.38a4.62,4.62,0,0,0,0,9.23h60a4.62,4.62,0,1,0,0-9.23Zm-24.15,17.88A8.2,8.2,0,0,0,230,271.7v11.44a8.2,8.2,0,0,0,8.13,8.1H249.5a8.2,8.2,0,0,0,8.14-8.1V271.7a8.21,8.21,0,0,0-8.14-8.11Zm36.88,0a8.17,8.17,0,0,0-8.1,8.11v11.44a8.17,8.17,0,0,0,8.1,8.1h43.72a8.2,8.2,0,0,0,8.14-8.1V271.7a8.21,8.21,0,0,0-8.14-8.11Zm-35.79,9.22h9.23v9.24h-9.23Zm36.91,0H317.6v9.24H276.09Zm-160.78,9.24H127.8c.45,0,.69.2.69.65v12.52c0,.44-.24.65-.69.65H115.31c-.45,0-.68-.21-.68-.65V282.7C114.63,282.25,114.86,282.05,115.31,282.05Zm83,0h12.53c.44,0,.64.2.64.65v12.52c0,.44-.2.65-.64.65H198.33a.57.57,0,0,1-.65-.65V282.7C197.68,282.25,197.88,282.05,198.33,282.05Z"/></g></g></g></svg>