<svg width="47" height="44" viewBox="0 0 47 44" fill="none" xmlns="http://www.w3.org/2000/svg">
<path d="M3.35645 38.9648H43.6422V37.2862H17.6243C16.9571 37.2842 16.3179 37.0183 15.8461 36.5465C15.3744 36.0748 15.1084 35.4355 15.1064 34.7683V32.2505H3.35645V38.9648Z" fill="#C3A962"/>
<path d="M3.35645 30.5718H3.44877L3.35645 30.4795V30.5718Z" fill="#C3A962"/>
<path d="M46.9999 20.5007H45.3213V44.0007H46.9999V20.5007Z" fill="#C3A962"/>
<path d="M43.6433 30.5718H17.6254C17.4028 30.5718 17.1893 30.6602 17.032 30.8176C16.8746 30.975 16.7861 31.1885 16.7861 31.4111V34.7682C16.7861 34.9908 16.8746 35.2043 17.032 35.3617C17.1893 35.5191 17.4028 35.6075 17.6254 35.6075H43.6433V30.5718Z" fill="#C3A962"/>
<path d="M46.9999 0.357422H45.3213V18.8217H46.9999V0.357422Z" fill="#C3A962"/>
<path d="M43.6433 10.429H17.6254C17.4028 10.429 17.1893 10.5174 17.032 10.6748C16.8746 10.8322 16.7861 11.0456 16.7861 11.2682V14.6254C16.7861 14.848 16.8746 15.0615 17.032 15.2188C17.1893 15.3762 17.4028 15.4647 17.6254 15.4647H43.6433V10.429Z" fill="#C3A962"/>
<path d="M1.67857 0.357178H0V18.8215H1.67857V0.357178Z" fill="#C3A962"/>
<path d="M1.67857 20.5007H0V44.0007H1.67857V20.5007Z" fill="#C3A962"/>
<path d="M43.6422 17.1429H17.6243C16.9571 17.1409 16.3179 16.875 15.8461 16.4032C15.3744 15.9315 15.1084 15.2922 15.1064 14.625V12.1072H3.35645V18.8215H43.6422V17.1429Z" fill="#C3A962"/>
<path d="M3.35645 5.39282H6.71359C8.04914 5.39282 9.33 5.92337 10.2744 6.86775C11.2188 7.81213 11.7493 9.09298 11.7493 10.4285H8.39216C7.05661 10.4285 5.77575 9.89799 4.83137 8.95361C3.88699 8.00923 3.35645 6.72838 3.35645 5.39282Z" fill="#C3A962"/>
<path d="M3.35645 25.5361H6.71359C8.04914 25.5361 9.33 26.0667 10.2744 27.0111C11.2188 27.9554 11.7493 29.2363 11.7493 30.5718H8.39216C7.05661 30.5718 5.77575 30.0413 4.83137 29.0969C3.88699 28.1525 3.35645 26.8717 3.35645 25.5361Z" fill="#C3A962"/>
</svg>
