<svg width="232" height="166" viewBox="0 0 232 166" fill="none" xmlns="http://www.w3.org/2000/svg">
<g clip-path="url(#clip0_14_1358)">
<path d="M156.954 31.6132L139.471 26.3911C139.471 25.3884 139.471 23.7519 139.471 23.0701C139.468 22.6176 139.528 22.167 139.647 21.7305C139.713 21.7728 139.787 21.8027 139.864 21.8187C139.941 21.831 140.019 21.831 140.096 21.8187C140.299 21.8233 140.5 21.7709 140.675 21.6676C140.85 21.5642 140.993 21.4139 141.087 21.2338C141.181 21.0536 141.223 20.8506 141.208 20.6478C141.193 20.445 141.122 20.2505 141.002 20.0861C141.62 19.4684 140.882 18.6983 140.449 18.3133V18.2732C140.449 16.5806 142.101 14.0297 143.657 13.043C145.093 12.1446 146.536 12.3933 147.483 12.3933C148.429 12.3933 147.731 11.0055 147.186 10.5082C146.785 10.2029 146.309 10.0136 145.808 9.96129C145.307 9.90894 144.802 9.99547 144.347 10.2114C144.347 8.71938 142.911 8.51884 142.261 9.46539C141.612 10.4119 142.109 11.0055 141.869 11.7034C141.764 11.0537 141.917 10.0109 141.018 9.9146C140.12 9.81834 139.575 10.7569 139.631 11.5991C139.62 11.3442 139.534 11.0983 139.382 10.8928C139.231 10.6873 139.022 10.5315 138.782 10.4454C138.542 10.3593 138.281 10.3468 138.034 10.4094C137.787 10.472 137.564 10.607 137.393 10.797C137.274 10.9702 137.195 11.1683 137.164 11.3764C137.132 11.5845 137.148 11.797 137.211 11.9979C137.273 12.1989 137.381 12.3829 137.525 12.5362C137.669 12.6895 137.846 12.8079 138.043 12.8826C137.738 12.9307 136.792 13.4762 137.145 14.3746C137.69 15.7624 138.885 14.9201 139.286 14.8239C139.687 14.7276 140.224 15.0725 138.933 15.8667C138.493 16.141 137.968 16.2438 137.458 16.1554C137.097 16.1152 136.754 15.9796 136.464 15.7624C136.173 15.5452 135.946 15.2545 135.805 14.9201C135.549 14.0778 135.605 13.7249 134.586 14.4308C133.568 15.1367 130.007 14.5511 130.576 10.8852C130.713 9.99482 131.186 9.88252 131.378 10.5964C131.659 11.551 132.309 12.5377 133.207 11.928C133.431 11.7614 133.597 11.5281 133.68 11.2616C133.764 10.995 133.761 10.7088 133.672 10.444C133.884 10.6084 134.134 10.7154 134.399 10.7546C134.664 10.7939 134.934 10.764 135.184 10.668C135.434 10.5721 135.655 10.4131 135.826 10.2066C135.997 10.0002 136.111 9.75314 136.158 9.48946C136.179 9.22258 136.13 8.95496 136.017 8.71247C135.903 8.46997 135.729 8.2608 135.512 8.10515C135.294 7.9495 135.04 7.85265 134.774 7.82394C134.508 7.79524 134.239 7.83565 133.993 7.94128C134.152 7.70977 134.231 7.43303 134.22 7.1525C134.208 6.87196 134.106 6.60272 133.929 6.38508C133.794 6.25298 133.627 6.15769 133.444 6.10829C133.262 6.05889 133.07 6.05702 132.887 6.10286C132.703 6.1487 132.535 6.24072 132.397 6.37016C132.26 6.4996 132.157 6.66214 132.1 6.84231C131.996 7.55624 131.483 7.29152 131.483 7.29152C131.417 7.22 131.367 7.13469 131.338 7.04174C131.309 6.9488 131.301 6.85054 131.314 6.75407C131.416 6.48002 131.611 6.25008 131.864 6.10371C132.117 5.95734 132.413 5.90367 132.702 5.95191C132.947 5.97214 133.195 5.93175 133.421 5.83427C133.648 5.73678 133.847 5.58519 134.001 5.39277C134.156 5.20036 134.26 4.973 134.307 4.73064C134.353 4.48828 134.339 4.2383 134.266 4.00265C134.181 3.8302 134.059 3.67918 133.908 3.56097C133.756 3.44277 133.58 3.36048 133.392 3.3203C133.205 3.28013 133.01 3.28313 132.824 3.32907C132.638 3.37502 132.464 3.46271 132.317 3.58552C132.495 3.37694 132.614 3.12466 132.661 2.85472C132.709 2.58478 132.684 2.30697 132.589 2.04997C132.493 1.79298 132.331 1.56611 132.119 1.39279C131.906 1.21946 131.652 1.10598 131.381 1.06404C131.11 1.0221 130.833 1.05324 130.578 1.15422C130.323 1.25521 130.1 1.4224 129.931 1.63852C129.763 1.85463 129.655 2.11185 129.619 2.38362C129.583 2.65538 129.62 2.93183 129.726 3.18444C129.349 2.75929 128.475 2.14163 127.745 2.9839C127.604 3.18575 127.514 3.41925 127.483 3.66394C127.453 3.90862 127.483 4.15703 127.571 4.3874C127.659 4.61778 127.802 4.8231 127.987 4.98537C128.173 5.14764 128.395 5.26192 128.636 5.3182C128.915 5.35565 129.174 5.48329 129.374 5.68168C129.573 5.88007 129.703 6.13835 129.742 6.41716C129.724 6.51688 129.684 6.61148 129.626 6.69453C129.568 6.77758 129.493 6.84714 129.405 6.89846C129.405 6.89846 128.844 6.99472 128.956 6.2808C128.956 6.09208 128.907 5.9066 128.815 5.74197C128.723 5.57734 128.59 5.43903 128.429 5.34017C128.269 5.24131 128.085 5.18519 127.897 5.17713C127.708 5.16907 127.521 5.20935 127.352 5.29413C127.118 5.44557 126.939 5.66889 126.842 5.93063C126.745 6.19238 126.736 6.47846 126.815 6.74605C126.615 6.57011 126.372 6.44892 126.111 6.39423C125.85 6.33954 125.58 6.3532 125.325 6.4339C125.071 6.51459 124.842 6.65958 124.661 6.85481C124.479 7.05004 124.351 7.28889 124.289 7.54822C124.269 7.67312 124.269 7.80033 124.289 7.92523C124.323 8.15755 124.408 8.37945 124.538 8.57526C124.668 8.77106 124.839 8.936 125.039 9.05841C125.24 9.18082 125.464 9.25773 125.698 9.2837C125.931 9.30967 126.167 9.28406 126.39 9.2087C126.224 9.43436 126.135 9.70693 126.135 9.9868C126.135 10.2667 126.224 10.5392 126.39 10.7649C127.056 11.6152 127.994 10.8772 128.531 10.059C128.916 9.48143 129.333 9.66593 129.245 10.4119C129.248 10.4681 129.248 10.5243 129.245 10.5804C128.676 14.2463 125.235 13.7409 124.353 12.7302C123.174 11.4307 123.294 12.5457 122.372 13.38C121.94 13.7064 121.426 13.9051 120.887 13.9533C120.348 14.0015 119.807 13.8974 119.324 13.6527C118.378 13.1874 117.616 12.1607 117.616 10.3398C117.616 9.3932 118.097 9.20068 118.418 9.90658C118.867 10.8531 119.701 11.7756 120.535 10.9975C120.738 10.7888 120.87 10.5223 120.915 10.235C120.96 9.94756 120.914 9.65343 120.784 9.3932C121.027 9.53727 121.304 9.61463 121.586 9.61745C121.868 9.62028 122.147 9.54846 122.392 9.40927C122.638 9.27008 122.843 9.06845 122.986 8.82476C123.129 8.58108 123.205 8.30398 123.206 8.02149C123.195 7.7355 123.108 7.45763 122.954 7.21668C122.799 6.97574 122.583 6.7805 122.328 6.6512C122.073 6.5219 121.787 6.46325 121.502 6.48134C121.216 6.49943 120.941 6.5936 120.704 6.75407C120.831 6.48738 120.868 6.18627 120.809 5.89663C120.75 5.607 120.597 5.34471 120.375 5.14974C120.211 5.03494 120.021 4.96433 119.821 4.94472C119.622 4.92512 119.422 4.95719 119.239 5.03783C119.056 5.11847 118.897 5.24497 118.777 5.40509C118.657 5.56521 118.58 5.75355 118.554 5.95191C118.554 6.70594 117.985 6.52145 117.985 6.52145C117.904 6.45676 117.839 6.37508 117.793 6.2822C117.747 6.18932 117.722 6.08751 117.72 5.98399C117.775 5.67889 117.937 5.40331 118.177 5.20642C118.416 5.00953 118.718 4.90415 119.028 4.90909C119.287 4.88794 119.537 4.80397 119.757 4.66443C119.977 4.52489 120.159 4.33396 120.289 4.10813C120.418 3.88231 120.491 3.62836 120.5 3.36821C120.51 3.10806 120.456 2.84952 120.343 2.6149C120.227 2.44797 120.075 2.30972 119.897 2.21073C119.72 2.11175 119.523 2.05465 119.32 2.04382C119.117 2.03298 118.914 2.06868 118.727 2.1482C118.541 2.22772 118.374 2.34895 118.242 2.5026C118.386 2.25901 118.464 1.9815 118.466 1.69827C118.469 1.41504 118.396 1.13619 118.256 0.890055C118.116 0.643921 117.913 0.439279 117.668 0.296927C117.423 0.154576 117.145 0.0795898 116.862 0.0795898C116.579 0.0795898 116.301 0.154576 116.056 0.296927C115.811 0.439279 115.608 0.643921 115.468 0.890055C115.328 1.13619 115.256 1.41504 115.258 1.69827C115.261 1.9815 115.338 2.25901 115.483 2.5026C115.35 2.34895 115.184 2.22772 114.997 2.1482C114.81 2.06868 114.607 2.03298 114.405 2.04382C114.202 2.05465 114.004 2.11175 113.827 2.21073C113.65 2.30972 113.497 2.44797 113.381 2.6149C113.269 2.84952 113.215 3.10806 113.224 3.36821C113.234 3.62836 113.306 3.88231 113.436 4.10813C113.565 4.33396 113.748 4.52489 113.967 4.66443C114.187 4.80397 114.437 4.88794 114.697 4.90909C114.999 4.90654 115.294 5.0091 115.529 5.19928C115.764 5.38945 115.927 5.65546 115.988 5.95191C115.986 6.05542 115.961 6.15723 115.915 6.25011C115.87 6.34299 115.804 6.42467 115.723 6.48936C115.723 6.48936 115.154 6.67386 115.154 5.91982C115.129 5.72015 115.052 5.53041 114.932 5.36915C114.812 5.20789 114.651 5.08062 114.467 4.99979C114.283 4.91896 114.081 4.88732 113.881 4.90798C113.681 4.92864 113.489 5.00089 113.325 5.11766C113.107 5.31513 112.957 5.57779 112.9 5.86675C112.842 6.1557 112.879 6.45558 113.005 6.72199C112.765 6.55371 112.484 6.45413 112.192 6.434C111.901 6.41388 111.609 6.47399 111.349 6.60783C111.088 6.74166 110.87 6.94412 110.716 7.1933C110.563 7.44247 110.481 7.72887 110.478 8.02149C110.479 8.30297 110.553 8.57942 110.694 8.82308C110.835 9.06674 111.037 9.26904 111.281 9.40965C111.525 9.55027 111.801 9.62425 112.083 9.62418C112.364 9.62411 112.641 9.54998 112.884 9.40924C112.754 9.66947 112.709 9.9636 112.753 10.251C112.798 10.5384 112.93 10.8049 113.133 11.0136C113.935 11.8157 114.801 10.8692 115.25 9.92262C115.579 9.21672 116.052 9.40924 116.052 10.3558C116.052 14.2704 112.547 14.519 111.304 13.396C110.382 12.5938 110.502 11.4467 109.323 12.7462C108.417 13.757 105.001 14.2623 104.431 10.5964C104.428 10.5403 104.428 10.4841 104.431 10.428C104.375 9.68197 104.76 9.49748 105.145 10.075C105.698 10.8772 106.613 11.6312 107.286 10.7809C107.452 10.5553 107.541 10.2827 107.541 10.0028C107.541 9.72298 107.452 9.4504 107.286 9.22474C107.509 9.30011 107.745 9.32571 107.978 9.29974C108.212 9.27377 108.437 9.19687 108.637 9.07445C108.837 8.95204 109.008 8.7871 109.138 8.5913C109.268 8.3955 109.353 8.1736 109.388 7.94128C109.407 7.81637 109.407 7.68916 109.388 7.56426C109.325 7.30493 109.197 7.06608 109.016 6.87085C108.834 6.67562 108.605 6.53064 108.351 6.44994C108.097 6.36925 107.826 6.35558 107.565 6.41027C107.304 6.46496 107.062 6.58615 106.861 6.7621C106.941 6.49371 106.931 6.20656 106.833 5.94442C106.734 5.68228 106.553 5.45955 106.316 5.31018C106.148 5.2205 105.959 5.17637 105.769 5.1822C105.579 5.18802 105.393 5.24358 105.231 5.34336C105.069 5.44314 104.935 5.58365 104.844 5.75093C104.753 5.91821 104.708 6.10642 104.712 6.29684C104.816 7.01077 104.255 6.91451 104.255 6.91451C104.167 6.86448 104.092 6.79515 104.035 6.71176C103.978 6.62838 103.941 6.53312 103.926 6.43321C103.943 6.14231 104.058 5.86586 104.254 5.64986C104.449 5.43387 104.713 5.29134 105.001 5.246C105.241 5.18973 105.463 5.07545 105.649 4.91317C105.834 4.7509 105.977 4.54559 106.065 4.31521C106.153 4.08483 106.183 3.83642 106.153 3.59174C106.122 3.34706 106.032 3.11356 105.891 2.9117C105.161 2.10954 104.287 2.6871 103.91 3.11224C104.015 2.86096 104.05 2.58629 104.014 2.31652C103.977 2.04675 103.869 1.79161 103.701 1.57736C103.534 1.36311 103.312 1.19749 103.058 1.09755C102.805 0.9976 102.53 0.966936 102.261 1.00871C101.992 1.05048 101.739 1.16319 101.528 1.33522C101.317 1.50726 101.156 1.73241 101.061 1.98751C100.966 2.24261 100.94 2.51844 100.987 2.78662C101.034 3.0548 101.151 3.30564 101.327 3.51333C101.179 3.39048 101.005 3.30278 100.818 3.25683C100.631 3.21088 100.436 3.20785 100.248 3.24799C100.06 3.28812 99.883 3.37037 99.731 3.48856C99.579 3.60676 99.4558 3.75783 99.3705 3.93045C99.2975 4.16611 99.2835 4.41608 99.3295 4.65844C99.3756 4.90081 99.4804 5.12816 99.6348 5.32058C99.7892 5.51299 99.9884 5.66459 100.215 5.76207C100.442 5.85955 100.689 5.89995 100.934 5.87971C101.223 5.83148 101.519 5.88515 101.772 6.03152C102.025 6.17789 102.22 6.40783 102.322 6.68188C102.334 6.77829 102.325 6.87612 102.296 6.96881C102.267 7.0615 102.218 7.14691 102.153 7.21933C102.153 7.21933 101.648 7.48404 101.536 6.77012C101.479 6.58995 101.377 6.42741 101.239 6.29797C101.101 6.16853 100.933 6.07651 100.749 6.03067C100.566 5.98483 100.374 5.9867 100.192 6.0361C100.009 6.0855 99.8425 6.18079 99.7074 6.31288C99.5288 6.52964 99.4253 6.79842 99.4123 7.07897C99.3993 7.35951 99.4775 7.63672 99.6352 7.86908C99.3898 7.76286 99.121 7.72203 98.8552 7.75058C98.5893 7.77914 98.3354 7.87609 98.1181 8.03201C97.9008 8.18792 97.7277 8.39747 97.6154 8.64024C97.5032 8.88301 97.4558 9.15071 97.4778 9.41726C97.5184 9.68299 97.6272 9.93367 97.7935 10.1449C97.9598 10.3561 98.1779 10.5206 98.4267 10.6223C98.6755 10.7241 98.9463 10.7597 99.2129 10.7257C99.4795 10.6916 99.7328 10.589 99.948 10.428C99.859 10.6928 99.8561 10.979 99.9396 11.2455C100.023 11.5121 100.189 11.7454 100.413 11.912C101.311 12.5216 101.961 11.535 102.242 10.5804C102.45 9.86647 102.915 9.97878 103.044 10.8692C103.613 14.5351 100.148 15.1768 99.0337 14.4147C97.9189 13.6527 98.0553 14.0618 97.8066 14.9041C97.6566 15.2551 97.4123 15.5579 97.1009 15.7787C96.7895 15.9996 96.4231 16.1299 96.0422 16.1554C95.5664 16.2098 95.0862 16.1024 94.6788 15.8506C93.3876 15.0485 93.933 14.7035 94.326 14.8078C94.7189 14.9121 95.93 15.7463 96.4673 14.3586C96.8202 13.4602 95.8738 12.9147 95.5691 12.8666C95.7648 12.7906 95.9408 12.6715 96.0841 12.5181C96.2274 12.3647 96.3342 12.1809 96.3967 11.9804C96.4591 11.78 96.4755 11.568 96.4447 11.3603C96.4139 11.1527 96.3366 10.9546 96.2187 10.7809C96.0484 10.5909 95.8253 10.456 95.578 10.3934C95.3307 10.3308 95.0703 10.3433 94.8302 10.4294C94.59 10.5155 94.381 10.6712 94.2297 10.8767C94.0785 11.0822 93.9919 11.3282 93.9811 11.5831C94.0372 10.7809 93.532 9.78626 92.5936 9.89856C91.6553 10.0109 91.8478 11.0376 91.7435 11.6874C91.4949 10.9895 91.9921 10.3879 91.3505 9.44935C91.2243 9.21092 91.0165 9.02591 90.7651 8.92816C90.5137 8.83041 90.2355 8.82645 89.9814 8.91701C89.7273 9.00756 89.5143 9.18658 89.3813 9.42132C89.2484 9.65605 89.2044 9.93082 89.2573 10.1954C88.8051 9.97992 88.3021 9.89363 87.804 9.946C87.3058 9.99838 86.8318 10.1874 86.4343 10.4922C85.8809 10.9895 85.1832 12.3772 86.1295 12.3772C87.0759 12.3772 88.5355 12.1286 89.9551 13.027C91.5591 14.0137 93.1631 16.5646 93.1631 18.2571V18.2972C92.7139 18.6983 91.9601 19.4925 92.6578 20.1181C92.5616 20.278 92.5108 20.461 92.5108 20.6476C92.5108 20.8341 92.5616 21.0172 92.6578 21.177C92.8004 21.385 92.9921 21.5547 93.2159 21.6708C93.4398 21.787 93.6888 21.846 93.941 21.8428C94.0344 21.8516 94.1283 21.8516 94.2217 21.8428C94.2971 21.8258 94.37 21.7989 94.4382 21.7626C94.557 22.1964 94.6163 22.6444 94.6147 23.0942C94.6147 23.7439 94.6147 25.268 94.6147 26.3028L76.69 31.6132C81.5982 46.8543 73.5622 67.3817 54.3623 69.6358C54.3623 130.32 114.216 159.077 116.774 160.28V160.321H116.822H116.87V160.28C119.437 159.077 179.282 130.32 179.282 69.6358C160.034 67.3817 152.014 46.9746 156.954 31.6132ZM143.192 10.428C143.365 11.1664 143.446 11.9236 143.432 12.6821C143.978 12.0403 145.437 11.8799 146.191 12.0724C144.878 12.083 143.615 12.5803 142.646 13.4682C143.181 12.5509 143.374 11.474 143.192 10.428ZM87.6373 11.7195C88.3992 11.5671 89.8588 11.7195 90.4042 12.3291C90.3903 11.5707 90.4711 10.8135 90.6448 10.075C90.4654 11.122 90.6614 12.1987 91.1981 13.1152C90.2221 12.2296 88.9551 11.7329 87.6373 11.7195ZM138.324 14.0458C138.763 13.7498 139.261 13.5528 139.783 13.4682C139.338 12.9585 138.922 12.4228 138.54 11.8639C139.199 12.3212 139.829 12.8195 140.425 13.3559C140.44 12.9043 140.543 12.46 140.73 12.0484C140.626 12.4856 140.623 12.941 140.724 13.3792C140.824 13.8174 141.023 14.2266 141.307 14.5752C140.912 14.2116 140.421 13.9685 139.893 13.8747C139.364 13.7809 138.82 13.8403 138.324 14.0458ZM137.762 17.094C137.859 17.123 137.959 17.1444 138.059 17.1582H138.444H138.661H138.757L138.973 17.11H139.037C139.128 17.0841 139.216 17.0519 139.302 17.0138H139.366H139.543L139.615 16.9737C139.666 16.949 139.714 16.9195 139.759 16.8854L139.815 16.8453C139.867 16.8066 139.915 16.7637 139.96 16.717C139.821 17.2709 139.804 17.8486 139.912 18.4095C139.233 17.9421 138.504 17.5519 137.738 17.2464C137.635 17.2153 137.535 17.1722 137.441 17.118L137.762 17.094ZM127.433 9.62582C127.434 9.41128 127.485 9.19994 127.581 9.00804C127.677 8.81614 127.815 8.64879 127.986 8.51884C127.301 8.39731 126.626 8.22845 125.965 8.01347C126.659 8.01605 127.353 8.06159 128.042 8.14984C127.919 7.97309 127.839 7.77049 127.807 7.55768C127.775 7.34487 127.792 7.12756 127.858 6.92253C127.873 7.11894 127.93 7.30984 128.024 7.48283C128.119 7.65581 128.248 7.80699 128.405 7.92654C128.562 8.04609 128.742 8.13133 128.933 8.17671C129.125 8.22209 129.324 8.2266 129.518 8.18995C129.518 8.18995 130.135 8.18995 130.368 7.03483C130.368 6.81825 130.44 6.62573 130.464 6.43321C130.608 5.22194 130.272 4.74866 129.478 4.45988C129.692 4.46019 129.904 4.51034 130.096 4.60639C130.288 4.70243 130.455 4.84175 130.584 5.01338C130.734 4.33305 130.918 3.66099 131.138 2.99994C131.148 3.69893 131.118 4.39792 131.05 5.09359C131.225 4.96835 131.427 4.88574 131.64 4.85233C131.853 4.81891 132.071 4.8356 132.277 4.90107C131.41 4.90107 130.945 5.30215 130.721 6.58562C130.721 6.73803 130.665 6.89846 130.649 7.07494C130.512 8.25412 131.106 8.43862 131.106 8.43862C131.278 8.5337 131.468 8.59134 131.664 8.60775C131.86 8.62416 132.057 8.59897 132.243 8.53383C132.428 8.4687 132.598 8.36509 132.74 8.2298C132.883 8.0945 132.996 7.93057 133.071 7.74876C133.072 7.96261 133.022 8.17366 132.926 8.36466C132.83 8.55565 132.69 8.72118 132.517 8.84772C133.201 8.97328 133.876 9.14207 134.538 9.35309C133.844 9.35585 133.15 9.31298 132.461 9.22474C132.586 9.39585 132.669 9.59338 132.706 9.80203C132.742 10.0107 132.729 10.2249 132.67 10.428C132.653 10.2323 132.595 10.0423 132.5 9.87023C132.406 9.6982 132.276 9.54797 132.119 9.42927C131.963 9.31057 131.783 9.22604 131.592 9.18113C131.401 9.13623 131.202 9.13196 131.009 9.16859C130.392 9.23276 130.111 9.75417 129.951 10.7007C129.951 10.7649 129.951 10.8371 129.951 10.9013C129.951 10.7569 129.951 10.6285 130.007 10.5002C130.095 9.69802 129.967 9.14452 129.438 8.89585C129.261 8.79465 129.065 8.73317 128.863 8.71571C128.66 8.69824 128.456 8.72521 128.265 8.79473C128.074 8.86425 127.901 8.97465 127.757 9.1182C127.613 9.26175 127.502 9.43499 127.433 9.62582ZM129.622 12.9869C129.622 13.9254 131.017 14.7757 131.611 15.1207C130.12 14.8115 128.608 14.6104 127.088 14.519C128.162 14.4388 129.397 13.8292 129.622 12.9869ZM115.988 8.59905C115.793 8.52774 115.584 8.49856 115.377 8.51344C115.169 8.52832 114.967 8.58692 114.784 8.6854C114.601 8.78387 114.44 8.91999 114.313 9.08483C114.186 9.24967 114.096 9.4395 114.047 9.64187C114.013 9.41772 114.032 9.18883 114.102 8.97311C114.171 8.7574 114.29 8.56073 114.448 8.39851C113.715 8.38027 112.983 8.31327 112.259 8.19797C112.984 8.08835 113.715 8.02405 114.448 8.00545C114.289 7.84201 114.17 7.64397 114.101 7.42686C114.031 7.20975 114.013 6.97946 114.047 6.75407C114.095 6.95716 114.185 7.14786 114.311 7.31361C114.438 7.47936 114.598 7.6164 114.781 7.71569C114.965 7.81498 115.167 7.87426 115.375 7.88964C115.583 7.90502 115.792 7.87614 115.988 7.80491C115.988 7.80491 116.638 7.70063 116.686 6.45727C116.686 6.27277 116.686 6.0963 116.686 5.93587C116.686 4.56416 116.229 4.10693 115.338 3.93045C115.562 3.89319 115.791 3.90938 116.007 3.9777C116.223 4.04602 116.42 4.16452 116.581 4.32351C116.627 3.59247 116.71 2.86423 116.83 2.14163C116.954 2.86364 117.037 3.59211 117.079 4.32351C117.248 4.15455 117.457 4.03023 117.687 3.96165C117.916 3.89307 118.159 3.88235 118.394 3.93045C117.504 4.10693 117.079 4.56416 117.047 5.94389C117.047 6.0963 117.047 6.27277 117.047 6.45727C117.095 7.70063 117.744 7.80491 117.744 7.80491C117.94 7.87613 118.148 7.90498 118.356 7.88954C118.563 7.8741 118.765 7.81473 118.948 7.71536C119.13 7.61599 119.29 7.4789 119.416 7.31317C119.542 7.14744 119.631 6.95686 119.677 6.75407C119.715 6.982 119.699 7.21574 119.629 7.43608C119.56 7.65642 119.439 7.85706 119.276 8.02149C120.007 8.03978 120.735 8.10408 121.458 8.21401C120.736 8.32953 120.007 8.39653 119.276 8.41455C119.434 8.5768 119.552 8.77374 119.62 8.98962C119.688 9.20551 119.705 9.43437 119.669 9.65791C119.622 9.45583 119.532 9.26613 119.406 9.10132C119.28 8.9365 119.12 8.80032 118.937 8.70177C118.755 8.60323 118.553 8.54454 118.346 8.5296C118.139 8.51466 117.931 8.5438 117.736 8.6151C117.103 8.78355 116.934 9.36913 116.886 10.3879C116.882 10.4439 116.882 10.5003 116.886 10.5563V10.3799C116.862 9.35309 116.654 8.76751 116.028 8.59905H115.988ZM116.99 12.4334C117.071 13.1313 117.961 13.9495 119.084 14.2704L119.429 14.3506C117.814 14.0512 116.159 14.0512 114.544 14.3506C115.868 14.1099 116.926 13.2035 117.031 12.4334H116.99ZM102.603 9.22474C102.416 9.19292 102.225 9.19908 102.041 9.24285C101.858 9.28663 101.684 9.36712 101.532 9.4795C101.38 9.59187 101.252 9.73381 101.157 9.8968C101.061 10.0598 100.999 10.2405 100.975 10.428C100.91 10.2238 100.893 10.0072 100.927 9.79561C100.96 9.58398 101.042 9.38303 101.167 9.2087C100.478 9.29693 99.7843 9.33981 99.0898 9.33704C99.7519 9.12509 100.427 8.95629 101.111 8.83168C100.939 8.70514 100.799 8.53961 100.702 8.34861C100.606 8.15761 100.557 7.94657 100.557 7.73271C100.632 7.91453 100.745 8.07846 100.888 8.21375C101.03 8.34905 101.2 8.45266 101.385 8.51779C101.571 8.58293 101.768 8.60811 101.964 8.5917C102.16 8.5753 102.35 8.51766 102.522 8.42258C102.522 8.42258 103.116 8.23808 102.98 7.0589C102.98 6.89044 102.98 6.72199 102.915 6.5776C102.683 5.28611 102.21 4.91712 101.311 4.88503C101.515 4.81961 101.732 4.80295 101.944 4.83639C102.155 4.86982 102.356 4.95242 102.53 5.07755C102.466 4.38164 102.439 3.68272 102.45 2.9839C102.668 3.64472 102.85 4.31685 102.996 4.99733C103.125 4.82661 103.293 4.68795 103.485 4.592C103.677 4.49605 103.888 4.44537 104.102 4.44384C103.3 4.73262 102.98 5.20589 103.124 6.41716C103.124 6.60434 103.156 6.80488 103.22 7.01879C103.445 8.1739 104.07 8.1739 104.07 8.1739C104.264 8.21056 104.463 8.20605 104.655 8.16067C104.846 8.11529 105.026 8.03005 105.183 7.9105C105.34 7.79095 105.469 7.63976 105.563 7.46678C105.658 7.2938 105.715 7.1029 105.73 6.90648C105.798 7.11169 105.815 7.32996 105.782 7.54334C105.749 7.75671 105.665 7.95909 105.538 8.1338C106.23 8.0456 106.926 8.00006 107.623 7.99743C106.959 8.2127 106.281 8.38156 105.594 8.50279C105.767 8.63149 105.907 8.79839 106.005 8.99043C106.102 9.18247 106.154 9.39445 106.155 9.60978C106.08 9.42771 105.966 9.26365 105.823 9.12831C105.679 8.99297 105.509 8.88939 105.323 8.8243C105.137 8.75921 104.939 8.73409 104.743 8.75056C104.546 8.76704 104.355 8.82474 104.183 8.91992C103.661 9.14452 103.533 9.66593 103.621 10.5242C103.63 10.6587 103.646 10.7926 103.669 10.9253C103.674 10.8639 103.674 10.8022 103.669 10.7408C103.533 9.78626 103.26 9.25683 102.643 9.19265L102.603 9.22474ZM103.958 13.019C104.207 13.8211 105.442 14.4549 106.492 14.5511C104.972 14.642 103.46 14.843 101.969 15.1527C102.603 14.7757 103.998 13.9254 103.998 12.9869L103.958 13.019ZM96.1305 17.0298C96.0418 17.0862 95.9442 17.1269 95.8417 17.1501L96.1305 17.0298ZM93.9651 16.8854L94.0372 16.9255H94.2137H94.2778L94.5345 17.0218H94.6066L94.8232 17.0699H94.9194H95.128H95.8337C95.0723 17.3788 94.3463 17.7688 93.6683 18.2331C93.7757 17.6721 93.7592 17.0944 93.6202 16.5405C93.6647 16.5872 93.713 16.6301 93.7646 16.6688L93.8207 16.7089C93.8759 16.7624 93.9379 16.8082 94.0051 16.8453L93.9651 16.8854ZM92.4894 14.2784C92.7731 13.9298 92.9727 13.5205 93.0729 13.0824C93.173 12.6442 93.1709 12.1888 93.0668 11.7516C93.257 12.1619 93.3607 12.607 93.3716 13.0591C93.9679 12.5227 94.5974 12.0244 95.2563 11.5671C94.8767 12.1279 94.4615 12.6638 94.0132 13.1714C94.5358 13.256 95.0338 13.453 95.4728 13.749C94.9882 13.5414 94.4548 13.4749 93.9341 13.5572C93.4134 13.6396 92.9265 13.8673 92.5295 14.2142L92.4894 14.2784ZM94.2859 21.4176C94.2324 21.4599 94.1688 21.4876 94.1014 21.4979C94.0375 21.5067 93.9728 21.5067 93.9089 21.4979C93.3636 21.4979 92.5936 21.0727 93.0107 20.3508C94.0212 19.5486 96.363 17.7277 101.319 16.4041C105.033 15.4094 111.024 15.1287 114.416 15.0404C115.603 15.0404 116.477 15.0404 116.822 15.0404C118.113 15.0404 127.248 15.0966 132.253 16.4362C137.257 17.7758 139.607 19.6449 140.601 20.447H140.641C140.726 20.5521 140.778 20.679 140.792 20.8128C140.807 20.9467 140.783 21.0818 140.723 21.2024C140.663 21.323 140.57 21.4239 140.455 21.4933C140.339 21.5627 140.207 21.5977 140.072 21.5941H139.928C139.861 21.578 139.798 21.548 139.743 21.5059C137.363 19.7253 134.628 18.4777 131.723 17.848C126.895 16.8374 121.971 16.3613 117.039 16.4282C112.112 16.3117 107.188 16.7368 102.354 17.6956C99.4492 18.3253 96.714 19.5728 94.334 21.3535L94.2859 21.4176ZM117.031 156.27V156.31H116.982V156.27C114.576 155.155 59.1021 129.269 59.1021 72.9888C76.7461 70.085 85.7606 50.9935 81.0368 36.3138L113.373 26.9045C114.592 26.8563 115.884 26.8242 117.263 26.8242C118.474 26.8242 119.669 26.8242 120.728 26.8884L152.936 35.9368C148.124 51.0015 157.163 69.708 174.943 72.9247C174.943 129.205 119.445 155.09 117.071 156.205L117.031 156.27Z" fill="#EEC89C"/>
<path d="M139.984 16.5645C139.939 16.6112 139.891 16.6541 139.839 16.6928L139.783 16.7329C139.738 16.767 139.69 16.7965 139.639 16.8211L139.567 16.8613H139.39H139.326C139.24 16.8994 139.152 16.9316 139.061 16.9575H138.997L138.781 17.0056H138.685H138.468H138.059C137.959 16.9919 137.859 16.9705 137.762 16.9415C138.528 17.247 139.257 17.6372 139.936 18.1046C139.85 17.5931 139.866 17.0696 139.984 16.5645Z" fill="#EEC89C"/>
<path d="M137.465 16.9658C137.559 17.02 137.658 17.0631 137.762 17.0942L137.465 16.9658Z" fill="#EEC89C"/>
<path d="M171.526 75.211C170.678 75.03 169.84 74.8051 169.016 74.5372C162.112 72.2791 156.314 67.5015 152.775 61.157C149.257 55.1406 148.062 48.0445 149.415 41.2072C149.575 40.4612 149.768 39.7232 150.001 39.0013C150.007 38.9828 150.009 38.9634 150.008 38.944C150.006 38.9246 150.001 38.9058 149.992 38.8885C149.983 38.8713 149.97 38.8561 149.955 38.8437C149.94 38.8314 149.923 38.8222 149.904 38.8168L116.974 29.287C116.945 29.2568 116.904 29.2395 116.862 29.2389H116.79C116.764 29.2336 116.736 29.2352 116.711 29.2437C116.686 29.2521 116.663 29.2671 116.645 29.287L83.7954 39.3061C83.7768 39.3115 83.7594 39.3207 83.7444 39.3331C83.7294 39.3454 83.717 39.3606 83.7081 39.3778C83.6991 39.3951 83.6937 39.4139 83.6921 39.4333C83.6906 39.4527 83.693 39.4722 83.6992 39.4906C83.8676 40.1082 84.02 40.7339 84.1483 41.3676C85.3616 48.2903 84.089 55.4191 80.5553 61.494C77.0362 67.8968 71.1341 72.6529 64.1304 74.7297C63.4808 74.9142 62.8071 75.0746 62.1174 75.211C62.0841 75.2181 62.0541 75.2362 62.0323 75.2624C62.0105 75.2886 61.9981 75.3213 61.9971 75.3554C61.9971 128.435 112.94 152.363 116.589 154.112H116.645C116.659 154.136 116.678 154.157 116.702 154.171C116.726 154.185 116.754 154.193 116.782 154.192H116.862C116.89 154.193 116.918 154.187 116.942 154.172C116.966 154.158 116.986 154.137 116.998 154.112H117.062C120.76 152.371 171.646 128.443 171.646 75.3554C171.649 75.3205 171.638 75.286 171.615 75.2591C171.593 75.2323 171.561 75.215 171.526 75.211ZM164.308 106.568C159.7 116.667 153.198 125.789 145.156 133.44C140.974 137.494 136.477 141.209 131.707 144.55C126.995 147.894 122.017 150.845 116.822 153.374C111.635 150.844 106.665 147.893 101.961 144.55C97.1919 141.213 92.6971 137.501 88.5192 133.448C80.472 125.798 73.9654 116.676 69.3514 106.576C65.0575 96.8963 62.8339 86.426 62.8231 75.8367C63.3043 75.7404 63.7695 75.6281 64.2347 75.4998C71.6692 73.4703 77.5398 68.2321 81.205 61.8148C84.8701 55.3975 86.3137 47.817 84.9503 41.0869C84.8621 40.6617 84.7578 40.2366 84.6536 39.8195L116.83 30.0571L149.03 39.3703C148.864 39.905 148.72 40.4585 148.597 41.0307C147.097 47.7689 148.525 55.221 152.142 61.5501C155.771 68.0981 161.751 73.0238 168.872 75.3313C169.505 75.5238 170.155 75.7003 170.82 75.8447C170.813 86.4284 168.592 96.8936 164.3 106.568H164.308Z" fill="#EEC89C"/>
<path d="M210.985 96.0671C210.985 96.0671 208.755 92.9948 205.852 96.789C205.852 96.789 204.384 95.5056 202.852 95.9307C203.504 95.6923 204.039 95.2115 204.346 94.5883C204.652 93.9651 204.706 93.2477 204.496 92.5857C209.373 88.7674 205.515 87.6042 205.515 87.6042C208.162 80.2885 203.911 81.9891 203.911 81.9891C203.726 79.7911 203.382 78.5157 202.973 77.8659C202.945 77.7829 202.91 77.7024 202.868 77.6253C202.868 77.6253 204.705 77.3526 203.783 76.1734C203.683 75.8651 203.497 75.5919 203.246 75.3858C202.996 75.1797 202.693 75.0494 202.371 75.0102C204.32 74.7776 207.231 74.2081 205.579 73.2134C205.579 73.2134 210.856 68.1196 203.173 70.109C203.173 70.109 203.325 66.387 198.361 70.4299C198.361 70.4299 196.404 67.7667 194.784 72.5717C194.784 72.5717 191.672 72.708 192.956 76.414C192.956 76.414 189.643 77.3285 191.464 80.4249C191.464 80.4249 198.794 82.1254 197.246 79.2136C198.121 79.3353 199.002 79.3996 199.885 79.4061C199.524 80.0238 199.291 80.5372 199.291 80.5372C197.463 79.0772 198.016 82.6549 198.538 84.9972C198.363 84.6421 198.09 84.3442 197.752 84.1382C197.414 83.9323 197.024 83.8268 196.629 83.8341C194.896 83.2565 195.338 85.4384 195.338 85.4384C191.833 84.8929 195.795 92.4493 195.795 92.4493C191.785 91.8397 196.741 99.5886 196.741 99.5886C200.992 100.447 200.711 96.2596 200.711 96.2596C201.315 96.2667 201.917 96.1883 202.499 96.027C201.672 96.4136 201.023 97.1024 200.687 97.9522C200.687 97.9522 203.895 106.559 205.804 103.03C205.804 103.03 209.429 110.747 211.105 107.626C211.105 107.626 212.621 109.327 213.198 107.586C213.445 107.277 213.599 106.903 213.64 106.509C213.681 106.115 213.608 105.718 213.431 105.364C214.987 107.193 217.489 109.8 217.441 107.466C217.441 107.466 226.174 109.423 218.997 102.942C218.997 102.942 222.886 100.599 215.46 98.2891C215.572 98.273 216.975 94.4948 210.985 96.0671ZM199.299 74.0717C198.93 74.2642 198.57 74.4969 198.193 74.7054C197.816 74.914 197.455 75.1626 197.086 75.3953C196.717 75.6279 196.348 75.8766 195.995 76.1253C195.642 76.3739 195.297 76.6146 194.985 76.8793C194.672 77.144 194.351 77.3686 194.078 77.6333C193.806 77.898 193.525 78.1146 193.276 78.3472C193.028 78.5799 192.835 78.8045 192.643 78.997C192.45 79.1895 192.322 79.382 192.194 79.5264C191.945 79.8313 191.793 79.9997 191.793 79.9997C191.793 79.9997 191.881 79.7911 192.057 79.4382C192.158 79.2208 192.27 79.0093 192.394 78.8045C192.547 78.5799 192.715 78.3152 192.915 78.0023C193.116 77.6895 193.365 77.4568 193.621 77.2001C193.897 76.8955 194.188 76.6063 194.495 76.3338C194.818 76.0363 195.155 75.7552 195.506 75.4915C195.867 75.2188 196.236 74.9621 196.613 74.6894C196.99 74.4166 197.415 74.2161 197.776 74.0075C198.137 73.799 198.578 73.5904 198.947 73.4139C199.315 73.2375 199.7 73.077 200.061 72.9326C200.422 72.7882 200.767 72.6679 201.088 72.5556C201.798 72.3083 202.528 72.1205 203.269 71.9941L202.708 72.2668L201.272 72.9888L200.318 73.4942L199.299 74.0717ZM201.954 86.77C201.954 87.2433 201.914 87.7406 201.85 88.254C201.786 88.7674 201.729 89.2968 201.641 89.8583C201.553 90.4198 201.433 90.9332 201.328 91.4626C201.224 91.9921 201.04 92.5295 200.879 93.067C200.719 93.6044 200.526 94.0937 200.318 94.575C200.126 95.0381 199.909 95.4906 199.668 95.9307C199.436 96.3398 199.227 96.7329 198.987 97.0858C198.746 97.4388 198.513 97.7275 198.313 98.0003C198.127 98.2245 197.928 98.4387 197.719 98.642C197.383 98.987 197.182 99.1714 197.182 99.1714L197.559 98.5217C197.679 98.3131 197.848 98.0805 197.992 97.7837C198.137 97.4869 198.297 97.15 198.481 96.797C198.666 96.4441 198.802 95.9949 198.995 95.6098C199.187 95.2248 199.307 94.7194 199.492 94.2542C199.676 93.7889 199.773 93.2836 199.949 92.7862C200.125 92.2889 200.222 91.7594 200.35 91.2461C200.478 90.7327 200.599 90.2032 200.687 89.6417C200.775 89.0802 200.903 88.615 200.976 88.1176C201.048 87.6203 201.136 87.139 201.208 86.6817L201.393 85.3903C201.497 84.5881 201.585 83.9063 201.641 83.433L201.729 82.687C201.885 83.5906 201.965 84.5055 201.97 85.4223C201.97 85.8314 201.986 86.2967 201.954 86.77ZM217.192 104.249L216.542 103.864L214.834 102.885L213.687 102.252L212.404 101.57C211.963 101.321 211.482 101.113 211.017 100.872C210.551 100.631 210.054 100.431 209.565 100.198C209.076 99.9656 208.587 99.7811 208.097 99.5886C207.608 99.3961 207.127 99.2035 206.646 99.0672C206.165 98.9308 205.715 98.7463 205.274 98.642C204.833 98.5377 204.408 98.4094 204.015 98.3292C203.622 98.249 203.261 98.1928 202.932 98.1286C202.604 98.0645 202.323 98.0564 202.13 98.0243L201.385 97.9281L202.13 97.8238C202.417 97.7763 202.706 97.7494 202.997 97.7436C203.333 97.7436 203.718 97.7436 204.135 97.7436C204.553 97.7436 204.994 97.8318 205.467 97.888C205.94 97.9441 206.429 98.0805 206.942 98.2008C207.456 98.3212 207.953 98.4896 208.474 98.6581C208.996 98.8265 209.501 99.0591 210.014 99.2677C210.527 99.4763 211.017 99.733 211.498 99.9897C211.979 100.246 212.444 100.511 212.877 100.792C213.31 101.073 213.735 101.337 214.12 101.594C214.505 101.851 214.866 102.131 215.195 102.396C215.91 102.97 216.578 103.601 217.192 104.281V104.249Z" fill="#EEC89C"/>
<path d="M193.076 95.0003C193.236 87.2273 189.78 90.1873 189.78 90.1873C185.914 81.3635 184.968 90.1873 184.968 90.1873C182.77 89.3852 184.446 92.5938 185.69 94.6554C185.408 94.3758 185.052 94.1821 184.665 94.0969C184.277 94.0116 183.873 94.0384 183.5 94.1741C181.672 94.1741 182.802 96.1474 182.802 96.1474C179.314 96.749 185.481 102.637 185.481 102.637C181.527 103.335 188.689 109.054 188.689 109.054C192.996 108.501 191.384 104.626 191.384 104.626C195.907 103.078 193.694 99.9898 193.694 99.9898C197.094 94.872 193.076 95.0003 193.076 95.0003ZM190.373 103.247C190.341 103.747 190.283 104.245 190.197 104.739C190.126 105.182 190.032 105.621 189.916 106.054C189.796 106.455 189.676 106.816 189.571 107.137C189.47 107.411 189.352 107.679 189.218 107.939C189.01 108.38 188.882 108.621 188.882 108.621C188.882 108.621 188.93 108.348 189.026 107.883C189.074 107.642 189.154 107.37 189.194 107.081C189.234 106.792 189.283 106.391 189.347 105.998C189.411 105.605 189.403 105.156 189.451 104.707C189.499 104.257 189.451 103.76 189.491 103.263C189.531 102.765 189.451 102.252 189.451 101.722C189.451 101.193 189.379 100.664 189.339 100.118C189.299 99.5726 189.242 99.0512 189.162 98.5138C189.082 97.9763 189.034 97.471 188.938 96.9817C188.841 96.4923 188.785 96.003 188.697 95.5458C188.609 95.0885 188.537 94.6554 188.464 94.2543C188.304 93.4521 188.168 92.7944 188.072 92.3291L187.919 91.5911C188.35 92.3983 188.717 93.2377 189.018 94.1019C189.146 94.4949 189.307 94.904 189.427 95.3693C189.547 95.8346 189.7 96.3078 189.804 96.8132C189.908 97.3186 190.036 97.84 190.117 98.4175C190.197 98.9951 190.261 99.5005 190.341 100.022C190.421 100.543 190.405 101.121 190.421 101.626C190.437 102.132 190.421 102.725 190.373 103.247Z" fill="#EEC89C"/>
<path d="M198.185 49.5334C198.185 49.5334 195.779 52.004 198.907 53.7127C198.907 53.7127 206.084 51.4666 203.277 49.7419C203.277 49.7419 209.75 47.1028 207.287 45.5947C207.287 45.5947 208.747 44.4316 207.352 43.8781C207.108 43.6629 206.808 43.5221 206.486 43.4723C206.165 43.4226 205.836 43.4659 205.539 43.5974C207.103 42.4021 209.341 40.4609 207.424 40.3887C207.424 40.3887 209.397 33.3296 203.791 38.9288C203.791 38.9288 202.034 35.6479 199.829 41.624C199.829 41.624 196.797 40.3165 197.84 45.2899C197.792 45.2979 195.201 46.9905 198.185 49.5334ZM198.899 51.0094C198.899 50.6724 199.011 50.3115 199.083 49.9264C199.164 49.5223 199.268 49.1232 199.396 48.7312C199.516 48.3221 199.676 47.929 199.837 47.4959C199.997 47.0627 200.206 46.6937 200.398 46.2605C200.591 45.8274 200.823 45.4584 201.056 45.0814C201.289 44.7043 201.521 44.3273 201.762 43.9824C202.002 43.6375 202.243 43.3006 202.483 42.9957C202.724 42.6909 202.957 42.4101 203.173 42.1535C203.665 41.5772 204.201 41.0407 204.777 40.5491C204.777 40.5491 204.649 40.7336 204.44 41.0625L203.558 42.4182L202.997 43.3326C202.796 43.6535 202.588 43.9984 202.379 44.3514C202.171 44.7043 201.97 45.0894 201.754 45.4584C201.537 45.8274 201.345 46.2605 201.144 46.6135C200.944 46.9664 200.751 47.4157 200.575 47.7927C200.398 48.1697 200.222 48.5948 200.086 48.9558C199.949 49.3168 199.789 49.7098 199.685 50.0708C199.58 50.4318 199.46 50.7607 199.372 51.0816C199.284 51.4024 199.227 51.6992 199.163 51.9639C199.099 52.2286 199.083 52.4533 199.043 52.6458C198.979 53.0308 198.931 53.2554 198.931 53.2554C198.931 53.2554 198.931 53.0388 198.883 52.6378C198.869 52.4 198.869 52.1616 198.883 51.9238C198.858 51.6671 198.874 51.3382 198.899 51.0094Z" fill="#EEC89C"/>
<path d="M186.275 72.0826C183.869 74.3687 191.392 75.0265 191.392 75.0265C194.071 72.6842 191.208 70.7831 191.208 70.7831C193.614 67.6707 190.662 66.5717 190.662 66.5717C190.606 61.494 187.927 63.4192 187.927 63.4192C184.487 58.0527 183.476 61.6384 183.476 61.6384C176.804 57.3709 180.268 63.8443 180.268 63.8443C178.408 64.3176 181.014 65.7294 182.795 66.5637C182.476 66.4998 182.146 66.5286 181.843 66.6465C181.54 66.7645 181.278 66.9668 181.086 67.2295C179.843 68.0316 181.511 68.89 181.511 68.89C179.386 70.8954 186.275 72.0826 186.275 72.0826ZM184.751 64.6545C185.016 64.8551 185.313 65.0717 185.602 65.3283C185.92 65.58 186.225 65.8477 186.516 66.1305C186.829 66.4193 187.141 66.7321 187.446 67.053C187.751 67.3739 188.04 67.7268 188.344 68.0717C188.649 68.4167 188.89 68.7857 189.146 69.1547C189.403 69.5237 189.636 69.8927 189.844 70.2697C190.053 70.6467 190.253 70.9996 190.406 71.3606C190.558 71.7216 190.71 72.0585 190.815 72.3874C190.919 72.7163 190.999 73.0131 191.071 73.2858C191.125 73.5159 191.165 73.7489 191.192 73.9837C191.248 74.3768 191.272 74.6014 191.272 74.6014L191.039 74.0318C190.959 73.8473 190.887 73.6227 190.766 73.3821L190.373 72.5799C190.229 72.2831 190.029 71.9863 189.86 71.6574C189.692 71.3285 189.435 71.0077 189.227 70.6627C189.018 70.3178 188.737 69.9809 188.497 69.6279C188.256 69.275 187.967 68.9381 187.695 68.6012C187.422 68.2643 187.141 67.9193 186.893 67.5985C186.644 67.2776 186.323 66.9487 186.035 66.6519L185.233 65.7856L184.479 64.9834L183.332 63.8524L182.891 63.4192C183.543 63.7805 184.165 64.1936 184.751 64.6545Z" fill="#EEC89C"/>
<path d="M205.122 56.44C205.122 56.44 204.32 53.2314 200.992 57.0336C200.992 57.0336 198.064 55.9587 197.784 59.8733C197.784 59.8733 194.375 59.4321 194.872 62.9616C194.872 62.9616 200.968 67.3575 200.663 64.0766C200.663 64.0766 206.654 67.6783 206.373 64.7906C206.373 64.7906 208.177 65.2558 207.784 63.8039C207.808 63.4826 207.74 63.1613 207.588 62.8773C207.436 62.5933 207.207 62.3582 206.926 62.1996C208.819 62.745 211.738 63.3707 210.616 61.7985C210.616 61.7985 217.449 59.1513 209.605 58.0123C209.645 57.9962 211.225 54.6271 205.122 56.44ZM208.33 59.8091L206.726 59.9214L205.659 60.0097L204.472 60.138C204.063 60.138 203.67 60.2423 203.213 60.2984C202.756 60.3546 202.355 60.4268 201.922 60.499L200.639 60.7476C200.222 60.868 199.837 60.9321 199.412 61.0525C198.987 61.1728 198.61 61.261 198.281 61.3974C197.952 61.5338 197.583 61.63 197.286 61.7584C196.99 61.8867 196.709 62.0151 196.484 62.1113C196.26 62.2076 196.043 62.344 195.867 62.4322L195.313 62.7049C195.313 62.7049 195.474 62.5525 195.771 62.2958C195.946 62.1329 196.131 61.9802 196.324 61.8386L197.126 61.3332C197.415 61.1568 197.751 61.0043 198.104 60.8279C198.474 60.6493 198.854 60.494 199.243 60.3626C199.644 60.2102 200.045 60.0979 200.502 59.9776C200.959 59.8572 201.377 59.777 201.826 59.6888C202.275 59.6006 202.716 59.5444 203.165 59.5043C203.614 59.4642 204.039 59.4241 204.464 59.408C204.889 59.392 205.266 59.408 205.683 59.408C206.1 59.408 206.437 59.408 206.774 59.4562C207.525 59.5031 208.27 59.6104 209.004 59.777L208.33 59.8091Z" fill="#EEC89C"/>
<path d="M193.662 148.705C193.662 148.705 197.014 145.256 189.708 144.085C189.708 144.085 188.761 139.649 183.757 142.392C183.481 141.844 183.112 141.347 182.666 140.924C185.176 141.125 186.227 138.221 186.227 138.221C191.456 140.507 192.009 135.999 192.009 135.999C199.179 134.186 195.53 131.05 195.53 131.05C201.946 124.343 196.525 124.143 196.525 124.143C197.143 122.642 197.48 121.041 197.519 119.418C198.594 119.819 199.46 119.731 199.588 118.488C199.588 118.488 201.633 119.466 201.497 117.637C201.606 117.256 201.604 116.852 201.49 116.472C201.377 116.093 201.156 115.754 200.855 115.496C202.997 116.586 206.309 118.022 205.363 115.881C205.363 115.881 214.185 114.276 205.042 111.116C205.042 111.116 207.729 107.45 199.989 108.188C199.989 108.188 199.821 104.177 194.905 107.931C194.905 107.931 191.657 105.958 190.454 110.586C190.454 110.586 186.444 109.263 186.235 113.594C186.235 113.594 192.507 120.3 192.916 116.298C193.714 117 194.552 117.657 195.426 118.263C194.29 118.793 193.236 119.485 192.298 120.317C190.991 117.846 189.892 122.017 189.315 124.825C189.296 124.352 189.142 123.895 188.873 123.507C188.603 123.119 188.227 122.816 187.791 122.635C186.187 121.167 185.585 123.806 185.585 123.806C182.025 121.52 182.698 131.683 182.698 131.683C178.648 129.1 180.292 139.937 180.292 139.937L180.348 139.978C179.349 140.078 178.414 140.513 177.694 141.213C177.694 141.213 177.028 152.146 180.83 149.235C180.83 149.235 181.062 159.414 184.398 156.815C184.398 156.815 185.2 159.398 186.708 157.786C187.126 157.566 187.472 157.233 187.706 156.823C187.941 156.414 188.054 155.947 188.031 155.475C188.833 158.219 190.325 162.278 191.4 159.695C191.4 159.695 199.981 166.056 195.274 155.516C195.266 155.499 200.647 154.818 193.662 148.705ZM195.193 112.303C194.664 112.303 194.127 112.303 193.589 112.303C193.052 112.303 192.547 112.303 192.049 112.383C191.552 112.463 191.063 112.447 190.614 112.528C190.165 112.608 189.732 112.64 189.339 112.72C188.946 112.8 188.585 112.888 188.264 112.953C187.943 113.017 187.671 113.129 187.462 113.185C187.005 113.322 186.74 113.386 186.74 113.386C186.74 113.386 186.965 113.241 187.39 113.001C187.648 112.848 187.916 112.711 188.192 112.592L189.242 112.167C189.635 112.022 190.045 111.918 190.534 111.79C191.02 111.665 191.512 111.568 192.009 111.501C192.523 111.413 193.06 111.38 193.613 111.332C194.167 111.284 194.72 111.332 195.274 111.292C195.827 111.252 196.372 111.34 196.918 111.388C197.463 111.437 197.984 111.501 198.522 111.589C199.059 111.677 199.524 111.757 199.989 111.854C200.454 111.95 200.88 112.07 201.281 112.175C202.167 112.408 203.033 112.711 203.871 113.081L203.125 112.985L201.168 112.736L199.869 112.6C199.404 112.544 198.923 112.503 198.417 112.463C197.912 112.423 197.399 112.399 196.87 112.359C196.34 112.319 195.731 112.303 195.193 112.303ZM181.559 139.111C181.784 138.943 182.081 138.766 182.361 138.51C182.642 138.253 183.003 137.972 183.38 137.707C183.757 137.443 184.102 137.018 184.511 136.657C184.92 136.296 185.313 135.854 185.706 135.421C186.099 134.988 186.508 134.491 186.917 134.034C187.326 133.576 187.719 133.047 188.096 132.542C188.473 132.036 188.898 131.531 189.218 131.001C189.539 130.472 189.948 129.991 190.269 129.477C190.59 128.964 190.927 128.491 191.215 128.017L192.017 126.694C192.523 125.892 192.94 125.17 193.228 124.68L193.694 123.878C193.421 124.94 193.064 125.978 192.627 126.983C192.426 127.432 192.226 127.921 191.961 128.426C191.697 128.932 191.448 129.469 191.159 130.031C190.871 130.592 190.534 131.114 190.173 131.635C189.812 132.157 189.419 132.702 189.042 133.239C188.665 133.777 188.24 134.266 187.791 134.764C187.342 135.261 186.909 135.71 186.452 136.135C186.017 136.546 185.562 136.934 185.088 137.298C184.631 137.643 184.206 137.972 183.781 138.229C183.356 138.486 182.979 138.71 182.602 138.903C182.294 139.064 181.975 139.203 181.648 139.32L180.805 139.649C180.805 139.649 181.118 139.432 181.583 139.103L181.559 139.111ZM191.985 155.291L190.598 153.398L189.652 152.146C189.315 151.705 188.954 151.256 188.577 150.783C188.2 150.309 187.775 149.844 187.398 149.355C187.021 148.866 186.596 148.4 186.139 147.919C185.682 147.438 185.273 146.98 184.832 146.539C184.39 146.098 183.957 145.657 183.5 145.272C183.043 144.887 182.642 144.47 182.201 144.141C181.76 143.812 181.399 143.475 180.982 143.194C180.565 142.914 180.22 142.681 179.899 142.456C179.578 142.232 179.266 142.079 179.025 141.935C178.536 141.646 178.223 141.462 178.223 141.462L179.089 141.71C179.362 141.807 179.715 141.879 180.076 142.039C180.437 142.2 180.878 142.392 181.311 142.609C181.744 142.825 182.209 143.122 182.698 143.411C183.187 143.7 183.653 144.085 184.158 144.454C184.663 144.823 185.12 145.256 185.609 145.697C186.099 146.138 186.54 146.628 186.997 147.101C187.454 147.574 187.871 148.096 188.264 148.609C188.657 149.122 189.066 149.636 189.395 150.149C189.724 150.662 190.061 151.152 190.357 151.641C190.654 152.13 190.903 152.588 191.159 153.021C191.686 153.98 192.134 154.981 192.499 156.013L191.985 155.291Z" fill="#EEC89C"/>
<path d="M178.72 157.345C178.72 157.345 183.42 154.633 174.606 151.729C174.606 151.729 176.37 147.245 169.184 148.994C169.184 148.994 166.586 145.272 163.033 149.732C163.033 149.732 159.328 146.371 156.978 150.991C156.978 150.991 160.595 161.339 162.969 157.168C162.969 157.168 167.115 166.465 169.201 162.783C169.201 162.783 170.965 164.845 171.695 162.783C171.997 162.418 172.188 161.974 172.247 161.504C172.305 161.033 172.227 160.556 172.024 160.128C173.836 162.35 176.771 165.519 176.763 162.727C176.763 162.703 187.141 165.246 178.72 157.345ZM175.633 158.403L173.62 157.224L172.264 156.422C171.791 156.141 171.278 155.861 170.748 155.572C170.219 155.283 169.666 155.01 169.144 154.713C168.623 154.417 167.998 154.16 167.428 153.911C166.859 153.663 166.265 153.382 165.688 153.109C165.11 152.836 164.533 152.628 163.971 152.451C163.41 152.275 162.865 152.05 162.367 151.922C161.87 151.794 161.341 151.617 160.876 151.521C160.411 151.425 159.969 151.336 159.585 151.256C159.2 151.176 158.863 151.152 158.582 151.112L157.692 150.975C157.692 150.975 158.013 150.927 158.582 150.871C158.928 150.824 159.276 150.797 159.625 150.791L160.9 150.807C161.438 150.848 161.973 150.918 162.504 151.016C163.073 151.096 163.651 151.264 164.252 151.409C164.854 151.553 165.463 151.786 166.081 152.002C166.698 152.219 167.292 152.5 167.901 152.756C168.511 153.013 169.088 153.334 169.65 153.655C170.211 153.976 170.772 154.296 171.254 154.633C171.735 154.97 172.264 155.307 172.721 155.636C173.178 155.965 173.595 156.302 173.98 156.607C174.843 157.288 175.647 158.039 176.386 158.853L175.633 158.403Z" fill="#EEC89C"/>
<path d="M162.776 34.7656C161.509 35.5677 163.811 35.9849 165.351 36.1533C165.098 36.1856 164.859 36.2896 164.663 36.453C164.467 36.6165 164.321 36.8325 164.244 37.0758C163.53 38.0143 164.982 38.2069 164.982 38.2069C163.923 40.2363 169.353 39.378 169.353 39.378C168.166 41.6802 173.916 40.2764 173.916 40.2764C175.32 37.8699 172.697 37.164 172.697 37.164C173.675 34.2361 171.229 34.1639 171.229 34.1639C169.906 30.3938 168.39 32.5035 168.39 32.5035C164.477 29.375 164.629 32.3029 164.629 32.3029C158.574 30.8109 162.776 34.7656 162.776 34.7656ZM166.337 34.2281C166.586 34.3083 166.866 34.3966 167.139 34.5089C167.412 34.6212 167.725 34.7415 168.021 34.8859C168.336 35.0193 168.644 35.1693 168.944 35.3351C169.256 35.4955 169.561 35.6881 169.874 35.8645C170.187 36.041 170.467 36.2576 170.748 36.4662C171.029 36.6747 171.302 36.8913 171.55 37.1159C171.796 37.3289 172.029 37.5566 172.248 37.7978C172.448 38.0304 172.649 38.2389 172.809 38.4555C172.97 38.6721 173.106 38.8727 173.226 39.0572C173.33 39.2128 173.421 39.3764 173.499 39.5465C173.643 39.8272 173.716 39.9877 173.716 39.9877L173.395 39.6187C173.29 39.5064 173.186 39.354 173.034 39.2015C172.881 39.0491 172.713 38.8887 172.537 38.7042C172.36 38.5197 172.128 38.3432 171.911 38.1427C171.695 37.9421 171.43 37.7657 171.189 37.5571C170.949 37.3485 170.652 37.1801 170.387 36.9795C170.123 36.779 169.818 36.6025 169.529 36.41C169.24 36.2175 168.944 36.041 168.639 35.8806C168.334 35.7201 168.061 35.5356 167.773 35.3913L166.971 34.9501C166.706 34.8217 166.457 34.6854 166.217 34.5731L165.078 34.0115L164.637 33.803C165.214 33.8987 165.783 34.0409 166.337 34.2281Z" fill="#EEC89C"/>
<path d="M217.256 133.552C217.256 133.552 219.935 128.835 210.84 130.769C210.84 130.769 210.086 126.02 204.777 131.17C204.777 131.17 200.655 129.269 199.861 134.924C199.861 134.924 194.953 133.897 195.273 139.071C195.273 139.071 203.63 146.162 203.566 141.357C203.566 141.357 211.851 147.269 211.779 143.042C211.779 143.042 214.337 143.924 213.928 141.774C214.005 141.308 213.946 140.829 213.758 140.395C213.57 139.961 213.262 139.591 212.869 139.328C215.556 140.322 219.694 141.566 218.275 139.167C218.291 139.167 228.516 136.095 217.256 133.552ZM215.139 136.031H212.789H211.225C210.672 136.031 210.086 136.031 209.485 136.071C208.883 136.111 208.266 136.135 207.64 136.159C207.015 136.183 206.373 136.255 205.731 136.303C205.09 136.352 204.464 136.44 203.847 136.528C203.229 136.616 202.612 136.697 202.034 136.833C201.457 136.969 200.879 137.041 200.35 137.202C199.821 137.362 199.315 137.459 198.858 137.611C198.401 137.763 197.992 137.908 197.615 138.028C197.238 138.148 196.942 138.317 196.677 138.421L195.875 138.758C195.875 138.758 196.132 138.55 196.589 138.213C196.862 137.997 197.148 137.798 197.447 137.619C197.8 137.418 198.201 137.194 198.642 136.969C199.083 136.745 199.588 136.552 200.117 136.344C200.676 136.131 201.247 135.949 201.826 135.798C202.427 135.63 203.061 135.509 203.694 135.381C204.328 135.253 204.994 135.196 205.651 135.108C206.309 135.02 206.967 135.012 207.616 134.996C208.266 134.98 208.907 134.996 209.525 134.996C210.142 134.996 210.736 135.068 211.297 135.116C211.859 135.164 212.388 135.253 212.901 135.317C213.988 135.472 215.061 135.713 216.109 136.039L215.139 136.031Z" fill="#EEC89C"/>
<path d="M185.986 50.0552C184.069 49.9028 186.082 52.0766 187.51 53.4323C187.229 53.271 186.907 53.1936 186.583 53.2092C186.259 53.2249 185.946 53.3329 185.681 53.5205C184.23 53.9136 185.545 55.2291 185.545 55.2291C182.915 56.4564 189.058 59.7934 189.058 59.7934C186.074 61.1972 192.956 64.2214 192.956 64.2214C196.252 62.8657 194.142 60.1384 194.142 60.1384C197.391 57.9485 194.944 55.9751 194.944 55.9751C196.548 51.1622 193.34 52.1167 193.34 52.1167C191.809 45.932 189.699 48.9963 189.699 48.9963C184.799 42.8116 185.986 50.0552 185.986 50.0552ZM189.996 52.2611C190.181 52.5419 190.397 52.8387 190.59 53.1756C190.782 53.5125 191.007 53.8574 191.199 54.2344C191.392 54.6115 191.592 55.0366 191.777 55.4056C191.961 55.7746 192.121 56.2078 192.298 56.649C192.474 57.0902 192.595 57.5073 192.723 57.9404C192.851 58.3736 192.956 58.7988 193.028 59.2159C193.108 59.619 193.167 60.0259 193.204 60.4352C193.204 60.8282 193.268 61.2373 193.268 61.5341C193.268 61.8309 193.268 62.1919 193.22 62.4647C193.2 62.7019 193.165 62.9376 193.116 63.1706C193.044 63.5636 192.996 63.7802 192.996 63.7802C192.996 63.7802 192.996 63.5556 192.956 63.1625C192.956 62.97 192.956 62.7374 192.907 62.4647C192.859 62.1919 192.827 61.8951 192.795 61.5743C192.763 61.2534 192.659 60.9004 192.595 60.5314C192.53 60.1624 192.402 59.7774 192.322 59.3843C192.242 58.9913 192.065 58.5822 191.961 58.1731C191.857 57.764 191.672 57.3709 191.528 56.9377C191.384 56.5046 191.223 56.1356 191.047 55.7184C190.87 55.3013 190.726 54.9163 190.542 54.5553C190.357 54.1943 190.213 53.8093 190.052 53.4644C189.892 53.1194 189.732 52.7986 189.587 52.5018L188.865 51.0579L188.585 50.5044C189.102 51.0504 189.574 51.638 189.996 52.2611Z" fill="#EEC89C"/>
<path d="M226.455 80.6096C226.455 80.6096 226.905 76.0934 220.609 80.6497C220.609 80.6497 218.419 77.2646 216.102 83.0081C216.102 83.0081 212.3 82.9519 213.599 87.5483C213.599 87.5483 209.493 88.4227 211.49 92.2811C211.49 92.2811 220.312 94.8801 218.62 91.2223C218.62 91.2223 226.969 92.9469 225.477 89.7302C225.477 89.7302 227.739 89.5377 226.696 88.0296C226.6 87.6509 226.398 87.3072 226.114 87.0388C225.83 86.7704 225.476 86.5882 225.092 86.5136C227.498 86.3692 231.075 85.92 229.174 84.5643C229.142 84.5643 235.935 78.7406 226.455 80.6096ZM225.653 83.2247L223.841 84.0268L222.646 84.5643C222.229 84.7488 221.788 84.9654 221.331 85.182C220.874 85.3985 220.416 85.6472 219.943 85.8798C219.47 86.1125 219.013 86.3772 218.54 86.6339C218.067 86.8906 217.617 87.1633 217.168 87.436C216.719 87.7088 216.278 87.9815 215.877 88.2783C215.476 88.5751 215.075 88.8318 214.722 89.1286C214.369 89.4254 214.016 89.6821 213.72 89.9308C213.423 90.1794 213.15 90.4522 212.918 90.6688C212.685 90.8854 212.493 91.118 212.324 91.2864L211.803 91.8319C211.803 91.8319 211.923 91.5832 212.164 91.1661C212.303 90.9095 212.455 90.6605 212.621 90.4201L213.311 89.5217C213.575 89.2008 213.896 88.888 214.233 88.543C214.589 88.1913 214.964 87.8592 215.356 87.5483C215.757 87.2114 216.158 86.9066 216.647 86.5938C217.136 86.2809 217.577 86.0082 218.05 85.7274C218.524 85.4467 219.029 85.198 219.518 84.9734C220.007 84.7488 220.505 84.5242 220.986 84.3397C221.467 84.1552 221.932 83.9787 222.381 83.8343C222.83 83.6899 223.263 83.5616 223.656 83.4493C224.539 83.2009 225.44 83.0238 226.351 82.9199L225.653 83.2247Z" fill="#EEC89C"/>
<path d="M183.155 39.0171C183.155 39.0171 181.463 36.6106 180.316 41.5038C180.316 41.5038 177.822 40.7739 179.113 44.5521C179.113 44.5521 177.237 46.1564 179.811 47.8249C179.811 47.8249 178.207 49.9907 180.782 51.0335C180.782 51.0335 186.171 48.6271 183.805 47.512C183.805 47.512 188.617 44.8248 186.524 43.8863C186.524 43.8863 187.55 42.8354 186.404 42.5386C186.19 42.398 185.941 42.3211 185.685 42.3169C185.43 42.3126 185.178 42.3812 184.96 42.5146C186.067 41.4397 187.631 39.707 186.131 39.8433C186.131 39.8113 186.989 34.0998 183.155 39.0171ZM183.877 40.6214L183.316 41.7605C183.212 42.0012 183.091 42.2579 182.963 42.5627C182.835 42.8675 182.714 43.1162 182.586 43.421C182.458 43.7258 182.337 44.0306 182.201 44.3435C182.065 44.6563 181.961 44.9852 181.832 45.3061C181.704 45.627 181.608 45.9558 181.503 46.2767C181.399 46.5976 181.303 46.9184 181.239 47.2313C181.175 47.5441 181.07 47.849 181.03 48.1377C180.99 48.4265 180.918 48.7073 180.886 48.9399C180.854 49.1725 180.83 49.4372 180.806 49.6458C180.782 49.8544 180.806 50.0389 180.806 50.1913C180.806 50.4961 180.806 50.6806 180.806 50.6806C180.806 50.6806 180.766 50.5121 180.701 50.2073C180.701 50.0469 180.629 49.8624 180.613 49.6458C180.597 49.4292 180.613 49.1886 180.613 48.9158C180.598 48.6273 180.598 48.3381 180.613 48.0495C180.613 47.7367 180.693 47.4238 180.741 47.0869C180.79 46.75 180.886 46.4211 180.974 46.0762C181.062 45.7312 181.175 45.4024 181.287 45.0654C181.399 44.7285 181.543 44.3916 181.688 44.0788C181.832 43.7659 181.977 43.4451 182.137 43.1483C182.297 42.8515 182.45 42.5707 182.602 42.3461C182.754 42.1215 182.915 41.8407 183.059 41.6161C183.385 41.1224 183.75 40.6557 184.15 40.2204L183.877 40.6214Z" fill="#EEC89C"/>
<path d="M174.871 35.231C174.871 35.231 172.529 36.5947 174.526 38.552C174.526 38.552 180.445 38.3835 178.68 36.4744C178.68 36.4744 184.15 35.8647 182.586 34.1882C182.586 34.1882 183.941 33.6187 183.003 32.9047C182.864 32.6891 182.667 32.5177 182.434 32.4111C182.2 32.3044 181.942 32.267 181.688 32.3031C183.123 31.7336 185.241 30.6988 183.797 30.2817C183.797 30.2817 186.805 25.3564 181.391 28.4046C181.391 28.4046 180.765 25.5409 177.814 29.5998C177.814 29.5998 175.801 27.9955 175.528 31.9421C175.496 31.9421 173.146 32.6721 174.871 35.231ZM175.464 35.7203C175.601 35.4396 175.777 35.1749 175.953 34.9182C176.13 34.6615 176.346 34.3567 176.555 34.0759L177.245 33.2737C177.493 33.0251 177.734 32.7603 177.991 32.5197C178.247 32.279 178.504 32.0464 178.793 31.8379C179.081 31.6293 179.306 31.4288 179.554 31.2443C179.803 31.0598 180.036 30.9073 180.26 30.7549C180.73 30.4104 181.23 30.1071 181.752 29.8485L181.391 30.1613L180.437 30.9635L179.811 31.533C179.587 31.7336 179.362 31.9502 179.129 32.1748C178.897 32.3994 178.664 32.64 178.416 32.8807C178.167 33.1213 177.942 33.378 177.71 33.6267C177.477 33.8754 177.245 34.1401 177.028 34.4288C176.812 34.7176 176.595 34.9422 176.411 35.231C176.226 35.5198 176.018 35.7364 175.865 35.985C175.713 36.2337 175.544 36.4663 175.416 36.691C175.288 36.9156 175.176 37.1241 175.071 37.3086C174.983 37.4702 174.902 37.6362 174.831 37.806C174.702 38.0787 174.614 38.2391 174.614 38.2391C174.614 38.2391 174.614 38.0627 174.71 37.7578C174.741 37.5734 174.784 37.3912 174.839 37.2124C174.911 37.0118 174.983 36.7792 175.079 36.5225C175.176 36.2658 175.336 36.0011 175.464 35.7203Z" fill="#EEC89C"/>
<path d="M167.885 26.1344C167.885 26.1344 167.083 28.4446 170.147 28.597C170.147 28.597 169.834 31.2923 172.601 30.8671C172.601 30.8671 176.009 26.0541 173.403 26.2948C173.403 26.2948 176.186 21.546 173.908 21.7946C173.908 21.7946 174.261 20.3668 173.106 20.6957C172.852 20.6773 172.598 20.7326 172.375 20.855C172.152 20.9773 171.968 21.1616 171.847 21.3855C172.248 19.8855 172.721 17.6073 171.494 18.4817C171.494 18.4817 169.345 13.1313 168.527 19.2839C168.527 19.2839 165.856 18.0726 167.34 22.8695C167.38 22.8936 164.862 23.5273 167.885 26.1344ZM169.73 21.6021C169.76 21.0108 169.841 20.4231 169.97 19.8454C169.97 19.8454 169.97 20.0219 169.97 20.3347C169.97 20.6475 170.027 21.0727 170.075 21.6021C170.075 21.8588 170.123 22.1396 170.155 22.4043C170.187 22.669 170.219 23.0139 170.259 23.3428C170.299 23.6717 170.355 23.9926 170.395 24.3295C170.436 24.6664 170.516 25.0033 170.572 25.3482C170.628 25.6932 170.7 26.022 170.78 26.3509C170.861 26.6798 170.933 27.0087 171.029 27.3135C171.125 27.6184 171.197 27.9232 171.31 28.1959C171.422 28.4687 171.502 28.7414 171.607 28.9981C171.711 29.2548 171.807 29.4473 171.887 29.6478C171.967 29.8484 172.08 29.9928 172.144 30.1372C172.208 30.2815 172.368 30.5703 172.368 30.5703L172.04 30.2094C171.91 30.0727 171.79 29.928 171.679 29.7762C171.558 29.5997 171.414 29.3911 171.27 29.1665C171.125 28.9419 171.005 28.6772 170.861 28.3644C170.716 28.0515 170.612 27.7788 170.484 27.4659C170.355 27.1531 170.275 26.8162 170.171 26.4793C170.067 26.1424 170.011 25.7894 169.93 25.4445C169.85 25.0996 169.81 24.7386 169.778 24.3937C169.746 24.0487 169.706 23.6958 169.69 23.3669C169.674 23.038 169.69 22.7091 169.69 22.4043C169.69 22.0995 169.722 21.8668 169.722 21.6021H169.73Z" fill="#EEC89C"/>
<path d="M175.961 45.2178C175.961 42.1375 173.603 42.8113 173.603 42.8113C171.141 39.6669 170.395 42.1536 170.395 42.1536C165.679 40.445 166.762 43.1723 166.762 43.1723C160.547 43.7018 165.8 46.1002 165.8 46.1002C164.861 47.2794 167.163 46.9024 168.679 46.5815C168.45 46.6959 168.258 46.8724 168.125 47.0909C167.991 47.3094 167.922 47.5609 167.925 47.8169C167.556 48.9399 168.992 48.619 168.992 48.619C168.639 50.8811 173.507 48.3222 173.507 48.3222C173.122 50.8891 178.11 47.7126 178.11 47.7126C178.204 47.3983 178.216 47.0657 178.148 46.7452C178.079 46.4247 177.931 46.1266 177.717 45.8782C177.503 45.6299 177.23 45.4393 176.923 45.3239C176.616 45.2085 176.286 45.1721 175.961 45.2178ZM177.413 47.3275C177.276 47.2553 177.124 47.143 176.94 47.0548L176.298 46.7339C176.073 46.6216 175.801 46.5254 175.536 46.405C175.271 46.2847 174.959 46.2045 174.662 46.0842C174.365 45.9639 174.036 45.8997 173.716 45.7874L172.721 45.5307C172.384 45.4585 172.047 45.3703 171.711 45.3061C171.374 45.2419 171.053 45.1697 170.732 45.1296C170.411 45.0895 170.098 45.0173 169.802 44.9772L169 44.8569L167.741 44.6964L167.259 44.6323C167.843 44.5398 168.433 44.4915 169.024 44.4879C169.288 44.4879 169.577 44.4879 169.882 44.4879C170.187 44.4879 170.508 44.4879 170.836 44.552C171.165 44.6162 171.51 44.6242 171.855 44.6884C172.2 44.7526 172.553 44.8248 172.905 44.889C173.258 44.9531 173.595 45.0735 173.924 45.1777C174.253 45.282 174.59 45.4023 174.902 45.5387C175.215 45.6751 175.504 45.8034 175.769 45.9558C176.026 46.0901 176.275 46.2401 176.514 46.405C176.739 46.5575 176.932 46.7099 177.108 46.8382C177.251 46.9563 177.388 47.0821 177.517 47.2152L177.862 47.5602L177.413 47.3275Z" fill="#EEC89C"/>
<path d="M173.932 132.485C177.862 124.071 172.665 125.619 172.665 125.619C172.721 114.068 167.428 123.349 167.428 123.349C165.407 121.432 165.688 125.755 166.057 128.579C165.889 128.134 165.598 127.746 165.217 127.462C164.836 127.178 164.381 127.008 163.907 126.974C161.902 126.1 162.191 128.795 162.191 128.795C158.085 127.769 161.982 137.178 161.982 137.178C157.315 136.031 162.343 145.769 162.343 145.769C167.308 147.245 167.42 142.24 167.42 142.24C173.106 142.729 172.184 138.285 172.184 138.285C178.391 134.282 173.932 132.485 173.932 132.485ZM169.922 129.525C169.874 130.015 169.85 130.552 169.754 131.13C169.658 131.707 169.601 132.285 169.473 132.886C169.345 133.488 169.225 134.114 169.064 134.747C168.904 135.381 168.695 135.999 168.511 136.633C168.326 137.266 168.054 137.876 167.805 138.478C167.556 139.079 167.284 139.665 167.003 140.21C166.726 140.74 166.421 141.254 166.089 141.75C165.76 142.216 165.471 142.673 165.15 143.05C164.83 143.427 164.517 143.772 164.244 144.069C163.993 144.319 163.725 144.552 163.442 144.766C163.009 145.144 162.752 145.344 162.752 145.344C162.752 145.344 162.937 145.071 163.274 144.606C163.426 144.373 163.651 144.109 163.859 143.804C164.068 143.499 164.292 143.082 164.549 142.681C164.805 142.28 165.014 141.798 165.287 141.325C165.559 140.852 165.752 140.298 166.025 139.769C166.297 139.24 166.466 138.638 166.722 138.068C166.979 137.499 167.155 136.881 167.364 136.28C167.572 135.678 167.773 135.068 167.933 134.459C168.094 133.849 168.302 133.263 168.439 132.678C168.575 132.092 168.743 131.531 168.872 130.993L169.233 129.469L169.738 127.175C169.858 126.613 169.922 126.293 169.922 126.293C170.015 127.368 170.023 128.449 169.946 129.525H169.922Z" fill="#EEC89C"/>
<path d="M36.5896 93.9332L37.3916 94.3503C37.3916 94.2861 48.4031 73.1651 31.0318 49.5654L30.2939 50.1109C47.3204 73.2453 36.5896 93.8529 36.5896 93.9332Z" fill="#EEC89C"/>
<path d="M59.9599 27.3457H59.2381C58.805 49.9427 42.2036 57.6916 42.2036 57.7558L42.5084 58.4055C42.5485 58.3414 59.5188 50.4079 59.9599 27.3457Z" fill="#EEC89C"/>
<path d="M30.6792 138.285L30.7754 139.617C72.5275 136.657 89.562 165.92 89.6101 166L90.757 165.318C90.7089 165.246 73.2574 135.261 30.6792 138.285Z" fill="#EEC89C"/>
<path d="M51.5952 130.496L52.702 130.368C52.702 130.279 49.494 101.417 15.8501 89.3047L15.4731 90.3555C48.4434 102.228 51.5872 130.416 51.5952 130.496Z" fill="#EEC89C"/>
<path d="M50.0956 32.4633C49.8431 32.4297 49.5863 32.4684 49.3549 32.5749C49.1235 32.6814 48.9271 32.8513 48.7883 33.0649C47.85 33.7788 49.1973 34.3484 49.1973 34.3484C47.6414 36.0249 53.1031 36.6425 53.1031 36.6425C51.3467 38.5437 57.2654 38.7202 57.2654 38.7202C57.5314 38.5157 57.7406 38.2465 57.8732 37.9383C58.0057 37.6301 58.0571 37.2931 58.0226 36.9593C57.988 36.6256 57.8686 36.3063 57.6757 36.0318C57.4828 35.7573 57.2228 35.5367 56.9206 35.3912C58.6369 32.8323 56.295 32.1023 56.295 32.1023C56.0223 28.0915 54.0013 29.76 54.0013 29.76C51.0259 25.6689 50.4324 28.5647 50.4324 28.5647C44.9868 25.5165 48.0264 30.4418 48.0264 30.4418C46.5507 30.899 48.66 31.8937 50.0956 32.4633ZM51.5632 30.8589C51.7798 31.0114 52.0284 31.1638 52.269 31.3563C52.5096 31.5488 52.7742 31.7253 53.0229 31.9419C53.2715 32.1584 53.5442 32.3831 53.8249 32.6237C54.1056 32.8643 54.3221 33.1291 54.5787 33.3777L55.2685 34.1799C55.477 34.4607 55.6855 34.7414 55.8619 34.9821C56.0384 35.2227 56.2228 35.5356 56.3592 35.7842C56.4955 36.0329 56.6238 36.3217 56.7201 36.5864C56.8163 36.8511 56.8965 37.0757 56.9687 37.2763C57.0244 37.4575 57.0673 37.6425 57.097 37.8298C57.1612 38.1346 57.1852 38.303 57.1852 38.303L56.9767 37.8699C56.9045 37.7335 56.8404 37.557 56.7361 37.3725C56.6319 37.188 56.5116 36.9795 56.3913 36.7549C56.271 36.5302 56.0945 36.2976 55.9421 36.0489C55.7898 35.8003 55.5732 35.5596 55.3968 35.2949C55.2203 35.0302 54.9797 34.7895 54.7792 34.4927C54.5787 34.1959 54.3301 33.9794 54.0975 33.6906C53.865 33.4018 53.6324 33.1772 53.3918 32.9446C53.1512 32.7119 52.9186 32.4633 52.678 32.2387L51.9963 31.5969L51.3707 31.0274L50.3843 30.3215L50.0154 30.0086C50.5548 30.2501 51.0726 30.5373 51.5632 30.867V30.8589Z" fill="#EEC89C"/>
<path d="M64.5715 123.533C64.5715 123.533 59.2783 114.252 59.3344 125.795C59.3344 125.795 54.1374 124.247 58.0672 132.662C58.0672 132.662 53.6081 134.459 59.8156 138.478C59.8156 138.478 58.8933 142.922 64.5795 142.432C64.5795 142.432 64.6837 147.438 69.6561 145.962C69.6561 145.962 74.6767 136.223 70.017 137.371C70.017 137.371 73.9148 127.969 69.8085 128.988C69.8085 128.988 70.0892 126.293 68.0922 127.167C67.6181 127.201 67.1637 127.37 66.7827 127.654C66.4018 127.939 66.1103 128.326 65.9429 128.771C66.3118 125.94 66.5925 121.592 64.5715 123.533ZM65.9429 139.897C66.2156 140.427 66.4161 140.98 66.6807 141.454C66.9454 141.927 67.1699 142.4 67.4186 142.817C67.6672 143.234 67.9078 143.619 68.1083 143.932C68.3088 144.245 68.5333 144.526 68.6937 144.734C69.0306 145.2 69.215 145.472 69.215 145.472C69.215 145.472 68.9584 145.272 68.5173 144.895C68.3088 144.702 68.0201 144.494 67.7153 144.197C67.4105 143.9 67.1379 143.563 66.8171 143.178C66.4816 142.762 66.1684 142.328 65.8787 141.879C65.557 141.395 65.2625 140.895 64.9965 140.379C64.6918 139.833 64.4351 139.248 64.1945 138.646C63.9539 138.044 63.7133 137.427 63.4888 136.801C63.2642 136.175 63.0878 135.542 62.9354 134.916C62.783 134.29 62.6306 133.665 62.5183 133.055C62.4061 132.445 62.3178 131.86 62.2376 131.298C62.1574 130.737 62.1254 130.207 62.0772 129.694C61.9877 128.605 61.9877 127.51 62.0772 126.421C62.0772 126.421 62.1494 126.734 62.2697 127.295L62.775 129.59L63.1359 131.114C63.2642 131.651 63.4166 132.213 63.569 132.798C63.7213 133.384 63.9058 133.969 64.0662 134.579C64.2266 135.189 64.4512 135.79 64.6436 136.4C64.8361 137.01 65.0527 137.603 65.2852 138.189C65.5178 138.774 65.6862 139.344 65.9429 139.881V139.897Z" fill="#EEC89C"/>
<path d="M59.1902 31.0277C59.5123 31.1191 59.8525 31.1263 60.1783 31.0487C60.504 30.971 60.8044 30.811 61.0506 30.584C61.2969 30.3571 61.4808 30.0707 61.5847 29.7523C61.6886 29.4339 61.7092 29.0941 61.6443 28.7656C64.724 28.6051 63.8979 26.2949 63.8979 26.2949C66.9295 23.6878 64.4112 23.0862 64.4112 23.0862C65.8949 18.2732 63.2242 19.5005 63.2242 19.5005C62.4222 13.3239 60.2568 18.6984 60.2568 18.6984C59.0298 17.816 59.4548 20.1022 59.9039 21.5942C59.7882 21.3606 59.6064 21.1662 59.3811 21.035C59.1558 20.9038 58.897 20.8416 58.6368 20.8562C57.506 20.5353 57.8348 21.9552 57.8348 21.9552C55.5651 21.7065 58.3481 26.4553 58.3481 26.4553C55.7817 26.1906 59.1902 31.0277 59.1902 31.0277ZM59.6152 30.3137C59.6794 30.1774 59.7836 30.0169 59.8638 29.8244C59.944 29.6319 60.0403 29.4073 60.1526 29.1747C60.2648 28.942 60.337 28.6693 60.4493 28.3725C60.5616 28.0757 60.6177 27.7869 60.722 27.4821C60.8262 27.1773 60.8824 26.8484 60.9786 26.5195C61.0749 26.1906 61.123 25.8537 61.1871 25.5168C61.2513 25.1799 61.3155 24.8349 61.3556 24.498C61.3957 24.1611 61.4678 23.8322 61.4999 23.5114C61.532 23.1905 61.5721 22.8777 61.6042 22.5728C61.6363 22.268 61.6603 21.9953 61.6844 21.7707C61.6844 21.2412 61.7646 20.8081 61.7886 20.5033C61.8127 20.1984 61.7886 20.0139 61.7886 20.0139C61.9134 20.5925 61.9939 21.1798 62.0292 21.7707C62.0292 22.0354 62.0292 22.3242 62.0292 22.629C62.0292 22.9338 62.0292 23.2627 62.0292 23.5916C62.0292 23.9205 61.9891 24.2654 61.949 24.6184C61.9089 24.9713 61.8448 25.3162 61.7967 25.6692C61.7485 26.0221 61.6443 26.3671 61.5561 26.704C61.4678 27.0409 61.3556 27.3778 61.2353 27.6907C61.1297 27.997 61.0066 28.297 60.8663 28.5891C60.722 28.8618 60.5937 29.1265 60.4493 29.3511C60.3049 29.5757 60.1686 29.7843 60.0483 29.9608C59.928 30.1373 59.7836 30.2736 59.6874 30.3939L59.3586 30.7549L59.6152 30.3137Z" fill="#EEC89C"/>
<path d="M65.0368 43.3648C65.0368 43.3648 66.1195 40.6375 61.4037 42.3461C61.4037 42.3461 60.6498 39.8594 58.1957 43.0119C58.1957 43.0119 55.8458 42.2979 55.8378 45.4184C55.8378 45.4184 53.1351 45.2339 53.6885 47.9773C53.6885 47.9773 58.6849 51.1859 58.3 48.5869C58.3 48.5869 63.1681 51.1458 62.8152 48.8837C62.8152 48.8837 64.2508 49.1725 63.8739 48.0815C63.8794 47.8261 63.8122 47.5743 63.6802 47.3556C63.5481 47.1369 63.3566 46.9602 63.128 46.8462C64.6358 47.1831 66.9455 47.5441 66.0072 46.3649C65.9992 46.2927 71.2442 43.8942 65.0368 43.3648ZM64.0824 44.8488L62.8232 45.0093L62.0212 45.1296C61.7245 45.1697 61.4117 45.2258 61.0909 45.282C60.7701 45.3381 60.4413 45.4023 60.1045 45.4665C59.7676 45.5307 59.4388 45.6109 59.102 45.6831L58.1075 45.9398C57.7867 46.0521 57.4579 46.1243 57.1611 46.2366C56.8644 46.3489 56.5516 46.4371 56.2869 46.5574C56.0223 46.6778 55.7496 46.774 55.4849 46.8863L54.8514 47.2072C54.6589 47.2954 54.5145 47.4077 54.3782 47.4799C54.1135 47.6404 53.9531 47.7206 53.9531 47.7206L54.298 47.3756C54.4304 47.2429 54.5696 47.117 54.715 46.9986L55.3005 46.5655C55.5251 46.413 55.7817 46.2767 56.0464 46.1162C56.311 45.9558 56.6158 45.8435 56.9205 45.6991C57.2253 45.5547 57.5621 45.4585 57.8909 45.3381L58.9175 45.0494C59.2704 44.9852 59.6152 44.905 59.9601 44.8488C60.305 44.7927 60.6498 44.7445 60.9867 44.7125C61.3235 44.6804 61.6363 44.6643 61.941 44.6483C62.2458 44.6322 62.5345 44.6483 62.7992 44.6483C63.3905 44.6516 63.9805 44.7026 64.5636 44.8007L64.0824 44.8488Z" fill="#EEC89C"/>
<path d="M60.5614 34.3246C60.5614 34.3246 58.1554 34.3968 59.0857 37.3247C58.7558 37.3839 58.4467 37.5269 58.1879 37.7399C57.9291 37.953 57.7294 38.2289 57.6078 38.5413C57.4863 38.8537 57.447 39.1921 57.4937 39.5241C57.5405 39.856 57.6716 40.1704 57.8747 40.4371C57.8747 40.4371 63.625 41.8489 62.4301 39.5387C62.4301 39.5387 67.8676 40.397 66.809 38.3675C66.809 38.3675 68.2606 38.183 67.5468 37.2365C67.4694 36.9932 67.3241 36.7771 67.128 36.6137C66.9319 36.4503 66.6933 36.3463 66.4401 36.314C67.9799 36.1455 70.2816 35.7524 69.0145 34.9262C69.0145 34.9262 73.217 30.9715 67.1619 32.4636C67.1619 32.4636 67.3142 29.5357 63.4005 32.6641C63.4005 32.6641 61.8847 30.5544 60.5614 34.3246ZM64.6436 34.6775C64.9243 34.5572 65.205 34.477 65.4456 34.3888C66.0053 34.2009 66.5792 34.0587 67.1619 33.9636L66.7288 34.1722L65.5819 34.7337L64.828 35.1107L64.026 35.5519C63.7373 35.7043 63.4486 35.8808 63.1519 36.0412C62.8551 36.2017 62.5664 36.3942 62.2697 36.5787C61.9729 36.7632 61.6922 36.9477 61.4115 37.1402C61.1308 37.3327 60.8581 37.5172 60.6095 37.7258C60.3609 37.9343 60.0962 38.1028 59.8877 38.3033C59.6792 38.5039 59.4466 38.6803 59.2622 38.8648L58.7649 39.3702C58.6125 39.5146 58.5083 39.667 58.404 39.7793L58.0832 40.1483L58.2436 39.7071C58.3238 39.5708 58.396 39.3943 58.5163 39.2178C58.6366 39.0413 58.781 38.8328 58.9414 38.6162C59.1018 38.3996 59.2942 38.191 59.5028 37.9584C59.7206 37.7192 59.9508 37.4916 60.1925 37.2766C60.4411 37.052 60.7218 36.8434 60.9945 36.6268C61.2672 36.4102 61.5719 36.2257 61.8687 36.0252C62.1654 35.8246 62.4862 35.6562 62.791 35.4958C63.0957 35.3353 63.4165 35.1749 63.7133 35.0465C64.01 34.9182 64.3549 34.7818 64.6596 34.6775H64.6436Z" fill="#EEC89C"/>
<path d="M32.4116 118.648C32.7564 122.17 39.0842 116.458 39.0842 116.458C39.4852 120.469 45.7649 113.763 45.7649 113.763C45.5323 109.423 41.5463 110.747 41.5463 110.747C40.3433 106.118 37.0872 108.092 37.0872 108.092C32.179 104.321 32.0106 108.348 32.0106 108.348C24.2713 107.61 26.9499 111.276 26.9499 111.276C17.8312 114.485 26.6372 116.041 26.6372 116.041C25.6828 118.183 29.0031 116.747 31.1444 115.664C30.8438 115.922 30.6231 116.261 30.508 116.64C30.393 117.02 30.3884 117.424 30.4948 117.806C30.3665 119.627 32.4116 118.648 32.4116 118.648ZM30.9118 112.888L28.9549 113.137L28.2091 113.233C29.0459 112.854 29.9123 112.542 30.7995 112.303C31.2005 112.199 31.6015 112.07 32.0908 111.982C32.58 111.894 33.0451 111.782 33.5584 111.717C34.0717 111.653 34.593 111.565 35.1624 111.517C35.7318 111.469 36.2531 111.461 36.8065 111.421C37.3599 111.38 37.9133 111.421 38.4586 111.421C39.004 111.421 39.5413 111.501 40.0626 111.589C40.5596 111.657 41.0522 111.754 41.5383 111.878C42.0035 112.006 42.4366 112.11 42.8295 112.255L43.8802 112.68C44.1557 112.799 44.4236 112.936 44.6822 113.089L45.3318 113.474C45.3318 113.474 45.0591 113.41 44.602 113.274C44.3774 113.217 44.1047 113.113 43.8 113.041L42.7253 112.816C42.3323 112.736 41.9233 112.696 41.4501 112.616C40.9769 112.536 40.5037 112.536 40.0145 112.471C39.5253 112.407 38.996 112.471 38.4747 112.391H36.8707C36.3414 112.391 35.804 112.391 35.2667 112.447C34.7293 112.503 34.2161 112.495 33.7188 112.552L32.2672 112.688L30.9118 112.888Z" fill="#EEC89C"/>
<path d="M32.1224 135.085C31.3204 129.429 27.1982 131.33 27.1982 131.33C21.8889 126.181 21.1431 130.937 21.1431 130.937C12.0644 128.996 14.7271 133.713 14.7271 133.713C3.49907 136.256 13.7005 139.328 13.7005 139.328C12.281 141.735 16.4193 140.491 19.098 139.488C18.7014 139.759 18.3913 140.138 18.2049 140.581C18.0186 141.023 17.9639 141.51 18.0473 141.983C17.6463 144.125 20.2047 143.243 20.2047 143.243C20.1325 147.478 28.4172 141.558 28.4172 141.558C28.353 146.371 36.7099 139.28 36.7099 139.28C37.0307 134.058 32.1224 135.085 32.1224 135.085ZM35.3304 138.574C35.0658 138.47 34.761 138.309 34.3841 138.189L33.141 137.764C32.6919 137.611 32.1786 137.507 31.6493 137.355C31.1199 137.202 30.5505 137.13 29.9731 136.986C29.3956 136.841 28.7701 136.801 28.1606 136.681C27.551 136.561 26.9014 136.528 26.2678 136.464C25.6343 136.4 25.0007 136.336 24.3671 136.312C23.7335 136.288 23.124 136.232 22.5225 136.224C21.921 136.216 21.3355 136.224 20.7822 136.224H19.1782H16.8283H15.9301C16.9784 135.898 18.0512 135.656 19.1381 135.502C19.6193 135.438 20.1486 135.341 20.7421 135.309C21.3355 135.277 21.8969 135.197 22.5145 135.181C23.132 135.165 23.7736 135.181 24.4232 135.181C25.0729 135.181 25.7225 135.253 26.3881 135.285C27.0538 135.317 27.6954 135.454 28.337 135.558C28.9786 135.662 29.6122 135.807 30.2137 135.975C30.7926 136.126 31.3629 136.308 31.9219 136.52C32.4513 136.737 32.9565 136.922 33.3976 137.146C33.8387 137.371 34.2397 137.595 34.5846 137.796C34.8824 137.976 35.169 138.174 35.4427 138.39L36.1645 138.935L35.3304 138.574Z" fill="#EEC89C"/>
<path d="M20.5017 92.4416C22.4987 88.5912 18.4005 87.7088 18.4005 87.7088C19.6997 83.1124 15.8982 83.1685 15.8982 83.1685C13.5724 77.425 11.391 80.8102 11.391 80.8102C5.09528 76.2539 5.5444 80.8102 5.5444 80.8102C-3.94326 78.9492 2.8577 84.7649 2.8577 84.7649C0.956963 86.0804 4.50982 86.5296 6.91582 86.674C6.52777 86.756 6.17098 86.9465 5.887 87.2234C5.60303 87.5004 5.40356 87.8523 5.31182 88.2382C4.27724 89.7383 6.53888 89.9308 6.53888 89.9308C5.04716 93.1395 13.396 91.4228 13.396 91.4228C11.7278 95.0406 20.5017 92.4416 20.5017 92.4416ZM12.0326 86.0242C11.5594 85.7916 11.1103 85.5349 10.6451 85.3264L9.32182 84.7087L8.13486 84.1713L6.32234 83.3691L5.63262 83.0723C6.54359 83.1762 7.44474 83.3533 8.32734 83.6017C8.72032 83.714 9.12934 83.8263 9.5945 83.9867C10.0597 84.1472 10.5248 84.2916 10.998 84.4921C11.4712 84.6927 11.9684 84.8932 12.4576 85.1258C12.9469 85.3585 13.4361 85.6312 13.9253 85.8799C14.4145 86.1285 14.8797 86.4494 15.3368 86.7462C15.794 87.043 16.227 87.3639 16.628 87.7008C17.029 88.0377 17.43 88.3505 17.7508 88.6955C18.0716 89.0404 18.4085 89.3532 18.6731 89.6741L19.3629 90.5725C19.5634 90.8453 19.6917 91.118 19.82 91.3185C20.0606 91.7437 20.1809 91.9843 20.1809 91.9843C20.1809 91.9843 19.9804 91.7838 19.6596 91.4389C19.4912 91.2704 19.3067 91.0458 19.0661 90.8212C18.8255 90.5966 18.5448 90.3559 18.2641 90.0832C17.9834 89.8105 17.6065 89.5618 17.2616 89.281C16.9168 89.0003 16.4596 88.7356 16.0987 88.4307C15.7378 88.1259 15.2406 87.8853 14.8155 87.5805C14.3905 87.2756 13.9012 87.035 13.4441 86.7783C12.987 86.5216 12.5298 86.2489 12.0326 86.0242Z" fill="#EEC89C"/>
<path d="M54.314 141.373C53.9499 141.062 53.5517 140.793 53.127 140.571C53.382 140.434 53.6284 140.281 53.8649 140.114C53.8649 140.114 55.4688 129.277 51.4589 131.86C51.4589 131.86 52.1405 121.704 48.5716 123.982C48.5716 123.982 47.9782 121.343 46.3662 122.811C45.9309 122.995 45.5567 123.298 45.287 123.685C45.0172 124.073 44.863 124.529 44.8424 125.001C44.281 122.194 43.1662 118.022 41.8669 120.493C41.8669 120.493 33.8469 113.402 37.6324 124.319C37.6324 124.319 32.2109 124.52 38.6269 131.226C38.6269 131.226 34.9858 134.362 42.1476 136.175C42.1476 136.175 42.701 140.683 47.9301 138.397C48.2979 139.347 48.9507 140.16 49.7987 140.724C49.1469 141.21 48.617 141.842 48.2509 142.569C43.2464 139.825 42.292 144.269 42.292 144.269C34.9938 145.432 38.3462 148.882 38.3462 148.882C31.3607 154.994 36.7422 155.676 36.7422 155.676C32.0184 166.2 40.5998 159.847 40.5998 159.847C41.6745 162.422 43.1582 158.363 43.9682 155.62C43.9446 156.092 44.0567 156.562 44.2911 156.972C44.5256 157.383 44.8727 157.718 45.2915 157.938C46.7671 159.542 47.5932 156.967 47.5932 156.967C50.9376 159.558 51.1701 149.379 51.1701 149.379C54.9796 152.307 54.314 141.373 54.314 141.373ZM49.0128 137.459C48.5476 137.122 48.1145 136.657 47.6494 136.288C47.1842 135.919 46.7591 135.389 46.31 134.916C45.8609 134.443 45.508 133.905 45.0589 133.392C44.6098 132.878 44.2569 132.325 43.9281 131.787C43.5993 131.25 43.2384 130.696 42.9416 130.183C42.6449 129.67 42.3642 129.116 42.1396 128.579C41.9151 128.041 41.6745 127.584 41.474 127.135C41.0367 126.13 40.68 125.092 40.4073 124.031L40.8725 124.833L42.0835 126.854C42.3481 127.263 42.6208 127.704 42.8855 128.178C43.1501 128.651 43.503 129.132 43.8318 129.63C44.1607 130.127 44.5296 130.632 44.8825 131.162C45.2353 131.691 45.6283 132.181 46.0053 132.702C46.3822 133.223 46.8073 133.705 47.1842 134.186C47.5611 134.667 47.9862 135.149 48.3952 135.574C48.8042 135.999 49.1972 136.448 49.5902 136.809C49.9832 137.17 50.3922 137.555 50.721 137.86C51.0498 138.165 51.4348 138.445 51.7395 138.702C52.0443 138.959 52.333 139.127 52.5415 139.296C53.0067 139.625 53.2714 139.833 53.2714 139.833L52.4694 139.504C52.1418 139.388 51.8229 139.248 51.515 139.087C51.1621 138.895 50.7611 138.67 50.336 138.413C49.911 138.157 49.4699 137.796 49.0128 137.459ZM49.7746 144.301C49.3335 144.622 48.9727 145.047 48.4674 145.424C47.9621 145.801 47.6093 146.275 47.1441 146.692C46.6789 147.109 46.2699 147.606 45.8368 148.071C45.4038 148.537 44.9707 149.018 44.5777 149.507C44.1847 149.997 43.7757 150.454 43.3988 150.935C43.0218 151.416 42.6609 151.866 42.3241 152.307L41.4018 153.55L40.0143 155.443L39.485 156.173C39.8439 155.153 40.2837 154.163 40.8003 153.213C41.0329 152.78 41.2815 152.307 41.6023 151.834C41.9231 151.36 42.2038 150.839 42.5647 150.342C42.9256 149.844 43.2865 149.315 43.6955 148.801C44.1045 148.288 44.4975 147.807 44.9627 147.293C45.4278 146.78 45.8769 146.347 46.3501 145.89C46.8233 145.432 47.3045 145.023 47.8017 144.646C48.2703 144.274 48.7575 143.926 49.2614 143.603C49.7506 143.307 50.1997 143.01 50.6488 142.801C51.0979 142.593 51.515 142.4 51.8839 142.24C52.206 142.109 52.5354 141.996 52.8704 141.903L53.7365 141.662L52.9345 142.127C52.6939 142.272 52.3812 142.424 52.0604 142.649C51.7396 142.873 51.3786 143.13 50.9776 143.387C50.5766 143.643 50.2238 143.972 49.7746 144.301Z" fill="#EEC89C"/>
<path d="M21.352 61.9511C20.2532 63.5554 23.1484 62.8896 25.0411 62.3522C24.7602 62.5101 24.5302 62.745 24.3782 63.0292C24.2262 63.3134 24.1585 63.6351 24.183 63.9565C23.758 65.4164 25.5785 64.9752 25.5785 64.9752C25.3058 67.863 31.2887 64.2613 31.2887 64.2613C30.984 67.5422 37.0872 63.1463 37.0872 63.1463C37.5844 59.6007 34.1839 60.0339 34.1839 60.0339C33.9353 56.1193 30.9759 57.2023 30.9759 57.2023C27.6156 53.392 26.8456 56.6006 26.8456 56.6006C20.7424 54.7877 22.3144 58.205 22.3144 58.205C14.5029 59.2959 21.352 61.9511 21.352 61.9511ZM25.2898 59.6088C25.6186 59.6088 25.9875 59.5606 26.3725 59.5606C26.7574 59.5606 27.1745 59.5606 27.5995 59.5606C28.0246 59.5606 28.4577 59.5606 28.8988 59.6489C29.3399 59.7371 29.789 59.7692 30.2381 59.8334C30.6872 59.8975 31.1283 60.0179 31.5614 60.1221C31.9945 60.2264 32.4195 60.3628 32.8205 60.5072C33.2215 60.6516 33.6225 60.796 33.9594 60.9724C34.2962 61.1489 34.6491 61.3013 34.9378 61.4778L35.7398 61.9832C35.9724 62.1356 36.1408 62.3201 36.3012 62.4404C36.598 62.6971 36.7584 62.8495 36.7584 62.8495L36.1729 62.5687C35.9965 62.4805 35.796 62.3602 35.5473 62.2559L34.7453 61.8949C34.4406 61.7666 34.0957 61.6703 33.7509 61.5339C33.406 61.3976 33.005 61.3254 32.62 61.189C32.2351 61.0527 31.818 61.0045 31.393 60.8922C30.9679 60.7799 30.5429 60.7157 30.1098 60.6355C29.6767 60.5553 29.2516 60.4831 28.8186 60.435C28.3855 60.3869 27.9685 60.3066 27.5594 60.2746L26.3484 60.1622L25.2817 60.082L23.6777 59.9697H23.0602C23.7901 59.7911 24.5329 59.6704 25.2817 59.6088H25.2898Z" fill="#EEC89C"/>
<path d="M68.9584 149.876C65.4056 145.408 62.8151 149.13 62.8151 149.13C55.5971 147.382 57.3856 151.866 57.3856 151.866C48.5636 154.794 53.2793 157.481 53.2793 157.481C44.8583 165.374 55.2362 162.839 55.2362 162.839C55.2362 165.631 58.1635 162.462 59.968 160.24C59.766 160.669 59.6897 161.145 59.7479 161.615C59.8061 162.085 59.9965 162.529 60.2968 162.895C61.0347 164.949 62.7991 162.895 62.7991 162.895C64.8763 166.585 69.0226 157.28 69.0226 157.28C71.4286 161.452 75.0135 151.104 75.0135 151.104C72.6797 146.507 68.9584 149.876 68.9584 149.876ZM73.4817 151.264C73.1453 151.295 72.8107 151.343 72.4792 151.408C72.0943 151.489 71.6772 151.585 71.188 151.673C70.6988 151.761 70.2256 151.946 69.6963 152.074C69.167 152.203 68.6296 152.435 68.0923 152.604C67.5549 152.772 66.9695 153.061 66.376 153.261C65.7825 153.462 65.2131 153.775 64.6357 154.064C64.0582 154.352 63.4728 154.601 62.9194 154.866C62.366 155.13 61.8046 155.427 61.3154 155.732C60.8262 156.037 60.2728 156.294 59.7996 156.574L58.4442 157.377L56.4232 158.588L55.6212 159.061C56.3603 158.248 57.165 157.497 58.0272 156.815C58.4121 156.51 58.8292 156.165 59.2863 155.844C59.7435 155.524 60.2247 155.163 60.754 154.842C61.2833 154.521 61.8206 154.176 62.358 153.863C62.8953 153.55 63.5209 153.269 64.1063 152.965C64.6918 152.66 65.3174 152.443 65.9269 152.211C66.5364 151.978 67.1539 151.777 67.7554 151.617C68.3569 151.457 68.9344 151.304 69.5038 151.224C70.0732 151.144 70.5945 151.047 71.1078 151.015L72.4632 150.967C72.812 150.974 73.1601 151 73.5058 151.047L74.396 151.152L73.4817 151.264Z" fill="#EEC89C"/>
<path d="M37.8571 60.3064C37.8571 60.3064 35.7879 63.0257 39.036 64.3814C39.036 64.3814 45.9252 61.3572 42.9417 59.9534C42.9417 59.9534 49.0851 56.6164 46.4545 55.3891C46.4545 55.3891 47.7698 54.0735 46.3182 53.6805C46.0532 53.4932 45.7399 53.386 45.4157 53.3718C45.0915 53.3576 44.77 53.4369 44.4896 53.6003C45.9091 52.2366 47.9222 50.0627 46.0134 50.2151C46.0134 50.2151 47.2004 42.9957 42.244 49.1643C42.244 49.1643 40.1347 46.092 38.6029 52.2767C38.6029 52.2767 35.443 51.3061 36.9989 56.1351C37.023 56.1512 34.609 58.1084 37.8571 60.3064ZM38.7954 60.5952C38.8362 60.1796 38.9032 59.767 38.9959 59.3598C39.0681 58.9427 39.1884 58.5577 39.3007 58.0844C39.413 57.6111 39.5734 57.2261 39.7177 56.7929C39.8621 56.3597 40.0545 55.9907 40.239 55.5495C40.4235 55.1083 40.624 54.7474 40.8245 54.3784C41.025 54.0094 41.2335 53.6484 41.434 53.3195C41.6345 52.9906 41.843 52.6858 42.0275 52.405C42.4492 51.7819 42.9213 51.1944 43.439 50.6483L43.1583 51.2018C42.9818 51.5467 42.7332 52.0441 42.4365 52.6457L41.9713 53.6163C41.8109 53.9532 41.6425 54.3222 41.4741 54.6992C41.3057 55.0763 41.1533 55.5014 40.9769 55.8624C40.8004 56.2234 40.656 56.6645 40.4956 57.0817C40.3352 57.4988 40.1909 57.8838 40.0626 58.317C39.9343 58.7502 39.7979 59.1192 39.7017 59.5283C39.6054 59.9374 39.4851 60.3304 39.421 60.6754C39.3568 61.0203 39.2766 61.3893 39.2285 61.7182C39.1804 62.0471 39.1483 62.3439 39.1162 62.6086C39.0841 62.8733 39.1162 63.1139 39.0681 63.3065C39.0681 63.6995 39.028 63.9241 39.028 63.9241C39.028 63.9241 38.9799 63.7076 38.9077 63.3225C38.8562 63.087 38.8187 62.8486 38.7954 62.6086C38.7954 62.3359 38.7954 62.023 38.7954 61.6781C38.7776 61.3173 38.7776 60.9559 38.7954 60.5952Z" fill="#EEC89C"/>
<path d="M26.4847 43.7578C26.1874 43.6264 25.8586 43.5831 25.5374 43.6328C25.2161 43.6826 24.9159 43.8234 24.6722 44.0386C23.2767 44.5921 24.7283 45.7552 24.7283 45.7552C22.2502 47.2633 28.7383 49.9024 28.7383 49.9024C25.9233 51.6271 33.1012 53.8731 33.1012 53.8731C36.221 52.1645 33.831 49.6939 33.831 49.6939C36.8145 47.151 34.2 45.4584 34.2 45.4584C35.2426 40.485 32.211 41.7925 32.211 41.7925C29.9975 35.8164 28.201 39.0973 28.201 39.0973C22.587 33.4821 24.576 40.5652 24.576 40.5652C22.6832 40.6214 24.9208 42.5626 26.4847 43.7578ZM28.8266 42.314C29.0431 42.5706 29.2837 42.8434 29.5163 43.1161C29.7489 43.3889 30.0055 43.7498 30.2381 44.1028C30.4707 44.4557 30.7193 44.8167 30.9438 45.2017C31.1684 45.5868 31.3769 46.0039 31.6015 46.3809C31.826 46.7579 31.9864 47.1831 32.1629 47.6163C32.3393 48.0494 32.4837 48.4184 32.604 48.8596C32.8395 49.5989 33.0033 50.3591 33.0932 51.1297C33.0932 51.4747 33.1413 51.7875 33.1574 52.0603C33.1712 52.3007 33.1712 52.5418 33.1574 52.7822C33.1574 53.1753 33.1092 53.3918 33.1092 53.3918C33.1092 53.3918 33.0611 53.1672 32.997 52.7822C32.997 52.5897 32.9408 52.3571 32.8767 52.1004C32.8125 51.8437 32.7323 51.5388 32.6601 51.218C32.5879 50.8971 32.4516 50.5682 32.3554 50.2073C32.2591 49.8463 32.0827 49.4853 31.9544 49.0922C31.826 48.6992 31.6175 48.2901 31.4651 47.9291C31.3128 47.5681 31.0882 47.1269 30.8957 46.7579C30.7032 46.3889 30.5027 45.9558 30.2862 45.5948C30.0697 45.2338 29.8772 44.8408 29.6606 44.4958C29.4441 44.1509 29.2436 43.7899 29.0431 43.4691C28.8426 43.1482 28.6501 42.8434 28.4817 42.5546L27.5995 41.1989L27.2627 40.6856C27.8259 41.1864 28.3488 41.7309 28.8266 42.314Z" fill="#EEC89C"/>
<path d="M49.1654 96.3318C49.1654 96.3318 50.2962 94.3585 48.4596 94.3585C48.088 94.2225 47.6852 94.1956 47.2987 94.2809C46.9123 94.3661 46.5582 94.5601 46.2782 94.8398C47.5213 92.7943 49.1975 89.5856 47 90.3718C47 90.3718 46.0857 81.4757 42.188 90.3718C42.188 90.3718 38.7314 87.4278 38.8918 95.1847C38.8918 95.1847 34.8818 95.0564 38.2662 100.238C38.2662 100.238 36.0527 103.327 40.576 104.875C40.576 104.875 38.972 108.749 43.2627 109.303C43.2627 109.303 50.4085 103.543 46.4707 102.886C46.4867 102.821 52.63 96.9415 49.1654 96.3318ZM43.9284 92.4734C43.8321 92.9387 43.6958 93.6045 43.5354 94.3986C43.4632 94.7997 43.383 95.2008 43.2948 95.6901C43.2066 96.1794 43.1344 96.6286 43.0622 97.126C42.99 97.6233 42.9178 98.1447 42.8376 98.6581C42.7574 99.1715 42.7254 99.717 42.6612 100.262C42.597 100.808 42.573 101.329 42.5489 101.867C42.5249 102.404 42.4928 102.91 42.5489 103.407C42.6051 103.904 42.5489 104.394 42.5489 104.851C42.5489 105.308 42.597 105.741 42.6532 106.142C42.7093 106.543 42.7574 106.904 42.7975 107.233C42.8376 107.562 42.9259 107.827 42.974 108.035C43.0702 108.501 43.1183 108.773 43.1183 108.773C43.1183 108.773 42.99 108.533 42.7815 108.1C42.6495 107.839 42.5317 107.571 42.4286 107.297C42.3244 106.977 42.2041 106.616 42.0838 106.215C41.9675 105.781 41.8738 105.342 41.8031 104.899C41.7132 104.406 41.6543 103.907 41.6266 103.407C41.5785 102.894 41.5785 102.356 41.5705 101.803C41.5625 101.249 41.6266 100.712 41.6587 100.198C41.6908 99.6849 41.787 99.0993 41.8752 98.5939C41.9635 98.0886 42.0677 97.5271 42.188 97.0297C42.3083 96.5324 42.4366 96.0431 42.573 95.5938C42.7093 95.1446 42.8537 94.7115 42.982 94.3264C43.2816 93.4593 43.649 92.6171 44.0807 91.8076L43.9284 92.4734Z" fill="#EEC89C"/>
<path d="M48.5156 61.7667C48.5156 61.7667 47.5131 58.181 44.0725 63.5475C44.0725 63.5475 41.3939 61.6223 41.3377 66.7C41.3377 66.7 38.4184 67.799 40.7924 70.9114C40.7924 70.9114 37.9292 72.8125 40.6079 75.1629C40.6079 75.1629 48.0986 74.4971 45.7247 72.2109C45.7247 72.2109 52.6058 71.0237 50.5367 69.0022C50.5367 69.0022 52.2048 68.2001 50.9617 67.3417C50.7703 67.0791 50.5077 66.8768 50.205 66.7588C49.9022 66.6408 49.572 66.6121 49.2535 66.676C51.0339 65.8738 53.6404 64.4299 51.7797 63.9566C51.7557 64.0047 55.1963 57.5313 48.5156 61.7667ZM48.7081 64.0047L47.5612 65.1358L46.8074 65.938L46.0054 66.8043C45.7166 67.1011 45.452 67.43 45.1552 67.7508C44.8585 68.0717 44.5938 68.4166 44.3532 68.7536C44.1126 69.0905 43.8079 69.4354 43.5512 69.7803C43.2946 70.1253 43.038 70.4622 42.8214 70.8151C42.6049 71.1681 42.3643 71.4809 42.1878 71.8098C42.0114 72.1387 41.8189 72.4435 41.6746 72.7323L41.2736 73.5345C41.1533 73.7831 41.0891 74.0077 41.0089 74.1842C40.8645 74.5452 40.7683 74.7538 40.7683 74.7538C40.7683 74.7538 40.7683 74.5291 40.8485 74.1441C40.8774 73.9065 40.9202 73.6708 40.9768 73.4382C41.049 73.1735 41.1372 72.8687 41.2335 72.5398C41.3297 72.2109 41.4901 71.882 41.6425 71.521C41.8088 71.1444 41.9962 70.7775 42.2039 70.4221C42.4124 70.045 42.653 69.6841 42.9016 69.3071C43.1502 68.93 43.439 68.5851 43.7036 68.2241C43.9683 67.8632 44.2891 67.5262 44.6019 67.2054C44.9146 66.8845 45.2114 66.5717 45.5242 66.2829C45.8369 65.9941 46.1417 65.7294 46.4384 65.4807C46.7352 65.2321 47.0319 65.0074 47.2966 64.8069C47.8949 64.3504 48.5308 63.9452 49.1973 63.5956L48.7081 64.0047Z" fill="#EEC89C"/>
<path d="M18.6813 107.73C19.2668 109.471 20.7745 107.73 20.7745 107.73C22.4587 110.851 26.0838 103.134 26.0838 103.134C28.0005 106.664 31.1925 98.0644 31.1925 98.0644C30.849 97.2244 30.1978 96.5473 29.372 96.1713C29.9535 96.3361 30.5561 96.4144 31.1604 96.4039C31.1604 96.4039 30.8717 100.591 35.1704 99.7329C35.1704 99.7329 40.0947 91.992 36.1168 92.5936C36.1168 92.5936 40.0787 85.0453 36.5739 85.5827C36.5739 85.5827 37.015 83.3607 35.2827 83.9784C34.8929 83.9708 34.5087 84.0718 34.173 84.2701C33.8373 84.4684 33.5634 84.7563 33.382 85.1014C33.9033 82.7591 34.4647 79.1895 32.6361 80.6414C32.4557 80.2566 32.2549 79.8817 32.0346 79.5183C32.9201 79.5067 33.804 79.4397 34.6812 79.3178C33.1333 82.2297 40.4556 80.5371 40.4556 80.5371C42.2842 77.4728 38.9639 76.5263 38.9639 76.5263C40.2551 72.8283 37.1433 72.6839 37.1433 72.6839C35.5393 67.8709 33.5664 70.5421 33.5664 70.5421C28.6341 66.5313 28.7544 70.2213 28.7544 70.2213C21.0793 68.2399 26.3484 73.3256 26.3484 73.3256C24.7444 74.3444 27.6396 74.93 29.5564 75.1225C29.2345 75.1607 28.9303 75.2907 28.68 75.4969C28.4298 75.7031 28.244 75.9769 28.1449 76.2856C27.2627 77.4969 29.0993 77.8097 29.0993 77.8097C29.0578 77.8869 29.0229 77.9674 28.995 78.0504C28.578 78.7082 28.2411 79.9756 28.0567 82.1735C28.0567 82.1735 23.8382 80.489 26.4527 87.7887C26.4527 87.7887 22.5951 88.9518 27.4712 92.7701C27.2595 93.4271 27.3078 94.1402 27.6063 94.7626C27.9047 95.3849 28.4305 95.869 29.0752 96.1151C27.5434 95.69 26.0757 96.9734 26.0757 96.9734C23.1725 93.1792 20.9349 96.2595 20.9349 96.2595C14.952 94.6552 16.3555 98.4575 16.3555 98.4575C8.92898 100.768 12.8187 103.11 12.8187 103.11C5.64078 109.591 14.3746 107.634 14.3746 107.634C14.3264 109.969 16.8287 107.361 18.3846 105.533C18.2223 105.89 18.1641 106.285 18.2166 106.674C18.2691 107.063 18.4302 107.429 18.6813 107.73ZM32.0506 92.9225C32.2191 93.4199 32.3313 93.9252 32.5078 94.3985C32.6842 94.8718 32.8125 95.329 33.005 95.7461C33.1975 96.1633 33.3419 96.5483 33.5183 96.9333C33.6947 97.3184 33.8632 97.6232 34.0075 97.92C34.1519 98.2168 34.3203 98.4494 34.4326 98.658C34.6812 99.0671 34.8095 99.3078 34.8095 99.3078L34.2802 98.7783C34.0712 98.575 33.8731 98.3608 33.6867 98.1366C33.4862 97.8638 33.2536 97.559 33.013 97.2221C32.7724 96.8852 32.5639 96.4841 32.3233 96.067C32.0827 95.6499 31.8983 95.1846 31.6817 94.7113C31.4652 94.2381 31.2968 93.7247 31.1203 93.2033C30.9439 92.6819 30.8156 92.1524 30.6712 91.5989C30.5268 91.0455 30.4386 90.516 30.3504 89.9946C30.2622 89.4732 30.198 88.9277 30.1499 88.3903C30.1018 87.8528 30.0697 87.3796 30.0456 86.9063C30.0216 86.433 30.0456 85.9838 30.0456 85.5747C30.0505 84.6582 30.1283 83.7435 30.2782 82.8393C30.2782 82.8393 30.2782 83.112 30.3745 83.5853C30.4707 84.0586 30.5188 84.7324 30.6151 85.5426C30.6792 85.9437 30.7434 86.3448 30.8075 86.8341C30.8717 87.3234 30.9599 87.7726 31.0401 88.27C31.1203 88.7673 31.2326 89.2807 31.3288 89.7941C31.4251 90.3075 31.5534 90.8369 31.6657 91.3984C31.778 91.9599 31.9063 92.4171 32.0506 92.9225ZM29.2597 72.4352L28.7063 72.1946C29.4467 72.3258 30.176 72.5135 30.8877 72.7561C31.2085 72.8684 31.5534 72.9807 31.9143 73.1331C32.2752 73.2855 32.6521 73.4299 33.0291 73.6224C33.406 73.8149 33.8311 73.9914 34.2 74.208C34.5689 74.4246 35.002 74.6652 35.3629 74.8899C35.7238 75.1145 36.1088 75.4032 36.4697 75.692C36.8306 75.9808 37.1674 76.2375 37.4802 76.4942C37.793 76.7509 38.0977 77.0557 38.3544 77.3605C38.611 77.6653 38.8596 77.9301 39.0601 78.2108C39.2606 78.4916 39.429 78.7483 39.5814 79.013C39.7338 79.2777 39.822 79.4702 39.9183 79.6387C40.0947 79.9996 40.1829 80.2002 40.1829 80.2002C40.1829 80.2002 40.0305 80.0317 39.7819 79.7349C39.6536 79.5825 39.5173 79.39 39.3248 79.1975L38.6992 78.5477C38.4747 78.3151 38.1859 78.0905 37.8972 77.8338C37.6085 77.5771 37.2957 77.3445 36.991 77.0798C36.6862 76.815 36.3093 76.5904 35.9724 76.3257C35.6356 76.061 35.2586 75.8364 34.8897 75.5958C34.5208 75.3551 34.1599 75.1225 33.7749 74.9059C33.39 74.6893 33.0451 74.4647 32.6762 74.2722L31.6336 73.7026L30.6792 73.1973L29.2597 72.4352ZM18.3124 102.412L17.1655 103.046L15.4573 104.033L14.8076 104.41C15.4364 103.741 16.1176 103.124 16.8447 102.565C17.1735 102.324 17.5184 102.035 17.9194 101.762C18.3204 101.49 18.7214 101.209 19.1625 100.96C19.6036 100.712 20.0607 100.423 20.5419 100.158C21.0231 99.8933 21.5284 99.6767 22.0256 99.4361C22.5229 99.1954 23.0522 99.019 23.5655 98.8264C24.0788 98.6339 24.592 98.4895 25.0973 98.3692C25.5806 98.2409 26.0705 98.1391 26.565 98.0644C27.0462 98.0002 27.4873 97.928 27.9043 97.912C28.3213 97.8959 28.7063 97.912 29.0431 97.912C29.38 97.912 29.6687 97.9762 29.9093 97.9922L30.6552 98.0965L29.9093 98.1927C29.6687 98.1927 29.388 98.1927 29.0672 98.297C28.7464 98.4013 28.3775 98.4334 27.9845 98.4976C27.5915 98.5617 27.1825 98.7141 26.7254 98.8104C26.2682 98.9067 25.8271 99.0992 25.3459 99.2356C24.8647 99.3719 24.3996 99.5965 23.9023 99.757C23.4051 99.9174 22.9239 100.166 22.4347 100.375C21.9454 100.583 21.4482 100.8 20.983 101.04C20.5179 101.281 20.0367 101.498 19.5956 101.738C19.1545 101.979 18.7134 102.188 18.3124 102.412Z" fill="#EEC89C"/>
<path d="M47.9782 47.6644C45.6203 48.7393 51.0258 51.1859 51.0258 51.1859C53.6243 50.1511 51.9962 47.9772 51.9962 47.9772C54.5706 46.2847 52.6939 44.7044 52.6939 44.7044C53.9771 40.9262 51.4829 41.6562 51.4829 41.6562C50.3361 36.779 48.6519 39.1695 48.6519 39.1695C44.8103 34.2602 45.6765 39.9716 45.6765 39.9716C44.1767 39.8352 45.7326 41.5759 46.8393 42.6428C46.6176 42.516 46.3647 42.454 46.1095 42.4639C45.8543 42.4739 45.607 42.5553 45.3957 42.699C44.2569 42.9958 45.2755 44.0386 45.2755 44.0386C43.1822 44.9771 47.9782 47.6644 47.9782 47.6644ZM48.7802 41.7444C48.9245 41.969 49.093 42.2097 49.2453 42.4744C49.3977 42.7391 49.5661 43.0118 49.7105 43.2765C49.8549 43.5412 50.0153 43.8862 50.1596 44.207C50.304 44.5279 50.4243 44.8648 50.5606 45.1937C50.697 45.5226 50.7772 45.8675 50.8734 46.2125C50.9696 46.5574 51.0498 46.8863 51.106 47.2152C51.1621 47.5441 51.2183 47.8729 51.2343 48.1778C51.2503 48.4826 51.2343 48.7794 51.2343 49.0441C51.2343 49.3088 51.2343 49.5575 51.1942 49.7741C51.1755 49.9633 51.1433 50.1509 51.098 50.3356C51.0418 50.6404 51.0017 50.8089 51.0017 50.8089C51.0017 50.8089 51.0017 50.6324 51.0017 50.3195C51.0017 50.1671 51.0017 49.9826 51.0017 49.7741C51.0017 49.5655 50.9456 49.3249 50.9215 49.0682C50.8975 48.8115 50.8173 48.5387 50.7772 48.266C50.7371 47.9933 50.6328 47.6724 50.5686 47.3596C50.5045 47.0467 50.3762 46.7258 50.296 46.397C50.2158 46.0681 50.0794 45.7552 49.9752 45.4263C49.8709 45.0974 49.7426 44.7766 49.6062 44.4637C49.4699 44.1509 49.3576 43.83 49.2213 43.5412C49.0849 43.2525 48.9646 42.9557 48.8363 42.6829C48.708 42.4102 48.5957 42.1535 48.4835 41.8808C48.2589 41.4075 48.0664 41.0144 47.9301 40.7417L47.7135 40.3005C48.109 40.7415 48.4684 41.2137 48.7882 41.7123L48.7802 41.7444Z" fill="#EEC89C"/>
<path d="M179.29 130.199L180.404 130.336C180.404 130.256 183.556 102.068 216.494 90.2276L216.117 89.1768C182.554 101.257 179.346 130.119 179.29 130.199Z" fill="#EEC89C"/>
<path d="M195.426 93.773C195.426 93.7169 184.671 73.0852 201.714 49.9507L200.976 49.4053C183.597 72.9969 194.584 94.126 194.584 94.1901L195.426 93.773Z" fill="#EEC89C"/>
<path d="M141.243 165.158L142.382 165.839C142.438 165.759 159.472 136.488 201.216 139.448L201.312 138.117C158.742 135.1 141.291 165.069 141.243 165.158Z" fill="#EEC89C"/>
<path d="M189.291 58.205L189.595 57.5552C189.547 57.5552 172.978 49.7823 172.545 27.1772H171.831C172.272 50.2395 189.242 58.1809 189.291 58.205Z" fill="#EEC89C"/>
</g>
<defs>
<clipPath id="clip0_14_1358">
<rect width="231" height="166" fill="white" transform="translate(0.5)"/>
</clipPath>
</defs>
</svg>
