<svg width="120" height="116" viewBox="0 0 120 116" fill="none" xmlns="http://www.w3.org/2000/svg">
<path d="M98.0859 56.5938V61.5156C98.0859 62.6172 97.1719 63.5313 96.0703 63.5313H88.2891C87.1875 63.5313 86.2734 62.6172 86.2734 61.5156V59.6406L60 66.4375L34.5938 59.875V61.5156C34.5938 62.6172 33.6797 63.5313 32.5781 63.5313H24.7969C23.6953 63.5313 22.7812 62.6172 22.7812 61.5156V56.8281L3.82031 51.7891V91.4687C3.82031 97.1875 8.60156 102.109 15 102.109H104.977C111.375 102.109 116.086 97.1641 116.086 91.4687V51.7891L98.0859 56.5938Z" fill="#C3A962"/>
<path d="M105 107.688H15.0234C8.625 107.688 3.86719 105.109 3.86719 99.3906V105.414C3.86719 111.133 8.64844 115.422 15.0469 115.422H105.023C111.422 115.422 116.133 111.109 116.133 105.391V99.3672C116.133 105.086 111.375 107.688 105 107.688Z" fill="#C3A962"/>
<path d="M107.672 23.4297H12.3281C5.55469 23.4297 0.0234375 28.375 0.0234375 34.4453V45.4609L22.8281 51.3672V48.5781C22.8281 47.4766 23.7422 46.5625 24.8438 46.5625H32.625C33.7266 46.5625 34.6406 47.4766 34.6406 48.5781V54.4141L60.0469 60.9766L86.3437 54.1797V48.5781C86.3437 47.4766 87.2578 46.5625 88.3594 46.5625H96.1406C97.2422 46.5625 98.1562 47.4766 98.1562 48.5781V51.1328L120.07 45.4609V34.4453C120 28.375 114.445 23.4297 107.672 23.4297Z" fill="#C3A962"/>
<path d="M36.7266 19.5625V14.7344C36.7266 10.375 40.2891 6.78906 44.6719 6.78906H75.3047C79.6641 6.78906 83.25 10.3516 83.25 14.7344V19.5625H91.3828V11.7578C91.3828 5.40625 86.4609 0.34375 80.1094 0.34375H39.9609C33.6094 0.34375 28.5938 5.35937 28.5938 11.7109V19.5156L36.7266 19.5625Z" fill="#C3A962"/>
</svg>
