<svg width="33" height="44" viewBox="0 0 33 44" fill="none" xmlns="http://www.w3.org/2000/svg">
<path d="M26.7119 13.5842V9.69298H27.6884V8.2334H26.7119H6.27822H5.30176V9.69298H6.27822V13.5842H26.7119Z" fill="#C3A962"/>
<path d="M29.1449 15.0435H3.84544V42.2895H0.925781V43.7491H3.84544H13.5755V32.5595H19.9004V43.7491H29.1449H32.0641V42.2895H29.1449V15.0435ZM11.6294 38.3978H10.1698V34.7503C10.1698 34.347 9.8419 34.019 9.43906 34.019H8.95496C8.55212 34.019 8.22371 34.347 8.22371 34.7503V38.3978H6.76412V34.7503C6.76412 33.5427 7.7474 32.5595 8.95496 32.5595H9.43906C10.6466 32.5595 11.6294 33.5427 11.6294 34.7503V38.3978ZM11.6294 30.1268H10.1698V26.4793C10.1698 26.076 9.8419 25.7481 9.43906 25.7481H8.95496C8.55212 25.7481 8.22371 26.076 8.22371 26.4793V30.1268H6.76412V26.4793C6.76412 25.2717 7.7474 24.2885 8.95496 24.2885H9.43906C10.6466 24.2885 11.6294 25.2717 11.6294 26.4793V30.1268ZM11.6294 22.3424H10.1698V18.6949C10.1698 18.2915 9.8419 17.9636 9.43906 17.9636H8.95496C8.55212 17.9636 8.22371 18.2915 8.22371 18.6949V22.3424H6.76412V18.6949C6.76412 17.4873 7.7474 16.504 8.95496 16.504H9.43906C10.6466 16.504 11.6294 17.4873 11.6294 18.6949V22.3424ZM18.9278 30.1268H17.4682V26.4793C17.4682 26.076 17.1398 25.7481 16.737 25.7481H16.2529C15.85 25.7481 15.5216 26.076 15.5216 26.4793V30.1268H14.0621V26.4793C14.0621 25.2717 15.0453 24.2885 16.2529 24.2885H16.737C17.9446 24.2885 18.9278 25.2717 18.9278 26.4793V30.1268ZM18.9278 22.3424H17.4682V18.6949C17.4682 18.2915 17.1398 17.9636 16.737 17.9636H16.2529C15.85 17.9636 15.5216 18.2915 15.5216 18.6949V22.3424H14.0621V18.6949C14.0621 17.4873 15.0453 16.504 16.2529 16.504H16.737C17.9446 16.504 18.9278 17.4873 18.9278 18.6949V22.3424ZM21.36 18.6949C21.36 17.4873 22.3433 16.504 23.5508 16.504H24.0349C25.2425 16.504 26.2253 17.4873 26.2253 18.6949V22.3424H24.7657V18.6949C24.7657 18.2915 24.4378 17.9636 24.0349 17.9636H23.5508C23.1475 17.9636 22.8196 18.2915 22.8196 18.6949V22.3424H21.36V18.6949ZM26.2258 38.3978H24.7662V34.7503C24.7662 34.347 24.4378 34.019 24.0349 34.019H23.5508C23.148 34.019 22.8196 34.347 22.8196 34.7503V38.3978H21.36V34.7503C21.36 33.5427 22.3433 32.5595 23.5508 32.5595H24.0349C25.2425 32.5595 26.2258 33.5427 26.2258 34.7503V38.3978ZM26.2258 30.1268H24.7662V26.4793C24.7662 26.076 24.4378 25.7481 24.0349 25.7481H23.5508C23.148 25.7481 22.8196 26.076 22.8196 26.4793V30.1268H21.36V26.4793C21.36 25.2717 22.3433 24.2885 23.5508 24.2885H24.0349C25.2425 24.2885 26.2258 25.2717 26.2258 26.4793V30.1268Z" fill="#C3A962"/>
<rect x="5" y="15.9998" width="22" height="7" fill="#C3A962"/>
<path d="M14.3153 6.86467L16.5451 5.90816L18.7753 6.86467L18.555 4.4476L20.1551 2.62263L17.7872 2.0855L16.5451 -0.000244141L15.303 2.0855L12.9355 2.62215L14.5357 4.44809L14.3153 6.86467Z" fill="#C3A962"/>
</svg>
