<svg width="88" height="122" viewBox="0 0 88 122" fill="none" xmlns="http://www.w3.org/2000/svg">
<path d="M46.6794 55.0062C46.6794 56.5112 46.024 57.8638 44.9864 58.8113C46.9914 58.6911 48.8913 58.3953 50.6744 57.9477L47.3474 62.8079L58.0666 69.9921C57.8907 69.4881 57.7917 68.9566 57.7802 68.4085C57.7771 68.2484 57.7823 68.0899 57.7933 67.9324L49.5284 62.393L58.9231 48.668L67.1214 54.1624C67.3691 53.6909 67.601 53.2211 67.8177 52.7517L65.0854 50.9205C65.1425 50.8081 65.197 50.6936 65.2551 50.5817C65.2336 50.0833 65.2284 49.585 65.2184 49.0866C66.144 48.063 66.978 47.0139 67.7266 45.9623C68.0229 47.6516 68.2931 49.3902 68.5056 51.1474C69.5689 48.4225 70.1149 45.7395 70.1312 43.1115C70.1322 39.8862 69.2653 37.6783 68.892 36.878C68.7936 36.6687 68.726 36.5438 68.6998 36.4977C67.2246 34.122 67.98 30.9371 70.4044 29.4342C71.2389 28.9167 72.198 28.6427 73.1786 28.6427C74.9978 28.6427 76.6574 29.5518 77.6212 31.0749C78.1191 31.8675 80.5938 36.1568 80.6016 43.1172C80.621 47.4009 79.6341 53.2465 75.8522 60.0141L76.4768 60.4332L67.0832 74.1582L65.299 72.962C64.6682 73.2656 63.9782 73.4397 63.2584 73.4723L65.4095 74.914C64.5494 79.3531 63.9023 84.6558 63.895 90.5842C63.8929 98.72 65.1299 108.042 68.7742 117.772C69.7516 120.384 72.253 122 74.9125 122C75.6669 122 76.4339 121.87 77.1835 121.596C80.5733 120.352 82.3031 116.628 81.0477 113.273C78.017 105.178 76.983 97.4332 76.982 90.5847C76.9799 83.2664 78.1751 76.9898 79.3603 72.6036C79.565 71.8451 79.7682 71.1479 79.9655 70.507C83.2705 69.6782 86.2651 67.4615 87.3713 61.8283C88.7251 50.3201 87.9592 43.5177 84.3966 33.0667C81.7607 25.4811 75.2821 23.0794 70.8128 24.1823C68.5396 24.7429 66.9162 26.6166 66.0655 28.9996C65.0326 31.2059 63.9253 34.4312 62.9479 37.8451C62.4406 38.7978 61.859 39.7754 61.1951 40.7384C59.4335 43.3162 57.1347 45.7784 54.1962 47.5776C51.4969 49.2218 48.2563 50.3563 44.0938 50.5459C45.6376 51.4468 46.6794 53.1066 46.6794 55.0062Z" fill="#C3A962"/>
<path d="M65.0871 23.003C71.4214 21.5434 75.3606 15.2793 73.8856 9.01192C72.4106 2.74451 66.0799 -1.15294 59.7456 0.306737C53.4113 1.76641 49.4721 8.03045 50.9471 14.2979C52.4221 20.5653 58.7527 24.4627 65.0871 23.003Z" fill="#C3A962"/>
<path d="M60.0919 53.6469L54.333 61.8066L55.1911 62.3996L60.9499 54.2399L60.0919 53.6469Z" fill="#C3A962"/>
<path d="M63.7553 56.1114L57.9951 64.2705L58.8543 64.8645L64.6145 56.7053L63.7553 56.1114Z" fill="#C3A962"/>
<path d="M79.5547 43.1186C79.5463 36.2312 77.0046 32.0569 76.7334 31.6243C75.5052 29.6843 72.9206 29.0963 70.9605 30.3111C69.0104 31.5197 68.4125 34.056 69.614 35.9924C69.6151 35.9935 69.6151 35.9945 69.6161 35.9961C69.6449 36.0458 69.7255 36.1914 69.8433 36.4436C70.2894 37.401 71.1799 39.7337 71.1788 43.1181C71.1469 48.1679 69.3177 55.7795 59.9948 65.4316C58.3913 67.0821 58.4447 69.7054 60.1136 71.2917C60.9246 72.0636 61.9695 72.4474 63.0134 72.4474C64.1139 72.4474 65.2128 72.0211 66.0357 71.1741C76.5753 60.3709 79.5876 50.3712 79.5547 43.1186Z" fill="#C3A962"/>
<path d="M37.0497 14.2991C38.5247 8.03171 34.5854 1.76767 28.2511 0.307997C21.9168 -1.15168 15.5861 2.74577 14.1111 9.01318C12.6361 15.2806 16.5754 21.5446 22.9097 23.0043C29.244 24.464 35.5747 20.5665 37.0497 14.2991Z" fill="#C3A962"/>
<path d="M8.03067 70.506C9.36303 74.8508 11.0268 82.0029 11.0153 90.5842C11.0132 97.4312 9.9787 105.178 6.95064 113.274C5.69523 116.628 7.42495 120.353 10.8148 121.595C11.5644 121.87 12.3319 122 13.0868 122C15.7463 122 18.2472 120.383 19.2241 117.771C22.8652 108.041 24.1044 98.7195 24.1033 90.5842C24.0861 77.6094 21.0083 67.6299 19.3445 63.1618C18.9336 60.1199 18.965 56.9039 19.2341 53.6987C16.8698 51.8892 14.815 49.7207 13.1821 47.2714C9.45412 41.645 8.69816 36.2444 8.54581 34.1847L8.54058 34.1091C8.4076 31.2049 10.6467 28.7784 13.5313 28.6489C13.6109 28.6453 13.692 28.6432 13.7706 28.6432C16.5735 28.6432 18.8686 30.8159 18.9974 33.5884C18.9995 33.6086 19.0058 33.6806 19.0168 33.7817C19.0414 34.0044 19.0896 34.3639 19.1754 34.826C19.3393 35.688 19.6681 37.0344 20.2999 38.5393C20.6015 39.2506 20.947 39.9142 21.3145 40.555C21.5978 39.1667 21.8737 37.84 22.1171 36.6102C23.6191 31.4541 21.6538 25.2832 17.1855 24.1813C12.7162 23.0784 6.2376 25.4806 3.60166 33.0657C0.0390901 43.5167 -0.726824 50.3191 0.627006 61.8273C1.73321 67.4594 4.72619 69.6767 8.03067 70.506Z" fill="#C3A962"/>
<path d="M18.1477 35.0156C18.0555 34.5251 18.0048 34.1412 17.977 33.8982C17.9639 33.778 17.9566 33.6931 17.9535 33.647L17.9524 33.6366C17.8472 31.3505 15.8892 29.5809 13.5794 29.684C11.2686 29.7876 9.48024 31.7251 9.58547 34.0117H9.58338C9.62316 34.4225 9.87498 40.3908 14.0579 46.7026C16.151 49.8435 19.289 53.032 23.7625 55.3632C28.2245 57.6985 33.9487 59.1527 41.0911 59.1527C41.1021 59.1527 41.1125 59.1527 41.1241 59.1527C41.2508 59.1527 41.357 59.1516 41.446 59.1516C43.7579 59.1516 45.6332 57.2965 45.6332 55.0073C45.6332 52.7186 43.7579 50.864 41.446 50.864C41.3172 50.863 41.2099 50.864 41.1241 50.864C35.0884 50.8594 30.8059 49.6658 27.6732 48.0335C23.0023 45.5826 20.6517 42.0372 19.3356 38.9382C18.688 37.3991 18.3341 35.9968 18.1477 35.0156Z" fill="#C3A962"/>
</svg>
