<svg width="42" height="49" viewBox="0 0 42 49" fill="none" xmlns="http://www.w3.org/2000/svg">
<path d="M41.6149 33.3035C39.3224 24.4742 35.05 13.5279 27.4951 9.44889L32.3407 4.75026C34.1121 3.04636 32.9138 0 30.4129 0H11.6038C9.10287 0 7.8524 2.99473 9.676 4.75026L14.5215 9.44889C6.96666 13.5796 2.69424 24.5258 0.401724 33.3035C-1.47397 40.4805 3.42368 47.7092 10.8223 48.4837C13.74 48.7935 17.1267 49 20.9823 49C24.8379 49 28.2245 48.7935 31.1423 48.4837C38.593 47.7092 43.4385 40.4805 41.6149 33.3035ZM22.5975 38.7766V41.0485C22.5975 41.3066 22.389 41.5132 22.1285 41.5132H19.7839C19.5234 41.5132 19.315 41.3066 19.315 41.0485V38.8282C16.4493 38.725 14.1568 36.5564 13.8963 33.7165C13.8442 33.4584 14.0526 33.2002 14.3652 33.2002H16.762C16.9704 33.2002 17.1788 33.3551 17.2309 33.5616C17.3872 34.6976 18.4292 35.5753 19.5755 35.5753H22.389C23.8479 35.5753 24.9421 34.3361 24.7858 32.8904C24.6295 31.7028 23.5353 30.8251 22.3369 30.8251H19.7839C16.762 30.8251 14.1568 28.5532 13.9484 25.5585C13.74 22.3572 16.2409 19.7239 19.3671 19.6207V17.4004C19.3671 17.1423 19.5755 16.9357 19.836 16.9357H22.1806C22.4411 16.9357 22.6496 17.1423 22.6496 17.4004V19.6207C25.5152 19.7239 27.8077 21.8925 28.0682 24.6807C28.0682 24.9389 27.8598 25.1971 27.5993 25.1971H25.2547C25.0463 25.1971 24.8379 25.0422 24.7858 24.784C24.5774 23.6481 23.5874 22.8219 22.389 22.8219H19.5755C18.1687 22.8219 17.0225 24.0611 17.1788 25.5068C17.3351 26.6944 18.4292 27.5722 19.6276 27.5722H22.2327C25.2547 27.5722 27.8598 29.844 28.0682 32.8388C28.2245 36.04 25.7236 38.6733 22.5975 38.7766Z" fill="#C3A962"/>
</svg>
