<svg width="60" height="49" viewBox="0 0 60 49" fill="none" xmlns="http://www.w3.org/2000/svg">
<path fill-rule="evenodd" clip-rule="evenodd" d="M3.03917 0.613525C1.35444 0.613525 0 1.96267 0 3.64891V23.7213C0 25.4068 1.35444 26.7582 3.03917 26.7582H14.1558V28.2918C12.4666 28.2918 11.0849 30.0045 11.0849 31.2637V32.2954C11.0849 32.6023 11.258 32.7489 11.5339 32.7489H22.2915C22.5636 32.7489 22.7374 32.603 22.7374 32.2954V31.2637C22.7374 30.0045 21.3558 28.2918 19.6711 28.2918V26.7582H28.7992C30.9608 26.7582 30.9608 22.9307 28.7992 22.9307H4.76396C3.55162 22.9307 3.37853 22.1825 3.37853 21.2551V4.83405C3.37853 3.90438 3.45336 3.15687 4.6657 3.15687H29.1597C30.372 3.15687 30.4468 3.90363 30.4468 4.83405V12.9236C30.4468 15.2342 33.8246 15.2342 33.8246 12.9236V3.64891C33.8246 1.96721 32.4702 0.613525 30.7892 0.613525C21.5364 0.613525 12.2867 0.613525 3.03917 0.613525Z" fill="#C3A962"/>
<path d="M42.0273 12.5254C36.6262 12.5254 32.2734 16.7338 32.2734 22.2801C32.2734 27.8278 36.627 32.0317 42.0273 32.0317C47.433 32.0317 51.7828 27.827 51.7828 22.2801C51.7828 16.7338 47.433 12.5254 42.0273 12.5254Z" fill="#C3A962"/>
<path d="M36.0298 33.4919C28.9591 35.1026 25.5549 37.46 24.1725 44.0856C23.7915 45.8731 24.378 46.3961 25.1097 46.644C30.1253 48.3416 38.3804 48.944 42.025 48.944C45.6711 48.944 53.9262 48.3416 58.9441 46.644C59.6727 46.3961 60.2593 45.8731 59.8813 44.0856C58.4997 37.46 55.0947 35.1026 48.024 33.4919L42.6667 34.7202C42.1664 34.8381 41.8875 34.8381 41.3841 34.7202L36.0298 33.4919Z" fill="#C3A962"/>
<path fill-rule="evenodd" clip-rule="evenodd" d="M22.891 10.3835V16.415L17.6236 19.4307V13.403L22.891 10.3835ZM16.9101 6.13804L22.1654 9.15227L16.9101 12.1635L11.6519 9.15227L16.9101 6.13804ZM16.4665 4.74279L9.86057 8.53098C9.62475 8.66401 9.48644 8.91948 9.50306 9.18779V16.4082L6.97181 17.8594C6.18424 18.3476 6.86977 19.5365 7.68455 19.1012L10.2158 17.6515L16.5579 21.2863C16.7786 21.4163 17.05 21.4163 17.2707 21.2863L23.6082 17.6515L26.144 19.1012C26.9664 19.5781 27.6829 18.3363 26.8568 17.8594L24.3248 16.4082V9.18779C24.3369 8.91948 24.1985 8.66401 23.9658 8.53098L17.3523 4.73977C16.9827 4.52738 16.7537 4.57727 16.4665 4.74279Z" fill="#C3A962"/>
</svg>
