<svg width="53" height="38" viewBox="0 0 53 38" fill="none" xmlns="http://www.w3.org/2000/svg">
<path d="M17.4277 16.3395H4.26061L2.19305 0.996036C2.08423 0.343122 1.54013 -0.0921541 0.996037 0.016665C0.343122 0.125484 -0.0921541 0.66958 0.016665 1.21368L2.19305 17.4277V32.6624V35.927C2.19305 36.5799 2.73714 37.0152 3.28124 37.0152C3.82533 37.0152 4.36943 36.5799 4.36943 35.927V33.7506H16.3395V35.927C16.3395 36.5799 16.8836 37.0152 17.4277 37.0152C17.9718 37.0152 18.5159 36.5799 18.5159 35.927V32.6624V17.4277C18.5159 16.7748 17.9718 16.3395 17.4277 16.3395Z" fill="#C3A962"/>
<path d="M51.2718 0.016665C50.7277 -0.0921541 50.1836 0.343122 50.0748 0.996036L48.0073 16.3395H34.8401C34.296 16.3395 33.752 16.7748 33.752 17.4277V32.6624V35.927C33.752 36.5799 34.296 37.0152 34.8401 37.0152C35.3842 37.0152 35.9283 36.5799 35.9283 35.927V33.7506H47.8984V35.927C47.8984 36.5799 48.4425 37.0152 48.9866 37.0152C49.5307 37.0152 50.0748 36.5799 50.0748 35.927V32.6624V17.5365L52.2512 1.32249C52.36 0.669579 51.9247 0.125484 51.2718 0.016665Z" fill="#C3A962"/>
<path d="M30.4862 34.839H27.2216V6.54601H41.3681C42.021 6.54601 42.4563 6.11073 42.4563 5.45782C42.4563 4.80491 42.021 4.36963 41.3681 4.36963H10.8987C10.2458 4.36963 9.81055 4.80491 9.81055 5.45782C9.81055 6.11073 10.2458 6.54601 10.8987 6.54601H25.0452V34.839H21.7806C21.1277 34.839 20.6925 35.2742 20.6925 35.9272C20.6925 36.5801 21.1277 37.0154 21.7806 37.0154H30.4862C31.1391 37.0154 31.5744 36.5801 31.5744 35.9272C31.5744 35.2742 31.1391 34.839 30.4862 34.839Z" fill="#C3A962"/>
</svg>
