<svg width="63" height="45" viewBox="0 0 63 45" fill="none" xmlns="http://www.w3.org/2000/svg">
<path fill-rule="evenodd" clip-rule="evenodd" d="M28.4969 36H1.5C1.1025 36 0.719998 36.1575 0.439498 36.4395C0.157499 36.72 0 37.1025 0 37.5V43.5C0 43.8975 0.157499 44.28 0.439498 44.5605C0.719998 44.8425 1.1025 45 1.5 45H31.5C31.8974 45 32.2799 44.8425 32.5604 44.5605C32.8424 44.28 32.9999 43.8975 32.9999 43.5V42.5655C31.0815 40.7235 29.5379 38.493 28.4969 36Z" fill="#C3A962"/>
<path fill-rule="evenodd" clip-rule="evenodd" d="M27.5234 23.9995H1.5C1.1025 23.9995 0.719998 24.157 0.439498 24.439C0.157499 24.7195 0 25.102 0 25.4995V31.4995C0 31.897 0.157499 32.2795 0.439498 32.56C0.719998 32.842 1.1025 32.9995 1.5 32.9995H27.5234C27.1814 31.555 27 30.0475 27 28.4995C27 26.9515 27.1814 25.444 27.5234 23.9995Z" fill="#C3A962"/>
<path fill-rule="evenodd" clip-rule="evenodd" d="M32.9999 14.4345V13.5C32.9999 13.1025 32.8424 12.72 32.5604 12.4395C32.2799 12.1575 31.8974 12 31.5 12H1.5C1.1025 12 0.719998 12.1575 0.439498 12.4395C0.157499 12.72 0 13.1025 0 13.5V19.5C0 19.8975 0.157499 20.28 0.439498 20.5605C0.719998 20.8425 1.1025 21 1.5 21H28.4969C29.5379 18.507 31.08 16.2765 32.9999 14.4345Z" fill="#C3A962"/>
<path fill-rule="evenodd" clip-rule="evenodd" d="M32.9999 1.5V7.49999C32.9999 7.89749 32.8424 8.27999 32.5604 8.56049C32.2799 8.84249 31.8974 8.99998 31.5 8.99998H1.5C1.1025 8.99998 0.719998 8.84249 0.439498 8.56049C0.157499 8.27999 0 7.89749 0 7.49999V1.5C0 1.1025 0.157499 0.719998 0.439498 0.439498C0.719998 0.157499 1.1025 0 1.5 0H31.5C31.8974 0 32.2799 0.157499 32.5604 0.439498C32.8424 0.719998 32.9999 1.1025 32.9999 1.5Z" fill="#C3A962"/>
<path fill-rule="evenodd" clip-rule="evenodd" d="M46.5 12C55.6065 12 62.9999 19.3935 62.9999 28.5C62.9999 37.6065 55.6065 44.9999 46.5 44.9999C37.3935 44.9999 30 37.6065 30 28.5C30 19.3935 37.3935 12 46.5 12ZM45 18C41.6865 18 39 20.6865 39 24C39 27.3135 41.6865 30 45 30H48C49.6575 30 51 31.3425 51 33C51 34.6575 49.6575 36 48 36H45C43.3425 36 42 34.6575 42 33C42 32.172 41.328 31.5 40.5 31.5C39.672 31.5 39 32.172 39 33C39 36.3135 41.6865 39 45 39V40.5C45 41.328 45.672 42 46.5 42C47.328 42 48 41.328 48 40.5V39C51.3135 39 54 36.3135 54 33C54 29.6865 51.3135 27 48 27H45C43.3425 27 42 25.6575 42 24C42 22.3425 43.3425 21 45 21H48C49.6575 21 51 22.3425 51 24C51 24.828 51.672 25.5 52.5 25.5C53.328 25.5 54 24.828 54 24C54 20.6865 51.3135 18 48 18V16.5C48 15.672 47.328 15 46.5 15C45.672 15 45 15.672 45 16.5V18Z" fill="#C3A962"/>
</svg>
