<svg width="68" height="42" viewBox="0 0 68 42" fill="none" xmlns="http://www.w3.org/2000/svg">
<path d="M65.1385 8.68701H10.9131C9.68635 8.68701 8.68652 9.68683 8.68652 10.9065V39.214C8.68652 40.4408 9.68635 41.4406 10.9131 41.4406H65.1385C66.3653 41.4406 67.3651 40.4408 67.3651 39.214V10.9065C67.3651 9.68683 66.3653 8.68701 65.1385 8.68701ZM62.9119 30.6338C62.9119 31.2649 62.3872 31.7897 61.749 31.7897C59.5224 31.7897 57.7071 33.5979 57.7071 35.8245C57.7071 36.4698 57.1894 36.9874 56.5512 36.9874H19.5004C18.8551 36.9874 18.3375 36.4698 18.3375 35.8245C18.3375 33.5979 16.5221 31.7897 14.3026 31.7897C13.6574 31.7897 13.1397 31.2649 13.1397 30.6338V19.4938C13.1397 18.8556 13.6574 18.3379 14.3026 18.3379C16.5221 18.3379 18.3375 16.5226 18.3375 14.3031C18.3375 13.6578 18.8551 13.1402 19.5004 13.1402H56.5512C57.1894 13.1402 57.7071 13.6578 57.7071 14.3031C57.7071 16.5226 59.5224 18.3379 61.749 18.3379C62.3872 18.3379 62.9119 18.8556 62.9119 19.4938V30.6338Z" fill="#C3A962"/>
<path d="M58.6774 6.36458V2.22978C58.6774 0.998601 57.6785 -0.000244141 56.4551 -0.000244141H2.23002C0.998893 -0.000244141 0 0.998601 0 2.22978V30.5309C0 31.7543 0.998893 32.7531 2.23002 32.7531H6.36487V10.9098C6.36487 8.40102 8.40131 6.36458 10.9101 6.36458H58.6774Z" fill="#C3A962"/>
<path d="M55.4959 15.4658H20.5582C20.076 18.0398 18.0409 20.075 15.4668 20.5501V29.5699C18.0409 30.0521 20.076 32.0872 20.5582 34.6684H55.4959C55.9781 32.0872 58.0132 30.0521 60.5944 29.5699V20.5501C58.0132 20.075 55.9781 18.0398 55.4959 15.4658ZM38.0306 30.4067C35.0807 30.4067 32.6839 28.0099 32.6839 25.0671C32.6839 22.1172 35.0807 19.7205 38.0306 19.7205C40.9734 19.7205 43.3701 22.1172 43.3701 25.0671C43.3701 28.0099 40.9734 30.4067 38.0306 30.4067Z" fill="#C3A962"/>
</svg>
