<svg width="72" height="50" viewBox="0 0 72 50" fill="none" xmlns="http://www.w3.org/2000/svg">
<path d="M70.0231 45.703H64.6367V36.1441C67.4437 35.3854 69.6438 31.7439 69.6438 27.3438C69.6438 22.4126 66.9126 18.3917 63.5746 18.3917C60.2366 18.3917 57.5054 22.4126 57.5054 27.3438C57.5054 31.7439 59.6296 35.3854 62.5125 36.1441V45.703H53.0294V2.83948C53.0294 1.62564 52.0432 0.639404 50.8293 0.639404H21.2421C20.0283 0.639404 19.042 1.62564 19.042 2.83948V45.703H9.63481V36.1441C12.4418 35.3854 14.6419 31.7439 14.6419 27.3438C14.6419 22.4126 11.9108 18.3917 8.57271 18.3917C5.23466 18.3917 2.50353 22.4126 2.50353 27.3438C2.50353 31.7439 4.62774 35.3854 7.5106 36.1441V45.703H2.04835C0.910376 45.703 0 46.6134 0 47.7514C0 48.8893 0.910376 49.7997 2.04835 49.7997H69.9472C71.0852 49.7997 71.9956 48.8893 71.9956 47.7514C72.0714 46.6134 71.1611 45.703 70.0231 45.703ZM43.0153 6.25339C43.0153 5.94993 43.2429 5.72234 43.5463 5.72234H47.4154C47.7189 5.72234 47.9465 5.94993 47.9465 6.25339V9.97076C47.9465 10.2742 47.7189 10.5018 47.4154 10.5018H43.5463C43.2429 10.5018 43.0153 10.2742 43.0153 9.97076V6.25339ZM43.0153 16.0399C43.0153 15.7365 43.2429 15.5089 43.5463 15.5089H47.4154C47.7189 15.5089 47.9465 15.7365 47.9465 16.0399V19.7573C47.9465 20.0608 47.7189 20.2884 47.4154 20.2884H43.5463C43.2429 20.2884 43.0153 20.0608 43.0153 19.7573V16.0399ZM33.5322 6.25339C33.5322 5.94993 33.7598 5.72234 34.0632 5.72234H37.9323C38.2358 5.72234 38.4634 5.94993 38.4634 6.25339V9.97076C38.4634 10.2742 38.2358 10.5018 37.9323 10.5018H34.0632C33.7598 10.5018 33.5322 10.2742 33.5322 9.97076V6.25339ZM33.5322 16.0399C33.5322 15.7365 33.7598 15.5089 34.0632 15.5089H37.9323C38.2358 15.5089 38.4634 15.7365 38.4634 16.0399V19.7573C38.4634 20.0608 38.2358 20.2884 37.9323 20.2884H34.0632C33.7598 20.2884 33.5322 20.0608 33.5322 19.7573V16.0399ZM33.5322 25.9023C33.5322 25.5989 33.7598 25.3713 34.0632 25.3713H37.9323C38.2358 25.3713 38.4634 25.5989 38.4634 25.9023V29.6197C38.4634 29.9232 38.2358 30.1508 37.9323 30.1508H34.0632C33.7598 30.1508 33.5322 29.9232 33.5322 29.6197V25.9023ZM24.0491 6.25339C24.0491 5.94993 24.2767 5.72234 24.5802 5.72234H28.4493C28.7527 5.72234 28.9803 5.94993 28.9803 6.25339V9.97076C28.9803 10.2742 28.7527 10.5018 28.4493 10.5018H24.656C24.3526 10.5018 24.125 10.2742 24.125 9.97076V6.25339H24.0491ZM24.0491 16.0399C24.0491 15.7365 24.2767 15.5089 24.5802 15.5089H28.4493C28.7527 15.5089 28.9803 15.7365 28.9803 16.0399V19.7573C28.9803 20.0608 28.7527 20.2884 28.4493 20.2884H24.656C24.3526 20.2884 24.125 20.0608 24.125 19.7573V16.0399H24.0491ZM28.5251 30.1508H24.656C24.3526 30.1508 24.125 29.9232 24.125 29.6197V25.9023C24.125 25.5989 24.3526 25.3713 24.656 25.3713H28.5251C28.8286 25.3713 29.0562 25.5989 29.0562 25.9023V29.6197C29.0562 29.9232 28.8286 30.1508 28.5251 30.1508ZM35.3529 44.2616C35.3529 44.565 35.1253 44.7926 34.8219 44.7926H29.6631C29.3596 44.7926 29.132 44.565 29.132 44.2616V35.6889C29.132 35.3854 29.3596 35.1578 29.6631 35.1578H34.8219C35.1253 35.1578 35.3529 35.3854 35.3529 35.6889V44.2616ZM43.0153 44.2616C43.0153 44.565 42.7877 44.7926 42.4842 44.7926H37.3254C37.022 44.7926 36.7944 44.565 36.7944 44.2616V35.6889C36.7944 35.3854 37.022 35.1578 37.3254 35.1578H42.4842C42.7877 35.1578 43.0153 35.3854 43.0153 35.6889V44.2616ZM43.5463 30.1508C43.2429 30.1508 43.0153 29.9232 43.0153 29.6197V25.9023C43.0153 25.5989 43.2429 25.3713 43.5463 25.3713H47.4154C47.7189 25.3713 47.9465 25.5989 47.9465 25.9023V29.6197C47.9465 29.9232 47.7189 30.1508 47.4154 30.1508H43.5463Z" fill="#C3A962"/>
</svg>
