<svg width="60" height="54" viewBox="0 0 60 54" fill="none" xmlns="http://www.w3.org/2000/svg">
<path d="M1.56429 31.771L0.00971607 16.5376C-0.0550578 15.8185 0.204038 15.0339 0.787002 14.5762C1.49951 13.9878 2.60067 13.7917 3.44273 14.707C4.02569 15.3608 4.28479 17.4529 4.41434 18.0414C4.73821 20.0681 5.06208 22.8794 5.12685 24.9062C5.12685 25.0369 5.12685 25.2331 5.12685 25.3638C5.19162 26.2138 5.38594 27.0637 5.77459 27.8483C7.78258 32.2941 11.8633 37.8513 11.8633 37.8513L12.0576 38.1782C12.252 38.4397 12.5758 38.5051 12.8349 38.3743C13.1588 38.2436 13.2236 37.8513 13.0293 37.5244L7.65303 28.6982C7.07006 27.7175 7.39393 26.3445 8.43031 25.6907C9.46669 25.0369 10.8269 25.3638 11.4099 26.3445L16.9805 33.6016C17.3691 34.0593 18.0168 34.7785 18.535 35.1054C23.5226 38.7666 24.1704 42.4279 24.6238 44.3239C24.6238 44.3239 24.6885 44.7161 24.6885 45.3699C24.6885 45.893 24.6885 46.4814 24.6238 47.1352L24.2999 53.2154C24.2999 53.6731 23.9113 54 23.5226 54L14.1304 53.9346C13.677 53.9346 13.3531 53.5423 13.3531 53.1501L13.1588 48.1159L4.15524 37.2629C2.85976 35.8245 1.95293 34.2554 1.62906 32.3594L1.56429 31.771ZM6.74619 23.8601C6.74619 24.0563 6.74619 24.187 6.74619 24.3832C6.94052 24.187 7.13484 24.0563 7.32916 23.9255C7.58825 23.7294 7.91212 23.5986 8.17122 23.5332C8.17122 23.5332 8.17122 23.4678 8.23599 23.4678C8.04167 21.8987 7.45871 18.8913 7.07006 17.3876C6.87574 16.603 6.42232 16.08 5.64504 15.8185C5.83936 16.3415 5.90413 16.8645 5.96891 17.3876C6.29278 19.0874 6.68142 22.2256 6.74619 23.8601ZM9.79056 23.0756C9.79056 23.1409 9.79056 23.2063 9.79056 23.2717C10.244 23.2717 10.6974 23.4025 11.1508 23.5332C11.0213 22.4872 10.3088 20.4604 10.0497 19.5451C9.85534 18.7605 9.40192 18.2375 8.62463 17.976C8.88373 19.1528 9.53147 21.2449 9.66102 22.3564L9.79056 23.0756ZM41.465 35.1054C36.4774 38.7666 35.8296 42.4279 35.3762 44.3239C35.3762 44.3239 35.3115 44.7161 35.3115 45.3699C35.3115 45.893 35.3115 46.4814 35.3762 47.1352L35.7001 53.2154C35.7001 53.6731 36.0887 54 36.4774 54L45.8696 53.9346C46.323 53.9346 46.6469 53.5423 46.6469 53.1501L46.8412 48.1159L55.78 37.2629C57.0755 35.8245 57.9823 34.2554 58.3062 32.3594L58.3709 31.771L59.9903 16.5376C60.0551 15.8185 59.796 15.0339 59.213 14.5109C58.5005 13.9225 57.3993 13.7263 56.5573 14.6416C55.9743 15.2954 55.7152 17.3876 55.5857 17.976C55.2618 20.0027 54.9379 22.814 54.8731 24.8408C54.8731 24.9716 54.8731 25.1677 54.8731 25.2985C54.8084 26.1484 54.6141 26.9983 54.2254 27.7829C52.2174 32.2287 48.1367 37.7859 48.1367 37.7859L47.9423 38.1128C47.748 38.3743 47.4242 38.4397 47.1651 38.309C46.8412 38.1782 46.7764 37.7859 46.9707 37.459L52.347 28.6328C52.9299 27.6521 52.6061 26.2792 51.5697 25.6254C50.5333 24.9716 49.173 25.2985 48.5901 26.2792L43.0195 33.5363C42.6309 34.0593 41.9832 34.7785 41.465 35.1054ZM52.6708 23.9255C52.8652 24.0563 53.0595 24.187 53.2538 24.3832C53.2538 24.187 53.2538 24.0563 53.2538 23.8601C53.2538 22.2256 53.7072 19.0874 53.9663 17.3876C54.0311 16.8645 54.1606 16.3415 54.2902 15.8185C53.5129 16.08 53.0595 16.6684 52.8652 17.3876C52.4765 18.9567 51.8936 21.8987 51.6992 23.4678C51.6992 23.4678 51.6992 23.5332 51.764 23.5332C52.0879 23.5986 52.4117 23.7294 52.6708 23.9255ZM50.2094 23.0756L50.339 22.291C50.4685 21.1796 51.1163 19.0874 51.3754 17.9106C50.5981 18.1721 50.1447 18.7605 49.9503 19.4797C49.6912 20.4604 49.0435 22.4872 48.8492 23.4678C49.3026 23.3371 49.756 23.2063 50.2094 23.2063C50.2094 23.2063 50.2094 23.1409 50.2094 23.0756ZM28.3807 22.0295L30.8421 19.5451L36.4774 13.9225L34.016 11.438L28.3807 17.0607L26.0488 14.6416L23.5874 17.126L25.9192 19.5451L28.3807 22.0295ZM14.0009 16.9953L14.5838 16.3415C15.2316 15.6223 15.2963 14.6416 14.8429 13.7917L14.3895 13.0725C13.7418 11.9611 14.26 10.4574 15.4259 9.99969L16.2032 9.6728C17.0452 9.28052 17.6282 8.43059 17.5634 7.51528L17.4986 6.66535C17.4339 5.35776 18.4703 4.24631 19.7657 4.31169L20.6078 4.37707C21.5146 4.44245 22.4215 3.85404 22.7453 3.0041L23.0692 2.21955C23.5226 0.977345 25.0124 0.45431 26.1136 1.1081L26.8909 1.50038C27.7329 1.95803 28.7045 1.82728 29.417 1.17348L30.0648 0.585069C31.0364 -0.330242 32.5262 -0.134104 33.3035 0.911965L33.8217 1.63114C34.3398 2.41569 35.3115 2.74259 36.2183 2.48107L37.0603 2.21955C38.291 1.82728 39.5865 2.67721 39.8456 3.91942L39.9752 4.76935C40.1047 5.68466 40.882 6.40383 41.7888 6.53459L42.6309 6.66535C43.9264 6.86149 44.7684 8.16907 44.3798 9.41128L44.1207 10.2612C43.8616 11.1765 44.1855 12.1572 44.9628 12.6802L45.6753 13.1379C46.7764 13.8571 46.906 15.4262 46.0639 16.4069L45.4809 17.0607C44.8332 17.7798 44.7684 18.7605 45.2219 19.6105L45.6753 20.3296C46.323 21.4411 45.8048 22.9448 44.6389 23.4025L43.8616 23.7294C43.0195 24.1216 42.4366 24.9716 42.5014 25.8869L42.5661 26.7368C42.6309 28.0444 41.5945 29.1558 40.299 29.0905L39.457 29.0251C38.5501 28.9597 37.6433 29.5481 37.3194 30.3981L36.9956 31.1826C36.5422 32.4248 35.0524 32.9478 33.9512 32.2941L33.1739 31.9018C32.3319 31.4441 31.3602 31.5749 30.6477 32.2287L30 32.8171C29.0284 33.7324 27.5386 33.5363 26.7613 32.4902L26.2431 31.771C25.7249 30.9865 24.7533 30.6596 23.8465 30.9211L23.0044 31.1826C21.7737 31.5749 20.4782 30.7249 20.2192 29.4827L20.0896 28.6328C19.9601 27.7175 19.1828 26.9983 18.2759 26.8676L17.4339 26.7368C16.1384 26.5407 15.2963 25.2331 15.685 23.9909L15.9441 23.1409C16.2032 22.2256 15.8793 21.2449 15.102 20.7219L14.3895 20.2643C13.3531 19.4797 13.1588 17.976 14.0009 16.9953ZM19.701 16.7338C19.701 22.4872 24.2999 27.1291 30 27.1291C35.7001 27.1291 40.299 22.4872 40.299 16.7338C40.299 10.9804 35.7001 6.33845 30 6.33845C24.2999 6.33845 19.701 10.9804 19.701 16.7338Z" fill="#C3A962"/>
</svg>
