<svg width="28" height="56" viewBox="0 0 28 56" fill="none" xmlns="http://www.w3.org/2000/svg">
<path d="M26.6626 5.04637H15.0013V3.2126C15.0013 1.43482 13.5507 0 11.7534 0C9.95603 0 8.50543 1.44182 8.50543 3.2126V33.1968C3.60172 34.5967 0 39.0691 0 44.3675C0 50.7787 5.27167 56 11.7604 56C18.2421 56 23.5138 50.7856 23.5138 44.3675C23.5138 39.0691 19.9121 34.5967 15.0083 33.1968V19.5836H21.9146C22.6505 19.5836 23.252 18.9956 23.252 18.2607V14.7052C23.252 13.9773 22.6576 13.3823 21.9146 13.3823H15.0083V11.2476H26.6626C27.3985 11.2476 28 10.6597 28 9.92476V6.3692C28 5.64129 27.3985 5.04637 26.6626 5.04637ZM17.0109 44.3605C17.0109 47.2301 14.6545 49.5608 11.7534 49.5608C8.85216 49.5608 6.49583 47.2301 6.49583 44.3605C6.49583 41.4908 8.85216 39.1601 11.7534 39.1601C14.6545 39.1601 17.0109 41.4978 17.0109 44.3605Z" fill="#C3A962"/>
</svg>
