<svg width="45" height="59" viewBox="0 0 45 59" fill="none" xmlns="http://www.w3.org/2000/svg">
<path d="M35.629 20.1343V15.1313H36.8845V13.2546H35.629H9.35702H8.10156V15.1313H9.35702V20.1343H35.629Z" fill="#C3A962"/>
<path d="M38.7574 22.0107H6.22944V57.0415H2.47559V58.9181H6.22944H18.7396V44.5314H26.8716V58.9181H38.7574H42.5107V57.0415H38.7574V22.0107ZM16.2374 52.0378H14.3608V47.3482C14.3608 46.8296 13.9392 46.408 13.4213 46.408H12.7988C12.2809 46.408 11.8587 46.8296 11.8587 47.3482V52.0378H9.98205V47.3482C9.98205 45.7956 11.2463 44.5314 12.7988 44.5314H13.4213C14.9738 44.5314 16.2374 45.7956 16.2374 47.3482V52.0378ZM16.2374 41.4037H14.3608V36.714C14.3608 36.1955 13.9392 35.7738 13.4213 35.7738H12.7988C12.2809 35.7738 11.8587 36.1955 11.8587 36.714V41.4037H9.98205V36.714C9.98205 35.1614 11.2463 33.8972 12.7988 33.8972H13.4213C14.9738 33.8972 16.2374 35.1614 16.2374 36.714V41.4037ZM16.2374 31.3951H14.3608V26.7054C14.3608 26.1868 13.9392 25.7652 13.4213 25.7652H12.7988C12.2809 25.7652 11.8587 26.1868 11.8587 26.7054V31.3951H9.98205V26.7054C9.98205 25.1528 11.2463 23.8886 12.7988 23.8886H13.4213C14.9738 23.8886 16.2374 25.1528 16.2374 26.7054V31.3951ZM25.6211 41.4037H23.7445V36.714C23.7445 36.1955 23.3223 35.7738 22.8043 35.7738H22.1819C21.664 35.7738 21.2417 36.1955 21.2417 36.714V41.4037H19.3651V36.714C19.3651 35.1614 20.6293 33.8972 22.1819 33.8972H22.8043C24.3569 33.8972 25.6211 35.1614 25.6211 36.714V41.4037ZM25.6211 31.3951H23.7445V26.7054C23.7445 26.1868 23.3223 25.7652 22.8043 25.7652H22.1819C21.664 25.7652 21.2417 26.1868 21.2417 26.7054V31.3951H19.3651V26.7054C19.3651 25.1528 20.6293 23.8886 22.1819 23.8886H22.8043C24.3569 23.8886 25.6211 25.1528 25.6211 26.7054V31.3951ZM28.7482 26.7054C28.7482 25.1528 30.0124 23.8886 31.565 23.8886H32.1874C33.74 23.8886 35.0036 25.1528 35.0036 26.7054V31.3951H33.127V26.7054C33.127 26.1868 32.7054 25.7652 32.1874 25.7652H31.565C31.0464 25.7652 30.6248 26.1868 30.6248 26.7054V31.3951H28.7482V26.7054ZM35.0042 52.0378H33.1276V47.3482C33.1276 46.8296 32.7054 46.408 32.1874 46.408H31.565C31.047 46.408 30.6248 46.8296 30.6248 47.3482V52.0378H28.7482V47.3482C28.7482 45.7956 30.0124 44.5314 31.565 44.5314H32.1874C33.74 44.5314 35.0042 45.7956 35.0042 47.3482V52.0378ZM35.0042 41.4037H33.1276V36.714C33.1276 36.1955 32.7054 35.7738 32.1874 35.7738H31.565C31.047 35.7738 30.6248 36.1955 30.6248 36.714V41.4037H28.7482V36.714C28.7482 35.1614 30.0124 33.8972 31.565 33.8972H32.1874C33.74 33.8972 35.0042 35.1614 35.0042 36.714V41.4037Z" fill="#C3A962"/>
<path d="M4.63399 14.7266L7.49895 15.9501L7.22122 12.8481L9.2686 10.5017L6.23286 9.80609L4.63399 7.13379L3.03574 9.80609L0 10.5017L2.04739 12.8481L1.76965 15.9501L4.63399 14.7266Z" fill="#C3A962"/>
<path d="M10.0628 10.7502L12.9284 9.52348L14.3496 10.1315L15.7902 10.7083L15.5138 7.64499L17.5661 5.29859L14.5267 4.60612L12.9284 1.92944L11.3308 4.60612L8.29004 5.29859L10.3431 7.64499L10.0628 10.7502Z" fill="#C3A962"/>
<path d="M19.691 8.99529L22.5579 7.76548L25.4253 8.99529L25.142 5.88762L27.1994 3.54122L24.1549 2.85063L22.5579 0.168945L20.9609 2.85063L17.917 3.5406L19.9744 5.88824L19.691 8.99529Z" fill="#C3A962"/>
<path d="M29.2851 10.9326L32.1551 9.6959L35.0238 10.932L34.7373 7.81991L36.7978 5.47289L33.7508 4.78418L32.1545 2.09937L30.5593 4.78418L27.5117 5.47289L29.5729 7.81991L29.2851 10.9326Z" fill="#C3A962"/>
<path d="M45 10.8211L41.948 10.1355L40.3535 7.44507L38.7578 10.1355L35.707 10.8211L37.7719 13.1687L37.4817 16.2827L40.3535 15.0441L43.2248 16.2827L42.9339 13.1687L45 10.8211Z" fill="#C3A962"/>
</svg>
